<?xml version="1.0" encoding="utf-8"?>
<!-- Generator: Adobe Illustrator 23.0.2, SVG Export Plug-In . SVG Version: 6.00 Build 0)  -->
<svg version="1.1" id="Layer_1" xmlns="http://www.w3.org/2000/svg" xmlns:xlink="http://www.w3.org/1999/xlink" x="0px" y="0px"
	 viewBox="0 0 2553.7 220.2" style="enable-background:new 0 0 2553.7 220.2;" xml:space="preserve">
<style type="text/css">
	.st0{fill-rule:evenodd;clip-rule:evenodd;fill:#FFFFFF;}
	.st1{fill-rule:evenodd;clip-rule:evenodd;fill-opacity:0;}
	.st2{fill:none;stroke:#8E7CC3;stroke-width:3;stroke-linejoin:round;stroke-miterlimit:10;}
	.st3{fill:#8E7CC3;}
	.st4{opacity:0.5;fill-rule:evenodd;clip-rule:evenodd;fill:#8E7CC3;}
	.st5{fill:#FFFFFF;}
	.st6{fill-rule:evenodd;clip-rule:evenodd;fill:#8E7CC3;}
</style>
<rect class="st0" width="2553.7" height="220.2"/>
<path class="st1" d="M-397.3,72.1L-397.3,72.1c0-11.4,9.2-20.7,20.7-20.7h229.3c5.5,0,10.7,2.2,14.6,6.1s6.1,9.1,6.1,14.6v82.6
	c0,11.4-9.2,20.7-20.7,20.7h-229.3l0,0c-11.4,0-20.7-9.2-20.7-20.7V72.1z"/>
<path class="st2" d="M40.8,72.1L40.8,72.1c0-11.4,9.2-20.7,20.7-20.7h229.3c5.5,0,10.7,2.2,14.6,6.1s6.1,9.1,6.1,14.6v82.6
	c0,11.4-9.2,20.7-20.7,20.7H61.5l0,0c-11.4,0-20.7-9.2-20.7-20.7L40.8,72.1z"/>
<path class="st3" d="M144,119.3h-2.6v-10.7h4.8c1.3,0,2.3,0.3,3,0.9s1,1.4,1,2.6s-0.4,2.1-1.1,2.8c-0.7,0.6-1.7,1-3,1h-2.2v3.4H144z
	 M145.9,113.8c0.5,0,0.9-0.1,1.2-0.4c0.2-0.3,0.4-0.6,0.4-1.1c0-1.1-0.5-1.6-1.5-1.6h-1.9v3.2L145.9,113.8L145.9,113.8z
	 M158.3,119.3l-2.1-3.7h-1.6v3.7H152v-10.7h5.2c1.2,0,2.2,0.3,2.8,0.9c0.7,0.6,1,1.4,1,2.5c0,0.7-0.2,1.3-0.6,1.9
	c-0.4,0.6-0.9,1-1.6,1.2l2.7,4.2H158.3z M156.8,113.7c1,0,1.5-0.5,1.5-1.6c0-0.5-0.1-0.9-0.4-1.1c-0.2-0.3-0.6-0.4-1-0.4h-2.3v3.1
	H156.8z M168.1,119.5c-1.6,0-2.9-0.5-3.8-1.4c-0.9-0.9-1.4-2.3-1.4-4.2c0-1.8,0.4-3.2,1.3-4.1c0.9-0.9,2.2-1.4,3.9-1.4
	c1.6,0,2.9,0.5,3.8,1.4c0.9,0.9,1.4,2.3,1.4,4.1c0,1.8-0.5,3.2-1.4,4.1C171.1,119.1,169.8,119.5,168.1,119.5z M168.1,117.4
	c0.8,0,1.5-0.3,1.9-0.8s0.6-1.4,0.6-2.6s-0.2-2.1-0.6-2.6c-0.4-0.5-1.1-0.8-1.9-0.8c-0.8,0-1.5,0.3-1.9,0.8s-0.6,1.4-0.6,2.7
	c0,1.2,0.2,2.1,0.6,2.6C166.6,117.2,167.3,117.4,168.1,117.4z M179.9,119.5c-3.5,0-5.3-1.8-5.2-5.5c0-3.7,1.7-5.6,5.2-5.6
	c1.1,0,2.2,0.3,3.4,0.8v2.2c-1-0.7-2-1-3-1s-1.7,0.3-2.2,0.8s-0.7,1.5-0.7,2.7c0,1.3,0.2,2.2,0.7,2.7s1.3,0.8,2.3,0.8
	c0.4,0,0.9-0.1,1.4-0.2c0.5-0.2,1-0.4,1.5-0.8v2.2c-0.4,0.2-1,0.4-1.6,0.5C181,119.5,180.4,119.5,179.9,119.5z M185.2,108.6h7.3v2
	h-4.7v2.3h4.1v2h-4.1v2.3h4.7v2h-7.3V108.6z M198.3,119.5c-0.8,0-1.5-0.1-2.1-0.2s-1.2-0.3-1.7-0.6v-2.5c0.5,0.4,1,0.7,1.6,0.9
	c0.6,0.2,1.2,0.3,1.8,0.3c1,0,1.5-0.4,1.5-1.1c0-0.3-0.2-0.6-0.5-0.8c-0.3-0.2-0.8-0.4-1.5-0.6c-0.3-0.1-0.5-0.2-0.6-0.2
	c-0.8-0.2-1.4-0.6-1.8-1c-0.4-0.4-0.7-1.1-0.7-2c0-0.6,0.1-1.2,0.4-1.7c0.3-0.5,0.8-0.9,1.4-1.2c0.6-0.3,1.4-0.5,2.3-0.5
	c0.6,0,1.2,0.1,1.6,0.2c0.5,0.1,0.9,0.3,1.5,0.5v2.5c-0.4-0.3-0.9-0.6-1.4-0.8c-0.5-0.2-1-0.3-1.6-0.3c-0.5,0-0.8,0.1-1.1,0.3
	c-0.3,0.2-0.4,0.4-0.4,0.8c0,0.3,0.1,0.5,0.2,0.7c0.2,0.2,0.4,0.3,0.6,0.4s0.7,0.2,1.2,0.4c0.7,0.2,1.2,0.4,1.6,0.7
	c0.4,0.2,0.8,0.5,1,0.9c0.3,0.4,0.4,0.9,0.4,1.5c0,0.7-0.2,1.2-0.5,1.8c-0.3,0.5-0.7,0.9-1.3,1.2
	C199.8,119.4,199.1,119.5,198.3,119.5z M207.5,119.5c-0.8,0-1.5-0.1-2.1-0.2s-1.2-0.3-1.7-0.6v-2.5c0.5,0.4,1,0.7,1.6,0.9
	c0.6,0.2,1.2,0.3,1.8,0.3c1,0,1.5-0.4,1.5-1.1c0-0.3-0.2-0.6-0.5-0.8c-0.3-0.2-0.8-0.4-1.5-0.6c-0.3-0.1-0.5-0.2-0.6-0.2
	c-0.8-0.2-1.4-0.6-1.8-1c-0.4-0.4-0.7-1.1-0.7-2c0-0.6,0.1-1.2,0.4-1.7c0.3-0.5,0.8-0.9,1.4-1.2c0.6-0.3,1.4-0.5,2.3-0.5
	c0.6,0,1.2,0.1,1.6,0.2c0.5,0.1,0.9,0.3,1.5,0.5v2.5c-0.4-0.3-0.9-0.6-1.4-0.8c-0.5-0.2-1-0.3-1.6-0.3c-0.5,0-0.8,0.1-1.1,0.3
	c-0.3,0.2-0.4,0.4-0.4,0.8c0,0.3,0.1,0.5,0.2,0.7c0.2,0.2,0.4,0.3,0.6,0.4s0.7,0.2,1.2,0.4c0.7,0.2,1.2,0.4,1.6,0.7
	c0.4,0.2,0.8,0.5,1,0.9c0.3,0.4,0.4,0.9,0.4,1.5c0,0.7-0.2,1.2-0.5,1.8c-0.3,0.5-0.7,0.9-1.3,1.2C209,119.4,208.3,119.5,207.5,119.5
	z"/>
<path class="st4" d="M336.3,72.1L336.3,72.1c0-11.4,9.2-20.7,20.7-20.7h229.3c5.5,0,10.7,2.2,14.6,6.1s6.1,9.1,6.1,14.6v82.6
	c0,11.4-9.2,20.7-20.7,20.7H357l0,0c-11.4,0-20.7-9.2-20.7-20.7V72.1z"/>
<path class="st5" d="M407.3,101.1h-3v-2h8.6v2h-3v8.7h-2.6V101.1z M414.3,102.6c0.2-0.1,0.4-0.3,0.8-0.5c0.4-0.2,0.9-0.3,1.3-0.5
	c0.5-0.1,1-0.2,1.4-0.2c0.9,0,1.5,0.1,1.8,0.4v1.8c-0.4-0.1-1-0.2-1.8-0.2c-0.5,0-0.9,0-1.2,0.1v6.2h-2.4v-7.1H414.3z M421.2,98.8
	h2.5v1.8h-2.5V98.8z M421.2,101.8h2.4v8h-2.4V101.8z M429.6,101.4c1.3,0,2.3,0.3,3,1s1.1,1.8,1.1,3.4c0,1.3-0.3,2.3-1,3.1
	c-0.6,0.8-1.5,1.1-2.6,1.1c-0.8,0-1.5-0.1-2-0.4v3.1h-2.3v-9.3c0-0.6,0.4-1.1,1.1-1.5C427.6,101.6,428.5,101.5,429.6,101.4z
	 M429.4,108.1c0.7,0,1.1-0.2,1.4-0.5c0.3-0.4,0.5-1,0.5-1.8s-0.1-1.3-0.4-1.7c-0.3-0.4-0.7-0.6-1.4-0.6c-0.9,0-1.4,0.2-1.4,0.5v3.8
	c0.2,0.1,0.4,0.2,0.6,0.2C429,108.1,429.2,108.1,429.4,108.1z M442.5,109.8h-2.6V99.1h4.8c1.3,0,2.3,0.3,3,0.9s1,1.4,1,2.6
	s-0.4,2.1-1.1,2.8c-0.7,0.6-1.7,1-3,1h-2.2L442.5,109.8L442.5,109.8z M444.4,104.3c0.5,0,0.9-0.1,1.2-0.4c0.2-0.3,0.4-0.6,0.4-1.1
	c0-1.1-0.5-1.6-1.5-1.6h-1.9v3.2L444.4,104.3L444.4,104.3z M450.4,109.8V98.7h2.4v11.2L450.4,109.8L450.4,109.8z M458.4,101.5
	c0.9,0,1.7,0.2,2.4,0.6s1.1,1.1,1.1,2.2v3.8c0,0.7-0.3,1.2-1,1.5s-1.6,0.5-2.9,0.5c-2.4,0-3.5-0.9-3.5-2.8c0-0.8,0.2-1.4,0.7-1.8
	s1.2-0.7,2.2-0.7c0.4,0,0.8,0.1,1.2,0.2s0.7,0.2,1,0.4v-0.5c0-0.9-0.6-1.4-1.8-1.4c-0.5,0-0.9,0.1-1.4,0.2c-0.5,0.2-0.9,0.4-1.2,0.6
	v-2.1c0.3-0.2,0.7-0.4,1.3-0.5C457.1,101.5,457.8,101.5,458.4,101.5z M458.1,108.4c0.6,0,0.9,0,1.2-0.1c0.2-0.1,0.3-0.2,0.3-0.5
	v-1.2c-0.4-0.1-0.8-0.2-1.2-0.2c-0.5,0-0.9,0.1-1.2,0.2c-0.2,0.2-0.4,0.4-0.4,0.7c0,0.3,0.1,0.6,0.4,0.8
	C457.5,108.3,457.8,108.4,458.1,108.4z M464.1,102.4c0.4-0.2,1-0.4,1.9-0.6s1.6-0.3,2.3-0.3c1.1,0,2,0.2,2.6,0.7
	c0.6,0.4,0.9,1.2,0.9,2.2v5.4h-2.4v-5c0-0.9-0.5-1.4-1.6-1.4c-0.2,0-0.5,0-0.7,0.1s-0.4,0.1-0.6,0.2v6.1h-2.4V102.4z M473.8,102.4
	c0.4-0.2,1-0.4,1.9-0.6s1.6-0.3,2.3-0.3c1.1,0,2,0.2,2.6,0.7c0.6,0.4,0.9,1.2,0.9,2.2v5.4h-2.4v-5c0-0.9-0.5-1.4-1.6-1.4
	c-0.2,0-0.5,0-0.7,0.1s-0.4,0.1-0.6,0.2v6.1h-2.4V102.4z M483.5,98.8h2.5v1.8h-2.5V98.8z M483.6,101.8h2.4v8h-2.4V101.8z
	 M488.1,102.4c0.4-0.2,1-0.4,1.9-0.6s1.6-0.3,2.3-0.3c1.1,0,2,0.2,2.6,0.7c0.6,0.4,0.9,1.2,0.9,2.2v5.4h-2.4v-5
	c0-0.9-0.5-1.4-1.6-1.4c-0.2,0-0.5,0-0.7,0.1s-0.4,0.1-0.6,0.2v6.1h-2.4V102.4z M501.9,101.5c1,0,1.9,0.2,2.5,0.6s0.9,0.9,0.9,1.6
	v6.2c0,1.1-0.4,2-1.1,2.6c-0.7,0.6-1.7,0.9-3,0.9c-0.7,0-1.3,0-1.8-0.1s-0.9-0.2-1.2-0.4v-2.1c0.3,0.2,0.7,0.3,1.3,0.4
	s1.1,0.2,1.6,0.2c0.7,0,1.2-0.1,1.5-0.4s0.4-0.7,0.4-1.2v-0.5c-0.5,0.5-1.2,0.7-2,0.7c-1.1-0.1-2-0.4-2.6-1.1s-0.9-1.7-0.9-3
	c0-1.7,0.4-2.8,1.2-3.5C499.3,101.8,500.5,101.5,501.9,101.5z M499.8,105.9c0,0.7,0.2,1.3,0.5,1.8c0.3,0.4,0.8,0.6,1.3,0.6
	s1-0.1,1.4-0.4v-3.7c0-0.6-0.4-0.8-1.3-0.8C500.4,103.4,499.8,104.2,499.8,105.9z M515.3,101.5c0.9,0,1.7,0.2,2.4,0.6
	s1.1,1.1,1.1,2.2v3.8c0,0.7-0.3,1.2-1,1.5s-1.6,0.5-2.9,0.5c-2.4,0-3.5-0.9-3.5-2.8c0-0.8,0.2-1.4,0.7-1.8c0.5-0.4,1.2-0.7,2.2-0.7
	c0.4,0,0.8,0.1,1.2,0.2s0.7,0.2,1,0.4v-0.5c0-0.9-0.6-1.4-1.8-1.4c-0.5,0-0.9,0.1-1.4,0.2c-0.5,0.2-0.9,0.4-1.2,0.6v-2.1
	c0.3-0.2,0.7-0.4,1.3-0.5C514,101.5,514.6,101.5,515.3,101.5z M515,108.4c0.6,0,0.9,0,1.2-0.1c0.2-0.1,0.3-0.2,0.3-0.5v-1.2
	c-0.4-0.1-0.8-0.2-1.2-0.2c-0.5,0-0.9,0.1-1.2,0.2c-0.2,0.2-0.4,0.4-0.4,0.7c0,0.3,0.1,0.6,0.4,0.8
	C514.3,108.3,514.6,108.4,515,108.4z M520.9,102.4c0.4-0.2,1-0.4,1.9-0.6s1.6-0.3,2.3-0.3c1.1,0,2,0.2,2.6,0.7
	c0.6,0.4,0.9,1.2,0.9,2.2v5.4h-2.4v-5c0-0.9-0.5-1.4-1.6-1.4c-0.2,0-0.5,0-0.7,0.1s-0.4,0.1-0.6,0.2v6.1h-2.4V102.4z M538.3,98.4
	v9.3c0,0.5-0.2,0.9-0.5,1.3c-0.4,0.4-0.8,0.6-1.4,0.8c-0.6,0.2-1.2,0.3-1.8,0.3c-1.4,0-2.4-0.3-3.2-1s-1.1-1.8-1.1-3.4
	c0-1.3,0.3-2.4,1-3.1c0.7-0.8,1.6-1.1,2.9-1.1c0.8,0,1.4,0.1,1.8,0.4v-3.5L538.3,98.4L538.3,98.4z M535.9,103.7
	c-0.4-0.2-0.8-0.3-1.2-0.3c-0.7,0-1.2,0.2-1.6,0.5c-0.3,0.4-0.5,1-0.5,1.8s0.2,1.3,0.5,1.7c0.3,0.4,0.8,0.6,1.6,0.6
	c0.4,0,0.7-0.1,0.9-0.2s0.4-0.3,0.4-0.5v-3.6H535.9z"/>
<path class="st5" d="M379.5,126.5h-4l-0.8,2.3h-2.5l4-10.7h2.8l3.8,10.7h-2.7L379.5,126.5z M378.8,124.6l-1.4-4l-1.3,4H378.8z
	 M388,129c-0.8,0-1.5-0.2-2.1-0.5s-1.1-0.8-1.5-1.4s-0.6-1.4-0.6-2.3c0-1.4,0.4-2.5,1.1-3.3c0.8-0.7,1.8-1.1,3.1-1.1
	c0.4,0,0.9,0,1.4,0.1s0.9,0.2,1.2,0.4v2c-0.4-0.2-0.8-0.3-1.2-0.4c-0.3-0.1-0.7-0.2-1-0.2c-0.7,0-1.3,0.2-1.7,0.5s-0.6,0.9-0.6,1.6
	c0,0.8,0.2,1.4,0.5,1.8c0.4,0.4,1,0.6,1.8,0.6c0.6,0,1.3-0.2,2.1-0.6v2c-0.4,0.2-0.8,0.4-1.2,0.5C388.9,129,388.5,129,388,129z
	 M396,129c-0.8,0-1.5-0.2-2.1-0.5s-1.1-0.8-1.5-1.4s-0.6-1.4-0.6-2.3c0-1.4,0.4-2.5,1.1-3.3c0.8-0.7,1.8-1.1,3.1-1.1
	c0.4,0,0.9,0,1.4,0.1s0.9,0.2,1.2,0.4v2c-0.4-0.2-0.8-0.3-1.2-0.4c-0.3-0.1-0.7-0.2-1-0.2c-0.7,0-1.3,0.2-1.7,0.5s-0.6,0.9-0.6,1.6
	c0,0.8,0.2,1.4,0.5,1.8c0.4,0.4,1,0.6,1.8,0.6c0.6,0,1.3-0.2,2.1-0.6v2c-0.4,0.2-0.8,0.4-1.2,0.5C397,129,396.5,129,396,129z
	 M403.9,129.1c-1.4,0-2.4-0.4-3.1-1.1c-0.7-0.7-1-1.8-1-3.2c0-1.5,0.3-2.6,1-3.3s1.7-1,3.1-1s2.4,0.4,3.1,1.1c0.7,0.7,1,1.8,1,3.2
	c0,1.4-0.4,2.5-1.1,3.2C406.3,128.7,405.2,129.1,403.9,129.1z M403.9,127.2c0.6,0,1-0.2,1.3-0.6s0.5-1,0.5-1.8
	c0-0.9-0.2-1.5-0.5-1.8c-0.3-0.4-0.7-0.6-1.3-0.6s-1.1,0.2-1.3,0.6c-0.3,0.4-0.4,1-0.4,1.8s0.1,1.4,0.4,1.8
	C402.9,127,403.3,127.2,403.9,127.2z M418.9,120.5c1.1,0,2,0.2,2.5,0.7c0.5,0.4,0.8,1.2,0.8,2.2v5.4h-2.4v-5c0-0.9-0.5-1.4-1.6-1.4
	c-0.4,0-0.8,0.1-1.1,0.3c0,0.3,0,0.5,0,0.6v5.4h-2.4v-5c0-0.9-0.5-1.4-1.6-1.4c-0.4,0-0.8,0.1-1.2,0.3v6.1h-2.4v-7.4
	c0.4-0.2,1-0.4,1.9-0.6s1.6-0.3,2.3-0.3c1.1,0,1.9,0.2,2.4,0.6c0.4-0.2,0.9-0.3,1.3-0.4C418,120.6,418.5,120.5,418.9,120.5z
	 M433.6,120.5c1.1,0,2,0.2,2.5,0.7c0.5,0.4,0.8,1.2,0.8,2.2v5.4h-2.4v-5c0-0.9-0.5-1.4-1.6-1.4c-0.4,0-0.8,0.1-1.1,0.3
	c0,0.3,0,0.5,0,0.6v5.4h-2.4v-5c0-0.9-0.5-1.4-1.6-1.4c-0.4,0-0.8,0.1-1.2,0.3v6.1h-2.4v-7.4c0.4-0.2,1-0.4,1.9-0.6s1.6-0.3,2.3-0.3
	c1.1,0,1.9,0.2,2.4,0.6c0.4-0.2,0.9-0.3,1.3-0.4C432.7,120.6,433.1,120.5,433.6,120.5z M442.7,129.1c-1.4,0-2.4-0.4-3.1-1.1
	c-0.7-0.7-1-1.8-1-3.2c0-1.5,0.3-2.6,1-3.3c0.7-0.7,1.7-1,3.1-1c1.4,0,2.4,0.4,3.1,1.1c0.7,0.7,1,1.8,1,3.2c0,1.4-0.4,2.5-1.1,3.2
	C445,128.7,444,129.1,442.7,129.1z M442.7,127.2c0.6,0,1-0.2,1.3-0.6s0.5-1,0.5-1.8c0-0.9-0.2-1.5-0.5-1.8c-0.3-0.4-0.7-0.6-1.3-0.6
	s-1.1,0.2-1.3,0.6c-0.3,0.4-0.4,1-0.4,1.8s0.1,1.4,0.4,1.8C441.6,127,442.1,127.2,442.7,127.2z M456.1,117.4v9.3
	c0,0.5-0.2,0.9-0.5,1.3c-0.4,0.4-0.8,0.6-1.4,0.8c-0.6,0.2-1.2,0.3-1.8,0.3c-1.4,0-2.4-0.3-3.2-1s-1.1-1.8-1.1-3.4
	c0-1.3,0.3-2.4,1-3.1c0.7-0.8,1.6-1.1,2.9-1.1c0.8,0,1.4,0.1,1.8,0.4v-3.5C453.8,117.4,456.1,117.4,456.1,117.4z M453.7,122.7
	c-0.4-0.2-0.8-0.3-1.2-0.3c-0.7,0-1.2,0.2-1.6,0.5c-0.3,0.4-0.5,1-0.5,1.8s0.2,1.3,0.5,1.7c0.3,0.4,0.8,0.6,1.6,0.6
	c0.4,0,0.7-0.1,0.9-0.2s0.4-0.3,0.4-0.5v-3.6H453.7z M461.7,120.5c0.9,0,1.7,0.2,2.4,0.6s1.1,1.1,1.1,2.2v3.8c0,0.7-0.3,1.2-1,1.5
	s-1.6,0.5-2.9,0.5c-2.4,0-3.5-0.9-3.5-2.8c0-0.8,0.2-1.4,0.7-1.8s1.2-0.7,2.2-0.7c0.4,0,0.8,0.1,1.2,0.2s0.7,0.2,1,0.4v-0.5
	c0-0.9-0.6-1.4-1.8-1.4c-0.5,0-0.9,0.1-1.4,0.2c-0.5,0.2-0.9,0.4-1.2,0.6v-2.1c0.3-0.2,0.7-0.4,1.3-0.5
	C460.4,120.5,461,120.5,461.7,120.5z M461.4,127.4c0.6,0,0.9,0,1.2-0.1c0.2-0.1,0.3-0.2,0.3-0.5v-1.2c-0.4-0.1-0.8-0.2-1.2-0.2
	c-0.5,0-0.9,0.1-1.2,0.2c-0.2,0.2-0.4,0.4-0.4,0.7c0,0.3,0.1,0.6,0.4,0.8C460.8,127.3,461.1,127.4,461.4,127.4z M470.7,129.1
	c-0.9,0-1.6-0.2-2.1-0.6c-0.5-0.4-0.7-1.1-0.7-1.9v-4h-1.2v-1.8h1.2v-2.2h2.5v2.2h1.8v1.8h-1.8v3.7c0,0.3,0.1,0.5,0.2,0.6
	c0.1,0.1,0.3,0.2,0.6,0.2c0.2,0,0.4,0,0.5-0.1c0.2-0.1,0.3-0.1,0.5-0.2v2C471.7,129,471.2,129.1,470.7,129.1z M474,117.8h2.5v1.8
	H474V117.8z M474,120.8h2.4v8H474V120.8z M482.2,129.1c-1.4,0-2.4-0.4-3.1-1.1c-0.7-0.7-1-1.8-1-3.2c0-1.5,0.3-2.6,1-3.3
	c0.7-0.7,1.7-1,3.1-1s2.4,0.4,3.1,1.1c0.7,0.7,1,1.8,1,3.2c0,1.4-0.4,2.5-1.1,3.2C484.5,128.7,483.5,129.1,482.2,129.1z
	 M482.2,127.2c0.6,0,1-0.2,1.3-0.6s0.5-1,0.5-1.8c0-0.9-0.2-1.5-0.5-1.8c-0.3-0.4-0.7-0.6-1.3-0.6s-1.1,0.2-1.3,0.6
	c-0.3,0.4-0.4,1-0.4,1.8s0.1,1.4,0.4,1.8C481.1,127,481.6,127.2,482.2,127.2z M488,121.4c0.4-0.2,1-0.4,1.9-0.6s1.6-0.3,2.3-0.3
	c1.1,0,2,0.2,2.6,0.7c0.6,0.4,0.9,1.2,0.9,2.2v5.4h-2.4v-5c0-0.9-0.5-1.4-1.6-1.4c-0.2,0-0.5,0-0.7,0.1s-0.4,0.1-0.6,0.2v6.1H488
	V121.4z M505.8,129c-0.8,0-1.5-0.1-2.1-0.2c-0.6-0.1-1.2-0.3-1.7-0.6v-2.5c0.5,0.4,1,0.7,1.6,0.9c0.6,0.2,1.2,0.3,1.8,0.3
	c1,0,1.5-0.4,1.5-1.1c0-0.3-0.2-0.6-0.5-0.8c-0.3-0.2-0.8-0.4-1.5-0.6c-0.3-0.1-0.5-0.2-0.6-0.2c-0.8-0.2-1.4-0.6-1.8-1
	c-0.4-0.4-0.7-1.1-0.7-2c0-0.6,0.1-1.2,0.4-1.7c0.3-0.5,0.8-0.9,1.4-1.2c0.6-0.3,1.4-0.5,2.3-0.5c0.6,0,1.2,0.1,1.6,0.2
	c0.5,0.1,0.9,0.3,1.5,0.5v2.5c-0.4-0.3-0.9-0.6-1.4-0.8c-0.5-0.2-1-0.3-1.6-0.3c-0.5,0-0.8,0.1-1.1,0.3c-0.3,0.2-0.4,0.4-0.4,0.8
	c0,0.3,0.1,0.5,0.2,0.7c0.2,0.2,0.4,0.3,0.6,0.4s0.7,0.2,1.2,0.4c0.7,0.2,1.2,0.4,1.6,0.7c0.4,0.2,0.8,0.5,1,0.9
	c0.3,0.4,0.4,0.9,0.4,1.5c0,0.7-0.2,1.2-0.5,1.8c-0.3,0.5-0.7,0.9-1.3,1.2C507.3,128.9,506.6,129,505.8,129z M514.9,120.4
	c2.5,0,3.8,1.7,3.8,5h-5.3c0.2,1.1,0.9,1.7,2.2,1.7c0.4,0,0.8-0.1,1.2-0.2s0.8-0.3,1.2-0.5v2.1c-0.9,0.4-1.8,0.5-2.9,0.5
	c-0.8,0-1.5-0.2-2.2-0.5c-0.6-0.3-1.1-0.8-1.4-1.4c-0.3-0.6-0.5-1.4-0.5-2.2c0-1.4,0.3-2.5,1-3.3
	C512.7,120.8,513.7,120.4,514.9,120.4z M514.8,122.3c-0.9,0-1.4,0.5-1.5,1.6h3c-0.1-0.6-0.2-1-0.5-1.2
	C515.6,122.4,515.3,122.3,514.8,122.3z M520.4,128.8v-11.2h2.4v11.2H520.4z M528.4,120.4c2.5,0,3.8,1.7,3.8,5h-5.3
	c0.2,1.1,0.9,1.7,2.2,1.7c0.4,0,0.8-0.1,1.2-0.2s0.8-0.3,1.2-0.5v2.1c-0.9,0.4-1.8,0.5-2.9,0.5c-0.8,0-1.5-0.2-2.2-0.5
	c-0.6-0.3-1.1-0.8-1.4-1.4c-0.3-0.6-0.5-1.4-0.5-2.2c0-1.4,0.3-2.5,1-3.3C526.1,120.8,527.1,120.4,528.4,120.4z M528.3,122.3
	c-0.9,0-1.4,0.5-1.5,1.6h3c-0.1-0.6-0.2-1-0.5-1.2C529.1,122.4,528.8,122.3,528.3,122.3z M537.6,129c-0.8,0-1.5-0.2-2.1-0.5
	s-1.1-0.8-1.5-1.4s-0.6-1.4-0.6-2.3c0-1.4,0.4-2.5,1.1-3.3c0.8-0.7,1.8-1.1,3.1-1.1c0.4,0,0.9,0,1.4,0.1s0.9,0.2,1.2,0.4v2
	c-0.4-0.2-0.8-0.3-1.2-0.4c-0.3-0.1-0.7-0.2-1-0.2c-0.7,0-1.3,0.2-1.7,0.5s-0.6,0.9-0.6,1.6c0,0.8,0.2,1.4,0.5,1.8
	c0.4,0.4,1,0.6,1.8,0.6c0.6,0,1.3-0.2,2.1-0.6v2c-0.4,0.2-0.8,0.4-1.2,0.5C538.6,129,538.1,129,537.6,129z M545.2,129.1
	c-0.9,0-1.6-0.2-2.1-0.6c-0.5-0.4-0.7-1.1-0.7-1.9v-4h-1.2v-1.8h1.2v-2.2h2.5v2.2h1.8v1.8h-1.8v3.7c0,0.3,0.1,0.5,0.2,0.6
	c0.1,0.1,0.3,0.2,0.6,0.2c0.2,0,0.4,0,0.5-0.1c0.2-0.1,0.3-0.1,0.5-0.2v2C546.3,129,545.8,129.1,545.2,129.1z M548.5,117.8h2.5v1.8
	h-2.5V117.8z M548.5,120.8h2.4v8h-2.4V120.8z M556.7,129.1c-1.4,0-2.4-0.4-3.1-1.1c-0.7-0.7-1-1.8-1-3.2c0-1.5,0.3-2.6,1-3.3
	c0.7-0.7,1.7-1,3.1-1s2.4,0.4,3.1,1.1c0.7,0.7,1,1.8,1,3.2c0,1.4-0.4,2.5-1.1,3.2C559,128.7,558,129.1,556.7,129.1z M556.7,127.2
	c0.6,0,1-0.2,1.3-0.6s0.5-1,0.5-1.8c0-0.9-0.2-1.5-0.5-1.8c-0.3-0.4-0.7-0.6-1.3-0.6s-1.1,0.2-1.3,0.6c-0.3,0.4-0.4,1-0.4,1.8
	s0.1,1.4,0.4,1.8C555.6,127,556.1,127.2,556.7,127.2z M562.5,121.4c0.4-0.2,1-0.4,1.9-0.6s1.6-0.3,2.3-0.3c1.1,0,2,0.2,2.6,0.7
	c0.6,0.4,0.9,1.2,0.9,2.2v5.4h-2.4v-5c0-0.9-0.5-1.4-1.6-1.4c-0.2,0-0.5,0-0.7,0.1s-0.4,0.1-0.6,0.2v6.1h-2.4V121.4z"/>
<path class="st6" d="M925.7,72.1L925.7,72.1c0-11.4,9.2-20.7,20.7-20.7h376c5.5,0,10.7,2.2,14.6,6.1s6.1,9.1,6.1,14.6v82.6
	c0,11.4-9.2,20.7-20.7,20.7h-376c-11.4,0-20.7-9.2-20.7-20.7V72.1z"/>
<path class="st5" d="M1095,119.5c-1.6,0-2.9-0.5-3.8-1.4s-1.4-2.3-1.4-4.2c0-1.8,0.4-3.2,1.3-4.1s2.2-1.4,3.9-1.4
	c1.6,0,2.9,0.5,3.8,1.4s1.4,2.3,1.4,4.1c0,1.8-0.5,3.2-1.4,4.1C1097.9,119.1,1096.7,119.5,1095,119.5z M1095,117.4
	c0.8,0,1.5-0.3,1.9-0.8s0.6-1.4,0.6-2.6s-0.2-2.1-0.6-2.6s-1.1-0.8-1.9-0.8s-1.5,0.3-1.9,0.8s-0.6,1.4-0.6,2.7
	c0,1.2,0.2,2.1,0.6,2.6S1094.1,117.4,1095,117.4z M1101.9,111.9c0.4-0.2,1-0.4,1.9-0.6s1.6-0.3,2.3-0.3c1.1,0,2,0.2,2.6,0.7
	c0.6,0.4,0.9,1.2,0.9,2.2v5.4h-2.4v-5c0-0.9-0.5-1.4-1.6-1.4c-0.2,0-0.5,0-0.7,0.1s-0.4,0.1-0.6,0.2v6.1h-2.4L1101.9,111.9
	L1101.9,111.9z M1119.4,119.6c-0.9,0-1.6-0.2-2.1-0.6s-0.7-1.1-0.7-1.9v-4h-1.2v-1.8h1.2V109h2.5v2.2h1.8v1.8h-1.8v3.7
	c0,0.3,0.1,0.5,0.2,0.6s0.3,0.2,0.6,0.2c0.2,0,0.4,0,0.5-0.1c0.2-0.1,0.3-0.1,0.5-0.2v2C1120.5,119.5,1120,119.6,1119.4,119.6z
	 M1127.4,111c0.9,0,1.7,0.2,2.2,0.7s0.8,1.2,0.8,2.3v5.3h-2.4v-4.8c0-1-0.5-1.5-1.5-1.5c-0.2,0-0.5,0-0.8,0.1s-0.5,0.2-0.6,0.3v6
	h-2.4V108h2.4v3.6C1125.8,111.2,1126.6,111,1127.4,111z M1136.1,110.9c2.5,0,3.8,1.7,3.8,5h-5.3c0.2,1.1,0.9,1.7,2.2,1.7
	c0.4,0,0.8-0.1,1.2-0.2c0.4-0.1,0.8-0.3,1.2-0.5v2.1c-0.9,0.4-1.8,0.5-2.9,0.5c-0.8,0-1.5-0.2-2.2-0.5c-0.6-0.3-1.1-0.8-1.4-1.4
	s-0.5-1.4-0.5-2.2c0-1.4,0.3-2.5,1-3.3C1133.8,111.3,1134.8,110.9,1136.1,110.9z M1136,112.8c-0.9,0-1.4,0.5-1.5,1.6h3
	c-0.1-0.6-0.2-1-0.5-1.2C1136.8,112.9,1136.4,112.8,1136,112.8z M1160.6,108.6l-3,10.7h-2.6l-2.1-6.9l-2.1,6.9h-2.6l-3-10.7h2.8
	l1.7,7.5l2.2-7.5h2l2.2,7.5l1.7-7.5H1160.6z M1165.6,111c0.9,0,1.7,0.2,2.4,0.6c0.7,0.4,1.1,1.1,1.1,2.2v3.8c0,0.7-0.3,1.2-1,1.5
	s-1.6,0.5-2.9,0.5c-2.4,0-3.5-0.9-3.5-2.8c0-0.8,0.2-1.4,0.7-1.8s1.2-0.7,2.2-0.7c0.4,0,0.8,0.1,1.2,0.2c0.4,0.1,0.7,0.2,1,0.4v-0.5
	c0-0.9-0.6-1.4-1.8-1.4c-0.5,0-0.9,0.1-1.4,0.2c-0.5,0.2-0.9,0.4-1.2,0.6v-2.1c0.3-0.2,0.7-0.4,1.3-0.5
	C1164.3,111,1164.9,111,1165.6,111z M1165.2,117.9c0.6,0,0.9,0,1.2-0.1c0.2-0.1,0.3-0.2,0.3-0.5v-1.2c-0.4-0.1-0.8-0.2-1.2-0.2
	c-0.5,0-0.9,0.1-1.2,0.2c-0.2,0.2-0.4,0.4-0.4,0.7c0,0.3,0.1,0.6,0.4,0.8C1164.6,117.8,1164.9,117.9,1165.2,117.9z M1179.3,111.2
	l-3.2,8.2c-0.8,2-1.8,3-3.1,3c-0.6,0-1-0.1-1.4-0.3v-1.9c0.3,0.1,0.6,0.2,0.9,0.2s0.6-0.1,0.8-0.3c0.2-0.2,0.4-0.5,0.5-0.9l-3.2-8
	h2.7l1.7,5.3l1.7-5.3L1179.3,111.2L1179.3,111.2z"/>
<path class="st6" d="M629.7,72.1L629.7,72.1c0-11.4,9.2-20.7,20.7-20.7h229.3c5.5,0,10.7,2.2,14.6,6.1s6.1,9.1,6.1,14.6v82.6
	c0,11.4-9.2,20.7-20.7,20.7H650.4l0,0c-11.4,0-20.7-9.2-20.7-20.7V72.1z"/>
<path class="st5" d="M664.1,104.1c0.6,0.2,1.1,0.5,1.4,0.9s0.5,0.9,0.5,1.5c0,1.1-0.4,1.9-1.1,2.4s-1.7,0.8-2.8,0.8h-5V99.1h4.5
	c1.2,0,2.2,0.2,2.8,0.7c0.7,0.5,1,1.2,1,2.2C665.4,102.9,665,103.6,664.1,104.1z M659.7,103.3h2.1c0.3,0,0.5-0.1,0.7-0.2
	c0.2-0.2,0.3-0.4,0.3-0.8c0-0.8-0.4-1.2-1.2-1.2h-1.9V103.3z M661.8,107.8c0.4,0,0.8-0.1,1.1-0.3c0.3-0.2,0.4-0.6,0.4-1
	s-0.1-0.8-0.4-1s-0.6-0.3-1.1-0.3h-2.1v2.6C659.7,107.8,661.8,107.8,661.8,107.8z M671.3,101.4c2.5,0,3.8,1.7,3.8,5h-5.3
	c0.2,1.1,0.9,1.7,2.2,1.7c0.4,0,0.8-0.1,1.2-0.2c0.4-0.1,0.8-0.3,1.2-0.5v2.1c-0.9,0.4-1.8,0.5-2.9,0.5c-0.8,0-1.5-0.2-2.2-0.5
	c-0.6-0.3-1.1-0.8-1.4-1.4s-0.5-1.4-0.5-2.2c0-1.4,0.3-2.5,1-3.3C669,101.8,670,101.4,671.3,101.4z M671.2,103.3
	c-0.9,0-1.4,0.5-1.5,1.6h3c-0.1-0.6-0.2-1-0.5-1.2C672,103.4,671.7,103.3,671.2,103.3z M677.3,103.6h-1.2v-1.8h1.2v-0.2
	c0-1.2,0.3-2.1,0.8-2.5c0.6-0.5,1.3-0.7,2.2-0.7c0.2,0,0.4,0,0.6,0s0.4,0.1,0.5,0.1v2.1c-0.1-0.1-0.2-0.2-0.4-0.2
	c-0.1-0.1-0.3-0.1-0.4-0.1c-0.3,0-0.5,0.1-0.7,0.2c-0.2,0.2-0.2,0.4-0.2,0.8v0.5h1.8v1.8h-1.8v6.3h-2.4V103.6z M686.7,110.1
	c-1.4,0-2.4-0.4-3.1-1.1s-1-1.8-1-3.2c0-1.5,0.3-2.6,1-3.3c0.7-0.7,1.7-1,3.1-1s2.4,0.4,3.1,1.1s1,1.8,1,3.2c0,1.4-0.4,2.5-1.1,3.2
	C689,109.7,688,110.1,686.7,110.1z M686.7,108.2c0.6,0,1-0.2,1.3-0.6s0.5-1,0.5-1.8c0-0.9-0.2-1.5-0.5-1.8c-0.3-0.4-0.7-0.6-1.3-0.6
	c-0.6,0-1.1,0.2-1.3,0.6c-0.3,0.4-0.4,1-0.4,1.8s0.1,1.4,0.4,1.8C685.6,108,686.1,108.2,686.7,108.2z M692.5,102.6
	c0.2-0.1,0.4-0.3,0.8-0.5s0.9-0.3,1.3-0.5c0.5-0.1,1-0.2,1.4-0.2c0.9,0,1.5,0.1,1.8,0.4v1.8c-0.4-0.1-1-0.2-1.8-0.2
	c-0.5,0-0.9,0-1.2,0.1v6.2h-2.4L692.5,102.6L692.5,102.6z M702.9,101.4c2.5,0,3.8,1.7,3.8,5h-5.3c0.2,1.1,0.9,1.7,2.2,1.7
	c0.4,0,0.8-0.1,1.2-0.2c0.4-0.1,0.8-0.3,1.2-0.5v2.1c-0.9,0.4-1.8,0.5-2.9,0.5c-0.8,0-1.5-0.2-2.2-0.5c-0.6-0.3-1.1-0.8-1.4-1.4
	s-0.5-1.4-0.5-2.2c0-1.4,0.3-2.5,1-3.3C700.6,101.8,701.6,101.4,702.9,101.4z M702.8,103.3c-0.9,0-1.4,0.5-1.5,1.6h3
	c-0.1-0.6-0.2-1-0.5-1.2C703.6,103.4,703.2,103.3,702.8,103.3z M708.5,104.1h4.9v1.7h-4.9V104.1z M718,101.1h-3v-2h8.6v2h-3v8.7H718
	V101.1z M725.1,102.6c0.2-0.1,0.4-0.3,0.8-0.5s0.9-0.3,1.3-0.5c0.5-0.1,1-0.2,1.4-0.2c0.9,0,1.5,0.1,1.8,0.4v1.8
	c-0.4-0.1-1-0.2-1.8-0.2c-0.5,0-0.9,0-1.2,0.1v6.2H725L725.1,102.6L725.1,102.6z M732,98.8h2.5v1.8H732V98.8z M732,101.8h2.4v8H732
	V101.8z M740.4,101.4c1.3,0,2.3,0.3,3,1s1.1,1.8,1.1,3.4c0,1.3-0.3,2.3-1,3.1c-0.6,0.8-1.5,1.1-2.6,1.1c-0.8,0-1.5-0.1-2-0.4v3.1
	h-2.3v-9.3c0-0.6,0.4-1.1,1.1-1.5C738.3,101.6,739.3,101.5,740.4,101.4z M740.2,108.1c0.7,0,1.1-0.2,1.4-0.5c0.3-0.4,0.5-1,0.5-1.8
	s-0.1-1.3-0.4-1.7c-0.3-0.4-0.7-0.6-1.4-0.6c-0.9,0-1.4,0.2-1.4,0.5v3.8c0.2,0.1,0.4,0.2,0.6,0.2C739.8,108.1,740,108.1,740.2,108.1
	z M753.2,109.8h-2.6V99.1h4.8c1.3,0,2.3,0.3,3,0.9s1,1.4,1,2.6s-0.4,2.1-1.1,2.8c-0.7,0.6-1.7,1-3,1h-2.2L753.2,109.8L753.2,109.8z
	 M755.1,104.3c0.5,0,0.9-0.1,1.2-0.4c0.2-0.3,0.4-0.6,0.4-1.1c0-1.1-0.5-1.6-1.5-1.6h-1.9v3.2L755.1,104.3L755.1,104.3z
	 M761.2,102.6c0.2-0.1,0.4-0.3,0.8-0.5s0.9-0.3,1.3-0.5c0.5-0.1,1-0.2,1.4-0.2c0.9,0,1.5,0.1,1.8,0.4v1.8c-0.4-0.1-1-0.2-1.8-0.2
	c-0.5,0-0.9,0-1.2,0.1v6.2h-2.4L761.2,102.6L761.2,102.6z M771.6,101.4c2.5,0,3.8,1.7,3.8,5h-5.3c0.2,1.1,0.9,1.7,2.2,1.7
	c0.4,0,0.8-0.1,1.2-0.2c0.4-0.1,0.8-0.3,1.2-0.5v2.1c-0.9,0.4-1.8,0.5-2.9,0.5c-0.8,0-1.5-0.2-2.2-0.5c-0.6-0.3-1.1-0.8-1.4-1.4
	s-0.5-1.4-0.5-2.2c0-1.4,0.3-2.5,1-3.3C769.3,101.8,770.3,101.4,771.6,101.4z M771.5,103.3c-0.9,0-1.4,0.5-1.5,1.6h3
	c-0.1-0.6-0.2-1-0.5-1.2C772.3,103.4,772,103.3,771.5,103.3z M780.9,101.4c1.3,0,2.3,0.3,3,1s1.1,1.8,1.1,3.4c0,1.3-0.3,2.3-1,3.1
	c-0.6,0.8-1.5,1.1-2.6,1.1c-0.8,0-1.5-0.1-2-0.4v3.1h-2.3v-9.3c0-0.6,0.4-1.1,1.1-1.5C778.8,101.6,779.8,101.5,780.9,101.4z
	 M780.7,108.1c0.7,0,1.1-0.2,1.4-0.5c0.3-0.4,0.5-1,0.5-1.8s-0.1-1.3-0.4-1.7c-0.3-0.4-0.7-0.6-1.4-0.6c-0.9,0-1.4,0.2-1.4,0.5v3.8
	c0.2,0.1,0.4,0.2,0.6,0.2C780.2,108.1,780.5,108.1,780.7,108.1z M790.2,101.5c0.9,0,1.7,0.2,2.4,0.6c0.7,0.4,1.1,1.1,1.1,2.2v3.8
	c0,0.7-0.3,1.2-1,1.5s-1.6,0.5-2.9,0.5c-2.4,0-3.5-0.9-3.5-2.8c0-0.8,0.2-1.4,0.7-1.8s1.2-0.7,2.2-0.7c0.4,0,0.8,0.1,1.2,0.2
	c0.4,0.1,0.7,0.2,1,0.4v-0.5c0-0.9-0.6-1.4-1.8-1.4c-0.5,0-0.9,0.1-1.4,0.2c-0.5,0.2-0.9,0.4-1.2,0.6v-2.1c0.3-0.2,0.7-0.4,1.3-0.5
	C788.9,101.5,789.5,101.5,790.2,101.5z M789.8,108.4c0.6,0,0.9,0,1.2-0.1c0.2-0.1,0.3-0.2,0.3-0.5v-1.2c-0.4-0.1-0.8-0.2-1.2-0.2
	c-0.5,0-0.9,0.1-1.2,0.2c-0.2,0.2-0.4,0.4-0.4,0.7c0,0.3,0.1,0.6,0.4,0.8C789.2,108.3,789.5,108.4,789.8,108.4z M795.8,102.6
	c0.2-0.1,0.4-0.3,0.8-0.5s0.9-0.3,1.3-0.5c0.5-0.1,1-0.2,1.4-0.2c0.9,0,1.5,0.1,1.8,0.4v1.8c-0.4-0.1-1-0.2-1.8-0.2
	c-0.5,0-0.9,0-1.2,0.1v6.2h-2.4L795.8,102.6L795.8,102.6z M806.2,101.5c0.9,0,1.7,0.2,2.4,0.6c0.7,0.4,1.1,1.1,1.1,2.2v3.8
	c0,0.7-0.3,1.2-1,1.5s-1.6,0.5-2.9,0.5c-2.4,0-3.5-0.9-3.5-2.8c0-0.8,0.2-1.4,0.7-1.8s1.2-0.7,2.2-0.7c0.4,0,0.8,0.1,1.2,0.2
	c0.4,0.1,0.7,0.2,1,0.4v-0.5c0-0.9-0.6-1.4-1.8-1.4c-0.5,0-0.9,0.1-1.4,0.2c-0.5,0.2-0.9,0.4-1.2,0.6v-2.1c0.3-0.2,0.7-0.4,1.3-0.5
	C804.9,101.5,805.5,101.5,806.2,101.5z M805.8,108.4c0.6,0,0.9,0,1.2-0.1c0.2-0.1,0.3-0.2,0.3-0.5v-1.2c-0.4-0.1-0.8-0.2-1.2-0.2
	c-0.5,0-0.9,0.1-1.2,0.2c-0.2,0.2-0.4,0.4-0.4,0.7c0,0.3,0.1,0.6,0.4,0.8C805.2,108.3,805.5,108.4,805.8,108.4z M815.1,110.1
	c-0.9,0-1.6-0.2-2.1-0.6s-0.7-1.1-0.7-1.9v-4h-1.2v-1.8h1.2v-2.2h2.5v2.2h1.8v1.8h-1.8v3.7c0,0.3,0.1,0.5,0.2,0.6s0.3,0.2,0.6,0.2
	c0.2,0,0.4,0,0.5-0.1c0.2-0.1,0.3-0.1,0.5-0.2v2C816.2,110,815.7,110.1,815.1,110.1z M818.4,98.8h2.5v1.8h-2.5V98.8z M818.5,101.8
	h2.4v8h-2.4V101.8z M826.6,110.1c-1.4,0-2.4-0.4-3.1-1.1s-1-1.8-1-3.2c0-1.5,0.3-2.6,1-3.3c0.7-0.7,1.7-1,3.1-1s2.4,0.4,3.1,1.1
	s1,1.8,1,3.2c0,1.4-0.4,2.5-1.1,3.2C829,109.7,828,110.1,826.6,110.1z M826.6,108.2c0.6,0,1-0.2,1.3-0.6s0.5-1,0.5-1.8
	c0-0.9-0.2-1.5-0.5-1.8c-0.3-0.4-0.7-0.6-1.3-0.6c-0.6,0-1.1,0.2-1.3,0.6c-0.3,0.4-0.4,1-0.4,1.8s0.1,1.4,0.4,1.8
	S826,108.2,826.6,108.2z M832.4,102.4c0.4-0.2,1-0.4,1.9-0.6s1.6-0.3,2.3-0.3c1.1,0,2,0.2,2.6,0.7c0.6,0.4,0.9,1.2,0.9,2.2v5.4h-2.4
	v-5c0-0.9-0.5-1.4-1.6-1.4c-0.2,0-0.5,0-0.7,0.1s-0.4,0.1-0.6,0.2v6.1h-2.4L832.4,102.4L832.4,102.4z M850.1,101.5
	c0.9,0,1.7,0.2,2.4,0.6c0.7,0.4,1.1,1.1,1.1,2.2v3.8c0,0.7-0.3,1.2-1,1.5s-1.6,0.5-2.9,0.5c-2.4,0-3.5-0.9-3.5-2.8
	c0-0.8,0.2-1.4,0.7-1.8s1.2-0.7,2.2-0.7c0.4,0,0.8,0.1,1.2,0.2c0.4,0.1,0.7,0.2,1,0.4v-0.5c0-0.9-0.6-1.4-1.8-1.4
	c-0.5,0-0.9,0.1-1.4,0.2c-0.5,0.2-0.9,0.4-1.2,0.6v-2.1c0.3-0.2,0.7-0.4,1.3-0.5C848.8,101.5,849.4,101.5,850.1,101.5z M849.8,108.4
	c0.6,0,0.9,0,1.2-0.1c0.2-0.1,0.3-0.2,0.3-0.5v-1.2c-0.4-0.1-0.8-0.2-1.2-0.2c-0.5,0-0.9,0.1-1.2,0.2c-0.2,0.2-0.4,0.4-0.4,0.7
	c0,0.3,0.1,0.6,0.4,0.8C849.1,108.3,849.4,108.4,849.8,108.4z M855.7,102.4c0.4-0.2,1-0.4,1.9-0.6s1.6-0.3,2.3-0.3
	c1.1,0,2,0.2,2.6,0.7c0.6,0.4,0.9,1.2,0.9,2.2v5.4H861v-5c0-0.9-0.5-1.4-1.6-1.4c-0.2,0-0.5,0-0.7,0.1s-0.4,0.1-0.6,0.2v6.1h-2.4
	L855.7,102.4L855.7,102.4z M873.1,98.4v9.3c0,0.5-0.2,0.9-0.5,1.3c-0.4,0.4-0.8,0.6-1.4,0.8c-0.6,0.2-1.2,0.3-1.8,0.3
	c-1.4,0-2.4-0.3-3.2-1c-0.8-0.7-1.1-1.8-1.1-3.4c0-1.3,0.3-2.4,1-3.1c0.7-0.8,1.6-1.1,2.9-1.1c0.8,0,1.4,0.1,1.8,0.4v-3.5
	L873.1,98.4L873.1,98.4z M870.7,103.7c-0.4-0.2-0.8-0.3-1.2-0.3c-0.7,0-1.2,0.2-1.6,0.5c-0.3,0.4-0.5,1-0.5,1.8s0.2,1.3,0.5,1.7
	c0.3,0.4,0.8,0.6,1.6,0.6c0.4,0,0.7-0.1,0.9-0.2c0.2-0.1,0.4-0.3,0.4-0.5v-3.6H870.7z"/>
<path class="st5" d="M718.9,126.5h-4l-0.8,2.3h-2.5l4-10.7h2.8l3.8,10.7h-2.7L718.9,126.5z M718.2,124.6l-1.4-4l-1.3,4H718.2z
	 M727.9,120.5c1.2,0,2.1,0.4,2.7,1.1s1,1.8,1,3.1c0,2.9-1.4,4.3-4.3,4.3c-2.5,0-3.7-0.7-3.7-2.1v-9.2h2.3v3.3c0.3-0.2,0.6-0.3,1-0.4
	C727.3,120.5,727.6,120.5,727.9,120.5z M727.3,127.1c1.3,0,1.9-0.7,1.9-2.2c0-1.7-0.6-2.5-1.9-2.5c-0.2,0-0.5,0-0.7,0.1
	s-0.5,0.1-0.7,0.2v3.6C725.9,126.8,726.4,127.1,727.3,127.1z M737.5,120.5c1.2,0,2.1,0.4,2.7,1.1s1,1.8,1,3.1c0,2.9-1.4,4.3-4.3,4.3
	c-2.5,0-3.7-0.7-3.7-2.1v-9.2h2.3v3.3c0.3-0.2,0.6-0.3,1-0.4C736.9,120.5,737.2,120.5,737.5,120.5z M736.9,127.1
	c1.3,0,1.9-0.7,1.9-2.2c0-1.7-0.6-2.5-1.9-2.5c-0.2,0-0.5,0-0.7,0.1s-0.5,0.1-0.7,0.2v3.6C735.5,126.8,736,127.1,736.9,127.1z
	 M750.9,120.7l-3.2,8.2c-0.8,2-1.8,3-3.1,3c-0.6,0-1-0.1-1.4-0.3v-1.9c0.3,0.1,0.6,0.2,0.9,0.2s0.6-0.1,0.8-0.3
	c0.2-0.2,0.4-0.5,0.5-0.9l-3.2-8h2.7l1.7,5.3l1.7-5.3H750.9z M760.4,129c-0.8,0-1.5-0.1-2.1-0.2c-0.6-0.1-1.2-0.3-1.7-0.6v-2.5
	c0.5,0.4,1,0.7,1.6,0.9c0.6,0.2,1.2,0.3,1.8,0.3c1,0,1.5-0.4,1.5-1.1c0-0.3-0.2-0.6-0.5-0.8c-0.3-0.2-0.8-0.4-1.5-0.6
	c-0.3-0.1-0.5-0.2-0.6-0.2c-0.8-0.2-1.4-0.6-1.8-1s-0.7-1.1-0.7-2c0-0.6,0.1-1.2,0.4-1.7s0.8-0.9,1.4-1.2c0.6-0.3,1.4-0.5,2.3-0.5
	c0.6,0,1.2,0.1,1.6,0.2c0.5,0.1,0.9,0.3,1.5,0.5v2.5c-0.4-0.3-0.9-0.6-1.4-0.8c-0.5-0.2-1-0.3-1.6-0.3c-0.5,0-0.8,0.1-1.1,0.3
	c-0.3,0.2-0.4,0.4-0.4,0.8c0,0.3,0.1,0.5,0.2,0.7c0.2,0.2,0.4,0.3,0.6,0.4s0.7,0.2,1.2,0.4c0.7,0.2,1.2,0.4,1.6,0.7
	c0.4,0.2,0.8,0.5,1,0.9c0.3,0.4,0.4,0.9,0.4,1.5c0,0.7-0.2,1.2-0.5,1.8c-0.3,0.5-0.7,0.9-1.3,1.2C761.9,128.9,761.2,129,760.4,129z
	 M769.5,120.4c2.5,0,3.8,1.7,3.8,5H768c0.2,1.1,0.9,1.7,2.2,1.7c0.4,0,0.8-0.1,1.2-0.2c0.4-0.1,0.8-0.3,1.2-0.5v2.1
	c-0.9,0.4-1.8,0.5-2.9,0.5c-0.8,0-1.5-0.2-2.2-0.5c-0.6-0.3-1.1-0.8-1.4-1.4s-0.5-1.4-0.5-2.2c0-1.4,0.3-2.5,1-3.3
	C767.2,120.8,768.2,120.4,769.5,120.4z M769.4,122.3c-0.9,0-1.4,0.5-1.5,1.6h3c-0.1-0.6-0.2-1-0.5-1.2
	C770.2,122.4,769.9,122.3,769.4,122.3z M778.3,129.1c-0.9,0-1.6-0.2-2.1-0.6c-0.5-0.4-0.7-1.1-0.7-1.9v-4h-1.2v-1.8h1.2v-2.2h2.5
	v2.2h1.8v1.8H778v3.7c0,0.3,0.1,0.5,0.2,0.6s0.3,0.2,0.6,0.2c0.2,0,0.4,0,0.5-0.1c0.2-0.1,0.3-0.1,0.5-0.2v2
	C779.3,129,778.8,129.1,778.3,129.1z M784.9,129.1c-0.9,0-1.6-0.2-2.1-0.6c-0.5-0.4-0.7-1.1-0.7-1.9v-4h-1.2v-1.8h1.2v-2.2h2.5v2.2
	h1.8v1.8h-1.8v3.7c0,0.3,0.1,0.5,0.2,0.6s0.3,0.2,0.6,0.2c0.2,0,0.4,0,0.5-0.1c0.2-0.1,0.3-0.1,0.5-0.2v2
	C785.9,129,785.5,129.1,784.9,129.1z M788.2,117.8h2.5v1.8h-2.5V117.8z M788.2,120.8h2.4v8h-2.4V120.8z M792.7,121.4
	c0.4-0.2,1-0.4,1.9-0.6s1.6-0.3,2.3-0.3c1.1,0,2,0.2,2.6,0.7c0.6,0.4,0.9,1.2,0.9,2.2v5.4H798v-5c0-0.9-0.5-1.4-1.6-1.4
	c-0.2,0-0.5,0-0.7,0.1s-0.4,0.1-0.6,0.2v6.1h-2.4L792.7,121.4L792.7,121.4z M806.6,120.5c1,0,1.9,0.2,2.5,0.6s0.9,0.9,0.9,1.6v6.2
	c0,1.1-0.4,2-1.1,2.6s-1.7,0.9-3,0.9c-0.7,0-1.3,0-1.8-0.1s-0.9-0.2-1.2-0.4v-2.1c0.3,0.2,0.7,0.3,1.3,0.4c0.6,0.1,1.1,0.2,1.6,0.2
	c0.7,0,1.2-0.1,1.5-0.4c0.3-0.3,0.4-0.7,0.4-1.2v-0.5c-0.5,0.5-1.2,0.7-2,0.7c-1.1-0.1-2-0.4-2.6-1.1c-0.6-0.7-0.9-1.7-0.9-3
	c0-1.7,0.4-2.8,1.2-3.5C804,120.8,805.1,120.5,806.6,120.5z M804.4,124.9c0,0.7,0.2,1.3,0.5,1.8c0.3,0.4,0.8,0.6,1.3,0.6
	s1-0.1,1.4-0.4v-3.7c0-0.6-0.4-0.8-1.3-0.8C805,122.4,804.4,123.2,804.4,124.9z M814.4,129.1c-0.5,0-1-0.1-1.3-0.2
	c-0.4-0.1-0.8-0.2-1.3-0.4v-2.1c0.9,0.7,1.8,1,2.7,1c0.4,0,0.6-0.1,0.8-0.2s0.2-0.3,0.2-0.5s-0.1-0.4-0.4-0.5s-0.7-0.2-1.3-0.4
	c-0.6-0.1-1.1-0.4-1.5-0.8s-0.6-0.9-0.6-1.7c0-0.6,0.2-1.2,0.5-1.6s0.7-0.7,1.2-0.9c0.5-0.2,1-0.3,1.5-0.3c0.6,0,1.2,0.1,1.5,0.2
	c0.4,0.1,0.8,0.3,1.2,0.5v1.9c-0.5-0.3-1-0.5-1.3-0.6s-0.6-0.2-1-0.2s-0.7,0.1-0.9,0.2c-0.2,0.1-0.3,0.3-0.3,0.5
	c0,0.3,0.1,0.5,0.3,0.6c0.2,0.1,0.6,0.2,1,0.4c0.5,0.1,0.9,0.3,1.2,0.4c0.3,0.1,0.6,0.4,0.8,0.7c0.2,0.3,0.4,0.8,0.4,1.4
	c0,0.9-0.4,1.6-1,2C816.3,128.8,815.4,129.1,814.4,129.1z"/>
<path class="st6" d="M1368.4,72.1L1368.4,72.1c0-11.4,9.2-20.7,20.7-20.7h811c5.5,0,10.7,2.2,14.6,6.1c3.9,3.9,6.1,9.1,6.1,14.6
	v82.6c0,11.4-9.2,20.7-20.7,20.7H1389c-11.4,0-20.7-9.2-20.7-20.7L1368.4,72.1L1368.4,72.1z"/>
<path class="st5" d="M1723.1,108.6h2.6v8.6h4.6v2h-7.2L1723.1,108.6L1723.1,108.6z M1731.9,108.3h2.5v1.8h-2.5V108.3z M1731.9,111.3
	h2.4v8h-2.4V111.3z M1744.9,111.2l-3.4,8.1h-2.4l-3.4-8.1h2.6l2.2,5.5l1.9-5.5H1744.9z M1746.4,108.3h2.5v1.8h-2.5V108.3z
	 M1746.5,111.3h2.4v8h-2.4V111.3z M1751,111.9c0.4-0.2,1-0.4,1.9-0.6s1.6-0.3,2.3-0.3c1.1,0,2,0.2,2.6,0.7c0.6,0.4,0.9,1.2,0.9,2.2
	v5.4h-2.4v-5c0-0.9-0.5-1.4-1.6-1.4c-0.2,0-0.5,0-0.7,0.1s-0.4,0.1-0.6,0.2v6.1h-2.4V111.9z M1764.8,111c1,0,1.9,0.2,2.5,0.6
	s0.9,0.9,0.9,1.6v6.2c0,1.1-0.4,2-1.1,2.6c-0.7,0.6-1.7,0.9-3,0.9c-0.7,0-1.3,0-1.8-0.1s-0.9-0.2-1.2-0.4v-2.1
	c0.3,0.2,0.7,0.3,1.3,0.4s1.1,0.2,1.6,0.2c0.7,0,1.2-0.1,1.5-0.4s0.4-0.7,0.4-1.2v-0.5c-0.5,0.5-1.2,0.7-2,0.7
	c-1.1-0.1-2-0.4-2.6-1.1s-0.9-1.7-0.9-3c0-1.7,0.4-2.8,1.2-3.5C1762.2,111.3,1763.3,111,1764.8,111z M1762.6,115.4
	c0,0.7,0.2,1.3,0.5,1.8c0.3,0.4,0.8,0.6,1.3,0.6s1-0.1,1.4-0.4v-3.7c0-0.6-0.4-0.8-1.3-0.8C1763.3,112.9,1762.6,113.7,1762.6,115.4z
	 M1774.6,108.3h2.5v1.8h-2.5V108.3z M1774.7,111.3h2.4v8h-2.4V111.3z M1779.2,111.9c0.4-0.2,1-0.4,1.9-0.6s1.6-0.3,2.3-0.3
	c1.1,0,2,0.2,2.6,0.7c0.6,0.4,0.9,1.2,0.9,2.2v5.4h-2.4v-5c0-0.9-0.5-1.4-1.6-1.4c-0.2,0-0.5,0-0.7,0.1s-0.4,0.1-0.6,0.2v6.1h-2.4
	V111.9z M1796.7,119.6c-0.9,0-1.6-0.2-2.1-0.6s-0.7-1.1-0.7-1.9v-4h-1.2v-1.8h1.2V109h2.5v2.2h1.8v1.8h-1.8v3.7
	c0,0.3,0.1,0.5,0.2,0.6c0.1,0.1,0.3,0.2,0.6,0.2c0.2,0,0.4,0,0.5-0.1c0.2-0.1,0.3-0.1,0.5-0.2v2
	C1797.8,119.5,1797.3,119.6,1796.7,119.6z M1804.7,111c0.9,0,1.7,0.2,2.2,0.7s0.8,1.2,0.8,2.3v5.3h-2.4v-4.8c0-1-0.5-1.5-1.5-1.5
	c-0.2,0-0.5,0-0.8,0.1s-0.5,0.2-0.6,0.3v6h-2.4V108h2.4v3.6C1803.1,111.2,1803.9,111,1804.7,111z M1813.3,110.9c2.5,0,3.8,1.7,3.8,5
	h-5.3c0.2,1.1,0.9,1.7,2.2,1.7c0.4,0,0.8-0.1,1.2-0.2s0.8-0.3,1.2-0.5v2.1c-0.9,0.4-1.8,0.5-2.9,0.5c-0.8,0-1.5-0.2-2.2-0.5
	c-0.6-0.3-1.1-0.8-1.4-1.4c-0.3-0.6-0.5-1.4-0.5-2.2c0-1.4,0.3-2.5,1-3.3C1811,111.3,1812,110.9,1813.3,110.9z M1813.2,112.8
	c-0.9,0-1.4,0.5-1.5,1.6h3c-0.1-0.6-0.2-1-0.5-1.2C1814,112.9,1813.7,112.8,1813.2,112.8z M1826.8,119.5c-0.8,0-1.5-0.1-2.1-0.2
	s-1.2-0.3-1.7-0.6v-2.5c0.5,0.4,1,0.7,1.6,0.9c0.6,0.2,1.2,0.3,1.8,0.3c1,0,1.5-0.4,1.5-1.1c0-0.3-0.2-0.6-0.5-0.8
	c-0.3-0.2-0.8-0.4-1.5-0.6c-0.3-0.1-0.5-0.2-0.6-0.2c-0.8-0.2-1.4-0.6-1.8-1c-0.4-0.4-0.7-1.1-0.7-2c0-0.6,0.1-1.2,0.4-1.7
	c0.3-0.5,0.8-0.9,1.4-1.2c0.6-0.3,1.4-0.5,2.3-0.5c0.6,0,1.2,0.1,1.6,0.2c0.5,0.1,0.9,0.3,1.5,0.5v2.5c-0.4-0.3-0.9-0.6-1.4-0.8
	c-0.5-0.2-1-0.3-1.6-0.3c-0.5,0-0.8,0.1-1.1,0.3c-0.3,0.2-0.4,0.4-0.4,0.8c0,0.3,0.1,0.5,0.2,0.7c0.2,0.2,0.4,0.3,0.6,0.4
	s0.7,0.2,1.2,0.4c0.7,0.2,1.2,0.4,1.6,0.7c0.4,0.2,0.8,0.5,1,0.9c0.3,0.4,0.4,0.9,0.4,1.5c0,0.7-0.2,1.2-0.5,1.8
	c-0.3,0.5-0.7,0.9-1.3,1.2C1828.3,119.4,1827.6,119.5,1826.8,119.5z M1836.2,110.9c1.3,0,2.3,0.3,3,1s1.1,1.8,1.1,3.4
	c0,1.3-0.3,2.3-1,3.1c-0.6,0.8-1.5,1.1-2.6,1.1c-0.8,0-1.5-0.1-2-0.4v3.1h-2.3v-9.3c0-0.6,0.4-1.1,1.1-1.5
	C1834.2,111.1,1835.1,111,1836.2,110.9z M1836.1,117.6c0.7,0,1.1-0.2,1.4-0.5c0.3-0.4,0.5-1,0.5-1.8s-0.1-1.3-0.4-1.7
	c-0.3-0.4-0.7-0.6-1.4-0.6c-0.9,0-1.4,0.2-1.4,0.5v3.8c0.2,0.1,0.4,0.2,0.6,0.2C1835.6,117.6,1835.8,117.6,1836.1,117.6z
	 M1845.5,111c0.9,0,1.7,0.2,2.4,0.6s1.1,1.1,1.1,2.2v3.8c0,0.7-0.3,1.2-1,1.5s-1.6,0.5-2.9,0.5c-2.4,0-3.5-0.9-3.5-2.8
	c0-0.8,0.2-1.4,0.7-1.8s1.2-0.7,2.2-0.7c0.4,0,0.8,0.1,1.2,0.2s0.7,0.2,1,0.4v-0.5c0-0.9-0.6-1.4-1.8-1.4c-0.5,0-0.9,0.1-1.4,0.2
	c-0.5,0.2-0.9,0.4-1.2,0.6v-2.1c0.3-0.2,0.7-0.4,1.3-0.5C1844.2,111,1844.9,111,1845.5,111z M1845.2,117.9c0.6,0,0.9,0,1.2-0.1
	c0.2-0.1,0.3-0.2,0.3-0.5v-1.2c-0.4-0.1-0.8-0.2-1.2-0.2c-0.5,0-0.9,0.1-1.2,0.2c-0.2,0.2-0.4,0.4-0.4,0.7c0,0.3,0.1,0.6,0.4,0.8
	C1844.6,117.8,1844.9,117.9,1845.2,117.9z M1854.9,119.5c-0.8,0-1.5-0.2-2.1-0.5s-1.1-0.8-1.5-1.4s-0.6-1.4-0.6-2.3
	c0-1.4,0.4-2.5,1.1-3.3c0.8-0.7,1.8-1.1,3.1-1.1c0.4,0,0.9,0,1.4,0.1s0.9,0.2,1.2,0.4v2c-0.4-0.2-0.8-0.3-1.2-0.4
	c-0.3-0.1-0.7-0.2-1-0.2c-0.7,0-1.3,0.2-1.7,0.5s-0.6,0.9-0.6,1.6c0,0.8,0.2,1.4,0.5,1.8c0.4,0.4,1,0.6,1.8,0.6
	c0.6,0,1.3-0.2,2.1-0.6v2c-0.4,0.2-0.8,0.4-1.2,0.5C1855.9,119.5,1855.5,119.5,1854.9,119.5z M1862.8,110.9c2.5,0,3.8,1.7,3.8,5
	h-5.3c0.2,1.1,0.9,1.7,2.2,1.7c0.4,0,0.8-0.1,1.2-0.2s0.8-0.3,1.2-0.5v2.1c-0.9,0.4-1.8,0.5-2.9,0.5c-0.8,0-1.5-0.2-2.2-0.5
	c-0.6-0.3-1.1-0.8-1.4-1.4c-0.3-0.6-0.5-1.4-0.5-2.2c0-1.4,0.3-2.5,1-3.3C1860.5,111.3,1861.5,110.9,1862.8,110.9z M1862.7,112.8
	c-0.9,0-1.4,0.5-1.5,1.6h3c-0.1-0.6-0.2-1-0.5-1.2C1863.5,112.9,1863.1,112.8,1862.7,112.8z"/>
<path class="st4" d="M2243.5,72.1L2243.5,72.1c0-11.4,9.2-20.7,20.7-20.7h229.3c5.5,0,10.7,2.2,14.6,6.1c3.9,3.9,6.1,9.1,6.1,14.6
	v82.6c0,11.4-9.2,20.7-20.7,20.7h-229.3l0,0c-11.4,0-20.7-9.2-20.7-20.7L2243.5,72.1L2243.5,72.1z"/>
<path class="st5" d="M2325,108.6h2.6v8.6h4.6v2h-7.2L2325,108.6L2325,108.6z M2337.3,110.9c2.5,0,3.8,1.7,3.8,5h-5.3
	c0.2,1.1,0.9,1.7,2.2,1.7c0.4,0,0.8-0.1,1.2-0.2s0.8-0.3,1.2-0.5v2.1c-0.9,0.4-1.8,0.5-2.9,0.5c-0.8,0-1.5-0.2-2.2-0.5
	c-0.6-0.3-1.1-0.8-1.4-1.4c-0.3-0.6-0.5-1.4-0.5-2.2c0-1.4,0.3-2.5,1-3.3C2335.1,111.3,2336,110.9,2337.3,110.9z M2337.2,112.8
	c-0.9,0-1.4,0.5-1.5,1.6h3c-0.1-0.6-0.2-1-0.5-1.2C2338,112.9,2337.7,112.8,2337.2,112.8z M2343.3,113.1h-1.2v-1.8h1.2V111
	c0-1.2,0.3-2.1,0.8-2.5c0.6-0.5,1.3-0.7,2.2-0.7c0.2,0,0.4,0,0.6,0c0.2,0,0.4,0.1,0.5,0.1v2.1c-0.1-0.1-0.2-0.2-0.4-0.2
	c-0.1-0.1-0.3-0.1-0.4-0.1c-0.3,0-0.5,0.1-0.7,0.2c-0.2,0.2-0.3,0.4-0.2,0.8v0.5h1.8v1.8h-1.8v6.3h-2.4L2343.3,113.1L2343.3,113.1z
	 M2352.4,119.6c-0.9,0-1.6-0.2-2.1-0.6s-0.7-1.1-0.7-1.9v-4h-1.2v-1.8h1.2V109h2.5v2.2h1.8v1.8h-1.8v3.7c0,0.3,0.1,0.5,0.2,0.6
	c0.1,0.1,0.3,0.2,0.6,0.2c0.2,0,0.4,0,0.5-0.1c0.2-0.1,0.3-0.1,0.5-0.2v2C2353.4,119.5,2353,119.6,2352.4,119.6z M2363.4,119.6
	c-0.9,0-1.6-0.2-2.1-0.6s-0.7-1.1-0.7-1.9v-4h-1.2v-1.8h1.2V109h2.5v2.2h1.8v1.8h-1.8v3.7c0,0.3,0.1,0.5,0.2,0.6
	c0.1,0.1,0.3,0.2,0.6,0.2c0.2,0,0.4,0,0.5-0.1c0.2-0.1,0.3-0.1,0.5-0.2v2C2364.5,119.5,2364,119.6,2363.4,119.6z M2371.4,111
	c0.9,0,1.7,0.2,2.2,0.7s0.8,1.2,0.8,2.3v5.3h-2.4v-4.8c0-1-0.5-1.5-1.5-1.5c-0.2,0-0.5,0-0.8,0.1s-0.5,0.2-0.6,0.3v6h-2.4V108h2.4
	v3.6C2369.8,111.2,2370.6,111,2371.4,111z M2380,110.9c2.5,0,3.8,1.7,3.8,5h-5.3c0.2,1.1,0.9,1.7,2.2,1.7c0.4,0,0.8-0.1,1.2-0.2
	s0.8-0.3,1.2-0.5v2.1c-0.9,0.4-1.8,0.5-2.9,0.5c-0.8,0-1.5-0.2-2.2-0.5c-0.6-0.3-1.1-0.8-1.4-1.4c-0.3-0.6-0.5-1.4-0.5-2.2
	c0-1.4,0.3-2.5,1-3.3C2377.8,111.3,2378.8,110.9,2380,110.9z M2380,112.8c-0.9,0-1.4,0.5-1.5,1.6h3c-0.1-0.6-0.2-1-0.5-1.2
	C2380.7,112.9,2380.4,112.8,2380,112.8z M2393.5,119.5c-0.8,0-1.5-0.1-2.1-0.2s-1.2-0.3-1.7-0.6v-2.5c0.5,0.4,1,0.7,1.6,0.9
	c0.6,0.2,1.2,0.3,1.8,0.3c1,0,1.5-0.4,1.5-1.1c0-0.3-0.2-0.6-0.5-0.8c-0.3-0.2-0.8-0.4-1.5-0.6c-0.3-0.1-0.5-0.2-0.6-0.2
	c-0.8-0.2-1.4-0.6-1.8-1c-0.4-0.4-0.7-1.1-0.7-2c0-0.6,0.1-1.2,0.4-1.7c0.3-0.5,0.8-0.9,1.4-1.2c0.6-0.3,1.4-0.5,2.3-0.5
	c0.6,0,1.2,0.1,1.6,0.2c0.5,0.1,0.9,0.3,1.5,0.5v2.5c-0.4-0.3-0.9-0.6-1.4-0.8c-0.5-0.2-1-0.3-1.6-0.3c-0.5,0-0.8,0.1-1.1,0.3
	c-0.3,0.2-0.4,0.4-0.4,0.8c0,0.3,0.1,0.5,0.2,0.7c0.2,0.2,0.4,0.3,0.6,0.4c0.3,0.1,0.7,0.2,1.2,0.4c0.7,0.2,1.2,0.4,1.6,0.7
	c0.4,0.2,0.8,0.5,1,0.9c0.3,0.4,0.4,0.9,0.4,1.5c0,0.7-0.2,1.2-0.5,1.8c-0.3,0.5-0.7,0.9-1.3,1.2
	C2395,119.4,2394.3,119.5,2393.5,119.5z M2402.9,110.9c1.3,0,2.3,0.3,3,1s1.1,1.8,1.1,3.4c0,1.3-0.3,2.3-1,3.1
	c-0.6,0.8-1.5,1.1-2.6,1.1c-0.8,0-1.5-0.1-2-0.4v3.1h-2.3v-9.3c0-0.6,0.4-1.1,1.1-1.5C2400.9,111.1,2401.8,111,2402.9,110.9z
	 M2402.8,117.6c0.7,0,1.1-0.2,1.4-0.5c0.3-0.4,0.5-1,0.5-1.8s-0.1-1.3-0.4-1.7c-0.3-0.4-0.7-0.6-1.4-0.6c-0.9,0-1.4,0.2-1.4,0.5v3.8
	c0.2,0.1,0.4,0.2,0.6,0.2C2402.3,117.6,2402.5,117.6,2402.8,117.6z M2412.3,111c0.9,0,1.7,0.2,2.4,0.6s1.1,1.1,1.1,2.2v3.8
	c0,0.7-0.3,1.2-1,1.5s-1.6,0.5-2.9,0.5c-2.4,0-3.5-0.9-3.5-2.8c0-0.8,0.2-1.4,0.7-1.8s1.2-0.7,2.2-0.7c0.4,0,0.8,0.1,1.2,0.2
	s0.7,0.2,1,0.4v-0.5c0-0.9-0.6-1.4-1.8-1.4c-0.5,0-0.9,0.1-1.4,0.2c-0.5,0.2-0.9,0.4-1.2,0.6v-2.1c0.3-0.2,0.7-0.4,1.3-0.5
	C2410.9,111,2411.6,111,2412.3,111z M2411.9,117.9c0.6,0,0.9,0,1.2-0.1c0.2-0.1,0.3-0.2,0.3-0.5v-1.2c-0.4-0.1-0.8-0.2-1.2-0.2
	c-0.5,0-0.9,0.1-1.2,0.2c-0.2,0.2-0.4,0.4-0.4,0.7c0,0.3,0.1,0.6,0.4,0.8C2411.3,117.8,2411.6,117.9,2411.9,117.9z M2421.7,119.5
	c-0.8,0-1.5-0.2-2.1-0.5s-1.1-0.8-1.5-1.4s-0.6-1.4-0.6-2.3c0-1.4,0.4-2.5,1.1-3.3c0.8-0.7,1.8-1.1,3.1-1.1c0.4,0,0.9,0,1.4,0.1
	s0.9,0.2,1.2,0.4v2c-0.4-0.2-0.8-0.3-1.2-0.4c-0.3-0.1-0.7-0.2-1-0.2c-0.7,0-1.3,0.2-1.7,0.5s-0.6,0.9-0.6,1.6
	c0,0.8,0.2,1.4,0.5,1.8c0.4,0.4,1,0.6,1.8,0.6c0.6,0,1.3-0.2,2.1-0.6v2c-0.4,0.2-0.8,0.4-1.2,0.5
	C2422.6,119.5,2422.2,119.5,2421.7,119.5z M2429.5,110.9c2.5,0,3.8,1.7,3.8,5h-5.3c0.2,1.1,0.9,1.7,2.2,1.7c0.4,0,0.8-0.1,1.2-0.2
	s0.8-0.3,1.2-0.5v2.1c-0.9,0.4-1.8,0.5-2.9,0.5c-0.8,0-1.5-0.2-2.2-0.5c-0.6-0.3-1.1-0.8-1.4-1.4c-0.3-0.6-0.5-1.4-0.5-2.2
	c0-1.4,0.3-2.5,1-3.3C2427.2,111.3,2428.2,110.9,2429.5,110.9z M2429.4,112.8c-0.9,0-1.4,0.5-1.5,1.6h3c-0.1-0.6-0.2-1-0.5-1.2
	C2430.2,112.9,2429.8,112.8,2429.4,112.8z"/>
</svg>
