<?xml version="1.0" encoding="UTF-8"?>
<svg width="58px" height="46px" viewBox="0 0 58 46" version="1.1" xmlns="http://www.w3.org/2000/svg" xmlns:xlink="http://www.w3.org/1999/xlink">
    <!-- Generator: Sketch 51.2 (57519) - http://www.bohemiancoding.com/sketch -->
    <title>icn_handsfree</title>
    <desc>Created with Sketch.</desc>
    <defs></defs>
    <g id="Page-1" stroke="none" stroke-width="1" fill="none" fill-rule="evenodd">
        <g id="Abby" transform="translate(-735.000000, -1378.000000)" fill="#FF5A60" fill-rule="nonzero">
            <g id="icn_handsfree" transform="translate(735.000000, 1378.000000)">
                <path d="M57.611512,25.0558158 C57.6085134,24.8946255 57.6058479,24.7532537 57.6058479,24.6350035 L57.6058479,10.4661156 C57.6058479,8.84166135 56.2724609,7.51977045 54.6335478,7.51977045 C54.3085306,7.51977045 54.0012552,7.58459338 53.7083066,7.68058909 L53.7083066,6.48128236 C53.7083066,4.85682808 52.3749196,3.53493582 50.7356733,3.53493582 C50.4106561,3.53493582 50.1033807,3.59975875 49.8104321,3.69575446 L49.8104321,3.2211433 C49.8104321,1.59602838 48.4770451,0.274136188 46.838132,0.274136188 C45.2768915,0.274136188 44.0071836,1.47724143 43.8885298,2.99533654 C43.5890009,2.89446876 43.2737291,2.82741625 42.9402574,2.82741625 C41.3013443,2.82741625 39.9679574,4.14930851 39.9679574,5.77442336 L39.9679574,17.9436259 C39.9679574,18.4291785 39.7660502,18.9015188 39.414212,19.2390935 L39.3145078,19.3347176 L36.4192556,16.3852332 C35.112523,15.1181721 32.9988282,15.1294026 31.7057561,16.4103366 C31.0690488,17.0418854 30.7205424,17.881528 30.7245405,18.7746806 C30.7288719,19.6678332 31.0850415,20.5041728 31.7277459,21.129776 C31.7504022,21.1515763 31.774058,21.172716 31.7987133,21.1925344 L32.9761719,22.1431606 C33.997369,23.1565452 34.3651999,24.467207 34.7720129,26.2026447 C36.0557143,31.6770028 38.5653522,33.6874632 40.4550667,34.4093098 L40.4550667,44.5618187 C40.4550667,45.1220209 40.9131894,45.5765245 41.4785961,45.5765245 C42.0440028,45.5765245 42.5021255,45.1220209 42.5021255,44.5618187 L42.5021255,34.7987015 C42.7100299,34.7972565 42.843885,34.7818559 42.8762868,34.777438 C43.4363626,34.7014671 43.8281824,34.1894899 43.751551,33.6345726 C43.6745863,33.0789947 43.1554917,32.6931951 42.5984145,32.7665235 C42.5564338,32.7704872 38.5216222,33.2296152 36.7657628,25.7428562 C36.3932674,24.152754 35.9294807,22.1742096 34.378527,20.6633812 C34.3558708,20.6415809 34.3318818,20.6204412 34.3072265,20.6006228 L33.1330997,19.6526391 C32.9012062,19.4128355 32.7732651,19.0997036 32.7715992,18.7654321 C32.7699333,18.4179481 32.9058707,18.0909433 33.1534236,17.8451942 C33.6561924,17.3470899 34.4788142,17.3424655 34.9695886,17.8181089 L39.6487706,22.5851126 C40.0439223,22.9880882 40.6916244,22.995355 41.0961052,22.6049311 C41.5012522,22.2138465 41.5102481,21.5717279 41.116096,21.1700735 L40.7420597,20.789022 L40.8378906,20.6970726 C41.58588,19.9789832 42.0150161,18.9755078 42.0150161,17.9436259 L42.0150161,5.77442343 C42.0150161,5.2683917 42.4301585,4.85682808 42.9402574,4.85682808 C43.4503562,4.85682808 43.8654986,5.2683917 43.8654986,5.77442343 L43.8654986,9.47783439 L43.8654986,18.9193555 C43.8654986,19.4795577 44.3236213,19.9340614 44.889028,19.9340614 C45.4544347,19.9340614 45.9125574,19.4795577 45.9125574,18.9193555 L45.9125574,9.47783439 L45.9125574,5.77442343 L45.9125574,3.2211433 C45.9125574,2.71511158 46.3276999,2.30354795 46.8381319,2.30354795 C47.3482307,2.30354795 47.7633731,2.71511158 47.7633731,3.2211433 L47.7633731,6.48128229 L47.7633731,6.9238949 L47.7633731,18.9193555 C47.7633731,19.4795577 48.2214958,19.9340614 48.7869025,19.9340614 C49.3523092,19.9340614 49.8104319,19.4795577 49.8104319,18.9193555 L49.8104319,6.9238949 L49.8104319,6.48128229 C49.8104319,5.97591121 50.2255744,5.56434752 50.7356732,5.56434752 C51.2461052,5.56434752 51.6612476,5.97591114 51.6612476,6.48128229 L51.6612476,10.1846932 C51.6612476,10.2330008 51.668994,10.2791613 51.6755744,10.3256521 C51.6732838,10.3731752 51.6612476,10.4180144 51.6612476,10.4661156 L51.6612476,20.2471932 C51.6612476,20.8073955 52.1193703,21.2618991 52.684777,21.2618991 C53.2501838,21.2618991 53.7083064,20.8073955 53.7083064,20.2471932 L53.7083064,10.4661156 C53.7083064,9.96074455 54.1234489,9.54918086 54.6335477,9.54918086 C55.1436465,9.54918086 55.5587889,9.96074448 55.5587889,10.4661156 L55.5587889,24.6350035 C55.5587889,24.7638236 55.5614543,24.9177471 55.5647862,25.0928102 C55.5927733,26.6267601 55.651413,29.8195164 53.9431985,31.5443843 C53.1345702,32.3602448 52.0190831,32.7572749 50.5327665,32.7572749 C49.9673597,32.7572749 49.509237,33.2117786 49.509237,33.7719808 C49.509237,34.332183 49.9673597,34.7866867 50.5327665,34.7866867 C50.9984274,34.7866867 51.440599,34.7506006 51.8641543,34.6867273 L51.8641543,44.7223484 C51.8641543,45.2825507 52.322277,45.7370543 52.8876838,45.7370543 C53.4530905,45.7370543 53.9112132,45.2825507 53.9112132,44.7223484 L53.9112132,34.0515864 C54.4661664,33.7696686 54.9653119,33.4087659 55.4038602,32.9660295 C57.7137982,30.6340556 57.6444968,26.8665637 57.611512,25.0558158 Z" id="Shape"></path>
                <path d="M43.8508387,24.6508583 C43.3847197,24.3410295 42.7576746,24.4619221 42.4394876,24.9203895 C42.1213006,25.3788569 42.2392464,26.0090844 42.6990349,26.3288224 C42.7793314,26.3843141 44.6641314,27.7313098 44.6641314,30.8461133 C44.6641314,31.4063155 45.1222541,31.8608192 45.6876609,31.8608192 C46.2530676,31.8608192 46.7111903,31.4063155 46.7111903,30.8461133 C46.7111903,26.611566 43.9677849,24.7294715 43.8508387,24.6508583 Z" id="Shape"></path>
                <path d="M21.2022518,16.4030699 L18.3244916,19.3348416 L18.2252873,19.2397541 C17.8731158,18.9015189 17.6712087,18.4291785 17.6712087,17.943626 L17.6712087,5.77442343 C17.6712087,4.14930851 16.3378217,2.82741631 14.6989086,2.82741631 C14.365312,2.82741631 14.0499154,2.89446882 13.7503031,2.99537787 C13.6316492,1.47720016 12.3619831,0.274136188 10.801034,0.274136188 C9.16212087,0.274136188 7.82873396,1.59602845 7.82873396,3.2211433 L7.82873396,3.69575446 C7.53578531,3.59975875 7.22850991,3.53493582 6.90349272,3.53493582 C5.26424636,3.53493582 3.93085945,4.85682808 3.93085945,6.48128236 L3.93085945,7.68058909 C3.6379108,7.58459338 3.3306354,7.51977045 3.0056182,7.51977045 C1.36670504,7.51977045 0.0333181341,8.84166142 0.0333181341,10.4661156 L0.0333181341,24.6350035 C0.0333181341,24.7532537 0.0306527271,24.8946255 0.0276540588,25.0558158 C-0.00533074588,26.8665637 -0.0746322165,30.6340557 2.23530574,32.9660295 C2.67385411,33.4087659 3.17299959,33.7696686 3.7279528,34.0515864 L3.7279528,44.7223484 C3.7279528,45.2825506 4.18607549,45.7370543 4.75148221,45.7370543 C5.31688893,45.7370543 5.77501162,45.2825506 5.77501162,44.7223484 L5.77501162,34.6867272 C6.19856686,34.7506005 6.64073859,34.7866866 7.10639951,34.7866866 C7.67180623,34.7866866 8.12992892,34.3321829 8.12992892,33.7719807 C8.12992892,33.2117785 7.67180623,32.7572748 7.10639951,32.7572748 C5.62008284,32.7572748 4.50459572,32.3602447 3.6959675,31.5443842 C1.98775287,29.8195163 2.04639257,26.6267601 2.07437976,25.0928102 C2.07771155,24.917747 2.08037703,24.7638235 2.08037703,24.6350034 L2.08037703,10.4661156 C2.08037703,9.96074455 2.49551946,9.54918086 3.00561827,9.54918086 C3.51571708,9.54918086 3.93085952,9.96074448 3.93085952,10.4661156 L3.93085952,20.2471933 C3.93085952,20.8073955 4.38898221,21.2618992 4.95438893,21.2618992 C5.51979565,21.2618992 5.97791834,20.8073955 5.97791834,20.2471933 L5.97791834,10.4661156 C5.97791834,10.4180145 5.96588218,10.3731753 5.96359159,10.3256522 C5.97017193,10.2791614 5.97791834,10.2330008 5.97791834,10.1846933 L5.97791834,6.48128236 C5.97791834,5.97591128 6.39306078,5.56434759 6.90349278,5.56434759 C7.41359159,5.56434759 7.82873403,5.97591121 7.82873403,6.48128236 L7.82873403,6.92389497 L7.82873403,18.9193556 C7.82873403,19.4795578 8.28685672,19.9340614 8.85226344,19.9340614 C9.41767016,19.9340614 9.87579285,19.4795578 9.87579285,18.9193556 L9.87579285,6.92389497 L9.87579285,6.48128236 L9.87579285,3.22114337 C9.87579285,2.71511164 10.2909353,2.30354802 10.8010341,2.30354802 C11.3111329,2.30354802 11.7262753,2.71511164 11.7262753,3.22114337 L11.7262753,5.7744235 L11.7262753,9.47783445 L11.7262753,18.9193556 C11.7262753,19.4795578 12.184398,19.9340614 12.7498048,19.9340614 C13.3152115,19.9340614 13.7733342,19.4795578 13.7733342,18.9193556 L13.7733342,9.47783439 L13.7733342,5.77442343 C13.7733342,5.2683917 14.1884766,4.85682808 14.6989086,4.85682808 C15.2090074,4.85682808 15.6241499,5.2683917 15.6241499,5.77442343 L15.6241499,17.943626 C15.6241499,18.9755078 16.0532859,19.9789833 16.8016085,20.6977333 L16.8969397,20.7891873 L16.5230699,21.1700736 C16.1289178,21.571728 16.1379137,22.2138466 16.5430607,22.6049312 C16.948541,22.9953551 17.5955768,22.9880883 17.9903953,22.5851127 L22.6519188,17.8359456 C23.1593521,17.3424656 23.9826403,17.3457687 24.4854091,17.8451943 C24.7332951,18.0909433 24.8692326,18.4179482 24.8675667,18.7654321 C24.8659008,19.0997037 24.7379597,19.4128356 24.5060662,19.6526391 L23.3319394,20.6006228 C23.3072841,20.6204413 23.2836283,20.641581 23.2606389,20.6633813 C21.7103516,22.1728884 21.2458985,24.152754 20.87307,25.7428563 C19.1495291,33.0928678 15.2226679,32.7870026 15.0284238,32.7652023 C14.4743452,32.6964983 13.9642464,33.0836191 13.887615,33.6345727 C13.8109835,34.18949 14.2028034,34.7014672 14.7628792,34.777438 C14.795281,34.7818559 14.9291361,34.7972565 15.1370405,34.7987016 L15.1370405,44.5618188 C15.1370405,45.122021 15.5951632,45.5765247 16.1605699,45.5765247 C16.7259766,45.5765247 17.1840993,45.122021 17.1840993,44.5618188 L17.1840993,34.4093511 C19.0738138,33.6875458 21.5833267,31.6771267 22.8668199,26.2026448 C23.273966,24.4672071 23.6424633,23.1565453 24.662994,22.1431606 L25.8404527,21.1925345 C25.865108,21.172716 25.8887638,21.1515763 25.91142,21.129776 C26.5541245,20.5041729 26.9102941,19.6678333 26.9146254,18.7746807 C26.9186236,17.8815281 26.5701172,17.0418854 25.9330767,16.4103367 C24.6406709,15.1300632 22.5266429,15.1181721 21.2022518,16.4030699 Z" id="Shape"></path>
                <path d="M14.9391314,26.329483 C15.4022518,26.0150299 15.5235294,25.3881055 15.2090074,24.9250138 C14.8938189,24.4606009 14.2574449,24.3390476 13.7883272,24.6508583 C13.671381,24.7294715 10.9279757,26.611566 10.9279757,30.8461133 C10.9279757,31.4063155 11.3860984,31.8608192 11.9515051,31.8608192 C12.5169118,31.8608192 12.9750345,31.4063155 12.9750345,30.8461133 C12.9750345,27.7438615 14.8441751,26.3955446 14.9391314,26.329483 Z" id="Shape"></path>
            </g>
        </g>
    </g>
</svg>