<?xml version="1.0" encoding="UTF-8"?>
<svg width="46px" height="55px" viewBox="0 0 46 55" version="1.1" xmlns="http://www.w3.org/2000/svg" xmlns:xlink="http://www.w3.org/1999/xlink">
    <!-- Generator: Sketch 51.2 (57519) - http://www.bohemiancoding.com/sketch -->
    <title>icn_natural</title>
    <desc>Created with Sketch.</desc>
    <defs></defs>
    <g id="Page-1" stroke="none" stroke-width="1" fill="none" fill-rule="evenodd">
        <g id="Abby" transform="translate(-742.000000, -1175.000000)" fill="#FF5A60" fill-rule="nonzero">
            <path d="M767.200902,1175 C764.122401,1175 761.118986,1175.67715 758.265741,1177.03146 C750.982459,1180.41724 746.25208,1187.86594 746.25208,1195.91655 L746.25208,1198.70041 L742.572897,1205.77291 C741.822043,1207.20246 741.822043,1208.70725 742.497811,1209.91108 C743.17358,1211.11491 744.525117,1211.79207 746.176995,1211.79207 L746.25208,1211.79207 L746.25208,1217.13406 C746.25208,1220.29412 748.804983,1222.9275 752.033655,1222.9275 L752.183826,1222.9275 L755.787924,1222.40082 L755.787924,1230 L781.842551,1224.28181 L781.842551,1210.73871 C785.822077,1206.82627 787.999553,1201.48427 787.999553,1195.91655 C788.074638,1184.40492 778.688965,1175 767.200902,1175 Z M780.775443,1209.13141 L780.212683,1209.69231 L780.212683,1222.67308 L757.792543,1227 L757.792543,1220.14744 L750.913906,1220.34936 C749.627598,1220.26923 748.582472,1219.22756 748.582472,1217.94551 L748.582472,1209.57051 L744.723548,1209.57051 C744.241183,1209.57051 744,1209.41026 744,1208.41026 C744,1208.33013 744,1208.08974 744.160789,1207.6891 L748.502078,1199.35577 L748.502078,1195.50962 C748.502078,1188.37821 752.682579,1181.80769 759.274908,1178.76282 C761.76713,1177.5609 764.42014,1177 767.233939,1177 C777.524404,1177 785.805012,1185.33333 785.805012,1195.50962 C785.805012,1200.63782 784.634367,1205.6859 780.775443,1209.13141 Z M762.020011,1203.0643 C762.770864,1203.59097 763.671889,1204.04241 764.572914,1204.34337 L763.521718,1207.72914 C762.245267,1207.35294 761.118986,1206.75103 759.992705,1205.92339 L762.020011,1203.0643 Z M774.70944,1185.53352 L772.682135,1188.39261 C771.931281,1187.86594 771.030256,1187.4145 770.129232,1187.11354 L771.180427,1183.80301 C772.456879,1184.17921 773.658245,1184.78112 774.70944,1185.53352 Z M774.634355,1201.03283 L777.487599,1203.0643 C776.736745,1204.11765 775.760635,1205.09576 774.70944,1205.84815 L772.607049,1202.98906 C773.432989,1202.46238 774.108757,1201.78523 774.634355,1201.03283 Z M770.129232,1204.34337 L771.255512,1207.6539 C769.979061,1208.0301 768.70261,1208.25581 767.351073,1208.25581 L767.351073,1204.71956 C768.327183,1204.7948 769.228207,1204.64432 770.129232,1204.34337 Z M758.265741,1195.76607 L754.736729,1195.76607 L754.736729,1195.69083 C754.736729,1194.33653 754.961985,1193.05746 755.337412,1191.77839 L758.641168,1192.83174 C758.415912,1193.80985 758.265741,1194.78796 758.265741,1195.76607 Z M774.634355,1190.42408 L777.487599,1188.31737 C778.238453,1189.37073 778.839136,1190.57456 779.289648,1191.77839 L775.985892,1192.90698 C775.610465,1192.0041 775.159952,1191.17647 774.634355,1190.42408 Z M760.067791,1201.10807 L757.214546,1203.21477 C756.463692,1202.16142 755.863009,1200.95759 755.412497,1199.75376 L758.716254,1198.62517 C759.016595,1199.4528 759.467108,1200.28044 760.067791,1201.10807 Z M767.351073,1183.20109 L767.351073,1186.73735 C766.374963,1186.73735 765.473938,1186.88782 764.572914,1187.18878 L763.521718,1183.87825 C764.723084,1183.35157 765.999536,1183.20109 767.351073,1183.20109 Z M759.992705,1190.42408 L757.139461,1188.39261 C757.890315,1187.33926 758.866425,1186.36115 759.91762,1185.60876 L761.944925,1188.46785 C761.269157,1188.99453 760.593388,1189.67168 759.992705,1190.42408 Z M778.163368,1195.69083 L779.815246,1195.6156 L779.815246,1195.69083 C779.815246,1197.04514 779.58999,1198.32421 779.214563,1199.52804 L775.910806,1198.47469 C776.211148,1197.57182 776.361318,1196.66895 776.361318,1195.76607 L776.361318,1195.69083 L778.163368,1195.69083 Z" id="icn_natural"></path>
        </g>
    </g>
</svg>