<?xml version="1.0" encoding="utf-8"?>
<!-- Generator: Adobe Illustrator 23.0.2, SVG Export Plug-In . SVG Version: 6.00 Build 0)  -->
<svg version="1.1" id="Layer_1" xmlns="http://www.w3.org/2000/svg" xmlns:xlink="http://www.w3.org/1999/xlink" x="0px" y="0px"
	 viewBox="0 0 431.9 21.4" style="enable-background:new 0 0 431.9 21.4;" xml:space="preserve">
<style type="text/css">
	.st0{fill-rule:evenodd;clip-rule:evenodd;fill:#76A5AF;}
	.st1{fill:#FFFFFF;}
	.st2{fill-rule:evenodd;clip-rule:evenodd;fill:#E06666;}
	.st3{fill-rule:evenodd;clip-rule:evenodd;fill:#999999;}
</style>
<path class="st0" d="M0,3.6L0,3.6C0,1.6,1.6,0,3.6,0h127.2c0.9,0,1.9,0.4,2.5,1s1,1.6,1,2.5v14.3c0,2-1.6,3.6-3.6,3.6H3.6
	c-2,0-3.6-1.6-3.6-3.6C0,17.8,0,3.6,0,3.6z"/>
<path class="st1" d="M57.8,14.6c-0.9,0-1.6-0.3-2.1-0.8S55,12.5,55,11.6V7.4h0.8v4.2c0,1.5,0.7,2.2,2,2.2c1.4,0,2-0.7,2-2.2V7.4h0.8
	v4.2c0,1-0.2,1.7-0.7,2.2C59.4,14.3,58.7,14.6,57.8,14.6z M64.4,14.6c-0.5,0-0.9,0-1.2-0.1c-0.3-0.1-0.6-0.2-1.1-0.5v-0.8
	c0.3,0.2,0.6,0.4,1,0.5s0.8,0.2,1.3,0.2s0.9-0.1,1.2-0.3c0.3-0.2,0.4-0.5,0.4-0.9c0-0.3-0.1-0.5-0.2-0.7s-0.3-0.3-0.5-0.4
	c-0.2-0.1-0.5-0.2-0.9-0.4c-0.4-0.1-0.8-0.3-1-0.4c-0.3-0.1-0.5-0.3-0.7-0.6s-0.3-0.6-0.3-1c0-0.3,0.1-0.6,0.2-0.8
	c0.1-0.3,0.4-0.5,0.7-0.7c0.3-0.2,0.8-0.3,1.3-0.3c0.4,0,0.7,0,0.9,0.1c0.2,0.1,0.6,0.2,1,0.4v0.8c-0.1,0-0.2-0.1-0.4-0.2
	c-0.2-0.1-0.4-0.2-0.7-0.3c-0.2-0.1-0.5-0.1-0.8-0.1c-0.5,0-0.9,0.1-1.1,0.3s-0.3,0.4-0.3,0.8c0,0.3,0.1,0.5,0.2,0.7
	s0.3,0.3,0.5,0.4c0.2,0.1,0.5,0.2,0.9,0.4c0.4,0.1,0.8,0.3,1.1,0.4c0.3,0.1,0.5,0.4,0.7,0.6c0.2,0.3,0.3,0.6,0.3,1
	c0,0.6-0.2,1-0.6,1.4C65.8,14.4,65.2,14.6,64.4,14.6z M68.3,7.3h4.5V8h-3.7v2.5h3.3v0.8h-3.3v2.5h3.7v0.7h-4.5V7.3z M78.9,14.5
	L77,11.6h-1.8v2.9h-0.8V7.4h2.9c0.7,0,1.2,0.2,1.6,0.5c0.4,0.3,0.5,0.9,0.5,1.5s-0.1,1-0.4,1.4s-0.7,0.6-1.2,0.7l1.9,3L78.9,14.5
	L78.9,14.5z M75.3,10.9h1.8c0.6,0,1-0.1,1.3-0.3s0.4-0.6,0.4-1c0-0.5-0.1-0.8-0.3-1c-0.2-0.2-0.6-0.4-1.1-0.4h-2.1
	C75.3,8.2,75.3,10.9,75.3,10.9z"/>
<path class="st2" d="M148.8,3.6L148.8,3.6c0-2,1.6-3.6,3.6-3.6h127.2c0.9,0,1.9,0.4,2.5,1s1,1.6,1,2.5v14.3c0,2-1.6,3.6-3.6,3.6
	H152.4c-2,0-3.6-1.6-3.6-3.6V3.6z"/>
<path class="st1" d="M207.7,12.2h-3.1l-0.8,2.2H203l2.8-7.1h0.8l2.8,7.1h-0.8L207.7,12.2z M207.4,11.5l-1.2-3.2l-1.2,3.2H207.4z
	 M214.4,10.7c0.3,0.1,0.6,0.4,0.8,0.7c0.2,0.3,0.4,0.7,0.4,1.1c0,0.7-0.2,1.2-0.7,1.5c-0.4,0.3-1.1,0.5-1.9,0.5h-2.6V7.4h2.4
	c1.6,0,2.4,0.6,2.4,1.9c0,0.3-0.1,0.6-0.2,0.8s-0.2,0.3-0.4,0.4C214.5,10.6,214.4,10.6,214.4,10.7z M211.2,10.4h1.8
	c0.4,0,0.8-0.1,1-0.2c0.3-0.1,0.4-0.4,0.4-0.9s-0.1-0.8-0.4-1c-0.2-0.2-0.6-0.3-1.2-0.3h-1.7v2.4H211.2z M213.1,13.7
	c0.5,0,1-0.1,1.3-0.3s0.5-0.5,0.5-1.1c0-0.5-0.2-0.8-0.5-1s-0.8-0.2-1.3-0.2h-1.8v2.6C211.3,13.7,213.1,13.7,213.1,13.7z
	 M221.1,10.7c0.3,0.1,0.6,0.4,0.8,0.7c0.2,0.3,0.4,0.7,0.4,1.1c0,0.7-0.2,1.2-0.7,1.5c-0.4,0.3-1.1,0.5-1.9,0.5h-2.6V7.4h2.4
	c1.6,0,2.4,0.6,2.4,1.9c0,0.3-0.1,0.6-0.2,0.8s-0.2,0.3-0.4,0.4C221.2,10.6,221.1,10.6,221.1,10.7z M217.9,10.4h1.8
	c0.4,0,0.8-0.1,1-0.2c0.3-0.1,0.4-0.4,0.4-0.9s-0.1-0.8-0.4-1c-0.2-0.2-0.6-0.3-1.2-0.3h-1.7v2.4H217.9z M219.8,13.7
	c0.5,0,1-0.1,1.3-0.3s0.5-0.5,0.5-1.1c0-0.5-0.2-0.8-0.5-1s-0.8-0.2-1.3-0.2H218v2.6C218,13.7,219.8,13.7,219.8,13.7z M226.5,11.2
	v3.3h-0.8v-3.3L223,7.4h0.9l2.1,3.1l2.1-3.1h0.9L226.5,11.2z"/>
<path class="st3" d="M297.6,3.6L297.6,3.6c0-2,1.6-3.6,3.6-3.6h127.2c0.9,0,1.9,0.4,2.5,1s1,1.6,1,2.5v14.3c0,2-1.6,3.6-3.6,3.6
	H301.2c-2,0-3.6-1.6-3.6-3.6L297.6,3.6L297.6,3.6z"/>
<path class="st1" d="M337.7,14.6c-1.1,0-1.8-0.3-2.4-0.9c-0.5-0.6-0.8-1.5-0.8-2.7s0.3-2.1,0.8-2.7s1.3-0.9,2.4-0.9s1.8,0.3,2.4,0.9
	c0.5,0.6,0.8,1.5,0.8,2.7s-0.3,2.1-0.8,2.7C339.6,14.3,338.8,14.6,337.7,14.6z M337.7,13.8c0.8,0,1.4-0.2,1.8-0.7s0.6-1.2,0.6-2.2
	s-0.2-1.8-0.6-2.2c-0.4-0.5-1-0.7-1.8-0.7s-1.4,0.2-1.8,0.7s-0.6,1.2-0.6,2.2s0.2,1.8,0.6,2.2S336.9,13.8,337.7,13.8z M345.2,14.6
	c-0.9,0-1.6-0.3-2.1-0.8s-0.7-1.3-0.7-2.2V7.4h0.8v4.2c0,1.5,0.7,2.2,2,2.2c1.4,0,2-0.7,2-2.2V7.4h0.8v4.2c0,1-0.2,1.7-0.7,2.2
	C346.8,14.3,346.1,14.6,345.2,14.6z M351.7,8.1h-2.5V7.4h5.8v0.7h-2.6v6.4h-0.8L351.7,8.1L351.7,8.1z M358.1,14.6
	c-0.5,0-0.9,0-1.2-0.1s-0.6-0.2-1.1-0.5v-0.8c0.3,0.2,0.6,0.4,1,0.5s0.8,0.2,1.3,0.2s0.9-0.1,1.2-0.3c0.3-0.2,0.4-0.5,0.4-0.9
	c0-0.3-0.1-0.5-0.2-0.7s-0.3-0.3-0.5-0.4c-0.2-0.1-0.5-0.2-0.9-0.4c-0.4-0.1-0.8-0.3-1-0.4c-0.3-0.1-0.5-0.3-0.7-0.6s-0.3-0.6-0.3-1
	c0-0.3,0.1-0.6,0.2-0.8c0.1-0.3,0.4-0.5,0.7-0.7c0.3-0.2,0.8-0.3,1.3-0.3c0.4,0,0.7,0,0.9,0.1c0.2,0.1,0.6,0.2,1,0.4v0.8
	c-0.1,0-0.2-0.1-0.4-0.2c-0.2-0.1-0.4-0.2-0.7-0.3c-0.2-0.1-0.5-0.1-0.8-0.1c-0.5,0-0.9,0.1-1.1,0.3s-0.3,0.4-0.3,0.8
	c0,0.3,0.1,0.5,0.2,0.7s0.3,0.3,0.5,0.4s0.5,0.2,0.9,0.4c0.4,0.1,0.8,0.3,1.1,0.4c0.3,0.1,0.5,0.4,0.7,0.6c0.2,0.3,0.3,0.6,0.3,1
	c0,0.6-0.2,1-0.6,1.4C359.5,14.4,358.9,14.6,358.1,14.6z M364.9,14.6c-1.1,0-1.8-0.3-2.4-0.9c-0.5-0.6-0.8-1.5-0.8-2.7
	s0.3-2.1,0.8-2.7s1.3-0.9,2.4-0.9s1.8,0.3,2.4,0.9c0.5,0.6,0.8,1.5,0.8,2.7s-0.3,2.1-0.8,2.7C366.7,14.3,365.9,14.6,364.9,14.6z
	 M364.9,13.8c0.8,0,1.4-0.2,1.8-0.7s0.6-1.2,0.6-2.2s-0.2-1.8-0.6-2.2c-0.4-0.5-1-0.7-1.8-0.7s-1.4,0.2-1.8,0.7s-0.6,1.2-0.6,2.2
	s0.2,1.8,0.6,2.2C363.4,13.6,364,13.8,364.9,13.8z M372.4,14.6c-0.9,0-1.6-0.3-2.1-0.8s-0.7-1.3-0.7-2.2V7.4h0.8v4.2
	c0,1.5,0.7,2.2,2,2.2c1.4,0,2-0.7,2-2.2V7.4h0.8v4.2c0,1-0.2,1.7-0.7,2.2C374,14.3,373.3,14.6,372.4,14.6z M381.4,14.5l-1.9-2.9
	h-1.8v2.9h-0.8V7.4h2.9c0.7,0,1.2,0.2,1.6,0.5c0.4,0.3,0.5,0.9,0.5,1.5s-0.1,1-0.4,1.4s-0.7,0.6-1.2,0.7l1.9,3L381.4,14.5
	L381.4,14.5z M377.8,10.9h1.8c0.6,0,1-0.1,1.3-0.3s0.4-0.6,0.4-1s-0.1-0.8-0.3-1c-0.2-0.2-0.6-0.4-1.1-0.4h-2.1L377.8,10.9
	L377.8,10.9z M386.7,14.5c-1.1,0-1.9-0.3-2.5-0.9c-0.5-0.6-0.8-1.5-0.8-2.7s0.3-2.1,0.8-2.7c0.6-0.6,1.4-0.9,2.5-0.9
	c0.7,0,1.5,0.2,2.2,0.5v0.7c-0.7-0.4-1.4-0.5-2.1-0.5c-0.9,0-1.6,0.2-2,0.7s-0.6,1.2-0.6,2.2s0.2,1.8,0.6,2.2c0.4,0.5,1.1,0.7,2,0.7
	c0.8,0,1.4-0.2,2.1-0.5V14C388.1,14.4,387.4,14.5,386.7,14.5z M390.3,7.3h4.5V8h-3.7v2.5h3.3v0.8h-3.3v2.5h3.7v0.7h-4.5V7.3z"/>
</svg>
