<?xml version="1.0" encoding="UTF-8"?>
<svg width="44px" height="46px" viewBox="0 0 44 46" version="1.1" xmlns="http://www.w3.org/2000/svg" xmlns:xlink="http://www.w3.org/1999/xlink">
    <!-- Generator: Sketch 51.2 (57519) - http://www.bohemiancoding.com/sketch -->
    <title>icn_low</title>
    <desc>Created with Sketch.</desc>
    <defs></defs>
    <g id="Page-1" stroke="none" stroke-width="1" fill="none" fill-rule="evenodd">
        <g id="Abby" transform="translate(-743.000000, -1280.000000)" fill="#FF5A60" fill-rule="nonzero">
            <path d="M768.520038,1299.46123 L761.480052,1299.46123 C760.993413,1299.46123 760.600054,1299.85755 760.600054,1300.34586 L760.600054,1325.11537 C760.600054,1325.60369 760.993413,1326 761.480052,1326 L768.520038,1326 C769.006677,1326 769.400036,1325.60369 769.400036,1325.11537 L769.400036,1300.34586 C769.400036,1299.85755 769.006677,1299.46123 768.520038,1299.46123 Z M767.64004,1324.23075 L762.360051,1324.23075 L762.360051,1301.23049 L767.64004,1301.23049 L767.64004,1324.23075 Z M750.920074,1292.38423 L743.880088,1292.38423 C743.393449,1292.38423 743.00009,1292.78054 743.00009,1293.26886 L743.00009,1325.11537 C743.00009,1325.60369 743.393449,1326 743.880088,1326 L750.920074,1326 C751.406713,1326 751.800072,1325.60369 751.800072,1325.11537 L751.800072,1293.26886 C751.800072,1292.78054 751.406713,1292.38423 750.920074,1292.38423 Z M750.040076,1324.23075 L744.760087,1324.23075 L744.760087,1294.15348 L750.040076,1294.15348 L750.040076,1324.23075 Z M786.120002,1306.53824 L779.080016,1306.53824 C778.593377,1306.53824 778.200018,1306.93455 778.200018,1307.42286 L778.200018,1325.11537 C778.200018,1325.60369 778.593377,1326 779.080016,1326 L786.120002,1326 C786.606641,1326 787,1325.60369 787,1325.11537 L787,1307.42286 C787,1306.93455 786.606641,1306.53824 786.120002,1306.53824 Z M785.240004,1324.23075 L779.960014,1324.23075 L779.960014,1308.30749 L785.240004,1308.30749 L785.240004,1324.23075 Z M743.23857,1281.49095 C742.90593,1281.13533 742.92353,1280.57625 743.27641,1280.24098 C743.630169,1279.90659 744.187208,1279.92163 744.519847,1280.27725 C744.654487,1280.42144 757.9715,1294.26406 783.959606,1295.00272 L781.096972,1292.12503 C780.752013,1291.77915 780.752013,1291.22006 781.096972,1290.87417 C781.441931,1290.52829 781.99633,1290.52829 782.34129,1290.87417 L786.741281,1295.2973 C787.08096,1295.63877 787.07656,1296.21289 786.743041,1296.54816 L782.34305,1300.97129 C781.99545,1301.31718 781.442811,1301.31718 781.097852,1300.97129 C780.753773,1300.6254 780.753773,1300.06632 781.097852,1299.72043 L784.022086,1296.77993 C757.205901,1296.07931 743.810569,1282.10046 743.23857,1281.49095 Z" id="icn_low"></path>
        </g>
    </g>
</svg>