<?xml version="1.0" encoding="UTF-8"?>
<svg width="48px" height="46px" viewBox="0 0 48 46" version="1.1" xmlns="http://www.w3.org/2000/svg" xmlns:xlink="http://www.w3.org/1999/xlink">
    <!-- Generator: Sketch 51.2 (57519) - http://www.bohemiancoding.com/sketch -->
    <title>icn_relation</title>
    <desc>Created with Sketch.</desc>
    <defs></defs>
    <g id="Page-1" stroke="none" stroke-width="1" fill="none" fill-rule="evenodd">
        <g id="Abby" transform="translate(-188.000000, -1298.000000)" fill="#FF5A60" fill-rule="nonzero">
            <g id="icn_relation" transform="translate(188.000000, 1298.000000)">
                <path d="M9.65217391,11.9181818 C6.20869565,11.9181818 3.44347826,14.6886364 3.44347826,18.1386364 C3.44347826,21.5886364 6.26086957,24.3590909 9.65217391,24.3590909 C13.0434783,24.3590909 15.8608696,21.5886364 15.8608696,18.1386364 C15.8608696,14.6886364 13.0956522,11.9181818 9.65217391,11.9181818 Z M9.65217391,22.2681818 C7.35652174,22.2681818 5.53043478,20.4386364 5.53043478,18.1386364 C5.53043478,15.8386364 7.35652174,14.0090909 9.65217391,14.0090909 C11.9478261,14.0090909 13.773913,15.8386364 13.773913,18.1386364 C13.773913,20.3863636 11.9478261,22.2681818 9.65217391,22.2681818 Z" id="Shape"></path>
                <path d="M1.09565217,45.8431818 L18.2608696,45.8431818 C18.8347826,45.8431818 19.3043478,45.3727273 19.3043478,44.7977273 L19.3043478,34.2386364 C19.3043478,30.0045455 15.8608696,26.5022727 11.5826087,26.5022727 L7.72173913,26.5022727 C3.49565217,26.5022727 -3.55271368e-15,29.9522727 -3.55271368e-15,34.2386364 L-3.55271368e-15,44.7454545 C0.052173913,45.3727273 0.52173913,45.8431818 1.09565217,45.8431818 Z M2.13913043,34.2386364 C2.13913043,31.1545455 4.64347826,28.5931818 7.77391304,28.5931818 L11.6347826,28.5931818 C14.7130435,28.5931818 17.2695652,31.1022727 17.2695652,34.2386364 L17.2695652,43.7 L2.13913043,43.7 L2.13913043,34.2386364 Z" id="Shape"></path>
                <path d="M32.1391304,18.1386364 C32.1391304,21.5886364 34.9043478,24.3590909 38.3478261,24.3590909 C41.7913043,24.3590909 44.5565217,21.5886364 44.5565217,18.1386364 C44.5565217,14.6886364 41.7391304,11.9181818 38.3478261,11.9181818 C34.9565217,11.9181818 32.1391304,14.6886364 32.1391304,18.1386364 Z M38.3478261,14.0090909 C40.6434783,14.0090909 42.4695652,15.8386364 42.4695652,18.1386364 C42.4695652,20.4386364 40.6434783,22.2681818 38.3478261,22.2681818 C36.0521739,22.2681818 34.226087,20.4386364 34.226087,18.1386364 C34.226087,15.8386364 36.0521739,14.0090909 38.3478261,14.0090909 Z" id="Shape"></path>
                <path d="M29.7391304,45.8431818 L46.9043478,45.8431818 C47.4782609,45.8431818 47.9478261,45.3727273 47.9478261,44.7977273 L47.9478261,34.2386364 C47.9478261,30.0045455 44.5043478,26.5022727 40.226087,26.5022727 L36.3652174,26.5022727 C32.1391304,26.5022727 28.6434783,29.9522727 28.6434783,34.2386364 L28.6434783,44.7454545 C28.6956522,45.3727273 29.1652174,45.8431818 29.7391304,45.8431818 Z M30.7826087,34.2386364 C30.7826087,31.1545455 33.2869565,28.5931818 36.4173913,28.5931818 L40.2782609,28.5931818 C43.3565217,28.5931818 45.9130435,31.1022727 45.9130435,34.2386364 L45.9130435,43.7 L30.7826087,43.7 L30.7826087,34.2386364 Z" id="Shape"></path>
                <path d="M18.9913043,10.2977273 C20.8695652,10.2977273 22.5913043,9.93181818 23.9478261,9.30454545 C25.3565217,9.93181818 27.1304348,10.2977273 28.9565217,10.2977273 C29.2173913,10.2977273 29.426087,10.2977273 29.6869565,10.2977273 C30.8869565,11.3431818 32.2434783,11.7090909 33.6,11.7090909 C35.3217391,11.7090909 36.8869565,11.1340909 37.826087,10.5590909 C38.2434783,10.2977273 38.4521739,9.82727273 38.3478261,9.35681818 C38.1913043,8.88636364 37.773913,8.57272727 37.3043478,8.625 C37.3043478,8.625 36.9913043,8.57272727 35.9478261,7.99772727 C36.7826087,7.21363636 37.2,6.27272727 37.2,5.27954545 C37.2,2.45681818 33.5478261,0.209090909 28.9565217,0.209090909 C27.1304348,0.209090909 25.4086957,0.575 23.9478261,1.20227273 C22.5913043,0.575 20.8695652,0.209090909 18.9913043,0.209090909 C14.3478261,0.209090909 10.7478261,2.40454545 10.7478261,5.27954545 C10.7478261,6.27272727 11.1652174,7.21363636 12,7.99772727 C11.0086957,8.57272727 10.6956522,8.625 10.6956522,8.625 C10.226087,8.57272727 9.75652174,8.88636364 9.65217391,9.35681818 C9.54782609,9.82727273 9.70434783,10.2977273 10.1217391,10.5590909 C10.226087,10.6113636 12.1565217,11.7090909 14.4,11.7090909 C15.9130435,11.7090909 17.2173913,11.2386364 18.2608696,10.2977273 C18.5217391,10.2454545 18.7826087,10.2977273 18.9913043,10.2977273 Z M35.1652174,5.22727273 C35.1652174,5.85454545 34.5913043,6.58636364 33.6521739,7.10909091 C33.3391304,7.26590909 33.1304348,7.63181818 33.1304348,7.99772727 C33.1304348,8.36363636 33.2869565,8.72954545 33.6,8.88636364 C33.9652174,9.14772727 34.2782609,9.30454545 34.5913043,9.51363636 C33.4434783,9.72272727 32.0347826,9.61818182 30.9913043,8.52045455 C30.9391304,8.46818182 30.9391304,8.41590909 30.8869565,8.41590909 C30.6782609,8.20681818 30.3652174,8.10227273 30.1043478,8.15454545 C29.7391304,8.20681818 29.426087,8.20681818 29.0608696,8.20681818 C28.0695652,8.20681818 27.0782609,8.10227273 26.1913043,7.84090909 C26.9217391,7.10909091 27.3391304,6.22045455 27.3391304,5.22727273 C27.3391304,4.28636364 26.9217391,3.39772727 26.1913043,2.61363636 C27.0782609,2.35227273 28.0173913,2.24772727 29.0608696,2.24772727 C32.6086957,2.24772727 35.1652174,3.81590909 35.1652174,5.22727273 Z M17.1652174,8.41590909 C17.1652174,8.46818182 17.1130435,8.46818182 17.1652174,8.41590909 C16.4347826,9.2 15.4956522,9.56590909 14.4,9.56590909 C14.0869565,9.56590909 13.773913,9.51363636 13.4608696,9.46136364 C13.773913,9.30454545 14.0869565,9.09545455 14.4521739,8.83409091 C14.7652174,8.625 14.9217391,8.31136364 14.9217391,7.94545455 C14.9217391,7.57954545 14.7130435,7.26590909 14.4,7.05681818 C13.4086957,6.48181818 12.8869565,5.80227273 12.8869565,5.175 C12.8869565,3.76363636 15.4434783,2.19545455 19.0434783,2.19545455 C20.8173913,2.19545455 22.3826087,2.56136364 23.4782609,3.13636364 C23.5304348,3.18863636 23.5826087,3.18863636 23.6347826,3.24090909 C24.626087,3.81590909 25.2521739,4.49545455 25.2521739,5.175 C25.2521739,5.85454545 24.6782609,6.53409091 23.6869565,7.10909091 C23.6347826,7.10909091 23.5826087,7.16136364 23.5304348,7.21363636 C22.4347826,7.78863636 20.9217391,8.15454545 19.1478261,8.15454545 C18.8347826,8.15454545 18.5217391,8.15454545 18.1043478,8.10227273 C17.6869565,8.10227273 17.373913,8.20681818 17.1652174,8.41590909 Z" id="Shape"></path>
            </g>
        </g>
    </g>
</svg>