<?xml version="1.0" encoding="UTF-8"?>
<svg width="46px" height="60px" viewBox="0 0 46 60" version="1.1" xmlns="http://www.w3.org/2000/svg" xmlns:xlink="http://www.w3.org/1999/xlink">
    <!-- Generator: Sketch 51.2 (57519) - http://www.bohemiancoding.com/sketch -->
    <title>icn_heavyinfo</title>
    <desc>Created with Sketch.</desc>
    <defs></defs>
    <g id="Page-1" stroke="none" stroke-width="1" fill="none" fill-rule="evenodd">
        <g id="Abby" transform="translate(-188.000000, -1173.000000)" fill="#FF5A60" fill-rule="nonzero">
            <g id="icn_heavyinfo" transform="translate(188.000000, 1173.000000)">
                <path d="M34.4638054,34.1821396 C34.2487791,34.7676086 33.9893503,35.3310943 33.6909586,35.8703435 C39.7677918,39.035343 44.122449,45.3726089 44.122449,52.3123133 L44.122449,56.1351084 C44.122449,57.2323608 43.2799418,58.125 42.2444288,58.125 L36.1428571,58.125 L36.1428571,53.4375 C36.1428571,52.9197657 35.7225167,52.5 35.2040816,52.5 C34.6856394,52.5 34.2653061,52.9197657 34.2653061,53.4375 L34.2653061,58.125 L11.7346939,58.125 L11.7346939,53.4375 C11.7346939,52.9197657 11.3143535,52.5 10.7959184,52.5 C10.2774761,52.5 9.85714286,52.9197657 9.85714286,53.4375 L9.85714286,58.125 L3.75463289,58.125 C2.71958191,58.125 1.87755102,57.2323608 1.87755102,56.1351085 L1.87755102,52.3123133 C1.87755102,45.3726089 6.23177584,39.035343 12.3090325,35.8703435 C12.0106426,35.3306723 11.7512119,34.7671402 11.5361857,34.1821396 C4.92213701,37.5906551 0,44.4277954 0,52.3123133 L0,56.1351084 C0,58.2691884 1.68134727,60 3.75463289,60 L42.2444288,60 C44.3177145,60 46,58.2691884 46,56.1351085 L46,52.3123133 C46,44.4277954 41.0778531,37.5910771 34.4638054,34.1821396 Z" id="Shape"></path>
                <path d="M12.6734694,30 C12.6734694,35.6954992 17.2962774,40.3125 22.9995308,40.3125 C28.7023063,40.3125 33.3265306,35.6954992 33.3265306,30 C33.3265306,24.3040305 28.7023063,19.6875 22.9995308,19.6875 C17.2962774,19.6875 12.6734694,24.3040305 12.6734694,30 Z M22.9995308,21.5625 C27.6585746,21.5625 31.4489796,25.3477496 31.4489796,30 C31.4489796,34.6522504 27.6585746,38.4375 22.9995308,38.4375 C18.3409473,38.4375 14.5510204,34.6522486 14.5510204,30 C14.5510204,25.3477514 18.3409473,21.5625 22.9995308,21.5625 Z" id="Shape"></path>
                <path d="M12.9879082,8.94881217 L8.90554865,9.74714039 C8.56266122,9.81445313 8.28576896,10.0657502 8.18630626,10.4003906 C8.08684356,10.7350311 8.18175282,11.0970935 8.43245264,11.3401875 C8.43245264,11.3401875 14.8338216,17.5460619 14.8361225,17.5478911 C15.1785408,17.8798127 15.7927822,17.9091096 16.1635972,17.5277817 C16.5243689,17.1565318 16.515638,16.5628123 16.1434604,16.2021089 L11.0278386,11.2426874 L14.8402533,10.4974222 C15.1592956,10.4347032 15.4237954,10.2118125 15.5383741,9.90735947 C15.6529976,9.60342225 15.6016476,9.26146833 15.4027204,9.00421856 L8.72263275,0.364359375 C8.4058859,-0.045328125 7.81595951,-0.1213125 7.40566781,0.19546875 C6.99542268,0.51178125 6.91980413,1.10048442 7.23655097,1.51064067 L12.9879082,8.94881217 Z" id="Shape"></path>
                <path d="M5.90128006,16.5262037 L3.64601229,17.5712818 C3.33565329,17.7154684 3.12804271,18.0162191 3.10466772,18.3572352 C3.08082268,18.6978274 3.24492055,19.0246403 3.53232709,19.209609 L8.40955116,22.3503273 C8.83631433,22.6259064 9.42900987,22.5022977 9.70726298,22.0706248 C9.98823957,21.6352969 9.86263094,21.0553121 9.42718349,20.7746726 L5.98149857,18.5558902 L7.98461077,17.6275777 C8.27112378,17.494828 8.47146017,17.2270309 8.51821025,16.9152652 C8.56449118,16.6030776 8.45080593,16.2890624 8.21564295,16.0785001 L2.03432634,10.5514687 C1.64787612,10.205859 1.0551833,10.2392811 0.708678018,10.6246877 C0.363020594,11.0106093 0.39559648,11.6029215 0.782000141,11.9485313 L5.90128006,16.5262037 Z" id="Shape"></path>
                <path d="M30.5106732,17.8015315 C30.7499152,17.8015315 30.9887417,17.7177661 31.1638704,17.5478911 L37.5675367,11.3401875 C37.8182383,11.0970935 37.9131493,10.7350311 37.8136866,10.4003906 C37.7142203,10.0657502 37.4373298,9.81445313 37.0944424,9.74714039 L33.0120846,8.94881217 L38.7634491,1.51064067 C39.080187,1.10048442 39.0045675,0.51178125 38.5943224,0.19546875 C38.1844998,-0.120375 37.5941052,-0.045796875 37.2773673,0.364359375 L30.5972725,9.00421856 C30.3983435,9.26146833 30.3469935,9.60342225 30.4616187,9.90735947 C30.5761938,10.2118125 30.8406971,10.4347032 31.1597377,10.4974222 L34.9721524,11.2426874 L29.8565307,16.2021089 C29.4843531,16.5628123 29.4756223,17.1565318 29.8363939,17.5277817 C30.0128368,17.7095157 30.2617515,17.8010631 30.5106732,17.8015315 Z" id="Shape"></path>
                <path d="M37.4817826,16.9152653 C37.5285308,17.227031 37.7288672,17.4948281 38.0153802,17.6275778 L40.0184933,18.5558903 L36.5728165,20.7746727 C36.13736,21.0553122 36.0117514,21.635297 36.292728,22.0706249 C36.4719858,22.3484999 36.7740374,22.5 37.0825709,22.5 C37.2567148,22.5 37.4332043,22.4514842 37.5904488,22.3503274 L42.4676631,19.209609 C42.7550714,19.0246403 42.9191701,18.6978275 42.8953233,18.3572352 C42.8719492,18.0162192 42.6643395,17.7154684 42.3539796,17.5712818 L40.098711,16.5262038 L45.2179998,11.9485313 C45.6043946,11.6029215 45.6369722,11.0106093 45.291313,10.6246877 C44.9457039,10.2392811 44.3521149,10.205859 43.9656737,10.5514687 L37.7843499,16.0785001 C37.5491869,16.2890625 37.4354999,16.6030777 37.4817826,16.9152653 Z" id="Shape"></path>
            </g>
        </g>
    </g>
</svg>