<?xml version="1.0" encoding="utf-8"?>
<!-- Generator: Adobe Illustrator 23.0.2, SVG Export Plug-In . SVG Version: 6.00 Build 0)  -->
<svg version="1.1" id="Layer_1" xmlns="http://www.w3.org/2000/svg" xmlns:xlink="http://www.w3.org/1999/xlink" x="0px" y="0px"
	 viewBox="0 0 751.4 399.8" style="enable-background:new 0 0 751.4 399.8;" xml:space="preserve">
<style type="text/css">
	.st0{fill:none;}
	.st1{fill-rule:evenodd;clip-rule:evenodd;fill:#FFFFFF;}
	.st2{fill:#333333;}
	.st3{clip-path:url(#SVGID_2_);}
	.st4{fill-rule:evenodd;clip-rule:evenodd;fill:#907DBF;}
	.st5{fill:none;stroke:#FFFFFF;stroke-linejoin:round;stroke-miterlimit:10;}
	.st6{fill-rule:evenodd;clip-rule:evenodd;fill:#75A6AE;}
	.st7{fill-rule:evenodd;clip-rule:evenodd;fill:#E26367;}
	.st8{fill:#F3F3F3;}
	.st9{fill:#FFFFFF;}
	.st10{fill-rule:evenodd;clip-rule:evenodd;fill-opacity:0;}
	.st11{fill:none;stroke:#F3F3F3;stroke-linejoin:round;stroke-miterlimit:10;}
	.st12{fill-rule:evenodd;clip-rule:evenodd;fill:#F3F3F3;stroke:#F3F3F3;stroke-miterlimit:10;}
	.st13{fill-rule:evenodd;clip-rule:evenodd;fill:#FFFFFF;stroke:#FFFFFF;stroke-miterlimit:10;}
</style>
<rect x="-79.1" y="-55.7" class="st0" width="960" height="540"/>
<path class="st1" d="M67.7,155.9h225.6v60H67.7V155.9z"/>
<path class="st2" d="M81.9,192.4v-10.5h4c0.7,0,1.2,0,1.6,0.1c0.5,0.1,0.9,0.2,1.3,0.5c0.4,0.2,0.6,0.6,0.8,1
	c0.2,0.4,0.3,0.9,0.3,1.4c0,0.9-0.3,1.6-0.9,2.3c-0.6,0.6-1.6,0.9-3.1,0.9h-2.7v4.3H81.9z M83.3,186.9H86c0.9,0,1.5-0.2,1.9-0.5
	s0.6-0.8,0.6-1.4c0-0.4-0.1-0.8-0.3-1.1s-0.5-0.5-0.9-0.6c-0.2-0.1-0.7-0.1-1.3-0.1h-2.7C83.3,183.2,83.3,186.9,83.3,186.9z
	 M91.7,192.4v-10.5h1.4v4.3h5.5v-4.3h1.4v10.5h-1.4v-4.9h-5.5v4.9H91.7z M101.1,192.4l4-10.5h1.5l4.3,10.5h-1.6l-1.2-3.2h-4.4
	l-1.2,3.2H101.1z M104.2,188.1h3.6l-1.1-2.9c-0.3-0.9-0.6-1.6-0.8-2.2c-0.1,0.7-0.3,1.3-0.6,2L104.2,188.1z M111.6,189l1.3-0.1
	c0.1,0.5,0.2,1,0.4,1.3c0.2,0.3,0.6,0.6,1.1,0.8s1,0.3,1.6,0.3c0.5,0,1-0.1,1.4-0.2s0.7-0.4,0.9-0.6c0.2-0.3,0.3-0.6,0.3-0.9
	c0-0.3-0.1-0.6-0.3-0.9c-0.2-0.2-0.5-0.5-0.9-0.6c-0.3-0.1-0.9-0.3-1.9-0.5s-1.6-0.4-2-0.7c-0.5-0.3-0.9-0.6-1.1-1s-0.4-0.8-0.4-1.3
	s0.1-1,0.4-1.5s0.7-0.8,1.3-1c0.6-0.2,1.2-0.4,1.9-0.4c0.8,0,1.5,0.1,2.1,0.4s1,0.6,1.4,1.1c0.3,0.5,0.5,1,0.5,1.7l-1.3,0.1
	c-0.1-0.7-0.3-1.2-0.7-1.5c-0.4-0.3-1-0.5-1.8-0.5s-1.5,0.2-1.8,0.5c-0.4,0.3-0.6,0.7-0.6,1.1c0,0.4,0.1,0.7,0.4,0.9s1,0.5,2.1,0.8
	c1.1,0.2,1.9,0.5,2.3,0.7c0.6,0.3,1.1,0.6,1.4,1.1c0.3,0.4,0.4,0.9,0.4,1.5s-0.2,1.1-0.5,1.6s-0.8,0.9-1.4,1.1
	c-0.6,0.3-1.3,0.4-2,0.4c-0.9,0-1.7-0.1-2.4-0.4c-0.6-0.3-1.1-0.7-1.5-1.2C111.8,190.4,111.6,189.7,111.6,189z M121.9,192.4v-10.5
	h7.6v1.2h-6.2v3.2h5.8v1.2h-5.8v3.6h6.4v1.2h-7.8V192.4z M141.9,191.2v1.2H135c0-0.3,0-0.6,0.2-0.9c0.2-0.5,0.5-0.9,0.8-1.4
	c0.4-0.5,1-1,1.7-1.6c1.1-0.9,1.9-1.7,2.3-2.2c0.4-0.6,0.6-1.1,0.6-1.6s-0.2-0.9-0.6-1.3c-0.4-0.4-0.8-0.5-1.4-0.5
	c-0.6,0-1.1,0.2-1.5,0.6s-0.6,0.9-0.6,1.5l-1.3-0.1c0.1-1,0.4-1.7,1-2.2s1.4-0.8,2.4-0.8s1.8,0.3,2.4,0.8c0.6,0.6,0.9,1.2,0.9,2.1
	c0,0.4-0.1,0.8-0.3,1.2s-0.4,0.8-0.8,1.3c-0.4,0.4-1.1,1.1-2,1.9c-0.8,0.6-1.3,1.1-1.5,1.3s-0.4,0.5-0.5,0.7H141.9z M144,186.3v-1.5
	h1.5v1.5H144z M144,192.4v-1.5h1.5v1.5H144z"/>
<path class="st2" d="M151.9,181.9h4.2c0.8,0,1.5,0,1.9,0.1s0.8,0.2,1.1,0.4s0.6,0.5,0.8,0.9s0.3,0.8,0.3,1.2c0,0.5-0.1,0.9-0.4,1.4
	c-0.3,0.4-0.6,0.7-1.1,0.9c0.6,0.2,1.1,0.5,1.5,1c0.3,0.4,0.5,1,0.5,1.6c0,0.5-0.1,0.9-0.3,1.4c-0.2,0.4-0.5,0.8-0.9,1.1
	s-0.9,0.4-1.4,0.5c-0.4,0-1.2,0.1-2.6,0.1h-3.6V181.9z M154,183.6v2.4h1.4c0.8,0,1.3,0,1.5,0c0.4,0,0.6-0.2,0.8-0.4s0.3-0.5,0.3-0.8
	s-0.1-0.6-0.3-0.8s-0.4-0.3-0.8-0.4c-0.2,0-0.8,0-1.8,0H154z M154,187.8v2.8h2c0.8,0,1.2,0,1.5-0.1s0.6-0.2,0.8-0.4s0.3-0.5,0.3-0.9
	c0-0.3-0.1-0.6-0.2-0.8c-0.1-0.2-0.4-0.4-0.7-0.5s-0.9-0.2-1.9-0.2L154,187.8L154,187.8z M166.9,190l2,0.3c-0.2,0.7-0.7,1.3-1.2,1.7
	c-0.6,0.4-1.2,0.6-2.1,0.6c-1.3,0-2.3-0.4-2.9-1.3c-0.5-0.7-0.8-1.6-0.8-2.6c0-1.2,0.3-2.2,1-2.9s1.5-1.1,2.5-1.1
	c1.1,0,2,0.4,2.7,1.1c0.7,0.7,1,1.9,0.9,3.4h-5c0,0.6,0.2,1.1,0.5,1.4c0.3,0.3,0.7,0.5,1.2,0.5c0.3,0,0.6-0.1,0.8-0.2
	C166.6,190.6,166.8,190.4,166.9,190z M167,187.9c0-0.6-0.2-1-0.5-1.3s-0.6-0.5-1-0.5s-0.8,0.2-1.1,0.5s-0.4,0.7-0.4,1.3H167z
	 M174.1,184.8v1.6h-1.4v3.1c0,0.6,0,1,0,1.1s0.1,0.2,0.2,0.2c0.1,0.1,0.2,0.1,0.3,0.1c0.2,0,0.5-0.1,0.8-0.2l0.2,1.6
	c-0.5,0.2-1,0.3-1.6,0.3c-0.4,0-0.7-0.1-1-0.2c-0.3-0.1-0.5-0.3-0.6-0.5s-0.2-0.5-0.3-0.8c0-0.2-0.1-0.7-0.1-1.4v-3.3h-0.9v-1.6h0.9
	v-1.5l2-1.2v2.7L174.1,184.8L174.1,184.8z M179,184.8v1.6h-1.4v3.1c0,0.6,0,1,0,1.1s0.1,0.2,0.2,0.2c0.1,0.1,0.2,0.1,0.3,0.1
	c0.2,0,0.5-0.1,0.8-0.2l0.2,1.6c-0.5,0.2-1,0.3-1.6,0.3c-0.4,0-0.7-0.1-1-0.2c-0.3-0.1-0.5-0.3-0.6-0.5s-0.2-0.5-0.3-0.8
	c0-0.2-0.1-0.7-0.1-1.4v-3.3h-0.9v-1.6h0.9v-1.5l2-1.2v2.7L179,184.8L179,184.8z M184.8,190l2,0.3c-0.2,0.7-0.7,1.3-1.2,1.7
	c-0.6,0.4-1.2,0.6-2.1,0.6c-1.3,0-2.3-0.4-2.9-1.3c-0.5-0.7-0.8-1.6-0.8-2.6c0-1.2,0.3-2.2,1-2.9s1.5-1.1,2.5-1.1
	c1.1,0,2,0.4,2.7,1.1c0.7,0.7,1,1.9,0.9,3.4h-5c0,0.6,0.2,1.1,0.5,1.4c0.3,0.3,0.7,0.5,1.2,0.5c0.3,0,0.6-0.1,0.8-0.2
	C184.5,190.6,184.7,190.4,184.8,190z M184.9,187.9c0-0.6-0.2-1-0.5-1.3s-0.6-0.5-1-0.5s-0.8,0.2-1.1,0.5s-0.4,0.7-0.4,1.3H184.9z
	 M190.5,192.4h-2v-7.6h1.9v1.1c0.3-0.5,0.6-0.8,0.9-1c0.3-0.2,0.6-0.2,0.9-0.2c0.5,0,0.9,0.1,1.3,0.4l-0.6,1.8
	c-0.3-0.2-0.6-0.3-0.9-0.3c-0.3,0-0.5,0.1-0.7,0.2c-0.2,0.2-0.4,0.4-0.5,0.8c-0.1,0.4-0.2,1.3-0.2,2.5L190.5,192.4L190.5,192.4z
	 M198.3,192.4v-10.5h7.8v1.8h-5.7v2.3h5.3v1.8h-5.3v2.9h5.9v1.8h-8V192.4z M207.1,192.4l2.8-3.9l-2.6-3.7h2.5l1.3,2.1l1.4-2.1h2.4
	l-2.6,3.6l2.8,4h-2.5L211,190l-1.6,2.4H207.1z M216.2,184.8h1.9v1.1c0.2-0.4,0.6-0.7,1-0.9s0.9-0.4,1.4-0.4c0.9,0,1.6,0.3,2.2,1
	c0.6,0.7,0.9,1.7,0.9,2.9c0,1.3-0.3,2.3-0.9,3c-0.6,0.7-1.4,1-2.2,1c-0.4,0-0.8-0.1-1.1-0.2c-0.3-0.2-0.7-0.5-1.1-0.9v3.8h-2
	L216.2,184.8L216.2,184.8z M218.2,188.5c0,0.9,0.2,1.5,0.5,1.9s0.8,0.6,1.2,0.6c0.5,0,0.9-0.2,1.2-0.6c0.3-0.4,0.5-1,0.5-1.8
	s-0.2-1.4-0.5-1.8c-0.3-0.4-0.7-0.6-1.2-0.6s-0.9,0.2-1.2,0.6C218.3,187.2,218.2,187.7,218.2,188.5z M229.6,190l2,0.3
	c-0.2,0.7-0.7,1.3-1.2,1.7c-0.6,0.4-1.2,0.6-2.1,0.6c-1.3,0-2.3-0.4-2.9-1.3c-0.5-0.7-0.8-1.6-0.8-2.6c0-1.2,0.3-2.2,1-2.9
	s1.5-1.1,2.5-1.1c1.1,0,2,0.4,2.7,1.1c0.7,0.7,1,1.9,0.9,3.4h-5c0,0.6,0.2,1.1,0.5,1.4c0.3,0.3,0.7,0.5,1.2,0.5
	c0.3,0,0.6-0.1,0.8-0.2C229.3,190.6,229.5,190.4,229.6,190z M229.7,187.9c0-0.6-0.2-1-0.5-1.3s-0.6-0.5-1-0.5s-0.8,0.2-1.1,0.5
	s-0.4,0.7-0.4,1.3H229.7z M235.3,192.4h-2v-7.6h1.9v1.1c0.3-0.5,0.6-0.8,0.9-1c0.3-0.2,0.6-0.2,0.9-0.2c0.5,0,0.9,0.1,1.3,0.4
	l-0.6,1.8c-0.3-0.2-0.6-0.3-0.9-0.3c-0.3,0-0.5,0.1-0.7,0.2s-0.4,0.4-0.5,0.8c-0.1,0.4-0.2,1.3-0.2,2.5L235.3,192.4L235.3,192.4z
	 M239.1,183.8v-1.9h2v1.9H239.1z M239.1,192.4v-7.6h2v7.6H239.1z M247.5,190l2,0.3c-0.2,0.7-0.7,1.3-1.2,1.7
	c-0.6,0.4-1.2,0.6-2.1,0.6c-1.3,0-2.3-0.4-2.9-1.3c-0.5-0.7-0.8-1.6-0.8-2.6c0-1.2,0.3-2.2,1-2.9s1.5-1.1,2.5-1.1
	c1.1,0,2,0.4,2.7,1.1c0.7,0.7,1,1.9,0.9,3.4h-5c0,0.6,0.2,1.1,0.5,1.4c0.3,0.3,0.7,0.5,1.2,0.5c0.3,0,0.6-0.1,0.8-0.2
	C247.3,190.6,247.4,190.4,247.5,190z M247.6,187.9c0-0.6-0.2-1-0.5-1.3s-0.6-0.5-1-0.5s-0.8,0.2-1.1,0.5s-0.4,0.7-0.4,1.3H247.6z
	 M258.2,192.4h-2v-3.9c0-0.8,0-1.4-0.1-1.6c-0.1-0.2-0.2-0.4-0.4-0.6c-0.2-0.1-0.4-0.2-0.7-0.2s-0.7,0.1-0.9,0.3
	c-0.3,0.2-0.5,0.4-0.6,0.8s-0.2,0.9-0.2,1.8v3.4h-2v-7.6h1.9v1.1c0.7-0.9,1.5-1.3,2.5-1.3c0.4,0,0.9,0.1,1.2,0.2s0.6,0.4,0.8,0.6
	c0.2,0.2,0.3,0.5,0.4,0.8s0.1,0.8,0.1,1.4V192.4z M266.9,187l-2,0.4c-0.1-0.4-0.2-0.7-0.5-0.9c-0.2-0.2-0.5-0.3-0.9-0.3
	c-0.5,0-0.9,0.2-1.2,0.5s-0.5,0.9-0.5,1.7c0,0.9,0.2,1.5,0.5,1.9s0.7,0.5,1.2,0.5c0.4,0,0.7-0.1,0.9-0.3c0.2-0.2,0.4-0.6,0.5-1.1
	l2,0.3c-0.2,0.9-0.6,1.6-1.2,2.1s-1.4,0.7-2.3,0.7c-1.1,0-2-0.3-2.7-1s-1-1.7-1-2.9s0.3-2.2,1-2.9s1.6-1,2.7-1
	c0.9,0,1.7,0.2,2.2,0.6C266.2,185.6,266.6,186.2,266.9,187z M272.8,190l2,0.3c-0.2,0.7-0.7,1.3-1.2,1.7c-0.6,0.4-1.2,0.6-2.1,0.6
	c-1.3,0-2.3-0.4-2.9-1.3c-0.5-0.7-0.8-1.6-0.8-2.6c0-1.2,0.3-2.2,1-2.9s1.5-1.1,2.5-1.1c1.1,0,2,0.4,2.7,1.1c0.7,0.7,1,1.9,0.9,3.4
	h-5c0,0.6,0.2,1.1,0.5,1.4c0.3,0.3,0.7,0.5,1.2,0.5c0.3,0,0.6-0.1,0.8-0.2C272.5,190.6,272.7,190.4,272.8,190z M272.9,187.9
	c0-0.6-0.2-1-0.5-1.3s-0.6-0.5-1-0.5s-0.8,0.2-1.1,0.5c-0.3,0.3-0.4,0.7-0.4,1.3H272.9z"/>
<path class="st1" d="M0,50h293.3v60H0V50z"/>
<path class="st2" d="M14.2,86.5V76h4c0.7,0,1.2,0,1.6,0.1c0.5,0.1,0.9,0.2,1.3,0.5c0.4,0.2,0.6,0.6,0.8,1c0.2,0.4,0.3,0.9,0.3,1.4
	c0,0.9-0.3,1.6-0.9,2.3c-0.6,0.6-1.6,0.9-3.1,0.9h-2.7v4.3C15.5,86.5,14.2,86.5,14.2,86.5z M15.6,81h2.7c0.9,0,1.5-0.2,1.9-0.5
	s0.6-0.8,0.6-1.4c0-0.4-0.1-0.8-0.3-1.1s-0.5-0.5-0.9-0.6c-0.2-0.1-0.7-0.1-1.3-0.1h-2.7C15.6,77.3,15.6,81,15.6,81z M24,86.5V76
	h1.4v4.3h5.5V76h1.4v10.5h-1.4v-4.9h-5.5v4.9H24z M33.4,86.5l4-10.5h1.5l4.3,10.5h-1.6l-1.2-3.2H36l-1.2,3.2H33.4z M36.4,82.2H40
	l-1.1-2.9c-0.3-0.9-0.6-1.6-0.8-2.2c-0.1,0.7-0.3,1.3-0.6,2L36.4,82.2z M43.9,83.1l1.3-0.1c0.1,0.5,0.2,1,0.4,1.3s0.6,0.6,1.1,0.8
	c0.5,0.2,1,0.3,1.6,0.3c0.5,0,1-0.1,1.4-0.2s0.7-0.4,0.9-0.6c0.2-0.3,0.3-0.6,0.3-0.9s-0.1-0.6-0.3-0.9c-0.2-0.2-0.5-0.5-0.9-0.6
	c-0.3-0.1-0.9-0.3-1.9-0.5s-1.6-0.4-2-0.7c-0.5-0.3-0.9-0.6-1.1-1c-0.2-0.4-0.4-0.8-0.4-1.3s0.1-1,0.4-1.5c0.3-0.5,0.7-0.8,1.3-1
	s1.2-0.4,1.9-0.4c0.8,0,1.5,0.1,2.1,0.4s1,0.6,1.4,1.1c0.3,0.5,0.5,1,0.5,1.7l-1.3,0c-0.1-0.7-0.3-1.2-0.7-1.5s-1-0.5-1.8-0.5
	s-1.5,0.2-1.8,0.5c-0.4,0.3-0.6,0.7-0.6,1.1s0.1,0.7,0.4,0.9c0.3,0.2,1,0.5,2.1,0.8c1.1,0.2,1.9,0.5,2.3,0.7
	c0.6,0.3,1.1,0.6,1.4,1.1c0.3,0.4,0.4,0.9,0.4,1.5s-0.2,1.1-0.5,1.6s-0.8,0.9-1.4,1.1c-0.6,0.3-1.3,0.4-2,0.4
	c-0.9,0-1.7-0.1-2.4-0.4c-0.6-0.3-1.1-0.7-1.5-1.2C44.1,84.4,43.9,83.8,43.9,83.1z M54.1,86.5V76h7.6v1.2h-6.2v3.2h5.8v1.2h-5.8v3.6
	H62v1.2h-7.9V86.5z M67.4,83.7l1.3-0.2c0.1,0.7,0.4,1.3,0.8,1.6c0.4,0.3,0.8,0.5,1.3,0.5c0.6,0,1.1-0.2,1.5-0.6s0.6-0.9,0.6-1.6
	c0-0.6-0.2-1.1-0.6-1.5s-0.9-0.6-1.5-0.6c-0.2,0-0.5,0-0.9,0.1l0.1-1.1c0.1,0,0.2,0,0.2,0c0.6,0,1-0.1,1.5-0.4
	c0.4-0.3,0.7-0.7,0.7-1.3c0-0.5-0.2-0.9-0.5-1.2c-0.3-0.3-0.7-0.5-1.2-0.5s-0.9,0.2-1.2,0.5s-0.5,0.8-0.6,1.4l-1.3-0.2
	c0.2-0.9,0.5-1.5,1.1-2s1.3-0.7,2.1-0.7c0.6,0,1.1,0.1,1.6,0.4c0.5,0.2,0.8,0.6,1.1,1c0.3,0.4,0.4,0.9,0.4,1.3
	c0,0.5-0.1,0.9-0.4,1.2c-0.2,0.4-0.6,0.7-1.1,0.9c0.6,0.1,1.1,0.4,1.4,0.9c0.3,0.4,0.5,1,0.5,1.7c0,0.9-0.3,1.7-1,2.3
	c-0.7,0.6-1.5,1-2.5,1c-0.9,0-1.7-0.3-2.3-0.8C67.9,85.3,67.5,84.6,67.4,83.7z M76.3,80.3v-1.5h1.5v1.5H76.3z M76.3,86.5V85h1.5v1.5
	H76.3z"/>
<path class="st2" d="M86.5,86.5v-8.7h-3.1V76h8.3v1.8h-3.1v8.7H86.5z M95.1,86.5h-2v-7.6H95V80c0.3-0.5,0.6-0.8,0.9-1
	s0.6-0.2,0.9-0.2c0.5,0,0.9,0.1,1.3,0.4L97.5,81c-0.3-0.2-0.6-0.3-0.9-0.3s-0.5,0.1-0.7,0.2c-0.2,0.2-0.4,0.4-0.5,0.8
	s-0.2,1.3-0.2,2.5v2.3H95.1z M98.8,77.9V76h2v1.9H98.8z M98.8,86.5v-7.6h2v7.6H98.8z M102.9,78.9h1.9V80c0.2-0.4,0.6-0.7,1-0.9
	c0.4-0.2,0.9-0.4,1.4-0.4c0.9,0,1.6,0.3,2.2,1s0.9,1.7,0.9,2.9c0,1.3-0.3,2.3-0.9,3s-1.4,1-2.2,1c-0.4,0-0.8-0.1-1.1-0.2
	c-0.3-0.2-0.7-0.5-1.1-0.9v3.8h-2V78.9H102.9z M104.8,82.6c0,0.9,0.2,1.5,0.5,1.9s0.8,0.6,1.2,0.6c0.5,0,0.9-0.2,1.2-0.6
	c0.3-0.4,0.5-1,0.5-1.8s-0.2-1.4-0.5-1.8s-0.7-0.6-1.2-0.6s-0.9,0.2-1.2,0.6C105,81.2,104.8,81.8,104.8,82.6z M115.9,86.5V76h3.4
	c1.3,0,2.1,0.1,2.5,0.2c0.6,0.2,1.1,0.5,1.5,1s0.6,1.2,0.6,2c0,0.6-0.1,1.2-0.4,1.6c-0.2,0.4-0.5,0.8-0.9,1s-0.7,0.4-1.1,0.5
	c-0.5,0.1-1.2,0.2-2.2,0.2h-1.4v4C117.9,86.5,115.9,86.5,115.9,86.5z M118.1,77.8v3h1.2c0.8,0,1.4-0.1,1.7-0.2
	c0.3-0.1,0.5-0.3,0.7-0.5s0.2-0.5,0.2-0.8c0-0.4-0.1-0.7-0.3-0.9c-0.2-0.2-0.5-0.4-0.8-0.5c-0.2-0.1-0.8-0.1-1.5-0.1H118.1z
	 M125.7,86.5V76h2v10.5H125.7z M131.3,81.2l-1.8-0.3c0.2-0.7,0.5-1.3,1-1.6c0.5-0.4,1.3-0.5,2.2-0.5s1.6,0.1,2,0.3
	c0.4,0.2,0.7,0.5,0.9,0.8s0.3,0.9,0.3,1.8V84c0,0.7,0,1.2,0.1,1.5s0.2,0.7,0.4,1h-2c-0.1-0.1-0.1-0.3-0.2-0.6c0-0.1-0.1-0.2-0.1-0.2
	c-0.3,0.3-0.7,0.6-1.1,0.8c-0.4,0.2-0.8,0.2-1.2,0.2c-0.8,0-1.4-0.2-1.9-0.6c-0.4-0.4-0.7-1-0.7-1.6c0-0.4,0.1-0.8,0.3-1.1
	c0.2-0.3,0.5-0.6,0.9-0.8c0.4-0.2,0.9-0.3,1.6-0.5c0.9-0.2,1.6-0.3,2-0.5v-0.2c0-0.4-0.1-0.7-0.3-0.8c-0.2-0.2-0.5-0.2-1.1-0.2
	c-0.4,0-0.6,0.1-0.8,0.2C131.6,80.6,131.4,80.8,131.3,81.2z M134,82.8c-0.3,0.1-0.7,0.2-1.2,0.3c-0.6,0.1-0.9,0.2-1.1,0.3
	c-0.3,0.2-0.4,0.4-0.4,0.7c0,0.3,0.1,0.5,0.3,0.7s0.5,0.3,0.8,0.3c0.4,0,0.7-0.1,1-0.4c0.2-0.2,0.4-0.4,0.5-0.7
	c0.1-0.2,0.1-0.5,0.1-1L134,82.8L134,82.8z M144.8,86.5h-2v-3.9c0-0.8,0-1.4-0.1-1.6s-0.2-0.4-0.4-0.6c-0.2-0.1-0.4-0.2-0.7-0.2
	s-0.7,0.1-0.9,0.3c-0.3,0.2-0.5,0.4-0.6,0.8c-0.1,0.3-0.2,0.9-0.2,1.8v3.4h-2v-7.6h1.9V80c0.7-0.9,1.5-1.3,2.5-1.3
	c0.4,0,0.9,0.1,1.2,0.2c0.4,0.2,0.6,0.4,0.8,0.6s0.3,0.5,0.4,0.8c0.1,0.3,0.1,0.8,0.1,1.4V86.5z M153.8,86.5h-2v-3.9
	c0-0.8,0-1.4-0.1-1.6s-0.2-0.4-0.4-0.6c-0.2-0.1-0.4-0.2-0.7-0.2s-0.7,0.1-0.9,0.3c-0.3,0.2-0.5,0.4-0.6,0.8
	c-0.1,0.3-0.2,0.9-0.2,1.8v3.4h-2v-7.6h1.9V80c0.7-0.9,1.5-1.3,2.5-1.3c0.4,0,0.9,0.1,1.2,0.2c0.4,0.2,0.6,0.4,0.8,0.6
	s0.3,0.5,0.4,0.8c0.1,0.3,0.1,0.8,0.1,1.4V86.5z M155.8,77.9V76h2v1.9H155.8z M155.8,86.5v-7.6h2v7.6H155.8z M166.8,86.5h-2v-3.9
	c0-0.8,0-1.4-0.1-1.6s-0.2-0.4-0.4-0.6c-0.2-0.1-0.4-0.2-0.7-0.2s-0.7,0.1-0.9,0.3c-0.3,0.2-0.5,0.4-0.6,0.8
	c-0.1,0.3-0.2,0.9-0.2,1.8v3.4h-2v-7.6h1.9V80c0.7-0.9,1.5-1.3,2.5-1.3c0.4,0,0.9,0.1,1.2,0.2s0.6,0.4,0.8,0.6s0.3,0.5,0.4,0.8
	s0.1,0.8,0.1,1.4V86.5z M168.7,87l2.3,0.3c0,0.3,0.1,0.5,0.3,0.5c0.2,0.1,0.5,0.2,0.9,0.2c0.5,0,0.9-0.1,1.2-0.2
	c0.2-0.1,0.3-0.3,0.4-0.5c0.1-0.2,0.1-0.5,0.1-0.9v-1.1c-0.6,0.8-1.3,1.2-2.3,1.2s-1.8-0.4-2.4-1.3c-0.5-0.7-0.7-1.5-0.7-2.5
	c0-1.3,0.3-2.2,0.9-2.9c0.6-0.7,1.4-1,2.3-1c0.9,0,1.7,0.4,2.3,1.2v-1.1h1.9v6.8c0,0.9-0.1,1.6-0.2,2c-0.1,0.4-0.4,0.8-0.6,1
	c-0.3,0.3-0.6,0.5-1.1,0.6c-0.4,0.1-1,0.2-1.7,0.2c-1.3,0-2.2-0.2-2.8-0.7C169,88.4,168.7,87.8,168.7,87
	C168.7,87.2,168.7,87.1,168.7,87z M170.5,82.5c0,0.8,0.2,1.4,0.5,1.8s0.7,0.6,1.2,0.6s0.9-0.2,1.2-0.6s0.5-1,0.5-1.7
	c0-0.8-0.2-1.4-0.5-1.8s-0.7-0.6-1.2-0.6s-0.9,0.2-1.2,0.6S170.5,81.8,170.5,82.5z M191.2,85.2l-1.2,1.5c-0.6-0.3-1.2-0.7-1.7-1.2
	c-0.4,0.4-0.9,0.7-1.3,0.9c-0.5,0.2-1,0.3-1.7,0.3c-1.3,0-2.3-0.4-3-1.1c-0.5-0.6-0.8-1.2-0.8-2c0-0.7,0.2-1.3,0.6-1.8
	c0.4-0.5,1-1,1.8-1.4c-0.4-0.4-0.6-0.8-0.8-1.2c-0.2-0.4-0.3-0.8-0.3-1.1c0-0.6,0.3-1.2,0.8-1.6s1.2-0.7,2.2-0.7
	c0.9,0,1.6,0.2,2.1,0.7s0.8,1,0.8,1.7c0,0.4-0.1,0.8-0.4,1.2c-0.2,0.4-0.8,0.8-1.5,1.3l1.5,1.9c0.2-0.3,0.3-0.7,0.5-1.2l1.8,0.4
	c-0.2,0.6-0.3,1.1-0.5,1.4c-0.1,0.3-0.3,0.6-0.4,0.8c0.2,0.2,0.5,0.4,0.9,0.7S191,85.1,191.2,85.2z M185.7,79.5l0.5-0.4
	c0.4-0.3,0.6-0.6,0.6-0.9c0-0.2-0.1-0.5-0.3-0.6c-0.2-0.2-0.4-0.3-0.8-0.3c-0.3,0-0.6,0.1-0.8,0.2c-0.2,0.2-0.3,0.3-0.3,0.6
	c0,0.2,0.2,0.5,0.5,0.9L185.7,79.5z M184.9,81.7c-0.5,0.2-0.8,0.5-1,0.8s-0.3,0.7-0.3,1c0,0.4,0.1,0.8,0.4,1.1
	c0.3,0.3,0.7,0.4,1.1,0.4c0.3,0,0.6-0.1,0.9-0.2s0.6-0.3,1-0.6L184.9,81.7z M196.6,86.5V76h3.4c1.3,0,2.1,0.1,2.5,0.2
	c0.6,0.2,1.1,0.5,1.5,1s0.6,1.2,0.6,2c0,0.6-0.1,1.2-0.4,1.6c-0.2,0.4-0.5,0.8-0.9,1s-0.7,0.4-1.1,0.5c-0.5,0.1-1.2,0.2-2.2,0.2
	h-1.4v4C198.6,86.5,196.6,86.5,196.6,86.5z M198.7,77.8v3h1.2c0.8,0,1.4-0.1,1.7-0.2s0.5-0.3,0.7-0.5s0.2-0.5,0.2-0.8
	c0-0.4-0.1-0.7-0.3-0.9c-0.2-0.2-0.5-0.4-0.8-0.5c-0.2-0.1-0.8-0.1-1.5-0.1H198.7z M210.7,84.1l2,0.3c-0.2,0.7-0.7,1.3-1.2,1.7
	c-0.6,0.4-1.2,0.6-2.1,0.6c-1.3,0-2.3-0.4-2.9-1.3c-0.5-0.7-0.8-1.6-0.8-2.6c0-1.2,0.3-2.2,1-2.9c0.7-0.7,1.5-1.1,2.5-1.1
	c1.1,0,2,0.4,2.7,1.1s1,1.9,0.9,3.4h-5c0,0.6,0.2,1.1,0.5,1.4s0.7,0.5,1.2,0.5c0.3,0,0.6-0.1,0.8-0.2
	C210.4,84.7,210.6,84.4,210.7,84.1z M210.8,82c0-0.6-0.2-1-0.5-1.3s-0.6-0.5-1-0.5s-0.8,0.2-1.1,0.5s-0.4,0.7-0.4,1.3H210.8z
	 M216.4,86.5h-2v-7.6h1.9V80c0.3-0.5,0.6-0.8,0.9-1c0.3-0.2,0.6-0.2,0.9-0.2c0.5,0,0.9,0.1,1.3,0.4l-0.6,1.8
	c-0.3-0.2-0.6-0.3-0.9-0.3c-0.3,0-0.5,0.1-0.7,0.2s-0.4,0.4-0.5,0.8s-0.2,1.3-0.2,2.5L216.4,86.5L216.4,86.5z M219.5,84.3l2-0.3
	c0.1,0.4,0.3,0.7,0.5,0.9c0.3,0.2,0.6,0.3,1.1,0.3s0.9-0.1,1.2-0.3c0.2-0.1,0.3-0.3,0.3-0.5c0-0.1,0-0.3-0.1-0.4s-0.3-0.2-0.7-0.3
	c-1.6-0.4-2.7-0.7-3.1-1c-0.6-0.4-0.9-1-0.9-1.7s0.3-1.2,0.8-1.7c0.5-0.4,1.3-0.7,2.4-0.7c1,0,1.8,0.2,2.3,0.5s0.9,0.8,1,1.5
	l-1.9,0.4c-0.1-0.3-0.2-0.5-0.5-0.7c-0.2-0.2-0.6-0.2-1-0.2c-0.5,0-0.9,0.1-1.1,0.2c-0.2,0.1-0.2,0.2-0.2,0.4c0,0.1,0.1,0.3,0.2,0.4
	c0.2,0.1,0.8,0.3,1.9,0.6c1.1,0.2,1.8,0.5,2.2,0.9s0.6,0.9,0.6,1.5c0,0.7-0.3,1.3-0.9,1.8c-0.6,0.5-1.4,0.8-2.6,0.8
	c-1,0-1.8-0.2-2.5-0.6C220,85.6,219.6,85,219.5,84.3z M227.9,82.6c0-0.7,0.2-1.3,0.5-1.9s0.8-1.1,1.4-1.4c0.6-0.3,1.3-0.5,2-0.5
	c1.1,0,2.1,0.4,2.8,1.1s1.1,1.7,1.1,2.8c0,1.2-0.4,2.1-1.1,2.9c-0.7,0.8-1.7,1.1-2.8,1.1c-0.7,0-1.4-0.2-2-0.5s-1.1-0.8-1.4-1.4
	C228,84.2,227.9,83.4,227.9,82.6z M229.9,82.7c0,0.8,0.2,1.3,0.5,1.7c0.4,0.4,0.8,0.6,1.3,0.6s1-0.2,1.3-0.6c0.4-0.4,0.5-1,0.5-1.8
	s-0.2-1.3-0.5-1.7c-0.4-0.4-0.8-0.6-1.3-0.6s-1,0.2-1.3,0.6C230.1,81.3,229.9,81.9,229.9,82.7z M244.2,86.5h-2v-3.9
	c0-0.8,0-1.4-0.1-1.6s-0.2-0.4-0.4-0.6c-0.2-0.1-0.4-0.2-0.7-0.2s-0.7,0.1-0.9,0.3c-0.3,0.2-0.5,0.4-0.6,0.8s-0.2,0.9-0.2,1.8v3.4
	h-2v-7.6h1.9V80c0.7-0.9,1.5-1.3,2.5-1.3c0.4,0,0.9,0.1,1.2,0.2s0.6,0.4,0.8,0.6s0.3,0.5,0.4,0.8s0.1,0.8,0.1,1.4V86.5z M247.7,81.2
	l-1.8-0.3c0.2-0.7,0.5-1.3,1-1.6c0.5-0.4,1.3-0.5,2.2-0.5s1.6,0.1,2,0.3c0.4,0.2,0.7,0.5,0.9,0.8s0.3,0.9,0.3,1.8V84
	c0,0.7,0,1.2,0.1,1.5s0.2,0.7,0.4,1h-2c-0.1-0.1-0.1-0.3-0.2-0.6c0-0.1-0.1-0.2-0.1-0.2c-0.3,0.3-0.7,0.6-1.1,0.8
	c-0.4,0.2-0.8,0.2-1.2,0.2c-0.8,0-1.4-0.2-1.9-0.6c-0.4-0.4-0.7-1-0.7-1.6c0-0.4,0.1-0.8,0.3-1.1c0.2-0.3,0.5-0.6,0.9-0.8
	c0.4-0.2,0.9-0.3,1.6-0.5c0.9-0.2,1.6-0.3,2-0.5v-0.2c0-0.4-0.1-0.7-0.3-0.8c-0.2-0.2-0.5-0.2-1.1-0.2c-0.4,0-0.6,0.1-0.8,0.2
	C248,80.6,247.9,80.8,247.7,81.2z M250.4,82.8c-0.3,0.1-0.7,0.2-1.2,0.3c-0.6,0.1-0.9,0.2-1.1,0.3c-0.3,0.2-0.4,0.4-0.4,0.7
	c0,0.3,0.1,0.5,0.3,0.7s0.5,0.3,0.8,0.3c0.4,0,0.7-0.1,1-0.4c0.2-0.2,0.4-0.4,0.5-0.7c0.1-0.2,0.1-0.5,0.1-1L250.4,82.8L250.4,82.8z
	 M254.4,86.5V76h2v10.5H254.4z M258.4,77.9V76h2v1.9H258.4z M258.4,86.5v-7.6h2v7.6H258.4z M266,78.9v1.6h-1.4v3.1c0,0.6,0,1,0,1.1
	s0.1,0.2,0.2,0.2c0.1,0.1,0.2,0.1,0.3,0.1c0.2,0,0.5-0.1,0.8-0.2l0.2,1.6c-0.5,0.2-1,0.3-1.6,0.3c-0.4,0-0.7-0.1-1-0.2
	s-0.5-0.3-0.6-0.5s-0.2-0.5-0.3-0.8c0-0.2-0.1-0.7-0.1-1.4v-3.3h-0.9v-1.6h0.9v-1.5l2-1.2v2.7C264.5,78.9,266,78.9,266,78.9z
	 M266.4,78.9h2.1l1.8,5.4l1.8-5.4h2.1l-2.7,7.3l-0.5,1.3c-0.2,0.4-0.3,0.8-0.5,1s-0.3,0.4-0.5,0.6c-0.2,0.1-0.5,0.3-0.8,0.3
	c-0.3,0.1-0.6,0.1-1,0.1s-0.8,0-1.1-0.1l-0.2-1.6c0.3,0.1,0.6,0.1,0.8,0.1c0.5,0,0.8-0.1,1-0.4s0.4-0.6,0.5-1L266.4,78.9z"/>
<path class="st1" d="M91.9,269.8h201.4v60H91.9V269.8z"/>
<path class="st2" d="M106.1,306.3v-10.5h4c0.7,0,1.2,0,1.6,0.1c0.5,0.1,0.9,0.2,1.3,0.5c0.4,0.2,0.6,0.6,0.8,1
	c0.2,0.4,0.3,0.9,0.3,1.4c0,0.9-0.3,1.6-0.9,2.3c-0.6,0.6-1.6,0.9-3.1,0.9h-2.7v4.3L106.1,306.3L106.1,306.3z M107.4,300.8h2.7
	c0.9,0,1.5-0.2,1.9-0.5s0.6-0.8,0.6-1.4c0-0.4-0.1-0.8-0.3-1.1s-0.5-0.5-0.9-0.6c-0.2-0.1-0.7-0.1-1.3-0.1h-2.7
	C107.4,297.1,107.4,300.8,107.4,300.8z M115.9,306.3v-10.5h1.4v4.3h5.5v-4.3h1.4v10.5h-1.4v-4.9h-5.5v4.9H115.9z M125.3,306.3
	l4-10.5h1.5l4.3,10.5h-1.6l-1.2-3.2h-4.4l-1.2,3.2H125.3z M128.3,302h3.6l-1.1-2.9c-0.3-0.9-0.6-1.6-0.8-2.2c-0.1,0.7-0.3,1.3-0.6,2
	L128.3,302z M135.7,302.9l1.3-0.1c0.1,0.5,0.2,1,0.4,1.3s0.6,0.6,1.1,0.8c0.5,0.2,1,0.3,1.6,0.3c0.5,0,1-0.1,1.4-0.2
	s0.7-0.4,0.9-0.6c0.2-0.3,0.3-0.6,0.3-0.9s-0.1-0.6-0.3-0.9c-0.2-0.2-0.5-0.5-0.9-0.6c-0.3-0.1-0.9-0.3-1.9-0.5s-1.6-0.4-2-0.7
	c-0.5-0.3-0.9-0.6-1.1-1c-0.2-0.4-0.4-0.8-0.4-1.3s0.1-1,0.4-1.5c0.3-0.5,0.7-0.8,1.3-1s1.2-0.4,1.9-0.4c0.8,0,1.5,0.1,2.1,0.4
	s1,0.6,1.4,1.1c0.3,0.5,0.5,1,0.5,1.7l-1.3,0.1c-0.1-0.7-0.3-1.2-0.7-1.5s-1-0.5-1.8-0.5s-1.5,0.2-1.8,0.5s-0.6,0.7-0.6,1.1
	s0.1,0.7,0.4,0.9c0.3,0.2,1,0.5,2.1,0.8c1.1,0.2,1.9,0.5,2.3,0.7c0.6,0.3,1.1,0.6,1.4,1.1c0.3,0.4,0.4,0.9,0.4,1.5s-0.2,1.1-0.5,1.6
	s-0.8,0.9-1.4,1.1c-0.6,0.3-1.3,0.4-2,0.4c-0.9,0-1.7-0.1-2.4-0.4c-0.6-0.3-1.1-0.7-1.5-1.2C135.9,304.3,135.7,303.6,135.7,302.9z
	 M146,306.3v-10.5h7.6v1.2h-6.2v3.2h5.8v1.2h-5.8v3.6h6.4v1.2L146,306.3L146,306.3z M164.1,306.3h-1.3v-8.2
	c-0.3,0.3-0.7,0.6-1.2,0.9s-1,0.5-1.4,0.7v-1.2c0.7-0.3,1.3-0.7,1.9-1.2c0.5-0.5,0.9-1,1.1-1.4h0.8L164.1,306.3L164.1,306.3z
	 M168.2,300.2v-1.5h1.5v1.5H168.2z M168.2,306.3v-1.5h1.5v1.5H168.2z"/>
<path class="st2" d="M182.8,302.5l2,0.7c-0.3,1.1-0.8,2-1.6,2.5c-0.7,0.6-1.7,0.8-2.8,0.8c-1.4,0-2.5-0.5-3.4-1.4s-1.3-2.2-1.3-3.9
	c0-1.7,0.5-3.1,1.4-4.1s2.1-1.5,3.6-1.5c1.3,0,2.3,0.4,3.1,1.1c0.5,0.4,0.8,1.1,1.1,1.9l-2.1,0.5c-0.1-0.6-0.4-1-0.8-1.3
	c-0.4-0.3-0.9-0.5-1.4-0.5c-0.8,0-1.4,0.3-1.9,0.8c-0.5,0.6-0.7,1.5-0.7,2.7c0,1.3,0.2,2.3,0.7,2.8c0.5,0.6,1.1,0.8,1.9,0.8
	c0.6,0,1-0.2,1.5-0.5C182.3,303.8,182.6,303.2,182.8,302.5z M186.2,302.4c0-0.7,0.2-1.3,0.5-1.9s0.8-1.1,1.4-1.4
	c0.6-0.3,1.3-0.5,2-0.5c1.1,0,2.1,0.4,2.8,1.1s1.1,1.7,1.1,2.8c0,1.2-0.4,2.1-1.1,2.9c-0.7,0.8-1.7,1.1-2.8,1.1
	c-0.7,0-1.4-0.2-2-0.5s-1.1-0.8-1.4-1.4C186.3,304,186.2,303.3,186.2,302.4z M188.2,302.5c0,0.8,0.2,1.3,0.5,1.7
	c0.4,0.4,0.8,0.6,1.3,0.6s1-0.2,1.3-0.6c0.4-0.4,0.5-1,0.5-1.8s-0.2-1.3-0.5-1.7c-0.4-0.4-0.8-0.6-1.3-0.6s-1,0.2-1.3,0.6
	C188.4,301.2,188.2,301.8,188.2,302.5z M197.5,306.3h-2v-7.6h1.9v1.1c0.3-0.5,0.6-0.8,0.9-1c0.3-0.2,0.6-0.2,0.9-0.2
	c0.5,0,0.9,0.1,1.3,0.4l-0.6,1.8c-0.3-0.2-0.6-0.3-0.9-0.3c-0.3,0-0.5,0.1-0.7,0.2s-0.4,0.4-0.5,0.8s-0.2,1.3-0.2,2.5L197.5,306.3
	L197.5,306.3z M205.7,303.9l2,0.3c-0.2,0.7-0.7,1.3-1.2,1.7c-0.6,0.4-1.2,0.6-2.1,0.6c-1.3,0-2.3-0.4-2.9-1.3
	c-0.5-0.7-0.8-1.6-0.8-2.6c0-1.2,0.3-2.2,1-2.9c0.7-0.7,1.5-1.1,2.5-1.1c1.1,0,2,0.4,2.7,1.1s1,1.9,0.9,3.4h-5
	c0,0.6,0.2,1.1,0.5,1.4s0.7,0.5,1.2,0.5c0.3,0,0.6-0.1,0.8-0.2C205.4,304.6,205.6,304.3,205.7,303.9z M205.8,301.9
	c0-0.6-0.2-1-0.5-1.3s-0.6-0.5-1-0.5s-0.8,0.2-1.1,0.5s-0.4,0.7-0.4,1.3H205.8z M213.5,306.3v-10.5h7.2v1.8h-5.1v2.5h4.4v1.8h-4.4
	v4.5L213.5,306.3L213.5,306.3z M226.8,303.9l2,0.3c-0.2,0.7-0.7,1.3-1.2,1.7c-0.6,0.4-1.2,0.6-2.1,0.6c-1.3,0-2.3-0.4-2.9-1.3
	c-0.5-0.7-0.8-1.6-0.8-2.6c0-1.2,0.3-2.2,1-2.9c0.7-0.7,1.5-1.1,2.5-1.1c1.1,0,2,0.4,2.7,1.1s1,1.9,0.9,3.4h-5
	c0,0.6,0.2,1.1,0.5,1.4s0.7,0.5,1.2,0.5c0.3,0,0.6-0.1,0.8-0.2C226.6,304.6,226.7,304.3,226.8,303.9z M227,301.9
	c0-0.6-0.2-1-0.5-1.3s-0.6-0.5-1-0.5s-0.8,0.2-1.1,0.5s-0.4,0.7-0.4,1.3H227z M232.1,301l-1.8-0.3c0.2-0.7,0.5-1.3,1-1.6
	c0.5-0.4,1.3-0.5,2.2-0.5s1.6,0.1,2,0.3c0.4,0.2,0.7,0.5,0.9,0.8s0.3,0.9,0.3,1.8v2.3c0,0.7,0,1.2,0.1,1.5s0.2,0.7,0.4,1h-2
	c-0.1-0.1-0.1-0.3-0.2-0.6c0-0.1-0.1-0.2-0.1-0.2c-0.3,0.3-0.7,0.6-1.1,0.8c-0.4,0.2-0.8,0.2-1.2,0.2c-0.8,0-1.4-0.2-1.9-0.6
	c-0.4-0.4-0.7-1-0.7-1.6c0-0.4,0.1-0.8,0.3-1.1c0.2-0.3,0.5-0.6,0.9-0.8c0.4-0.2,0.9-0.3,1.6-0.5c0.9-0.2,1.6-0.3,2-0.5v-0.2
	c0-0.4-0.1-0.7-0.3-0.8c-0.2-0.2-0.5-0.2-1.1-0.2c-0.4,0-0.6,0.1-0.8,0.2C232.4,300.4,232.2,300.7,232.1,301z M234.8,302.7
	c-0.3,0.1-0.7,0.2-1.2,0.3c-0.6,0.1-0.9,0.2-1.1,0.3c-0.3,0.2-0.4,0.4-0.4,0.7c0,0.3,0.1,0.5,0.3,0.7s0.5,0.3,0.8,0.3
	c0.4,0,0.7-0.1,1-0.4c0.2-0.2,0.4-0.4,0.5-0.7c0.1-0.2,0.1-0.5,0.1-1L234.8,302.7L234.8,302.7z M242.2,298.7v1.6h-1.4v3.1
	c0,0.6,0,1,0,1.1s0.1,0.2,0.2,0.2c0.1,0.1,0.2,0.1,0.3,0.1c0.2,0,0.5-0.1,0.8-0.2l0.2,1.6c-0.5,0.2-1,0.3-1.6,0.3
	c-0.4,0-0.7-0.1-1-0.2s-0.5-0.3-0.6-0.5s-0.2-0.5-0.3-0.8c0-0.2-0.1-0.7-0.1-1.4v-3.3h-0.9v-1.6h0.9v-1.5l2-1.2v2.7L242.2,298.7
	L242.2,298.7z M248.6,306.3v-1.1c-0.3,0.4-0.6,0.7-1.1,1c-0.4,0.2-0.9,0.3-1.4,0.3s-1-0.1-1.4-0.3c-0.4-0.2-0.7-0.5-0.9-1
	s-0.3-1-0.3-1.7v-4.8h2v3.5c0,1.1,0,1.7,0.1,2c0.1,0.2,0.2,0.4,0.4,0.6c0.2,0.1,0.4,0.2,0.8,0.2c0.3,0,0.7-0.1,0.9-0.3
	s0.5-0.4,0.5-0.7c0.1-0.3,0.2-1,0.2-2v-3.2h2v7.6h-1.8V306.3z M254.5,306.3h-2v-7.6h1.9v1.1c0.3-0.5,0.6-0.8,0.9-1
	c0.3-0.2,0.6-0.2,0.9-0.2c0.5,0,0.9,0.1,1.3,0.4l-0.6,1.8c-0.3-0.2-0.6-0.3-0.9-0.3c-0.3,0-0.5,0.1-0.7,0.2
	c-0.2,0.2-0.4,0.4-0.5,0.8s-0.2,1.3-0.2,2.5L254.5,306.3L254.5,306.3z M262.7,303.9l2,0.3c-0.2,0.7-0.7,1.3-1.2,1.7
	c-0.6,0.4-1.2,0.6-2.1,0.6c-1.3,0-2.3-0.4-2.9-1.3c-0.5-0.7-0.8-1.6-0.8-2.6c0-1.2,0.3-2.2,1-2.9c0.7-0.7,1.5-1.1,2.5-1.1
	c1.1,0,2,0.4,2.7,1.1s1,1.9,0.9,3.4h-5c0,0.6,0.2,1.1,0.5,1.4s0.7,0.5,1.2,0.5c0.3,0,0.6-0.1,0.8-0.2
	C262.4,304.6,262.6,304.3,262.7,303.9z M262.8,301.9c0-0.6-0.2-1-0.5-1.3s-0.6-0.5-1-0.5s-0.8,0.2-1.1,0.5c-0.3,0.3-0.4,0.7-0.4,1.3
	H262.8z M265.7,304.1l2-0.3c0.1,0.4,0.3,0.7,0.5,0.9c0.3,0.2,0.6,0.3,1.1,0.3s0.9-0.1,1.2-0.3c0.2-0.1,0.3-0.3,0.3-0.5
	c0-0.1,0-0.3-0.1-0.4s-0.3-0.2-0.7-0.3c-1.6-0.4-2.7-0.7-3.1-1c-0.6-0.4-0.9-1-0.9-1.7s0.3-1.2,0.8-1.7c0.5-0.4,1.3-0.7,2.4-0.7
	c1,0,1.8,0.2,2.3,0.5s0.9,0.8,1,1.5l-1.9,0.4c-0.1-0.3-0.2-0.5-0.5-0.7c-0.2-0.2-0.6-0.2-1-0.2c-0.5,0-0.9,0.1-1.1,0.2
	s-0.2,0.2-0.2,0.4c0,0.1,0.1,0.3,0.2,0.4c0.2,0.1,0.8,0.3,1.9,0.6c1.1,0.2,1.8,0.5,2.2,0.9c0.4,0.4,0.6,0.9,0.6,1.5
	c0,0.7-0.3,1.3-0.9,1.8s-1.4,0.8-2.6,0.8c-1,0-1.8-0.2-2.5-0.6C266.3,305.4,265.9,304.9,265.7,304.1z"/>
<g>
	<g>
		<defs>
			<rect id="SVGID_1_" x="308" y="-9" width="454.9" height="408.8"/>
		</defs>
		<clipPath id="SVGID_2_">
			<use xlink:href="#SVGID_1_"  style="overflow:visible;"/>
		</clipPath>
		<g class="st3">
			<path class="st4" d="M119.3,318L119.3,318c0-174.3,141.3-315.6,315.6-315.6l0,0c83.7,0,164,33.2,223.1,92.4
				s92.4,139.4,92.4,223.1l0,0c0,174.3-141.3,315.6-315.6,315.6l0,0C260.6,633.5,119.3,492.3,119.3,318L119.3,318z"/>
			<path class="st5" d="M119.3,318L119.3,318c0-174.3,141.3-315.6,315.6-315.6l0,0c83.7,0,164,33.2,223.1,92.4
				s92.4,139.4,92.4,223.1l0,0c0,174.3-141.3,315.6-315.6,315.6l0,0C260.6,633.5,119.3,492.3,119.3,318L119.3,318z"/>
			<path class="st6" d="M194,328.6L194,328.6c0-121.4,98.4-219.8,219.8-219.8l0,0c58.3,0,114.2,23.2,155.4,64.4
				s64.4,97.1,64.4,155.4l0,0c0,121.4-98.4,219.8-219.8,219.8l0,0C292.4,548.4,194,450,194,328.6z"/>
			<path class="st7" d="M269.1,336.2L269.1,336.2c0-63.9,51.8-115.7,115.7-115.7l0,0c30.7,0,60.1,12.2,81.8,33.9
				c21.7,21.7,33.9,51.1,33.9,81.8l0,0c0,63.9-51.8,115.7-115.7,115.7l0,0C320.9,451.8,269.1,400.1,269.1,336.2z"/>
			<path class="st7" d="M344.4,337.6h53.8v39.5h-53.8V337.6z"/>
			<path class="st8" d="M362.9,359.4c0.5,0.4,1.1,0.7,1.7,0.9l-0.8,1.5c-0.3-0.1-0.6-0.2-0.9-0.4c-0.1,0-0.5-0.3-1.4-0.9
				c-0.7,0.3-1.4,0.4-2.3,0.4c-1.6,0-2.9-0.5-3.8-1.4s-1.4-2.3-1.4-4s0.5-3,1.4-4s2.2-1.4,3.7-1.4s2.8,0.5,3.7,1.4
				c0.9,0.9,1.4,2.3,1.4,4c0,0.9-0.1,1.7-0.4,2.4C363.6,358.4,363.3,358.9,362.9,359.4z M361.2,358.2c0.3-0.3,0.5-0.7,0.6-1.1
				c0.1-0.5,0.2-1,0.2-1.6c0-1.2-0.3-2.1-0.8-2.7s-1.2-0.9-2.1-0.9s-1.6,0.3-2.1,0.9s-0.8,1.5-0.8,2.7s0.3,2.2,0.8,2.8
				c0.5,0.6,1.2,0.9,2,0.9c0.3,0,0.6-0.1,0.9-0.2c-0.4-0.3-0.9-0.5-1.3-0.7l0.6-1.2C359.9,357.4,360.6,357.7,361.2,358.2z
				 M375.1,359.4l-1.2,1.5c-0.6-0.3-1.2-0.7-1.7-1.2c-0.4,0.4-0.9,0.7-1.3,0.9c-0.5,0.2-1,0.3-1.7,0.3c-1.3,0-2.3-0.4-3-1.1
				c-0.5-0.6-0.8-1.2-0.8-2c0-0.7,0.2-1.3,0.6-1.8s1-1,1.8-1.4c-0.4-0.4-0.6-0.8-0.8-1.2c-0.2-0.4-0.3-0.8-0.3-1.1
				c0-0.6,0.3-1.2,0.8-1.6s1.2-0.7,2.2-0.7c0.9,0,1.6,0.2,2.1,0.7s0.8,1,0.8,1.7c0,0.4-0.1,0.8-0.4,1.2c-0.2,0.4-0.8,0.8-1.5,1.3
				l1.5,1.9c0.2-0.3,0.3-0.7,0.5-1.2l1.8,0.4c-0.2,0.6-0.3,1.1-0.5,1.4c-0.1,0.3-0.3,0.6-0.4,0.8c0.2,0.2,0.5,0.4,0.9,0.7
				C374.7,359.2,375,359.3,375.1,359.4z M369.7,353.7l0.5-0.4c0.4-0.3,0.6-0.6,0.6-0.9c0-0.2-0.1-0.5-0.3-0.6
				c-0.2-0.2-0.4-0.3-0.8-0.3c-0.3,0-0.6,0.1-0.8,0.2c-0.2,0.2-0.3,0.3-0.3,0.6c0,0.2,0.2,0.5,0.5,0.9L369.7,353.7z M368.9,355.9
				c-0.5,0.2-0.8,0.5-1,0.8s-0.3,0.7-0.3,1c0,0.4,0.1,0.8,0.4,1.1c0.3,0.3,0.7,0.4,1.1,0.4c0.3,0,0.6-0.1,0.9-0.2s0.6-0.3,1-0.6
				L368.9,355.9z M385.9,360.7h-2.3l-0.9-2.4h-4.2l-0.9,2.4h-2.2l4.1-10.5h2.2L385.9,360.7z M382,356.6l-1.4-3.9l-1.4,3.9H382z"/>
			<path class="st7" d="M392.7,273.5h88.4v44.1h-88.4V273.5z"/>
			<path class="st8" d="M412.3,296.5H410l-0.9-2.4h-4.2l-0.9,2.4h-2.3l4.1-10.5h2.2L412.3,296.5z M408.3,292.4l-1.4-3.9l-1.4,3.9
				H408.3z M413.3,296.5V286h2v3.8c0.6-0.7,1.3-1,2.2-1c0.9,0,1.7,0.3,2.3,1c0.6,0.7,0.9,1.6,0.9,2.9s-0.3,2.3-0.9,3s-1.4,1-2.2,1
				c-0.4,0-0.9-0.1-1.3-0.3c-0.4-0.2-0.8-0.5-1.1-1v1.1H413.3z M415.3,292.6c0,0.8,0.1,1.4,0.4,1.8c0.4,0.5,0.8,0.8,1.4,0.8
				c0.4,0,0.8-0.2,1.1-0.6c0.3-0.4,0.5-1,0.5-1.8c0-0.9-0.2-1.5-0.5-1.9s-0.7-0.6-1.2-0.6s-0.9,0.2-1.2,0.6
				C415.4,291.2,415.3,291.8,415.3,292.6z M422.2,296.5V286h2v3.8c0.6-0.7,1.3-1,2.2-1c0.9,0,1.7,0.3,2.3,1c0.6,0.7,0.9,1.6,0.9,2.9
				s-0.3,2.3-0.9,3s-1.4,1-2.2,1c-0.4,0-0.9-0.1-1.3-0.3c-0.4-0.2-0.8-0.5-1.1-1v1.1H422.2z M424.2,292.6c0,0.8,0.1,1.4,0.4,1.8
				c0.4,0.5,0.8,0.8,1.4,0.8c0.4,0,0.8-0.2,1.1-0.6c0.3-0.4,0.5-1,0.5-1.8c0-0.9-0.2-1.5-0.5-1.9s-0.7-0.6-1.2-0.6s-0.9,0.2-1.2,0.6
				C424.4,291.2,424.2,291.8,424.2,292.6z M430.3,288.9h2.1l1.8,5.4l1.8-5.4h2.1l-2.7,7.3l-0.5,1.3c-0.2,0.4-0.3,0.8-0.5,1
				s-0.3,0.4-0.5,0.6c-0.2,0.1-0.5,0.3-0.8,0.3c-0.3,0.1-0.6,0.1-1,0.1s-0.8,0-1.1-0.1l-0.2-1.6c0.3,0.1,0.6,0.1,0.8,0.1
				c0.5,0,0.8-0.1,1-0.4s0.4-0.6,0.5-1L430.3,288.9z"/>
			<path class="st8" d="M402.8,314.5V304h3.2l1.9,7.2l1.9-7.2h3.2v10.5h-2v-8.3l-2.1,8.3h-2l-2.1-8.3v8.3H402.8z M419.4,312.1l2,0.3
				c-0.2,0.7-0.7,1.3-1.2,1.7c-0.6,0.4-1.2,0.6-2.1,0.6c-1.3,0-2.3-0.4-2.9-1.3c-0.5-0.7-0.8-1.6-0.8-2.6c0-1.2,0.3-2.2,1-2.9
				c0.7-0.7,1.5-1.1,2.5-1.1c1.1,0,2,0.4,2.7,1.1s1,1.9,0.9,3.4h-5c0,0.6,0.2,1.1,0.5,1.4s0.7,0.5,1.2,0.5c0.3,0,0.6-0.1,0.8-0.2
				C419.1,312.8,419.3,312.5,419.4,312.1z M419.5,310.1c0-0.6-0.2-1-0.5-1.3s-0.6-0.5-1-0.5s-0.8,0.2-1.1,0.5
				c-0.3,0.3-0.4,0.7-0.4,1.3H419.5z M417.3,306l1-2.1h2.2l-2,2.1H417.3z M423,306.9h1.8v1c0.7-0.8,1.5-1.2,2.4-1.2
				c0.5,0,0.9,0.1,1.3,0.3c0.4,0.2,0.6,0.5,0.9,0.9c0.3-0.4,0.7-0.7,1.1-0.9c0.4-0.2,0.8-0.3,1.2-0.3c0.6,0,1,0.1,1.4,0.3
				c0.4,0.2,0.7,0.5,0.9,1c0.1,0.3,0.2,0.8,0.2,1.6v4.9h-2v-4.3c0-0.7-0.1-1.2-0.2-1.5c-0.2-0.3-0.5-0.4-0.9-0.4
				c-0.3,0-0.5,0.1-0.8,0.3c-0.2,0.2-0.4,0.4-0.5,0.8c-0.1,0.3-0.2,0.9-0.2,1.6v3.7h-2v-4.2c0-0.7,0-1.2-0.1-1.4
				c-0.1-0.2-0.2-0.4-0.3-0.5c-0.1-0.1-0.3-0.2-0.6-0.2c-0.3,0-0.6,0.1-0.8,0.2c-0.2,0.2-0.4,0.4-0.5,0.7c-0.1,0.3-0.2,0.8-0.2,1.6
				v3.7h-2L423,306.9L423,306.9z M435.7,310.6c0-0.7,0.2-1.3,0.5-1.9s0.8-1.1,1.4-1.4s1.3-0.5,2-0.5c1.1,0,2.1,0.4,2.8,1.1
				c0.7,0.7,1.1,1.7,1.1,2.8c0,1.2-0.4,2.1-1.1,2.9s-1.7,1.1-2.8,1.1c-0.7,0-1.4-0.2-2-0.5s-1.1-0.8-1.4-1.4
				S435.7,311.5,435.7,310.6z M437.8,310.7c0,0.8,0.2,1.3,0.5,1.7c0.4,0.4,0.8,0.6,1.3,0.6s1-0.2,1.3-0.6c0.4-0.4,0.5-1,0.5-1.8
				c0-0.7-0.2-1.3-0.5-1.7c-0.4-0.4-0.8-0.6-1.3-0.6s-1,0.2-1.3,0.6C437.9,309.4,437.8,310,437.8,310.7z M445.1,305.9V304h2v1.9
				H445.1z M445.1,314.5v-7.6h2v7.6H445.1z M451.1,314.5h-2v-7.6h1.9v1.1c0.3-0.5,0.6-0.8,0.9-1s0.6-0.2,0.9-0.2
				c0.5,0,0.9,0.1,1.3,0.4l-0.6,1.8c-0.3-0.2-0.6-0.3-0.9-0.3s-0.5,0.1-0.7,0.2c-0.2,0.2-0.4,0.4-0.5,0.8s-0.2,1.3-0.2,2.5
				L451.1,314.5L451.1,314.5z M459.3,312.1l2,0.3c-0.2,0.7-0.7,1.3-1.2,1.7c-0.6,0.4-1.2,0.6-2.1,0.6c-1.3,0-2.3-0.4-2.9-1.3
				c-0.5-0.7-0.8-1.6-0.8-2.6c0-1.2,0.3-2.2,1-2.9c0.7-0.7,1.5-1.1,2.5-1.1c1.1,0,2,0.4,2.7,1.1s1,1.9,0.9,3.4h-5
				c0,0.6,0.2,1.1,0.5,1.4s0.7,0.5,1.2,0.5c0.3,0,0.6-0.1,0.8-0.2C459,312.8,459.2,312.5,459.3,312.1z M459.4,310.1
				c0-0.6-0.2-1-0.5-1.3s-0.6-0.5-1-0.5s-0.8,0.2-1.1,0.5c-0.3,0.3-0.4,0.7-0.4,1.3H459.4z"/>
			<path class="st7" d="M420.2,330.9H460v39.5h-39.8V330.9z"/>
			<path class="st8" d="M439.8,354h-2.3l-0.9-2.4h-4.2l-0.9,2.4h-2.2l4.1-10.5h2.2L439.8,354z M435.9,349.9l-1.4-3.9l-1.4,3.9H435.9
				z M440.8,354v-10.5h2.1V354H440.8z"/>
			<path class="st6" d="M335.1,143.3h80.2v51.1h-80.2L335.1,143.3L335.1,143.3z"/>
			<path class="st8" d="M345.5,166.4v-10.5h1.4v10.5H345.5z M352,165.2l0.2,1.1c-0.4,0.1-0.7,0.1-1,0.1c-0.5,0-0.8-0.1-1.1-0.2
				c-0.3-0.1-0.4-0.3-0.5-0.6c-0.1-0.2-0.2-0.7-0.2-1.5v-4.4h-1v-1h1v-1.9l1.3-0.8v2.7h1.3v1h-1.3v4.4c0,0.4,0,0.6,0.1,0.7
				c0.1,0.1,0.1,0.2,0.2,0.2c0.1,0.1,0.3,0.1,0.5,0.1C351.6,165.3,351.7,165.3,352,165.2z M358.4,163.9l1.3,0.2
				c-0.2,0.8-0.6,1.4-1.2,1.8c-0.6,0.4-1.3,0.6-2.2,0.6c-1.1,0-2-0.3-2.7-1c-0.6-0.7-1-1.7-1-2.9c0-1.3,0.3-2.3,1-3s1.5-1.1,2.6-1.1
				c1,0,1.8,0.3,2.5,1s1,1.7,1,2.9c0,0.1,0,0.2,0,0.3H354c0,0.8,0.3,1.5,0.7,1.9c0.4,0.4,1,0.7,1.6,0.7c0.5,0,0.9-0.1,1.2-0.4
				C358,164.9,358.2,164.5,358.4,163.9z M354.2,161.9h4.2c-0.1-0.6-0.2-1.1-0.5-1.4c-0.4-0.5-1-0.8-1.6-0.8s-1.1,0.2-1.5,0.6
				C354.5,160.7,354.3,161.2,354.2,161.9z M361.4,166.4v-7.6h1.2v1.1c0.2-0.4,0.5-0.7,0.9-0.9s0.9-0.3,1.4-0.3c0.6,0,1,0.1,1.4,0.3
				s0.6,0.6,0.8,1c0.6-0.9,1.4-1.3,2.4-1.3c0.8,0,1.3,0.2,1.7,0.6c0.4,0.4,0.6,1.1,0.6,1.9v5.2h-1.3v-4.8c0-0.5,0-0.9-0.1-1.1
				c-0.1-0.2-0.2-0.4-0.5-0.5c-0.2-0.1-0.5-0.2-0.8-0.2c-0.5,0-1,0.2-1.3,0.5c-0.4,0.4-0.5,0.9-0.5,1.7v4.4H366v-4.9
				c0-0.6-0.1-1-0.3-1.3c-0.2-0.3-0.6-0.4-1-0.4s-0.7,0.1-1,0.3s-0.5,0.5-0.7,0.8c-0.1,0.4-0.2,0.9-0.2,1.6v3.9H361.4z"/>
			<path class="st8" d="M352.7,180.7l1.4,0.3c-0.3,1.1-0.8,2-1.6,2.6c-0.8,0.6-1.7,0.9-2.8,0.9c-1.1,0-2-0.2-2.8-0.7
				c-0.7-0.5-1.2-1.1-1.6-2s-0.5-1.8-0.5-2.8c0-1.1,0.2-2,0.6-2.9c0.4-0.8,1-1.4,1.8-1.8c0.8-0.4,1.6-0.6,2.5-0.6
				c1,0,1.9,0.3,2.6,0.8s1.2,1.3,1.5,2.2l-1.4,0.3c-0.2-0.8-0.6-1.3-1.1-1.7s-1-0.5-1.7-0.5c-0.8,0-1.5,0.2-2,0.6
				c-0.5,0.4-0.9,0.9-1.1,1.6c-0.2,0.6-0.3,1.3-0.3,2c0,0.9,0.1,1.7,0.4,2.3c0.3,0.7,0.7,1.2,1.2,1.5c0.6,0.3,1.1,0.5,1.8,0.5
				c0.8,0,1.4-0.2,2-0.7C352.2,182.3,352.6,181.6,352.7,180.7z M355.7,184.4v-10.5h1.3v3.8c0.6-0.7,1.4-1,2.3-1
				c0.6,0,1.1,0.1,1.5,0.3s0.7,0.5,0.9,0.9c0.2,0.4,0.3,1,0.3,1.7v4.8h-1.3v-4.8c0-0.6-0.1-1.1-0.4-1.4c-0.3-0.3-0.7-0.4-1.2-0.4
				c-0.4,0-0.7,0.1-1.1,0.3c-0.3,0.2-0.6,0.5-0.7,0.8s-0.2,0.8-0.2,1.4v4.2h-1.4V184.4z M369,181.9l1.3,0.2
				c-0.2,0.8-0.6,1.4-1.2,1.8c-0.6,0.4-1.3,0.6-2.2,0.6c-1.1,0-2-0.3-2.7-1c-0.6-0.7-1-1.7-1-2.9c0-1.3,0.3-2.3,1-3s1.5-1.1,2.6-1.1
				c1,0,1.8,0.3,2.5,1s1,1.7,1,2.9c0,0.1,0,0.2,0,0.3h-5.6c0,0.8,0.3,1.5,0.7,1.9c0.4,0.4,1,0.7,1.6,0.7c0.5,0,0.9-0.1,1.2-0.4
				C368.6,182.9,368.8,182.5,369,181.9z M364.8,179.9h4.2c-0.1-0.6-0.2-1.1-0.5-1.4c-0.4-0.5-1-0.8-1.6-0.8s-1.1,0.2-1.5,0.6
				C365.1,178.7,364.8,179.2,364.8,179.9z M376.9,181.6l1.3,0.2c-0.1,0.9-0.5,1.6-1.1,2.1s-1.3,0.7-2.1,0.7c-1,0-1.9-0.3-2.5-1
				s-0.9-1.7-0.9-2.9c0-0.8,0.1-1.5,0.4-2.2c0.3-0.6,0.7-1.1,1.2-1.4c0.6-0.3,1.2-0.5,1.8-0.5c0.8,0,1.5,0.2,2,0.6
				c0.5,0.4,0.9,1,1,1.8l-1.3,0.2c-0.1-0.5-0.3-0.9-0.6-1.2c-0.3-0.3-0.7-0.4-1.1-0.4c-0.7,0-1.2,0.2-1.6,0.7s-0.6,1.2-0.6,2.2
				s0.2,1.8,0.6,2.2c0.4,0.5,0.9,0.7,1.5,0.7c0.5,0,0.9-0.2,1.3-0.5C376.6,182.7,376.9,182.3,376.9,181.6z M379.3,184.4v-10.5h1.3v6
				l3-3.1h1.7l-2.9,2.8l3.2,4.8H384l-2.5-3.9l-0.9,0.9v3H379.3z M386.6,184.4v-10.5h1.3v10.5H386.6z M389.9,175.4v-1.5h1.3v1.5
				H389.9z M389.9,184.4v-7.6h1.3v7.6H389.9z M392.6,182.1l1.3-0.2c0.1,0.5,0.3,0.9,0.6,1.2c0.3,0.3,0.8,0.4,1.4,0.4s1-0.1,1.3-0.4
				c0.3-0.2,0.4-0.5,0.4-0.8s-0.1-0.5-0.4-0.7c-0.2-0.1-0.6-0.3-1.3-0.4c-0.9-0.2-1.6-0.4-2-0.6c-0.4-0.2-0.6-0.4-0.8-0.7
				s-0.3-0.7-0.3-1s0.1-0.7,0.2-0.9c0.2-0.3,0.4-0.5,0.6-0.7c0.2-0.1,0.5-0.3,0.8-0.4c0.4-0.1,0.7-0.2,1.1-0.2
				c0.6,0,1.1,0.1,1.6,0.3c0.4,0.2,0.8,0.4,1,0.7s0.4,0.7,0.4,1.2l-1.2,0.2c-0.1-0.4-0.2-0.7-0.5-0.9s-0.7-0.3-1.2-0.3
				c-0.6,0-1,0.1-1.3,0.3c-0.2,0.2-0.4,0.4-0.4,0.7c0,0.2,0.1,0.3,0.2,0.5c0.1,0.1,0.3,0.2,0.5,0.3c0.1,0.1,0.5,0.2,1.1,0.3
				c0.9,0.2,1.5,0.4,1.9,0.6c0.4,0.2,0.7,0.4,0.9,0.7c0.2,0.3,0.3,0.7,0.3,1.1c0,0.4-0.1,0.8-0.4,1.2c-0.2,0.4-0.6,0.7-1.1,0.9
				s-1,0.3-1.6,0.3c-1,0-1.7-0.2-2.3-0.6C393.1,183.5,392.8,182.9,392.6,182.1z M403.3,183.2l0.2,1.1c-0.4,0.1-0.7,0.1-1,0.1
				c-0.5,0-0.8-0.1-1.1-0.2c-0.3-0.1-0.4-0.3-0.5-0.6c-0.1-0.2-0.2-0.7-0.2-1.5v-4.4h-1v-1h1v-1.9l1.3-0.8v2.7h1.3v1H402v4.4
				c0,0.4,0,0.6,0.1,0.7c0.1,0.1,0.1,0.2,0.2,0.2c0.1,0.1,0.3,0.1,0.5,0.1C402.9,183.3,403.1,183.3,403.3,183.2z"/>
			<path class="st7" d="M318,260.1h80.2v39.5H318V260.1z"/>
			<path class="st8" d="M328,283.2v-10.5h2.1v4.1h4.2v-4.1h2.1v10.5h-2.1v-4.6h-4.2v4.6H328z M338.1,279.3c0-0.7,0.2-1.3,0.5-1.9
				s0.8-1.1,1.4-1.4s1.3-0.5,2-0.5c1.1,0,2.1,0.4,2.8,1.1c0.7,0.7,1.1,1.7,1.1,2.8c0,1.2-0.4,2.1-1.1,2.9s-1.7,1.1-2.8,1.1
				c-0.7,0-1.4-0.2-2-0.5s-1.1-0.8-1.4-1.4S338.1,280.1,338.1,279.3z M340.2,279.4c0,0.8,0.2,1.3,0.5,1.7c0.4,0.4,0.8,0.6,1.3,0.6
				s1-0.2,1.3-0.6c0.4-0.4,0.5-1,0.5-1.8s-0.2-1.3-0.5-1.7c-0.4-0.4-0.8-0.6-1.3-0.6s-1,0.2-1.3,0.6S340.2,278.6,340.2,279.4z
				 M346.8,281l2-0.3c0.1,0.4,0.3,0.7,0.5,0.9c0.3,0.2,0.6,0.3,1.1,0.3s0.9-0.1,1.2-0.3c0.2-0.1,0.3-0.3,0.3-0.5
				c0-0.1,0-0.3-0.1-0.4s-0.3-0.2-0.7-0.3c-1.6-0.4-2.7-0.7-3.1-1c-0.6-0.4-0.9-1-0.9-1.7s0.3-1.2,0.8-1.7c0.5-0.4,1.3-0.7,2.4-0.7
				c1,0,1.8,0.2,2.3,0.5s0.9,0.8,1,1.5l-1.9,0.4c-0.1-0.3-0.2-0.5-0.5-0.7s-0.6-0.2-1-0.2c-0.5,0-0.9,0.1-1.1,0.2s-0.2,0.2-0.2,0.4
				c0,0.1,0.1,0.3,0.2,0.4c0.2,0.1,0.8,0.3,1.9,0.6c1.1,0.2,1.8,0.5,2.2,0.9c0.4,0.4,0.6,0.9,0.6,1.5c0,0.7-0.3,1.3-0.9,1.8
				s-1.4,0.8-2.6,0.8c-1,0-1.8-0.2-2.5-0.6C347.4,282.3,347,281.7,346.8,281z M359.2,275.6v1.6h-1.4v3.1c0,0.6,0,1,0,1.1
				s0.1,0.2,0.2,0.2c0.1,0.1,0.2,0.1,0.3,0.1c0.2,0,0.5-0.1,0.8-0.2l0.2,1.6c-0.5,0.2-1,0.3-1.6,0.3c-0.4,0-0.7-0.1-1-0.2
				s-0.5-0.3-0.6-0.5s-0.2-0.5-0.3-0.8c0-0.2-0.1-0.7-0.1-1.4v-3.3h-0.9v-1.6h0.9v-1.5l2-1.2v2.7L359.2,275.6L359.2,275.6z"/>
			<path class="st8" d="M334.7,297.3l2,0.7c-0.3,1.1-0.8,2-1.6,2.5c-0.7,0.6-1.7,0.8-2.8,0.8c-1.4,0-2.5-0.5-3.4-1.4
				s-1.3-2.2-1.3-3.9c0-1.7,0.5-3.1,1.4-4.1s2.1-1.5,3.6-1.5c1.3,0,2.3,0.4,3.1,1.1c0.5,0.4,0.8,1.1,1.1,1.9l-2.1,0.5
				c-0.1-0.6-0.4-1-0.8-1.3s-0.9-0.5-1.4-0.5c-0.8,0-1.4,0.3-1.9,0.8c-0.5,0.6-0.7,1.5-0.7,2.7c0,1.3,0.2,2.3,0.7,2.8
				c0.5,0.6,1.1,0.8,1.9,0.8c0.6,0,1-0.2,1.5-0.5C334.3,298.7,334.6,298.1,334.7,297.3z M338.1,297.3c0-0.7,0.2-1.3,0.5-1.9
				s0.8-1.1,1.4-1.4s1.3-0.5,2-0.5c1.1,0,2.1,0.4,2.8,1.1c0.7,0.7,1.1,1.7,1.1,2.8c0,1.2-0.4,2.1-1.1,2.9s-1.7,1.1-2.8,1.1
				c-0.7,0-1.4-0.2-2-0.5s-1.1-0.8-1.4-1.4S338.1,298.1,338.1,297.3z M340.2,297.4c0,0.8,0.2,1.3,0.5,1.7c0.4,0.4,0.8,0.6,1.3,0.6
				s1-0.2,1.3-0.6c0.4-0.4,0.5-1,0.5-1.8s-0.2-1.3-0.5-1.7c-0.4-0.4-0.8-0.6-1.3-0.6s-1,0.2-1.3,0.6S340.2,296.6,340.2,297.4z
				 M354.5,301.2h-2v-3.9c0-0.8,0-1.4-0.1-1.6s-0.2-0.4-0.4-0.6c-0.2-0.1-0.4-0.2-0.7-0.2c-0.3,0-0.7,0.1-0.9,0.3
				c-0.3,0.2-0.5,0.4-0.6,0.8s-0.2,0.9-0.2,1.8v3.4h-2v-7.6h1.9v1.1c0.7-0.9,1.5-1.3,2.5-1.3c0.4,0,0.9,0.1,1.2,0.2s0.6,0.4,0.8,0.6
				c0.2,0.2,0.3,0.5,0.4,0.8s0.1,0.8,0.1,1.4L354.5,301.2L354.5,301.2z M355.8,299l2-0.3c0.1,0.4,0.3,0.7,0.5,0.9
				c0.3,0.2,0.6,0.3,1.1,0.3s0.9-0.1,1.2-0.3c0.2-0.1,0.3-0.3,0.3-0.5c0-0.1,0-0.3-0.1-0.4s-0.3-0.2-0.7-0.3c-1.6-0.4-2.7-0.7-3.1-1
				c-0.6-0.4-0.9-1-0.9-1.7s0.3-1.2,0.8-1.7c0.5-0.4,1.3-0.7,2.4-0.7c1,0,1.8,0.2,2.3,0.5s0.9,0.8,1,1.5l-1.9,0.4
				c-0.1-0.3-0.2-0.5-0.5-0.7c-0.2-0.2-0.6-0.2-1-0.2c-0.5,0-0.9,0.1-1.1,0.2s-0.2,0.2-0.2,0.4c0,0.1,0.1,0.3,0.2,0.4
				c0.2,0.1,0.8,0.3,1.9,0.6c1.1,0.2,1.8,0.5,2.2,0.9c0.4,0.4,0.6,0.9,0.6,1.5c0,0.7-0.3,1.3-0.9,1.8s-1.4,0.8-2.6,0.8
				c-1,0-1.8-0.2-2.5-0.6C356.4,300.3,356,299.7,355.8,299z M364.2,297.3c0-0.7,0.2-1.3,0.5-1.9s0.8-1.1,1.4-1.4s1.3-0.5,2-0.5
				c1.1,0,2.1,0.4,2.8,1.1c0.7,0.7,1.1,1.7,1.1,2.8c0,1.2-0.4,2.1-1.1,2.9s-1.7,1.1-2.8,1.1c-0.7,0-1.4-0.2-2-0.5s-1.1-0.8-1.4-1.4
				S364.2,298.1,364.2,297.3z M366.2,297.4c0,0.8,0.2,1.3,0.5,1.7c0.4,0.4,0.8,0.6,1.3,0.6s1-0.2,1.3-0.6c0.4-0.4,0.5-1,0.5-1.8
				s-0.2-1.3-0.5-1.7c-0.4-0.4-0.8-0.6-1.3-0.6s-1,0.2-1.3,0.6S366.2,296.6,366.2,297.4z M373.6,301.2v-10.5h2v10.5H373.6z
				 M382.1,298.8l2,0.3c-0.2,0.7-0.7,1.3-1.2,1.7c-0.6,0.4-1.2,0.6-2.1,0.6c-1.3,0-2.3-0.4-2.9-1.3c-0.5-0.7-0.8-1.6-0.8-2.6
				c0-1.2,0.3-2.2,1-2.9c0.7-0.7,1.5-1.1,2.5-1.1c1.1,0,2,0.4,2.7,1.1s1,1.9,0.9,3.4h-5c0,0.6,0.2,1.1,0.5,1.4s0.7,0.5,1.2,0.5
				c0.3,0,0.6-0.1,0.8-0.2C381.8,299.4,382,299.1,382.1,298.8z M382.2,296.7c0-0.6-0.2-1-0.5-1.3s-0.6-0.5-1-0.5s-0.8,0.2-1.1,0.5
				c-0.3,0.3-0.4,0.7-0.4,1.3H382.2z"/>
			<path class="st6" d="M529.5,298.2h88.4v39.5h-88.4V298.2z"/>
			<path class="st8" d="M539.7,321.3v-10.5h7.1v1.2h-5.7v3.2h4.9v1.2h-4.9v4.8L539.7,321.3L539.7,321.3z M548,317.5
				c0-1.4,0.4-2.4,1.2-3.1c0.7-0.6,1.5-0.8,2.4-0.8c1.1,0,1.9,0.3,2.6,1c0.7,0.7,1,1.6,1,2.8c0,1-0.1,1.8-0.4,2.3
				c-0.3,0.6-0.7,1-1.3,1.3s-1.2,0.5-1.8,0.5c-1.1,0-1.9-0.3-2.6-1C548.3,319.8,548,318.8,548,317.5z M549.3,317.5
				c0,1,0.2,1.7,0.6,2.2c0.4,0.5,1,0.7,1.6,0.7s1.2-0.2,1.6-0.7c0.4-0.5,0.6-1.2,0.6-2.2c0-0.9-0.2-1.6-0.6-2.1
				c-0.4-0.5-1-0.7-1.6-0.7s-1.2,0.2-1.6,0.7C549.5,315.8,549.3,316.5,549.3,317.5z M556.1,317.5c0-1.4,0.4-2.4,1.2-3.1
				c0.7-0.6,1.5-0.8,2.4-0.8c1.1,0,1.9,0.3,2.6,1c0.7,0.7,1,1.6,1,2.8c0,1-0.1,1.8-0.4,2.3c-0.3,0.6-0.7,1-1.3,1.3s-1.2,0.5-1.8,0.5
				c-1.1,0-1.9-0.3-2.6-1C556.4,319.8,556.1,318.8,556.1,317.5z M557.4,317.5c0,1,0.2,1.7,0.6,2.2c0.4,0.5,1,0.7,1.6,0.7
				s1.2-0.2,1.6-0.7c0.4-0.5,0.6-1.2,0.6-2.2c0-0.9-0.2-1.6-0.6-2.1c-0.4-0.5-1-0.7-1.6-0.7s-1.2,0.2-1.6,0.7
				C557.7,315.8,557.4,316.5,557.4,317.5z M567.6,320.1l0.2,1.1c-0.4,0.1-0.7,0.1-1,0.1c-0.5,0-0.8-0.1-1.1-0.2s-0.4-0.3-0.5-0.6
				c-0.1-0.2-0.2-0.7-0.2-1.5v-4.4h-1v-1h1v-1.9l1.3-0.8v2.7h1.3v1h-1.3v4.4c0,0.4,0,0.6,0.1,0.7s0.1,0.2,0.2,0.2
				c0.1,0.1,0.3,0.1,0.5,0.1C567.1,320.2,567.3,320.2,567.6,320.1z M573.1,321.3v-10.5h4c0.7,0,1.2,0,1.6,0.1
				c0.5,0.1,0.9,0.2,1.3,0.5c0.4,0.2,0.6,0.6,0.8,1s0.3,0.9,0.3,1.4c0,0.9-0.3,1.6-0.9,2.3c-0.6,0.6-1.6,0.9-3.1,0.9h-2.7v4.3
				L573.1,321.3L573.1,321.3z M574.4,315.8h2.7c0.9,0,1.5-0.2,1.9-0.5s0.6-0.8,0.6-1.4c0-0.4-0.1-0.8-0.3-1.1s-0.5-0.5-0.9-0.6
				c-0.2-0.1-0.7-0.1-1.3-0.1h-2.7V315.8z M582.7,321.3v-7.6h1.2v1.1c0.3-0.5,0.6-0.9,0.8-1c0.2-0.2,0.5-0.3,0.8-0.3
				c0.4,0,0.9,0.1,1.3,0.4l-0.4,1.2c-0.3-0.2-0.6-0.3-1-0.3c-0.3,0-0.5,0.1-0.8,0.2c-0.2,0.2-0.4,0.4-0.5,0.7
				c-0.1,0.5-0.2,1-0.2,1.5v4L582.7,321.3L582.7,321.3z M587.6,312.3v-1.5h1.3v1.5H587.6z M587.6,321.3v-7.6h1.3v7.6H587.6z
				 M590.8,321.3v-7.6h1.2v1.1c0.6-0.8,1.4-1.2,2.4-1.2c0.5,0,0.9,0.1,1.3,0.2c0.4,0.2,0.7,0.4,0.9,0.6c0.2,0.3,0.3,0.6,0.4,1
				c0,0.2,0.1,0.7,0.1,1.2v4.7h-1.4v-4.6c0-0.5-0.1-0.9-0.2-1.2c-0.1-0.3-0.3-0.5-0.5-0.6c-0.2-0.2-0.5-0.2-0.9-0.2
				c-0.5,0-1,0.2-1.4,0.5s-0.6,1-0.6,2v4.2h-1.3V321.3z M601.8,320.1l0.2,1.1c-0.4,0.1-0.7,0.1-1,0.1c-0.5,0-0.8-0.1-1.1-0.2
				s-0.4-0.3-0.5-0.6c-0.1-0.2-0.2-0.7-0.2-1.5v-4.4h-1v-1h1v-1.9l1.3-0.8v2.7h1.3v1h-1.3v4.4c0,0.4,0,0.6,0.1,0.7s0.1,0.2,0.2,0.2
				c0.1,0.1,0.3,0.1,0.5,0.1C601.3,320.2,601.5,320.2,601.8,320.1z"/>
			<path class="st6" d="M433.7,159.3h96.1v51.1h-96.1V159.3z"/>
			<path class="st8" d="M443.8,182.4v-10.5h4c0.7,0,1.2,0,1.6,0.1c0.5,0.1,0.9,0.2,1.3,0.5c0.4,0.2,0.6,0.6,0.8,1
				c0.2,0.4,0.3,0.9,0.3,1.4c0,0.9-0.3,1.6-0.9,2.3c-0.6,0.6-1.6,0.9-3.1,0.9h-2.7v4.3H443.8z M445.2,176.9h2.7
				c0.9,0,1.5-0.2,1.9-0.5s0.6-0.8,0.6-1.4c0-0.4-0.1-0.8-0.3-1.1s-0.5-0.5-0.9-0.6c-0.2-0.1-0.7-0.1-1.3-0.1h-2.7L445.2,176.9
				L445.2,176.9z M458.4,182.4v-1.1c-0.6,0.9-1.4,1.3-2.4,1.3c-0.4,0-0.9-0.1-1.2-0.2c-0.4-0.2-0.7-0.4-0.9-0.7
				c-0.2-0.3-0.3-0.6-0.4-1c-0.1-0.2-0.1-0.7-0.1-1.2v-4.7h1.3v4.2c0,0.7,0,1.1,0.1,1.4c0.1,0.3,0.3,0.6,0.5,0.8
				c0.3,0.2,0.6,0.3,1,0.3s0.7-0.1,1.1-0.3c0.3-0.2,0.6-0.5,0.7-0.8s0.2-0.8,0.2-1.5v-4.1h1.3v7.6H458.4z M461.6,182.4v-7.6h1.2v1.1
				c0.6-0.8,1.4-1.2,2.4-1.2c0.5,0,0.9,0.1,1.3,0.2c0.4,0.2,0.7,0.4,0.9,0.6c0.2,0.3,0.3,0.6,0.4,1c0,0.2,0.1,0.7,0.1,1.2v4.7h-1.3
				v-4.6c0-0.5-0.1-0.9-0.2-1.2s-0.3-0.5-0.5-0.6c-0.2-0.2-0.5-0.2-0.9-0.2c-0.5,0-1,0.2-1.4,0.5s-0.6,1-0.6,2v4.2L461.6,182.4
				L461.6,182.4z M474.7,179.6l1.3,0.2c-0.1,0.9-0.5,1.6-1.1,2.1s-1.3,0.7-2.1,0.7c-1,0-1.9-0.3-2.5-1s-0.9-1.7-0.9-2.9
				c0-0.8,0.1-1.5,0.4-2.2c0.3-0.6,0.7-1.1,1.2-1.4c0.6-0.3,1.2-0.5,1.8-0.5c0.8,0,1.5,0.2,2,0.6c0.5,0.4,0.9,1,1,1.8l-1.3,0.2
				c-0.1-0.5-0.3-0.9-0.6-1.2c-0.3-0.3-0.7-0.4-1.1-0.4c-0.7,0-1.2,0.2-1.6,0.7s-0.6,1.2-0.6,2.2s0.2,1.8,0.6,2.2
				c0.4,0.5,0.9,0.7,1.5,0.7c0.5,0,0.9-0.2,1.3-0.5C474.4,180.7,474.6,180.3,474.7,179.6z M479.9,181.2l0.2,1.1
				c-0.4,0.1-0.7,0.1-1,0.1c-0.5,0-0.8-0.1-1.1-0.2c-0.3-0.1-0.4-0.3-0.5-0.6c-0.1-0.2-0.2-0.7-0.2-1.5v-4.4h-1v-1h1v-1.9l1.3-0.8
				v2.7h1.3v1h-1.3v4.4c0,0.4,0,0.6,0.1,0.7c0.1,0.1,0.1,0.2,0.2,0.2c0.1,0.1,0.3,0.1,0.5,0.1C479.5,181.3,479.7,181.3,479.9,181.2z
				 M486.1,182.4v-1.1c-0.6,0.9-1.4,1.3-2.4,1.3c-0.4,0-0.9-0.1-1.2-0.2c-0.4-0.2-0.7-0.4-0.9-0.7c-0.2-0.3-0.3-0.6-0.4-1
				c-0.1-0.2-0.1-0.7-0.1-1.2v-4.7h1.3v4.2c0,0.7,0,1.1,0.1,1.4c0.1,0.3,0.3,0.6,0.5,0.8c0.3,0.2,0.6,0.3,1,0.3s0.7-0.1,1.1-0.3
				c0.3-0.2,0.6-0.5,0.7-0.8s0.2-0.8,0.2-1.5v-4.1h1.3v7.6H486.1z M494.3,181.5c-0.5,0.4-0.9,0.7-1.4,0.9c-0.4,0.2-0.9,0.2-1.4,0.2
				c-0.8,0-1.5-0.2-1.9-0.6s-0.7-0.9-0.7-1.6c0-0.4,0.1-0.7,0.2-1c0.2-0.3,0.4-0.6,0.7-0.8c0.3-0.2,0.6-0.3,0.9-0.4
				c0.2-0.1,0.6-0.1,1.1-0.2c1-0.1,1.8-0.3,2.3-0.5c0-0.2,0-0.3,0-0.3c0-0.5-0.1-0.9-0.4-1.1c-0.3-0.3-0.8-0.4-1.5-0.4
				c-0.6,0-1.1,0.1-1.4,0.3s-0.5,0.6-0.6,1.1l-1.3-0.2c0.1-0.5,0.3-1,0.6-1.3c0.3-0.3,0.6-0.6,1.1-0.8s1.1-0.3,1.7-0.3
				c0.7,0,1.2,0.1,1.6,0.2c0.4,0.1,0.7,0.3,0.9,0.6c0.2,0.2,0.3,0.5,0.4,0.9c0,0.2,0.1,0.6,0.1,1.2v1.7c0,1.2,0,2,0.1,2.3
				s0.2,0.6,0.3,0.9h-1.3C494.4,182.1,494.3,181.8,494.3,181.5z M494.1,178.6c-0.5,0.2-1.2,0.3-2.1,0.5c-0.5,0.1-0.9,0.2-1.1,0.3
				s-0.4,0.2-0.5,0.4s-0.2,0.4-0.2,0.6c0,0.3,0.1,0.6,0.4,0.9c0.3,0.2,0.6,0.3,1.1,0.3s0.9-0.1,1.3-0.3s0.7-0.5,0.9-0.9
				c0.1-0.3,0.2-0.7,0.2-1.3L494.1,178.6L494.1,178.6z M497.4,182.4v-10.5h1.3v10.5H497.4z M500.7,173.4v-1.5h1.3v1.5H500.7z
				 M500.7,182.4v-7.6h1.3v7.6H500.7z M506.8,181.2l0.2,1.1c-0.4,0.1-0.7,0.1-1,0.1c-0.5,0-0.8-0.1-1.1-0.2
				c-0.3-0.1-0.4-0.3-0.5-0.6c-0.1-0.2-0.2-0.7-0.2-1.5v-4.4h-1v-1h1v-1.9l1.3-0.8v2.7h1.3v1h-1.3v4.4c0,0.4,0,0.6,0.1,0.7
				c0.1,0.1,0.1,0.2,0.2,0.2c0.1,0.1,0.3,0.1,0.5,0.1C506.3,181.3,506.5,181.3,506.8,181.2z M508,185.3l-0.1-1.2
				c0.3,0.1,0.5,0.1,0.7,0.1c0.3,0,0.5,0,0.7-0.1s0.3-0.2,0.4-0.4c0.1-0.1,0.2-0.4,0.4-1c0-0.1,0.1-0.2,0.1-0.3l-2.9-7.6h1.4
				l1.6,4.4c0.2,0.6,0.4,1.2,0.5,1.8c0.2-0.6,0.3-1.2,0.5-1.7l1.6-4.4h1.3l-2.9,7.7c-0.3,0.8-0.6,1.4-0.7,1.7
				c-0.2,0.4-0.5,0.7-0.8,0.9s-0.6,0.3-1.1,0.3C508.6,185.5,508.3,185.4,508,185.3z"/>
			<path class="st8" d="M451.3,196.7l1.4,0.3c-0.3,1.1-0.8,2-1.6,2.6c-0.8,0.6-1.7,0.9-2.8,0.9c-1.1,0-2-0.2-2.8-0.7
				c-0.7-0.5-1.2-1.1-1.6-2s-0.5-1.8-0.5-2.8c0-1.1,0.2-2,0.6-2.9s1-1.4,1.8-1.8c0.8-0.4,1.6-0.6,2.5-0.6c1,0,1.9,0.3,2.6,0.8
				s1.2,1.3,1.5,2.2L451,193c-0.2-0.8-0.6-1.3-1.1-1.7s-1-0.5-1.7-0.5c-0.8,0-1.5,0.2-2,0.6c-0.5,0.4-0.9,0.9-1.1,1.6
				c-0.2,0.6-0.3,1.3-0.3,2c0,0.9,0.1,1.7,0.4,2.3c0.3,0.7,0.7,1.2,1.2,1.5c0.6,0.3,1.1,0.5,1.8,0.5c0.8,0,1.4-0.2,2-0.7
				C450.8,198.3,451.1,197.6,451.3,196.7z M454.3,200.4v-10.5h1.3v3.8c0.6-0.7,1.4-1,2.3-1c0.6,0,1.1,0.1,1.5,0.3s0.7,0.5,0.9,0.9
				c0.2,0.4,0.3,1,0.3,1.7v4.8h-1.3v-4.8c0-0.6-0.1-1.1-0.4-1.4c-0.3-0.3-0.7-0.4-1.2-0.4c-0.4,0-0.7,0.1-1.1,0.3
				c-0.3,0.2-0.6,0.5-0.7,0.8s-0.2,0.8-0.2,1.4v4.2h-1.4V200.4z M467.6,197.9l1.3,0.2c-0.2,0.8-0.6,1.4-1.2,1.8
				c-0.6,0.4-1.3,0.6-2.2,0.6c-1.1,0-2-0.3-2.7-1c-0.6-0.7-1-1.7-1-2.9c0-1.3,0.3-2.3,1-3s1.5-1.1,2.6-1.1c1,0,1.8,0.3,2.5,1
				c0.6,0.7,1,1.7,1,2.9c0,0.1,0,0.2,0,0.3h-5.7c0,0.8,0.3,1.5,0.7,1.9c0.4,0.4,1,0.7,1.6,0.7c0.5,0,0.9-0.1,1.2-0.4
				C467.1,198.9,467.4,198.5,467.6,197.9z M463.4,195.9h4.2c-0.1-0.6-0.2-1.1-0.5-1.4c-0.4-0.5-1-0.8-1.6-0.8s-1.1,0.2-1.5,0.6
				C463.6,194.7,463.4,195.2,463.4,195.9z M475.5,197.6l1.3,0.2c-0.1,0.9-0.5,1.6-1.1,2.1s-1.3,0.7-2.1,0.7c-1,0-1.9-0.3-2.5-1
				s-0.9-1.7-0.9-2.9c0-0.8,0.1-1.5,0.4-2.2c0.3-0.6,0.7-1.1,1.2-1.4c0.6-0.3,1.2-0.5,1.8-0.5c0.8,0,1.5,0.2,2,0.6
				c0.5,0.4,0.9,1,1,1.8l-1.3,0.2c-0.1-0.5-0.3-0.9-0.6-1.2c-0.3-0.3-0.7-0.4-1.1-0.4c-0.7,0-1.2,0.2-1.6,0.7s-0.6,1.2-0.6,2.2
				s0.2,1.8,0.6,2.2c0.4,0.5,0.9,0.7,1.5,0.7c0.5,0,0.9-0.2,1.3-0.5C475.2,198.7,475.4,198.3,475.5,197.6z M477.9,200.4v-10.5h1.3v6
				l3-3.1h1.7l-2.9,2.8l3.2,4.8h-1.6l-2.5-3.9l-0.9,0.9v3H477.9z"/>
			<path class="st6" d="M498.5,211.8h88.4v67.8h-88.4L498.5,211.8L498.5,211.8z"/>
			<path class="st8" d="M508.2,231.6l1.3-0.1c0.1,0.5,0.2,1,0.4,1.3c0.2,0.3,0.6,0.6,1.1,0.8s1,0.3,1.6,0.3c0.5,0,1-0.1,1.4-0.2
				c0.4-0.1,0.7-0.4,0.9-0.6c0.2-0.3,0.3-0.6,0.3-0.9c0-0.3-0.1-0.6-0.3-0.9c-0.2-0.2-0.5-0.5-0.9-0.6c-0.3-0.1-0.9-0.3-1.9-0.5
				s-1.6-0.4-2-0.7c-0.5-0.3-0.9-0.6-1.1-1s-0.4-0.8-0.4-1.3s0.1-1,0.4-1.5s0.7-0.8,1.3-1c0.6-0.2,1.2-0.4,1.9-0.4
				c0.8,0,1.5,0.1,2.1,0.4c0.6,0.3,1,0.6,1.4,1.1c0.3,0.5,0.5,1,0.5,1.7l-1.3,0.1c-0.1-0.7-0.3-1.2-0.7-1.5s-1-0.5-1.8-0.5
				s-1.5,0.2-1.8,0.5c-0.4,0.3-0.6,0.7-0.6,1.1c0,0.4,0.1,0.7,0.4,0.9s1,0.5,2.1,0.8c1.1,0.2,1.9,0.5,2.3,0.7
				c0.6,0.3,1.1,0.6,1.4,1.1c0.3,0.4,0.4,0.9,0.4,1.5s-0.2,1.1-0.5,1.6s-0.8,0.9-1.4,1.1c-0.6,0.3-1.3,0.4-2,0.4
				c-0.9,0-1.7-0.1-2.4-0.4c-0.6-0.3-1.1-0.7-1.5-1.2C508.4,232.9,508.2,232.3,508.2,231.6z M519.7,234.9l-2.3-7.6h1.3l1.2,4.4
				l0.5,1.6c0-0.1,0.2-0.6,0.4-1.6l1.2-4.4h1.3l1.1,4.4l0.4,1.5l0.4-1.5l1.3-4.4h1.2l-2.4,7.6H524l-1.2-4.5l-0.3-1.3l-1.5,5.8H519.7
				z M534.1,232.5l1.3,0.2c-0.2,0.8-0.6,1.4-1.2,1.8c-0.6,0.4-1.3,0.6-2.2,0.6c-1.1,0-2-0.3-2.7-1c-0.6-0.7-1-1.7-1-2.9
				c0-1.3,0.3-2.3,1-3s1.5-1.1,2.6-1.1c1,0,1.8,0.3,2.5,1s1,1.7,1,2.9c0,0.1,0,0.2,0,0.3h-5.7c0,0.8,0.3,1.5,0.7,1.9s1,0.7,1.6,0.7
				c0.5,0,0.9-0.1,1.2-0.4C533.6,233.4,533.9,233,534.1,232.5z M529.8,230.4h4.2c-0.1-0.6-0.2-1.1-0.5-1.4c-0.4-0.5-1-0.8-1.6-0.8
				s-1.1,0.2-1.5,0.6S529.9,229.7,529.8,230.4z M542.2,232.5l1.3,0.2c-0.2,0.8-0.6,1.4-1.2,1.8c-0.6,0.4-1.3,0.6-2.2,0.6
				c-1.1,0-2-0.3-2.7-1c-0.6-0.7-1-1.7-1-2.9c0-1.3,0.3-2.3,1-3s1.5-1.1,2.6-1.1c1,0,1.8,0.3,2.5,1c0.6,0.7,1,1.7,1,2.9
				c0,0.1,0,0.2,0,0.3h-5.7c0,0.8,0.3,1.5,0.7,1.9s1,0.7,1.6,0.7c0.5,0,0.9-0.1,1.2-0.4C541.8,233.4,542,233,542.2,232.5z
				 M538,230.4h4.2c-0.1-0.6-0.2-1.1-0.5-1.4c-0.4-0.5-1-0.8-1.6-0.8s-1.1,0.2-1.5,0.6S538,229.7,538,230.4z M548,233.8l0.2,1.1
				c-0.4,0.1-0.7,0.1-1,0.1c-0.5,0-0.8-0.1-1.1-0.2c-0.3-0.1-0.4-0.3-0.5-0.6c-0.1-0.2-0.2-0.7-0.2-1.5v-4.4h-1v-1h1v-1.9l1.3-0.8
				v2.7h1.3v1h-1.3v4.4c0,0.4,0,0.6,0.1,0.7c0.1,0.1,0.1,0.2,0.2,0.2c0.1,0.1,0.3,0.1,0.5,0.1C547.6,233.8,547.7,233.8,548,233.8z"
				/>
			<path class="st8" d="M511.3,252.9v-9.2h-3.5v-1.2h8.3v1.2h-3.4v9.2H511.3z M517.5,243.9v-1.5h1.3v1.5H517.5z M517.5,252.9v-7.6
				h1.3v7.6H517.5z M520.7,252.9v-7.6h1.2v1.1c0.2-0.4,0.5-0.7,0.9-0.9c0.4-0.2,0.9-0.3,1.4-0.3c0.6,0,1,0.1,1.4,0.3
				c0.4,0.2,0.6,0.6,0.8,1c0.6-0.9,1.4-1.3,2.4-1.3c0.8,0,1.3,0.2,1.7,0.6c0.4,0.4,0.6,1.1,0.6,1.9v5.2h-1.4v-4.8
				c0-0.5,0-0.9-0.1-1.1c-0.1-0.2-0.2-0.4-0.5-0.5c-0.2-0.1-0.5-0.2-0.8-0.2c-0.5,0-1,0.2-1.3,0.5c-0.4,0.4-0.5,0.9-0.5,1.7v4.4
				h-1.3V248c0-0.6-0.1-1-0.3-1.3s-0.6-0.4-1-0.4c-0.4,0-0.7,0.1-1,0.3s-0.5,0.5-0.7,0.8c-0.1,0.4-0.2,0.9-0.2,1.6v3.9H520.7z
				 M532.9,243.9v-1.5h1.3v1.5H532.9z M532.9,252.9v-7.6h1.3v7.6H532.9z M536.2,252.9v-7.6h1.2v1.1c0.6-0.8,1.4-1.2,2.4-1.2
				c0.5,0,0.9,0.1,1.3,0.2c0.4,0.2,0.7,0.4,0.9,0.6c0.2,0.3,0.3,0.6,0.4,1c0,0.2,0.1,0.7,0.1,1.2v4.7h-1.3v-4.6
				c0-0.5-0.1-0.9-0.2-1.2c-0.1-0.3-0.3-0.5-0.5-0.6c-0.2-0.2-0.5-0.2-0.9-0.2c-0.5,0-1,0.2-1.4,0.5s-0.6,1-0.6,2v4.2h-1.4V252.9z
				 M544.1,253.6l1.2,0.2c0.1,0.4,0.2,0.7,0.4,0.8c0.3,0.2,0.8,0.4,1.3,0.4c0.6,0,1.1-0.1,1.4-0.4c0.3-0.2,0.5-0.6,0.7-1
				c0.1-0.3,0.1-0.8,0.1-1.7c-0.6,0.7-1.3,1-2.1,1c-1,0-1.8-0.4-2.4-1.1c-0.6-0.8-0.9-1.7-0.9-2.7c0-0.7,0.1-1.4,0.4-2
				c0.3-0.6,0.7-1.1,1.1-1.4c0.5-0.3,1.1-0.5,1.8-0.5c0.9,0,1.6,0.4,2.2,1.1v-0.9h1.2v6.6c0,1.2-0.1,2-0.4,2.5
				c-0.2,0.5-0.6,0.9-1.2,1.2c-0.5,0.3-1.2,0.4-1.9,0.4c-0.9,0-1.6-0.2-2.2-0.6C544.3,255,544.1,254.4,544.1,253.6z M545.2,249
				c0,1,0.2,1.7,0.6,2.2c0.4,0.5,0.9,0.7,1.5,0.7s1.1-0.2,1.5-0.7s0.6-1.2,0.6-2.1s-0.2-1.6-0.6-2.1c-0.4-0.5-0.9-0.7-1.5-0.7
				s-1.1,0.2-1.5,0.7C545.4,247.4,545.2,248.1,545.2,249z"/>
			<path class="st8" d="M508.7,270.9v-10.5h4.6c0.9,0,1.7,0.1,2.1,0.3c0.5,0.2,0.9,0.5,1.2,1s0.4,1,0.4,1.6c0,0.7-0.2,1.4-0.7,1.9
				s-1.2,0.8-2.2,1c0.4,0.2,0.7,0.3,0.8,0.5c0.4,0.4,0.8,0.8,1.2,1.4l1.8,2.9h-1.7l-1.4-2.2c-0.4-0.6-0.7-1.1-1-1.4
				s-0.5-0.6-0.7-0.7s-0.4-0.2-0.6-0.3c-0.2,0-0.4,0-0.8,0h-1.6v4.7h-1.4V270.9z M510.1,265.1h3c0.6,0,1.1-0.1,1.5-0.2
				c0.4-0.1,0.6-0.3,0.8-0.6c0.2-0.3,0.3-0.6,0.3-0.9c0-0.5-0.2-0.9-0.5-1.2c-0.4-0.3-0.9-0.5-1.7-0.5h-3.3L510.1,265.1L510.1,265.1
				z M524.3,268.5l1.3,0.2c-0.2,0.8-0.6,1.4-1.2,1.8c-0.6,0.4-1.3,0.6-2.2,0.6c-1.1,0-2-0.3-2.7-1c-0.6-0.7-1-1.7-1-2.9
				c0-1.3,0.3-2.3,1-3s1.5-1.1,2.6-1.1c1,0,1.8,0.3,2.5,1s1,1.7,1,2.9c0,0.1,0,0.2,0,0.3h-5.7c0,0.8,0.3,1.5,0.7,1.9s1,0.7,1.6,0.7
				c0.5,0,0.9-0.1,1.2-0.4C523.8,269.4,524.1,269,524.3,268.5z M520.1,266.4h4.2c-0.1-0.6-0.2-1.1-0.5-1.4c-0.4-0.5-1-0.8-1.6-0.8
				c-0.6,0-1.1,0.2-1.5,0.6C520.3,265.2,520.1,265.7,520.1,266.4z M527.2,270.9v-7.6h1.2v1.1c0.2-0.4,0.5-0.7,0.9-0.9
				c0.4-0.2,0.9-0.3,1.4-0.3c0.6,0,1,0.1,1.4,0.3c0.4,0.2,0.6,0.6,0.8,1c0.6-0.9,1.4-1.3,2.4-1.3c0.8,0,1.3,0.2,1.7,0.6
				s0.6,1.1,0.6,1.9v5.2h-1.3v-4.8c0-0.5,0-0.9-0.1-1.1s-0.2-0.4-0.5-0.5c-0.2-0.1-0.5-0.2-0.8-0.2c-0.5,0-1,0.2-1.3,0.5
				c-0.4,0.4-0.5,0.9-0.5,1.7v4.4h-1.3V266c0-0.6-0.1-1-0.3-1.3s-0.6-0.4-1-0.4s-0.7,0.1-1,0.3c-0.3,0.2-0.5,0.5-0.7,0.8
				c-0.1,0.4-0.2,0.9-0.2,1.6v3.9H527.2z M539.5,261.9v-1.5h1.3v1.5H539.5z M539.5,270.9v-7.6h1.3v7.6H539.5z M542.7,270.9v-7.6h1.2
				v1.1c0.6-0.8,1.4-1.2,2.4-1.2c0.5,0,0.9,0.1,1.3,0.2c0.4,0.2,0.7,0.4,0.9,0.6c0.2,0.3,0.3,0.6,0.4,1c0,0.2,0.1,0.7,0.1,1.2v4.7
				h-1.3v-4.6c0-0.5-0.1-0.9-0.2-1.2c-0.1-0.3-0.3-0.5-0.5-0.6c-0.2-0.2-0.5-0.2-0.9-0.2c-0.5,0-1,0.2-1.4,0.5s-0.6,1-0.6,2v4.2
				h-1.4V270.9z M555.8,270.9v-1c-0.5,0.8-1.2,1.1-2.1,1.1c-0.6,0-1.2-0.2-1.7-0.5s-0.9-0.8-1.2-1.4s-0.4-1.3-0.4-2.1
				c0-0.8,0.1-1.4,0.4-2.1c0.3-0.6,0.6-1.1,1.1-1.4s1.1-0.5,1.7-0.5c0.5,0,0.9,0.1,1.2,0.3c0.4,0.2,0.6,0.4,0.9,0.7v-3.8h1.3v10.5
				h-1.2V270.9z M551.7,267.1c0,1,0.2,1.7,0.6,2.2c0.4,0.5,0.9,0.7,1.5,0.7s1-0.2,1.4-0.7s0.6-1.2,0.6-2.1c0-1-0.2-1.8-0.6-2.3
				c-0.4-0.5-0.9-0.7-1.5-0.7s-1,0.2-1.4,0.7C551.9,265.4,551.7,266.1,551.7,267.1z M564.2,268.5l1.3,0.2c-0.2,0.8-0.6,1.4-1.2,1.8
				c-0.6,0.4-1.3,0.6-2.2,0.6c-1.1,0-2-0.3-2.7-1c-0.6-0.7-1-1.7-1-2.9c0-1.3,0.3-2.3,1-3s1.5-1.1,2.6-1.1c1,0,1.8,0.3,2.5,1
				c0.6,0.7,1,1.7,1,2.9c0,0.1,0,0.2,0,0.3h-5.7c0,0.8,0.3,1.5,0.7,1.9s1,0.7,1.6,0.7c0.5,0,0.9-0.1,1.2-0.4
				C563.8,269.4,564,269,564.2,268.5z M560,266.4h4.2c-0.1-0.6-0.2-1.1-0.5-1.4c-0.4-0.5-1-0.8-1.6-0.8s-1.1,0.2-1.5,0.6
				S560,265.7,560,266.4z M567.1,270.9v-7.6h1.2v1.1c0.3-0.5,0.6-0.9,0.8-1c0.2-0.2,0.5-0.3,0.8-0.3c0.4,0,0.9,0.1,1.3,0.4l-0.4,1.2
				c-0.3-0.2-0.6-0.3-1-0.3c-0.3,0-0.5,0.1-0.8,0.2c-0.2,0.2-0.4,0.4-0.5,0.7c-0.1,0.5-0.2,1-0.2,1.5v4L567.1,270.9L567.1,270.9z"/>
			<path class="st4" d="M428.2,43.2h80.2v51.1h-80.2V43.2z"/>
			<path class="st9" d="M441,66.3V57h-3.5v-1.2h8.3V57h-3.5v9.2H441V66.3z M447.1,66.3v-7.6h1.2v1.1c0.3-0.5,0.6-0.9,0.8-1
				c0.2-0.2,0.5-0.3,0.8-0.3c0.4,0,0.9,0.1,1.3,0.4l-0.4,1.2c-0.3-0.2-0.6-0.3-1-0.3c-0.3,0-0.5,0.1-0.8,0.2
				c-0.2,0.2-0.4,0.4-0.5,0.7c-0.1,0.5-0.2,1-0.2,1.5v4h-1.2V66.3z M452,57.3v-1.5h1.3v1.5H452z M452,66.3v-7.6h1.3v7.6H452z
				 M455.3,69.2V58.7h1.2v1c0.3-0.4,0.6-0.7,0.9-0.9c0.3-0.2,0.8-0.3,1.3-0.3c0.6,0,1.2,0.2,1.7,0.5s0.9,0.8,1.1,1.4s0.4,1.3,0.4,2
				c0,0.8-0.1,1.5-0.4,2.1s-0.7,1.1-1.2,1.4s-1.1,0.5-1.7,0.5c-0.4,0-0.8-0.1-1.2-0.3c-0.3-0.2-0.6-0.4-0.8-0.7v3.7h-1.3V69.2z
				 M456.5,62.5c0,1,0.2,1.7,0.6,2.2s0.9,0.7,1.5,0.7s1.1-0.2,1.5-0.7s0.6-1.2,0.6-2.2s-0.2-1.7-0.6-2.2s-0.9-0.7-1.4-0.7
				s-1,0.3-1.5,0.8C456.7,60.8,456.5,61.5,456.5,62.5z"/>
			<path class="st9" d="M438.4,84.3V73.8h4c0.7,0,1.2,0,1.6,0.1c0.5,0.1,0.9,0.2,1.3,0.5c0.4,0.2,0.6,0.6,0.8,1
				c0.2,0.4,0.3,0.9,0.3,1.4c0,0.9-0.3,1.6-0.9,2.3c-0.6,0.6-1.6,0.9-3.1,0.9h-2.7v4.3C439.7,84.3,438.4,84.3,438.4,84.3z
				 M439.8,78.8h2.7c0.9,0,1.5-0.2,1.9-0.5s0.6-0.8,0.6-1.4c0-0.4-0.1-0.8-0.3-1.1s-0.5-0.5-0.9-0.6c-0.2-0.1-0.7-0.1-1.3-0.1h-2.7
				L439.8,78.8L439.8,78.8z M448,84.3V73.8h1.3v10.5H448z M456.2,83.3c-0.5,0.4-0.9,0.7-1.4,0.9s-0.9,0.2-1.4,0.2
				c-0.8,0-1.5-0.2-1.9-0.6s-0.7-0.9-0.7-1.6c0-0.4,0.1-0.7,0.2-1c0.2-0.3,0.4-0.6,0.7-0.8c0.3-0.2,0.6-0.3,0.9-0.4
				c0.2-0.1,0.6-0.1,1.1-0.2c1-0.1,1.8-0.3,2.3-0.5c0-0.2,0-0.3,0-0.3c0-0.5-0.1-0.9-0.4-1.1c-0.3-0.3-0.8-0.4-1.5-0.4
				c-0.6,0-1.1,0.1-1.4,0.3c-0.3,0.2-0.5,0.6-0.6,1.1l-1.3-0.2c0.1-0.5,0.3-1,0.6-1.3c0.3-0.3,0.6-0.6,1.1-0.8s1.1-0.3,1.7-0.3
				c0.7,0,1.2,0.1,1.6,0.2s0.7,0.3,0.9,0.6s0.3,0.5,0.4,0.9c0,0.2,0.1,0.6,0.1,1.2v1.7c0,1.2,0,2,0.1,2.3s0.2,0.6,0.3,0.9h-1.3
				C456.3,84,456.2,83.7,456.2,83.3z M456.1,80.5c-0.5,0.2-1.2,0.3-2.1,0.5c-0.5,0.1-0.9,0.2-1.1,0.3c-0.2,0.1-0.4,0.2-0.5,0.4
				c-0.1,0.2-0.2,0.4-0.2,0.6c0,0.3,0.1,0.6,0.4,0.9c0.3,0.2,0.6,0.3,1.1,0.3s0.9-0.1,1.3-0.3c0.4-0.2,0.7-0.5,0.9-0.9
				c0.1-0.3,0.2-0.7,0.2-1.3L456.1,80.5L456.1,80.5z M459.4,84.3v-7.6h1.2v1.1c0.6-0.8,1.4-1.2,2.4-1.2c0.5,0,0.9,0.1,1.3,0.2
				c0.4,0.2,0.7,0.4,0.9,0.6s0.3,0.6,0.4,1c0,0.2,0.1,0.7,0.1,1.2v4.7h-1.3v-4.6c0-0.5-0.1-0.9-0.2-1.2c-0.1-0.3-0.3-0.5-0.5-0.6
				c-0.2-0.2-0.5-0.2-0.9-0.2c-0.5,0-1,0.2-1.4,0.5s-0.6,1-0.6,2v4.2L459.4,84.3L459.4,84.3z M467.5,84.3v-7.6h1.2v1.1
				c0.6-0.8,1.4-1.2,2.4-1.2c0.5,0,0.9,0.1,1.3,0.2c0.4,0.2,0.7,0.4,0.9,0.6s0.3,0.6,0.4,1c0,0.2,0.1,0.7,0.1,1.2v4.7h-1.3v-4.6
				c0-0.5-0.1-0.9-0.2-1.2s-0.3-0.5-0.5-0.6c-0.2-0.2-0.5-0.2-0.9-0.2c-0.5,0-1,0.2-1.4,0.5s-0.6,1-0.6,2v4.2L467.5,84.3L467.5,84.3
				z M475.7,75.3v-1.5h1.3v1.5H475.7z M475.7,84.3v-7.6h1.3v7.6H475.7z M479,84.3v-7.6h1.2v1.1c0.6-0.8,1.4-1.2,2.4-1.2
				c0.5,0,0.9,0.1,1.3,0.2c0.4,0.2,0.7,0.4,0.9,0.6s0.3,0.6,0.4,1c0,0.2,0.1,0.7,0.1,1.2v4.7H484v-4.6c0-0.5-0.1-0.9-0.2-1.2
				c-0.1-0.3-0.3-0.5-0.5-0.6c-0.2-0.2-0.5-0.2-0.9-0.2c-0.5,0-1,0.2-1.4,0.5s-0.6,1-0.6,2v4.2L479,84.3L479,84.3z M486.9,84.9
				l1.2,0.2c0.1,0.4,0.2,0.7,0.4,0.8c0.3,0.2,0.8,0.4,1.3,0.4c0.6,0,1.1-0.1,1.4-0.4c0.3-0.2,0.5-0.6,0.7-1c0.1-0.3,0.1-0.8,0.1-1.7
				c-0.6,0.7-1.3,1-2.1,1c-1,0-1.8-0.4-2.4-1.1c-0.6-0.8-0.9-1.7-0.9-2.7c0-0.7,0.1-1.4,0.4-2s0.7-1.1,1.1-1.4
				c0.5-0.3,1.1-0.5,1.8-0.5c0.9,0,1.6,0.4,2.2,1.1v-0.9h1.2v6.6c0,1.2-0.1,2-0.4,2.5c-0.2,0.5-0.6,0.9-1.2,1.2
				c-0.5,0.3-1.2,0.4-1.9,0.4c-0.9,0-1.6-0.2-2.2-0.6C487.1,86.3,486.8,85.7,486.9,84.9z M487.9,80.3c0,1,0.2,1.7,0.6,2.2
				s0.9,0.7,1.5,0.7s1.1-0.2,1.5-0.7s0.6-1.2,0.6-2.1s-0.2-1.6-0.6-2.1s-0.9-0.7-1.5-0.7s-1.1,0.2-1.5,0.7
				C488.1,78.7,487.9,79.4,487.9,80.3z"/>
			<path class="st4" d="M589.4,142.8h104.3v39.5H589.4V142.8z"/>
			<path class="st9" d="M604.4,161.8v-1.2h4.4v3.9c-0.7,0.5-1.4,0.9-2.1,1.2c-0.7,0.3-1.5,0.4-2.2,0.4c-1,0-2-0.2-2.8-0.7
				s-1.5-1.1-1.9-1.9c-0.4-0.8-0.6-1.8-0.6-2.8s0.2-2,0.6-2.8c0.4-0.9,1-1.5,1.8-2c0.8-0.4,1.7-0.7,2.8-0.7c0.8,0,1.4,0.1,2.1,0.4
				c0.6,0.2,1.1,0.6,1.4,1c0.4,0.4,0.6,1,0.8,1.7l-1.2,0.3c-0.2-0.5-0.4-0.9-0.6-1.2c-0.2-0.3-0.6-0.6-1-0.7
				c-0.4-0.2-0.9-0.3-1.4-0.3c-0.6,0-1.2,0.1-1.7,0.3s-0.8,0.4-1.1,0.8c-0.3,0.3-0.5,0.7-0.7,1c-0.3,0.6-0.4,1.3-0.4,2.1
				c0,0.9,0.2,1.7,0.5,2.4c0.3,0.6,0.8,1.1,1.4,1.4c0.6,0.3,1.3,0.5,2,0.5c0.6,0,1.2-0.1,1.8-0.3s1-0.5,1.3-0.7v-2L604.4,161.8
				L604.4,161.8z M610.7,165.9v-7.6h1.2v1.1c0.3-0.5,0.6-0.9,0.8-1c0.2-0.2,0.5-0.3,0.8-0.3c0.4,0,0.9,0.1,1.3,0.4l-0.4,1.2
				c-0.3-0.2-0.6-0.3-1-0.3c-0.3,0-0.5,0.1-0.8,0.2c-0.2,0.2-0.4,0.4-0.5,0.7c-0.1,0.5-0.2,1-0.2,1.5v4h-1.2V165.9z M615.1,162.1
				c0-1.4,0.4-2.4,1.2-3.1c0.7-0.6,1.5-0.8,2.4-0.8c1.1,0,1.9,0.3,2.6,1c0.7,0.7,1,1.6,1,2.8c0,1-0.1,1.8-0.4,2.3
				c-0.3,0.6-0.7,1-1.3,1.3s-1.2,0.5-1.8,0.5c-1.1,0-1.9-0.3-2.6-1C615.4,164.3,615.1,163.4,615.1,162.1z M616.4,162.1
				c0,1,0.2,1.7,0.6,2.2c0.4,0.5,1,0.7,1.6,0.7s1.2-0.2,1.6-0.7c0.4-0.5,0.6-1.2,0.6-2.2c0-0.9-0.2-1.6-0.6-2.1
				c-0.4-0.5-1-0.7-1.6-0.7s-1.2,0.2-1.6,0.7C616.7,160.4,616.4,161.1,616.4,162.1z M628.7,165.9v-1.1c-0.6,0.9-1.4,1.3-2.4,1.3
				c-0.4,0-0.9-0.1-1.2-0.2c-0.4-0.2-0.7-0.4-0.9-0.7s-0.3-0.6-0.4-1c-0.1-0.2-0.1-0.7-0.1-1.2v-4.7h1.3v4.2c0,0.7,0,1.1,0.1,1.4
				c0.1,0.3,0.3,0.6,0.5,0.8c0.3,0.2,0.6,0.3,1,0.3s0.7-0.1,1.1-0.3c0.3-0.2,0.6-0.5,0.7-0.8c0.1-0.3,0.2-0.8,0.2-1.5v-4.1h1.3v7.6
				H628.7z M631.9,168.8v-10.5h1.2v1c0.3-0.4,0.6-0.7,0.9-0.9c0.3-0.2,0.8-0.3,1.3-0.3c0.6,0,1.2,0.2,1.7,0.5s0.9,0.8,1.1,1.4
				c0.2,0.6,0.4,1.3,0.4,2c0,0.8-0.1,1.5-0.4,2.1c-0.3,0.6-0.7,1.1-1.2,1.4c-0.5,0.3-1.1,0.5-1.7,0.5c-0.4,0-0.8-0.1-1.2-0.3
				c-0.3-0.2-0.6-0.4-0.8-0.7v3.7h-1.3V168.8z M633.1,162.1c0,1,0.2,1.7,0.6,2.2c0.4,0.5,0.9,0.7,1.5,0.7s1.1-0.2,1.5-0.7
				s0.6-1.2,0.6-2.2s-0.2-1.7-0.6-2.2c-0.4-0.5-0.9-0.7-1.4-0.7s-1,0.3-1.5,0.8C633.3,160.4,633.1,161.1,633.1,162.1z M647,165.9
				v-9.2h-3.5v-1.2h8.3v1.2h-3.5v9.2H647z M653.1,165.9v-7.6h1.2v1.1c0.3-0.5,0.6-0.9,0.8-1c0.2-0.2,0.5-0.3,0.8-0.3
				c0.4,0,0.9,0.1,1.3,0.4l-0.4,1.2c-0.3-0.2-0.6-0.3-1-0.3c-0.3,0-0.5,0.1-0.8,0.2c-0.2,0.2-0.4,0.4-0.5,0.7
				c-0.1,0.5-0.2,1-0.2,1.5v4h-1.2V165.9z M658,156.9v-1.5h1.3v1.5H658z M658,165.9v-7.6h1.3v7.6H658z M661.2,168.8v-10.5h1.2v1
				c0.3-0.4,0.6-0.7,0.9-0.9c0.3-0.2,0.8-0.3,1.3-0.3c0.6,0,1.2,0.2,1.7,0.5s0.9,0.8,1.1,1.4c0.2,0.6,0.4,1.3,0.4,2
				c0,0.8-0.1,1.5-0.4,2.1c-0.3,0.6-0.7,1.1-1.2,1.4c-0.5,0.3-1.1,0.5-1.7,0.5c-0.4,0-0.8-0.1-1.2-0.3c-0.3-0.2-0.6-0.4-0.8-0.7v3.7
				h-1.3V168.8z M662.4,162.1c0,1,0.2,1.7,0.6,2.2c0.4,0.5,0.9,0.7,1.5,0.7s1.1-0.2,1.5-0.7s0.6-1.2,0.6-2.2s-0.2-1.7-0.6-2.2
				c-0.4-0.5-0.9-0.7-1.4-0.7s-1,0.3-1.5,0.8C662.6,160.4,662.4,161.1,662.4,162.1z"/>
			<path class="st4" d="M647,311h96.1v51.1H647V311z"/>
			<path class="st9" d="M657.1,334.1v-10.5h3.9c0.8,0,1.4,0.1,1.9,0.3c0.5,0.2,0.9,0.5,1.1,1c0.3,0.4,0.4,0.9,0.4,1.4
				c0,0.4-0.1,0.9-0.4,1.3c-0.2,0.4-0.6,0.7-1.1,1c0.6,0.2,1.1,0.5,1.5,1c0.3,0.4,0.5,1,0.5,1.6c0,0.5-0.1,1-0.3,1.4s-0.5,0.7-0.8,1
				c-0.3,0.2-0.7,0.4-1.1,0.5c-0.5,0.1-1,0.2-1.7,0.2h-3.9V334.1z M658.5,328h2.3c0.6,0,1.1,0,1.3-0.1c0.4-0.1,0.6-0.3,0.8-0.5
				s0.3-0.6,0.3-0.9c0-0.4-0.1-0.7-0.2-0.9c-0.2-0.3-0.4-0.4-0.7-0.5s-0.8-0.2-1.6-0.2h-2.1L658.5,328L658.5,328z M658.5,332.9h2.6
				c0.4,0,0.8,0,0.9,0c0.3-0.1,0.6-0.2,0.8-0.3c0.2-0.1,0.4-0.3,0.5-0.6c0.1-0.3,0.2-0.6,0.2-0.9c0-0.4-0.1-0.7-0.3-1
				s-0.5-0.5-0.8-0.6c-0.4-0.1-0.9-0.2-1.5-0.2h-2.4V332.9z M671.8,334.1V333c-0.6,0.9-1.4,1.3-2.4,1.3c-0.4,0-0.9-0.1-1.2-0.2
				c-0.4-0.2-0.7-0.4-0.9-0.7c-0.2-0.3-0.3-0.6-0.4-1c-0.1-0.2-0.1-0.7-0.1-1.2v-4.7h1.3v4.2c0,0.7,0,1.1,0.1,1.4s0.3,0.6,0.5,0.8
				c0.3,0.2,0.6,0.3,1,0.3s0.7-0.1,1.1-0.3c0.3-0.2,0.6-0.5,0.7-0.8c0.1-0.3,0.2-0.8,0.2-1.5v-4.1h1.3v7.6L671.8,334.1L671.8,334.1z
				 M674.9,325.1v-1.5h1.3v1.5H674.9z M674.9,334.1v-7.6h1.3v7.6H674.9z M678.2,334.1v-10.5h1.3v10.5H678.2z M686.4,334.1v-1
				c-0.5,0.8-1.2,1.1-2.1,1.1c-0.6,0-1.2-0.2-1.7-0.5s-0.9-0.8-1.2-1.4s-0.4-1.3-0.4-2.1c0-0.8,0.1-1.4,0.4-2.1
				c0.3-0.6,0.6-1.1,1.1-1.4s1.1-0.5,1.7-0.5c0.5,0,0.9,0.1,1.2,0.3c0.4,0.2,0.6,0.4,0.9,0.7v-3.8h1.3v10.5h-1.2V334.1z
				 M682.3,330.3c0,1,0.2,1.7,0.6,2.2c0.4,0.5,0.9,0.7,1.5,0.7s1-0.2,1.4-0.7s0.6-1.2,0.6-2.1c0-1-0.2-1.8-0.6-2.3
				c-0.4-0.5-0.9-0.7-1.5-0.7s-1,0.2-1.4,0.7S682.3,329.3,682.3,330.3z"/>
			<path class="st9" d="M657.2,352.1v-10.5h4c0.7,0,1.2,0,1.6,0.1c0.5,0.1,0.9,0.2,1.3,0.5c0.4,0.2,0.6,0.6,0.8,1s0.3,0.9,0.3,1.4
				c0,0.9-0.3,1.6-0.9,2.3c-0.6,0.6-1.6,0.9-3.1,0.9h-2.7v4.3L657.2,352.1L657.2,352.1z M658.5,346.6h2.7c0.9,0,1.5-0.2,1.9-0.5
				s0.6-0.8,0.6-1.4c0-0.4-0.1-0.8-0.3-1.1s-0.5-0.5-0.9-0.6c-0.2-0.1-0.7-0.1-1.3-0.1h-2.7V346.6z M672,349.7l1.3,0.2
				c-0.2,0.8-0.6,1.4-1.2,1.8c-0.6,0.4-1.3,0.6-2.2,0.6c-1.1,0-2-0.3-2.7-1c-0.6-0.7-1-1.7-1-2.9c0-1.3,0.3-2.3,1-3s1.5-1.1,2.6-1.1
				c1,0,1.8,0.3,2.5,1c0.6,0.7,1,1.7,1,2.9c0,0.1,0,0.2,0,0.3h-5.6c0,0.8,0.3,1.5,0.7,1.9s1,0.7,1.6,0.7c0.5,0,0.9-0.1,1.2-0.4
				C671.5,350.6,671.8,350.2,672,349.7z M667.7,347.6h4.2c-0.1-0.6-0.2-1.1-0.5-1.4c-0.4-0.5-1-0.8-1.6-0.8s-1.1,0.2-1.5,0.6
				C668,346.4,667.8,346.9,667.7,347.6z M674.9,352.1v-7.6h1.2v1.1c0.3-0.5,0.6-0.9,0.8-1c0.2-0.2,0.5-0.3,0.8-0.3
				c0.4,0,0.9,0.1,1.3,0.4l-0.4,1.2c-0.3-0.2-0.6-0.3-1-0.3c-0.3,0-0.5,0.1-0.8,0.2c-0.2,0.2-0.4,0.4-0.5,0.7
				c-0.1,0.5-0.2,1-0.2,1.5v4L674.9,352.1L674.9,352.1z M679.3,349.9l1.3-0.2c0.1,0.5,0.3,0.9,0.6,1.2c0.3,0.3,0.8,0.4,1.4,0.4
				c0.6,0,1-0.1,1.3-0.4c0.3-0.2,0.4-0.5,0.4-0.8s-0.1-0.5-0.4-0.7c-0.2-0.1-0.6-0.3-1.3-0.4c-0.9-0.2-1.6-0.4-2-0.6
				s-0.6-0.4-0.8-0.7s-0.3-0.7-0.3-1s0.1-0.7,0.2-0.9c0.2-0.3,0.4-0.5,0.6-0.7c0.2-0.1,0.5-0.3,0.8-0.4c0.4-0.1,0.7-0.2,1.1-0.2
				c0.6,0,1.1,0.1,1.6,0.3c0.4,0.2,0.8,0.4,1,0.7c0.2,0.3,0.4,0.7,0.4,1.2l-1.2,0.2c-0.1-0.4-0.2-0.7-0.5-0.9
				c-0.3-0.2-0.7-0.3-1.2-0.3c-0.6,0-1,0.1-1.3,0.3c-0.2,0.2-0.4,0.4-0.4,0.7c0,0.2,0.1,0.3,0.2,0.5c0.1,0.1,0.3,0.2,0.5,0.3
				c0.1,0.1,0.5,0.2,1.1,0.3c0.9,0.2,1.5,0.4,1.9,0.6s0.7,0.4,0.9,0.7c0.2,0.3,0.3,0.7,0.3,1.1s-0.1,0.8-0.4,1.2
				c-0.2,0.4-0.6,0.7-1.1,0.9c-0.5,0.2-1,0.3-1.6,0.3c-1,0-1.7-0.2-2.3-0.6C679.8,351.3,679.4,350.7,679.3,349.9z M686.7,348.3
				c0-1.4,0.4-2.4,1.2-3.1c0.7-0.6,1.5-0.8,2.4-0.8c1.1,0,1.9,0.3,2.6,1c0.7,0.7,1,1.6,1,2.8c0,1-0.1,1.8-0.4,2.3
				c-0.3,0.6-0.7,1-1.3,1.3s-1.2,0.5-1.8,0.5c-1.1,0-1.9-0.3-2.6-1C687,350.6,686.7,349.6,686.7,348.3z M688,348.3
				c0,1,0.2,1.7,0.6,2.2c0.4,0.5,1,0.7,1.6,0.7s1.2-0.2,1.6-0.7c0.4-0.5,0.6-1.2,0.6-2.2c0-0.9-0.2-1.6-0.6-2.1
				c-0.4-0.5-1-0.7-1.6-0.7s-1.2,0.2-1.6,0.7C688.2,346.6,688,347.4,688,348.3z M695.3,352.1v-7.6h1.2v1.1c0.6-0.8,1.4-1.2,2.4-1.2
				c0.5,0,0.9,0.1,1.3,0.2c0.4,0.2,0.7,0.4,0.9,0.6c0.2,0.3,0.3,0.6,0.4,1c0,0.2,0.1,0.7,0.1,1.2v4.7h-1.3v-4.6
				c0-0.5-0.1-0.9-0.2-1.2c-0.1-0.3-0.3-0.5-0.5-0.6c-0.2-0.2-0.5-0.2-0.9-0.2c-0.5,0-1,0.2-1.4,0.5s-0.6,1-0.6,2v4.2h-1.4V352.1z
				 M708.4,351.2c-0.5,0.4-0.9,0.7-1.4,0.9c-0.4,0.2-0.9,0.2-1.4,0.2c-0.8,0-1.5-0.2-1.9-0.6s-0.7-0.9-0.7-1.6c0-0.4,0.1-0.7,0.2-1
				c0.2-0.3,0.4-0.6,0.7-0.8c0.3-0.2,0.6-0.3,0.9-0.4c0.2-0.1,0.6-0.1,1.1-0.2c1-0.1,1.8-0.3,2.3-0.5c0-0.2,0-0.3,0-0.3
				c0-0.5-0.1-0.9-0.4-1.1c-0.3-0.3-0.8-0.4-1.5-0.4c-0.6,0-1.1,0.1-1.4,0.3c-0.3,0.2-0.5,0.6-0.6,1.1l-1.3-0.2
				c0.1-0.5,0.3-1,0.6-1.3s0.6-0.6,1.1-0.8c0.5-0.2,1.1-0.3,1.7-0.3c0.7,0,1.2,0.1,1.6,0.2c0.4,0.1,0.7,0.3,0.9,0.6
				c0.2,0.2,0.3,0.5,0.4,0.9c0,0.2,0.1,0.6,0.1,1.2v1.7c0,1.2,0,2,0.1,2.3s0.2,0.6,0.3,0.9h-1.1
				C708.5,351.9,708.4,351.5,708.4,351.2z M708.3,348.3c-0.5,0.2-1.2,0.3-2.1,0.5c-0.5,0.1-0.9,0.2-1.1,0.3
				c-0.2,0.1-0.4,0.2-0.5,0.4c-0.1,0.2-0.2,0.4-0.2,0.6c0,0.3,0.1,0.6,0.4,0.9c0.3,0.2,0.6,0.3,1.1,0.3s0.9-0.1,1.3-0.3
				c0.4-0.2,0.7-0.5,0.9-0.9c0.1-0.3,0.2-0.7,0.2-1.3L708.3,348.3L708.3,348.3z M711.6,352.1v-10.5h1.3v10.5H711.6z M714.8,343.1
				v-1.5h1.3v1.5H714.8z M714.8,352.1v-7.6h1.3v7.6H714.8z M720.9,351l0.2,1.1c-0.4,0.1-0.7,0.1-1,0.1c-0.5,0-0.8-0.1-1.1-0.2
				s-0.4-0.3-0.5-0.6c-0.1-0.2-0.2-0.7-0.2-1.5v-4.4h-1v-1h1v-1.9l1.3-0.8v2.7h1.3v1h-1.3v4.4c0,0.4,0,0.6,0.1,0.7s0.1,0.2,0.2,0.2
				c0.1,0.1,0.3,0.1,0.5,0.1C720.5,351,720.7,351,720.9,351z M722.1,355l-0.1-1.2c0.3,0.1,0.5,0.1,0.7,0.1c0.3,0,0.5,0,0.7-0.1
				s0.3-0.2,0.4-0.4c0.1-0.1,0.2-0.4,0.4-1c0-0.1,0.1-0.2,0.1-0.3l-2.9-7.6h1.4l1.6,4.4c0.2,0.6,0.4,1.2,0.5,1.8
				c0.2-0.6,0.3-1.2,0.5-1.7l1.6-4.4h1.3l-2.9,7.7c-0.3,0.8-0.6,1.4-0.7,1.7c-0.2,0.4-0.5,0.7-0.8,0.9c-0.3,0.2-0.6,0.3-1.1,0.3
				C722.7,355.2,722.4,355.2,722.1,355z"/>
			<path class="st10" d="M468.6,301.1l36.1-26.1"/>
			<path class="st11" d="M468.6,301.1l31.3-22.6"/>
			<path class="st12" d="M500.8,279.9l2.7-4l-4.6,1.3L500.8,279.9z"/>
			<path class="st10" d="M344.8,314.2l26.5,23.5"/>
			<path class="st11" d="M344.8,314.2l22,19.5"/>
			<path class="st12" d="M365.7,334.9l4.5,1.8l-2.3-4.2L365.7,334.9z"/>
			<path class="st10" d="M453.9,355.5c11.2,3.9,44.5,19,67.4,23.3c22.8,4.3,45.6,6.3,69.5,2.6s61.5-20.5,73.8-24.6"/>
			<path class="st11" d="M453.9,355.5c11.2,3.9,44.5,19,67.4,23.3c22.9,4.3,45.6,6.3,69.5,2.6c11.9-1.8,27.3-7,41.2-12.1
				c7-2.6,13.6-5.2,19.2-7.4c2.8-1.1,5.4-2.1,7.6-3h0.1"/>
			<path class="st12" d="M659.4,360.4l3.7-3.1h-4.8L659.4,360.4z"/>
			<path class="st10" d="M360.1,261.5c3.1-3.8,11.7-15.4,18.4-22.6c6.7-7.2,12.3-13.1,21.9-20.6s29.7-20.5,35.7-24.6"/>
			<path class="st11" d="M360.1,261.5c3.1-3.8,11.7-15.4,18.4-22.6c6.7-7.2,12.3-13.1,21.9-20.6c4.8-3.8,12.2-8.9,19.2-13.6
				c3.5-2.3,6.9-4.6,9.7-6.5c1.4-1,2.7-1.8,3.9-2.6l0,0"/>
			<path class="st12" d="M433.2,195.7l-0.3,1.6l1.9-2.7l-3.2,0.8L433.2,195.7z"/>
			<path class="st10" d="M503.4,90.4c9.6,4.5,41.8,18.6,57.8,26.8c16,8.3,29.3,17.4,38.2,22.7s12.9,7.7,15.5,9.3"/>
			<path class="st5" d="M503.4,90.4c9.6,4.5,41.8,18.6,57.8,26.8s29.3,17.4,38.2,22.7c4.5,2.7,7.7,4.6,10.1,6.1l2.4,1.5"/>
			<path class="st13" d="M612,147.5l-1.5,0.4l3.2,0.6l-2.1-2.6L612,147.5z"/>
		</g>
	</g>
</g>
</svg>
