<?xml version="1.0" encoding="utf-8"?>
<!-- Generator: Adobe Illustrator 23.0.1, SVG Export Plug-In . SVG Version: 6.00 Build 0)  -->
<svg version="1.1" id="Layer_1" xmlns="http://www.w3.org/2000/svg" xmlns:xlink="http://www.w3.org/1999/xlink" x="0px" y="0px"
	 viewBox="0 0 302 236" style="enable-background:new 0 0 302 236;" xml:space="preserve">
<style type="text/css">
	.st0{fill:#999999;}
	.st1{fill:#555555;}
	.st2{font-family:'Ubuntu-Medium';}
	.st3{font-size:24px;}
</style>
<path class="st0" d="M230,90V78c0-2.2-1.8-4-4-4H74c-2.2,0-4,1.8-4,4l0,0v48c0,2.2,1.8,4,4,4h12v48h-4c-2.2,0-4,1.8-4,4s1.8,4,4,4
	h32c2.2,0,4-1.8,4-4s-1.8-4-4-4h-4v-24h80v24h-4c-2.2,0-4,1.8-4,4s1.8,4,4,4h32c2.2,0,4-1.8,4-4s-1.8-4-4-4h-4v-48h12
	c2.2,0,4-1.8,4-4V90L230,90z M222,88.3L188.3,122h-28.7l40-40h22.3C222,82,222,88.3,222,88.3z M119.6,122l40-40h28.7l-40,40H119.6z
	 M79.6,122l40-40h28.7l-40,40H79.6z M108.3,82L78,112.3V82H108.3z M94,178v-48h8v48H94z M110,146v-16h80v16H110z M206,178h-8v-48h8
	V178z M199.6,122l22.3-22.3V122C222,122,199.6,122,199.6,122z"/>
<text transform="matrix(1 0 0 1 6.4414 25.5415)" class="st1 st2 st3">Oops, still in construction. </text>
</svg>
