<svg id="Layer_1" data-name="Layer 1" xmlns="http://www.w3.org/2000/svg" viewBox="0 0 1530.1 534.39"><defs><style>.cls-1{fill:#fff;}.cls-2{fill:#f6b26b;}.cls-2,.cls-3,.cls-4,.cls-5{fill-rule:evenodd;}.cls-3{fill:#6fa8dc;}.cls-12,.cls-4{fill:#999;}.cls-5{fill-opacity:0;}.cls-10,.cls-11,.cls-6,.cls-7,.cls-8,.cls-9{fill:none;}.cls-6{stroke:#f6b26b;}.cls-10,.cls-11,.cls-6,.cls-7,.cls-9{stroke-linejoin:round;}.cls-10,.cls-6,.cls-7,.cls-8,.cls-9{stroke-width:2px;}.cls-10,.cls-7,.cls-8{stroke:#999;}.cls-8{stroke-miterlimit:10;}.cls-9{stroke:#6fa8dc;}.cls-10{stroke-dasharray:8 6;}.cls-11{stroke:#d9d9d9;}</style></defs><title>shindy</title><rect class="cls-1" width="1530.1" height="534.39"/><path class="cls-2" d="M24.76,25.72h0a3.57,3.57,0,0,1,3.57-3.57H155.55a3.57,3.57,0,0,1,3.57,3.57V40a3.57,3.57,0,0,1-3.57,3.57H28.33A3.57,3.57,0,0,1,24.76,40Z"/><path class="cls-1" d="M88.62,29.49V36.6h-.76V30.74l-2.58,3.63-2.44-3.61V36.6h-.76V29.49h.83l2.4,3.7,2.49-3.7Zm7.34,0L93.24,36.6h-.77l-2.71-7.11h.81l2.33,6.1,2.28-6.08Zm1.89,7.11h-.77V29.49h2.53a2.68,2.68,0,0,1,1.82.56,2.11,2.11,0,0,1,.64,1.64,2.09,2.09,0,0,1-.64,1.63,2.68,2.68,0,0,1-1.82.56H97.85Zm1.65-3.45a1.92,1.92,0,0,0,1.44-.41,1.52,1.52,0,0,0,.36-1.05,1.55,1.55,0,0,0-.36-1.06,1.92,1.92,0,0,0-1.44-.4H97.85v2.92Z"/><path class="cls-3" d="M173.53,25.72h0a3.57,3.57,0,0,1,3.57-3.57H304.32a3.57,3.57,0,0,1,3.57,3.57V40a3.57,3.57,0,0,1-3.57,3.57H177.1A3.57,3.57,0,0,1,173.53,40Z"/><path class="cls-1" d="M216.83,29.49V36.6H216l-4.25-6v6H211V29.49h.88l4.23,6v-6Zm1.77,0h.84v.85h-.84Zm0,1.8h.77V36.6h-.77Zm4.75,5.39a2.32,2.32,0,0,1-2.49-2.75,2.34,2.34,0,0,1,2.49-2.74,4.33,4.33,0,0,1,1.57.3v.74a3.77,3.77,0,0,0-1.48-.3,1.79,1.79,0,0,0-1.39.48,2.26,2.26,0,0,0-.42,1.52,2.32,2.32,0,0,0,.42,1.55,1.82,1.82,0,0,0,1.39.46,3.62,3.62,0,0,0,1.48-.29v.75A4.37,4.37,0,0,1,223.38,36.68Zm5.08-5.49a2,2,0,0,1,1.78.79,3.39,3.39,0,0,1,.55,2.09H226.9a2.16,2.16,0,0,0,.45,1.48,1.63,1.63,0,0,0,1.28.5,3.48,3.48,0,0,0,1.82-.45v.78a4.19,4.19,0,0,1-1.86.38,2.31,2.31,0,0,1-1.81-.72,3.06,3.06,0,0,1-.65-2.11,3,3,0,0,1,.61-2A2.16,2.16,0,0,1,228.46,31.19Zm0,.71a1.59,1.59,0,0,0-1.08.33,1.73,1.73,0,0,0-.45,1.14h3a1.67,1.67,0,0,0-.44-1.1A1.43,1.43,0,0,0,228.46,31.9ZM237,36.68a1.43,1.43,0,0,1-1-.34,1.38,1.38,0,0,1-.37-1V32h-.92v-.7h.92v-1.5h.76v1.5h1.38V32h-1.38v3.08a1.25,1.25,0,0,0,.16.69.68.68,0,0,0,.56.2,1.62,1.62,0,0,0,.66-.12v.71a1.16,1.16,0,0,1-.38.1A3,3,0,0,1,237,36.68Zm4.37.08a2.27,2.27,0,0,1-1.83-.72,3.2,3.2,0,0,1-.61-2.08,3.05,3.05,0,0,1,.61-2.06,2.3,2.3,0,0,1,1.81-.71,2.26,2.26,0,0,1,1.86.74,3.07,3.07,0,0,1,.61,2,3,3,0,0,1-.64,2.06A2.27,2.27,0,0,1,241.36,36.76Zm0-.71c1.11,0,1.67-.69,1.67-2.09a2.54,2.54,0,0,0-.39-1.53,1.5,1.5,0,0,0-1.28-.53c-1.11,0-1.67.69-1.67,2.06S240.25,36.05,241.36,36.05Zm9.36-4.86a1.93,1.93,0,0,1,1.51.57,2.29,2.29,0,0,1,.53,1.68V36.6H252V33.44a1.67,1.67,0,0,0-.34-1.14,1.26,1.26,0,0,0-1-.4,3.11,3.11,0,0,0-1.51.42V36.6h-.77V28.93h.77v2.7a4,4,0,0,1,.81-.31A3,3,0,0,1,250.72,31.19Zm6,0a2.11,2.11,0,0,1,1.41.44,1.56,1.56,0,0,1,.52,1.27v2.58a1,1,0,0,1-.63,1,4.91,4.91,0,0,1-1.73.25,2.74,2.74,0,0,1-1.46-.38,1.35,1.35,0,0,1-.59-1.23,1.66,1.66,0,0,1,.52-1.38,2.18,2.18,0,0,1,1.43-.43,3.5,3.5,0,0,1,1.68.35v-.62c0-.79-.47-1.19-1.4-1.19a3.35,3.35,0,0,0-.92.13,2,2,0,0,0-.79.39v-.77a2.66,2.66,0,0,1,.87-.31A5.15,5.15,0,0,1,256.73,31.19Zm-.26,4.9a3.89,3.89,0,0,0,1.08-.11.47.47,0,0,0,.33-.47V34.32a2.86,2.86,0,0,0-.68-.22,4,4,0,0,0-.79-.08,1.69,1.69,0,0,0-1,.27A.84.84,0,0,0,255,35a.88.88,0,0,0,.42.82A2.09,2.09,0,0,0,256.47,36.09Zm8.7-4.8-2.25,5.31h-.78l-2.25-5.31h.81l1.89,4.47,1.81-4.47Zm3.3-.1a2.06,2.06,0,0,1,1.78.79,3.39,3.39,0,0,1,.54,2.09H266.9a2.17,2.17,0,0,0,.46,1.48,1.62,1.62,0,0,0,1.28.5,3.45,3.45,0,0,0,1.81-.45v.78a4.19,4.19,0,0,1-1.86.38,2.33,2.33,0,0,1-1.81-.72,3.06,3.06,0,0,1-.64-2.11,3,3,0,0,1,.61-2A2.15,2.15,0,0,1,268.47,31.19Zm0,.71a1.59,1.59,0,0,0-1.08.33,1.69,1.69,0,0,0-.45,1.14h3a1.67,1.67,0,0,0-.44-1.1A1.39,1.39,0,0,0,268.47,31.9Z"/><path class="cls-4" d="M322.3,25.72h0a3.57,3.57,0,0,1,3.57-3.57H453.09a3.57,3.57,0,0,1,3.57,3.57V40a3.57,3.57,0,0,1-3.57,3.57H325.87A3.57,3.57,0,0,1,322.3,40Z"/><path class="cls-1" d="M352.51,29.49h4.36v.72h-3.6v2.45h3.16v.75h-3.16V36.6h-.76Zm7.91,7.27a2.29,2.29,0,0,1-1.64-.55,2,2,0,0,1-.57-1.56V31.29H359v3.19a1.77,1.77,0,0,0,.35,1.2,1.45,1.45,0,0,0,1.1.37,1.47,1.47,0,0,0,1.11-.37,1.72,1.72,0,0,0,.36-1.2V31.29h.77v3.36a2,2,0,0,1-.59,1.56A2.3,2.3,0,0,1,360.42,36.76Zm5.62-.08a1.41,1.41,0,0,1-1-.34,1.38,1.38,0,0,1-.38-1V32h-.92v-.7h.92v-1.5h.77v1.5h1.37V32h-1.37v3.08a1.17,1.17,0,0,0,.16.69.68.68,0,0,0,.56.2,1.54,1.54,0,0,0,.65-.12v.71a1,1,0,0,1-.37.1Zm4.41.08a2.28,2.28,0,0,1-1.64-.55,2.05,2.05,0,0,1-.58-1.56V31.29H369v3.19a1.77,1.77,0,0,0,.34,1.2,1.85,1.85,0,0,0,2.22,0,1.72,1.72,0,0,0,.36-1.2V31.29h.77v3.36a2,2,0,0,1-.6,1.56A2.26,2.26,0,0,1,370.45,36.76Zm3.94-5a7.21,7.21,0,0,1,1.07-.34,5.2,5.2,0,0,1,1.37-.18,1.69,1.69,0,0,1,.34.07v.67a4.07,4.07,0,0,0-.5,0,4.36,4.36,0,0,0-.65,0l-.86.15V36.6h-.77Zm6.08-.52a2,2,0,0,1,1.78.79,3.39,3.39,0,0,1,.55,2.09h-3.89a2.16,2.16,0,0,0,.45,1.48,1.63,1.63,0,0,0,1.28.5,3.48,3.48,0,0,0,1.82-.45v.78a4.19,4.19,0,0,1-1.86.38,2.31,2.31,0,0,1-1.81-.72,3.06,3.06,0,0,1-.65-2.11,3,3,0,0,1,.61-2A2.16,2.16,0,0,1,380.47,31.19Zm0,.71a1.59,1.59,0,0,0-1.08.33,1.73,1.73,0,0,0-.45,1.14H382a1.67,1.67,0,0,0-.44-1.1A1.43,1.43,0,0,0,380.47,31.9Zm12.42-2.41-2.72,7.11h-.76l-2.72-7.11h.81l2.33,6.1,2.28-6.08Zm3.14,1.7a2,2,0,0,1,1.78.79,3.39,3.39,0,0,1,.55,2.09h-3.89a2.16,2.16,0,0,0,.45,1.48,1.62,1.62,0,0,0,1.28.5A3.48,3.48,0,0,0,398,35.6v.78a4.19,4.19,0,0,1-1.86.38,2.35,2.35,0,0,1-1.82-.72,3.11,3.11,0,0,1-.64-2.11,3,3,0,0,1,.61-2A2.16,2.16,0,0,1,396,31.19Zm0,.71a1.59,1.59,0,0,0-1.08.33,1.69,1.69,0,0,0-.45,1.14h3.05a1.67,1.67,0,0,0-.44-1.1A1.43,1.43,0,0,0,396,31.9Zm3.77-.19a7,7,0,0,1,1.06-.34,5.33,5.33,0,0,1,1.38-.18,1.83,1.83,0,0,1,.34.07v.67a4.19,4.19,0,0,0-.5,0,4.5,4.5,0,0,0-.66,0l-.86.15V36.6h-.76Zm5.52,5a3.62,3.62,0,0,1-.94-.11,3.57,3.57,0,0,1-.83-.33v-.81a5.24,5.24,0,0,0,.87.43,2.65,2.65,0,0,0,.83.11,1.41,1.41,0,0,0,.86-.23.72.72,0,0,0,.35-.61.55.55,0,0,0-.21-.48,2.26,2.26,0,0,0-.62-.35l-.28-.11a9.19,9.19,0,0,1-1-.31,1.42,1.42,0,0,1-.57-.44,1.19,1.19,0,0,1-.25-.81,1.28,1.28,0,0,1,.26-.84,1.51,1.51,0,0,1,.69-.5,2.44,2.44,0,0,1,1.61-.08c.2.06.47.17.81.31v.77a5.71,5.71,0,0,0-.81-.36,1.71,1.71,0,0,0-.67-.11,1.53,1.53,0,0,0-.8.19.54.54,0,0,0-.33.51.61.61,0,0,0,.16.45,1.31,1.31,0,0,0,.42.29l.67.21a7.46,7.46,0,0,1,.86.32,1.5,1.5,0,0,1,.55.43,1.33,1.33,0,0,1,.23.82,1.48,1.48,0,0,1-.28.92,1.74,1.74,0,0,1-.72.55A2.52,2.52,0,0,1,405.32,36.76Zm3.35-7.27h.85v.85h-.85Zm0,1.8h.76V36.6h-.76Zm4.69,5.47a2.24,2.24,0,0,1-1.82-.72A3.15,3.15,0,0,1,411,34a3,3,0,0,1,.61-2.06,2.69,2.69,0,0,1,3.67,0,3.13,3.13,0,0,1,.61,2,3.1,3.1,0,0,1-.64,2.06A2.29,2.29,0,0,1,413.4,36.76Zm0-.71c1.12,0,1.68-.69,1.68-2.09a2.54,2.54,0,0,0-.39-1.53,1.52,1.52,0,0,0-1.29-.53c-1.11,0-1.67.69-1.67,2.06S412.29,36.05,413.4,36.05Zm3.9-4.34a4.94,4.94,0,0,1,2.23-.52,2.27,2.27,0,0,1,1.62.49,1.87,1.87,0,0,1,.5,1.45V36.6h-.78V33.13c0-.83-.47-1.25-1.42-1.25a5.08,5.08,0,0,0-1.39.22v4.5h-.76Zm7.56,5a3.62,3.62,0,0,1-.94-.11,3.75,3.75,0,0,1-.83-.33v-.81a5.27,5.27,0,0,0,.88.43,2.61,2.61,0,0,0,.83.11,1.43,1.43,0,0,0,.86-.23.71.71,0,0,0,.34-.61.57.57,0,0,0-.2-.48,2.52,2.52,0,0,0-.63-.35l-.28-.11a8.89,8.89,0,0,1-.95-.31,1.52,1.52,0,0,1-.58-.44,1.19,1.19,0,0,1-.25-.81,1.34,1.34,0,0,1,.26-.84,1.51,1.51,0,0,1,.69-.5,2.38,2.38,0,0,1,.91-.18,2.31,2.31,0,0,1,.7.1c.2.06.47.17.81.31v.77a5.71,5.71,0,0,0-.81-.36,1.71,1.71,0,0,0-.67-.11,1.55,1.55,0,0,0-.8.19.54.54,0,0,0-.33.51.65.65,0,0,0,.16.45,1.57,1.57,0,0,0,.42.29l.67.21a6.8,6.8,0,0,1,.86.32,1.5,1.5,0,0,1,.55.43,1.27,1.27,0,0,1,.24.82,1.49,1.49,0,0,1-.29.92,1.64,1.64,0,0,1-.71.55A2.62,2.62,0,0,1,424.86,36.76Z"/><path class="cls-5" d="M522,119.61h0a8,8,0,0,1,8-8h74.55a8,8,0,0,1,8,8v31.93a8,8,0,0,1-8,8H530a8,8,0,0,1-8-8Z"/><path class="cls-6" d="M522,119.61h0a8,8,0,0,1,8-8h74.55a8,8,0,0,1,8,8v31.93a8,8,0,0,1-8,8H530a8,8,0,0,1-8-8Z"/><path d="M552.52,130.6h-3.08l-.84,2.22h-.83l2.83-7.11h.76l2.83,7.11h-.83Zm-.3-.74L551,126.61l-1.25,3.25Zm5.26,3a2.67,2.67,0,0,1-1.77-.59,2.75,2.75,0,0,1-.71-2.16,2.33,2.33,0,0,1,2.48-2.73,4.38,4.38,0,0,1,1.58.3v.73a3.85,3.85,0,0,0-1.49-.3,1.8,1.8,0,0,0-1.39.49,2.23,2.23,0,0,0-.42,1.51,2.3,2.3,0,0,0,.42,1.55,1.84,1.84,0,0,0,1.39.47,3.71,3.71,0,0,0,1.49-.3v.75A4.42,4.42,0,0,1,557.48,132.89Zm5.24,0a2.64,2.64,0,0,1-1.76-.59,2.71,2.71,0,0,1-.72-2.16,2.34,2.34,0,0,1,2.48-2.73,4.38,4.38,0,0,1,1.58.3v.73a3.8,3.8,0,0,0-1.48-.3,1.79,1.79,0,0,0-1.39.49,2.18,2.18,0,0,0-.43,1.51,2.24,2.24,0,0,0,.43,1.55,1.82,1.82,0,0,0,1.39.47,3.66,3.66,0,0,0,1.48-.3v.75A4.42,4.42,0,0,1,562.72,132.89Zm5.2.08a2.27,2.27,0,0,1-1.83-.72,3.14,3.14,0,0,1-.61-2.07,3,3,0,0,1,.61-2.07,2.29,2.29,0,0,1,1.81-.7,2.26,2.26,0,0,1,1.86.73,3.67,3.67,0,0,1,0,4.1A2.27,2.27,0,0,1,567.92,133Zm0-.7c1.11,0,1.67-.7,1.67-2.09a2.59,2.59,0,0,0-.39-1.54,1.5,1.5,0,0,0-1.28-.53c-1.12,0-1.67.69-1.67,2.07S566.8,132.27,567.92,132.27Zm6.11.7a2.3,2.3,0,0,1-1.64-.54,2.05,2.05,0,0,1-.58-1.57V127.5h.77v3.19a1.77,1.77,0,0,0,.34,1.2,1.81,1.81,0,0,0,2.22,0,1.72,1.72,0,0,0,.36-1.2V127.5h.76v3.36a2,2,0,0,1-.59,1.57A2.32,2.32,0,0,1,574,133Zm3.94-5a4.85,4.85,0,0,1,2.23-.52,2.3,2.3,0,0,1,1.63.48,2,2,0,0,1,.5,1.46v3.47h-.78v-3.47c0-.84-.48-1.25-1.42-1.25a4.67,4.67,0,0,0-1.39.22v4.5H578Zm7.74,5a1.25,1.25,0,0,1-1.35-1.37v-3.31h-.92v-.71h.92V126h.77v1.5h1.37v.71h-1.37v3.07a1.22,1.22,0,0,0,.15.69.67.67,0,0,0,.57.21,1.57,1.57,0,0,0,.65-.13v.72a1.43,1.43,0,0,1-.37.09Z"/><path d="M553.14,145.93a3.81,3.81,0,0,1-1.18-.15,7.55,7.55,0,0,1-1.06-.46v-.83a3.55,3.55,0,0,0,1,.53,4.08,4.08,0,0,0,1.3.2,1.7,1.7,0,0,0,1.15-.33,1.1,1.1,0,0,0,.39-.9.94.94,0,0,0-.23-.67,1.49,1.49,0,0,0-.53-.44,7.2,7.2,0,0,0-.92-.39,8.72,8.72,0,0,1-1-.42,1.91,1.91,0,0,1-.67-.6,1.8,1.8,0,0,1-.27-1,1.93,1.93,0,0,1,.2-.85,1.84,1.84,0,0,1,.71-.7,2.5,2.5,0,0,1,1.26-.28,2.86,2.86,0,0,1,.91.11,6.4,6.4,0,0,1,1,.39v.79l-.4-.23a2.36,2.36,0,0,0-.68-.27,2.86,2.86,0,0,0-.75-.09,1.63,1.63,0,0,0-1.09.31,1,1,0,0,0-.34.75,1.22,1.22,0,0,0,.18.69,1.55,1.55,0,0,0,.5.41q.32.15.9.36a6.93,6.93,0,0,1,1.07.43,2.16,2.16,0,0,1,.72.63,1.62,1.62,0,0,1,.31,1,2,2,0,0,1-.56,1.44A2.42,2.42,0,0,1,553.14,145.93Zm5.91-5.52a2,2,0,0,1,1.78.78,3.4,3.4,0,0,1,.55,2.09h-3.89a2.19,2.19,0,0,0,.45,1.49,1.65,1.65,0,0,0,1.28.5,3.45,3.45,0,0,0,1.81-.45v.78a4.2,4.2,0,0,1-1.86.37,2.33,2.33,0,0,1-1.81-.72,3.11,3.11,0,0,1-.64-2.11,3,3,0,0,1,.61-2A2.15,2.15,0,0,1,559.05,140.41Zm0,.7a1.59,1.59,0,0,0-1.08.33,1.73,1.73,0,0,0-.45,1.14h3.05a1.69,1.69,0,0,0-.44-1.09A1.43,1.43,0,0,0,559.05,141.11Zm5.44,4.78a1.25,1.25,0,0,1-1.35-1.37v-3.31h-.92v-.71h.92V139h.77v1.5h1.38v.71h-1.38v3.07a1.13,1.13,0,0,0,.16.69.65.65,0,0,0,.56.21,1.62,1.62,0,0,0,.66-.13v.72a1.52,1.52,0,0,1-.38.09Zm3.87,0a1.25,1.25,0,0,1-1.35-1.37v-3.31h-.92v-.71H567V139h.77v1.5h1.37v.71h-1.37v3.07a1.22,1.22,0,0,0,.15.69.68.68,0,0,0,.57.21,1.53,1.53,0,0,0,.65-.13v.72a1.43,1.43,0,0,1-.37.09Zm2.19-7.18h.85v.84h-.85Zm0,1.79h.77v5.32h-.77Zm2.53.43a4.85,4.85,0,0,1,2.23-.52,2.3,2.3,0,0,1,1.63.48,2,2,0,0,1,.5,1.46v3.47h-.78v-3.47c0-.84-.48-1.25-1.42-1.25a4.72,4.72,0,0,0-1.39.22v4.5h-.77Zm8.38-.52a3,3,0,0,1,1.45.33,1.06,1.06,0,0,1,.59,1V146a1.91,1.91,0,0,1-.51,1.35,2.45,2.45,0,0,1-1.8.55,3.66,3.66,0,0,1-.69-.07,4.63,4.63,0,0,1-.54-.11l-.28-.07V147l.71.17a3.08,3.08,0,0,0,.71.08,1.84,1.84,0,0,0,1.29-.33,1.07,1.07,0,0,0,.33-.81v-.41a3.68,3.68,0,0,1-.73.22,3.26,3.26,0,0,1-.69.09,2.25,2.25,0,0,1-1.81-.7,2.9,2.9,0,0,1-.61-2,2.82,2.82,0,0,1,.75-2.25A2.71,2.71,0,0,1,581.49,140.41Zm-1.78,2.89a2.4,2.4,0,0,0,.39,1.45,1.45,1.45,0,0,0,1.23.52,3.1,3.1,0,0,0,.73-.09,2.65,2.65,0,0,0,.69-.29v-3a.58.58,0,0,0-.33-.58,1.87,1.87,0,0,0-.87-.16,1.6,1.6,0,0,0-1.45.6A2.79,2.79,0,0,0,579.71,143.3Z"/><path class="cls-5" d="M404.87,197h0a8,8,0,0,1,8-8h74.56a8,8,0,0,1,8,8V228.9a8,8,0,0,1-8,8H412.85a8,8,0,0,1-8-8Z"/><path class="cls-6" d="M404.87,197h0a8,8,0,0,1,8-8h74.56a8,8,0,0,1,8,8V228.9a8,8,0,0,1-8,8H412.85a8,8,0,0,1-8-8Z"/><path d="M432.68,203.67h-.76v-7.11h2.53a2.59,2.59,0,0,1,1.81.57,2.4,2.4,0,0,1,0,3.26,2.58,2.58,0,0,1-1.81.56h-1.77Zm1.66-3.45a1.92,1.92,0,0,0,1.44-.41,1.51,1.51,0,0,0,.36-1,1.56,1.56,0,0,0-.36-1.07,1.92,1.92,0,0,0-1.44-.4h-1.66v2.92Zm4.06,3.45v-7.34h.77v7.34Zm4.74-5.4a2.12,2.12,0,0,1,1.41.43,1.56,1.56,0,0,1,.51,1.27v2.58a1,1,0,0,1-.62,1,5,5,0,0,1-1.74.25,2.72,2.72,0,0,1-1.45-.38,1.35,1.35,0,0,1-.59-1.23,1.7,1.7,0,0,1,.51-1.38,2.23,2.23,0,0,1,1.44-.43,3.31,3.31,0,0,1,1.67.36v-.63c0-.79-.46-1.19-1.39-1.19a3.3,3.3,0,0,0-.92.13,2.06,2.06,0,0,0-.8.39v-.77a2.72,2.72,0,0,1,.88-.31A5.06,5.06,0,0,1,443.14,198.27Zm-.26,4.89a3.75,3.75,0,0,0,1.07-.11.47.47,0,0,0,.33-.47v-1.19a2.63,2.63,0,0,0-.67-.22,4,4,0,0,0-.8-.08,1.71,1.71,0,0,0-1,.27.84.84,0,0,0-.36.73.87.87,0,0,0,.43.82A2.09,2.09,0,0,0,442.88,203.16Zm6.12.59a2.32,2.32,0,0,1-2.49-2.75,2.34,2.34,0,0,1,2.49-2.73,4.37,4.37,0,0,1,1.58.29v.74a3.85,3.85,0,0,0-1.49-.3,1.8,1.8,0,0,0-1.39.48,2.26,2.26,0,0,0-.42,1.52,2.32,2.32,0,0,0,.42,1.55,1.84,1.84,0,0,0,1.39.47,3.71,3.71,0,0,0,1.49-.3v.75A4.42,4.42,0,0,1,449,203.75Zm5.09-5.48a2.05,2.05,0,0,1,1.78.78,3.47,3.47,0,0,1,.54,2.09h-3.89a2.16,2.16,0,0,0,.46,1.49,1.65,1.65,0,0,0,1.28.5,3.45,3.45,0,0,0,1.81-.46v.78a4.19,4.19,0,0,1-1.86.38,2.33,2.33,0,0,1-1.81-.72,3.06,3.06,0,0,1-.64-2.11,3,3,0,0,1,.61-2A2.14,2.14,0,0,1,454.09,198.27Zm0,.7a1.59,1.59,0,0,0-1.08.33,1.78,1.78,0,0,0-.46,1.14h3.05a1.67,1.67,0,0,0-.44-1.1A1.42,1.42,0,0,0,454.09,199Zm5.26,4.86a3.68,3.68,0,0,1-.94-.11,3.51,3.51,0,0,1-.82-.33v-.81a5.9,5.9,0,0,0,.87.44,3,3,0,0,0,.83.11,1.43,1.43,0,0,0,.86-.24.71.71,0,0,0,.34-.61.57.57,0,0,0-.2-.48,2.35,2.35,0,0,0-.63-.35l-.28-.11a7.59,7.59,0,0,1-.95-.31,1.52,1.52,0,0,1-.58-.44,1.22,1.22,0,0,1-.25-.81,1.28,1.28,0,0,1,.27-.84,1.41,1.41,0,0,1,.69-.5,2.32,2.32,0,0,1,.9-.17,2.29,2.29,0,0,1,.7.09c.2.06.47.17.82.31v.77a6.26,6.26,0,0,0-.82-.36,1.88,1.88,0,0,0-.67-.11,1.49,1.49,0,0,0-.79.19.54.54,0,0,0-.33.51.69.69,0,0,0,.15.46,1.68,1.68,0,0,0,.43.28l.67.22a6.63,6.63,0,0,1,.86.31,1.34,1.34,0,0,1,.54.44,1.22,1.22,0,0,1,.24.81,1.55,1.55,0,0,1-.28.92,1.74,1.74,0,0,1-.72.55A2.58,2.58,0,0,1,459.35,203.83Zm9.36-8.22h.7l-3.92,9.11h-.7Z"/><path d="M426.77,216.75a3.15,3.15,0,0,1-2.47-.91,4,4,0,0,1-.81-2.73,4,4,0,0,1,.81-2.72,3.16,3.16,0,0,1,2.47-.92,5,5,0,0,1,2.17.51v.74a4.32,4.32,0,0,0-2.08-.53,2.52,2.52,0,0,0-2,.7,4.36,4.36,0,0,0,0,4.45,2.51,2.51,0,0,0,2,.69,4.36,4.36,0,0,0,2.08-.51v.73A5.23,5.23,0,0,1,426.77,216.75Zm6-5.48a1.94,1.94,0,0,1,1.52.56,2.36,2.36,0,0,1,.53,1.69v3.15H434v-3.15a1.67,1.67,0,0,0-.34-1.14,1.24,1.24,0,0,0-1-.41,3.11,3.11,0,0,0-1.51.42v4.28h-.77V209h.77v2.7a4,4,0,0,1,.81-.31A2.86,2.86,0,0,1,432.75,211.27Zm5.93,5.56a2.27,2.27,0,0,1-1.83-.72,3.15,3.15,0,0,1-.61-2.08,3,3,0,0,1,.61-2.06,2.29,2.29,0,0,1,1.81-.7,2.26,2.26,0,0,1,1.86.73,3.07,3.07,0,0,1,.61,2,3,3,0,0,1-.64,2.06A2.28,2.28,0,0,1,438.68,216.83Zm0-.7c1.11,0,1.67-.7,1.67-2.1a2.54,2.54,0,0,0-.39-1.53,1.5,1.5,0,0,0-1.28-.53c-1.12,0-1.67.69-1.67,2.06S437.56,216.13,438.68,216.13Zm3.89-6.57h.84v.85h-.84Zm0,1.8h.77v5.31h-.77Zm4.75,5.39a2.32,2.32,0,0,1-2.49-2.75,2.34,2.34,0,0,1,2.49-2.73,4.41,4.41,0,0,1,1.58.29v.74a3.85,3.85,0,0,0-1.49-.3,1.8,1.8,0,0,0-1.39.48,2.26,2.26,0,0,0-.42,1.52,2.32,2.32,0,0,0,.42,1.55,1.84,1.84,0,0,0,1.39.47,3.71,3.71,0,0,0,1.49-.3v.75A4.42,4.42,0,0,1,447.35,216.75Zm5.08-5.48a2,2,0,0,1,1.78.78,3.4,3.4,0,0,1,.55,2.09h-3.89a2.21,2.21,0,0,0,.45,1.49,1.67,1.67,0,0,0,1.29.5,3.48,3.48,0,0,0,1.81-.46v.78a4.19,4.19,0,0,1-1.86.38,2.31,2.31,0,0,1-1.81-.72,3.06,3.06,0,0,1-.64-2.11,3,3,0,0,1,.6-2A2.15,2.15,0,0,1,452.43,211.27Zm0,.7a1.56,1.56,0,0,0-1.07.33,1.73,1.73,0,0,0-.46,1.14H454a1.67,1.67,0,0,0-.44-1.1A1.43,1.43,0,0,0,452.43,212Zm5.27,4.86a3.68,3.68,0,0,1-.94-.11,3.75,3.75,0,0,1-.83-.33v-.81a6.46,6.46,0,0,0,.88.44,3,3,0,0,0,.83.11,1.43,1.43,0,0,0,.86-.24.71.71,0,0,0,.34-.61.57.57,0,0,0-.2-.48,2.52,2.52,0,0,0-.63-.35l-.28-.11a7.59,7.59,0,0,1-1-.31,1.52,1.52,0,0,1-.58-.44,1.17,1.17,0,0,1-.25-.81,1.28,1.28,0,0,1,.27-.84,1.43,1.43,0,0,1,.68-.5,2.41,2.41,0,0,1,.91-.17,2.29,2.29,0,0,1,.7.09c.2.06.47.17.82.31v.77a6.26,6.26,0,0,0-.82-.36,1.88,1.88,0,0,0-.67-.11,1.55,1.55,0,0,0-.8.19.55.55,0,0,0-.32.51.69.69,0,0,0,.15.46,1.81,1.81,0,0,0,.42.28l.68.22a6.63,6.63,0,0,1,.86.31,1.4,1.4,0,0,1,.54.44,1.22,1.22,0,0,1,.24.81,1.55,1.55,0,0,1-.28.92,1.74,1.74,0,0,1-.72.55A2.62,2.62,0,0,1,457.7,216.83Zm6.93-4.77h-.92v-.7h.92v-.3a2.33,2.33,0,0,1,.3-1.31,1.25,1.25,0,0,1,.67-.53,2.67,2.67,0,0,1,.75-.11,1.5,1.5,0,0,1,.5.08v.67a1.71,1.71,0,0,0-.93,0,.63.63,0,0,0-.36.33,1.66,1.66,0,0,0-.16.84v.3h1.45v.7H465.4v4.61h-.77Zm5.69,4.77a2.27,2.27,0,0,1-1.83-.72,3.15,3.15,0,0,1-.61-2.08,3,3,0,0,1,.61-2.06,2.29,2.29,0,0,1,1.81-.7,2.26,2.26,0,0,1,1.86.73,3.07,3.07,0,0,1,.61,2,3,3,0,0,1-.64,2.06A2.28,2.28,0,0,1,470.32,216.83Zm0-.7c1.11,0,1.67-.7,1.67-2.1a2.54,2.54,0,0,0-.39-1.53,1.5,1.5,0,0,0-1.28-.53c-1.12,0-1.67.69-1.67,2.06S469.2,216.13,470.32,216.13Zm3.89-4.35a7,7,0,0,1,1.06-.34,5.32,5.32,0,0,1,1.38-.17,1.61,1.61,0,0,1,.34.06V212a4.19,4.19,0,0,0-.5,0,3.41,3.41,0,0,0-.66.05l-.85.14v4.51h-.77Z"/><path d="M420.71,229.83a2.26,2.26,0,0,1-1.83-.72,3.15,3.15,0,0,1-.61-2.08,3,3,0,0,1,.61-2.06,2.71,2.71,0,0,1,3.67,0,3.07,3.07,0,0,1,.61,2,3,3,0,0,1-.64,2.06A2.28,2.28,0,0,1,420.71,229.83Zm0-.7c1.11,0,1.67-.7,1.67-2.1a2.54,2.54,0,0,0-.39-1.53,1.5,1.5,0,0,0-1.28-.53c-1.12,0-1.67.69-1.67,2.06S419.59,229.13,420.71,229.13Zm3.89-4.35a5,5,0,0,1,2.23-.51,2.32,2.32,0,0,1,1.63.48,2,2,0,0,1,.5,1.45v3.47h-.78V226.2c0-.83-.48-1.25-1.42-1.25a5.15,5.15,0,0,0-1.4.22v4.5h-.76Zm8.12-.51a2.06,2.06,0,0,1,1.79.78,3.47,3.47,0,0,1,.54,2.09h-3.89a2.16,2.16,0,0,0,.46,1.49,1.63,1.63,0,0,0,1.28.5,3.48,3.48,0,0,0,1.81-.46v.78a4.19,4.19,0,0,1-1.86.38,2.31,2.31,0,0,1-1.81-.72,3.06,3.06,0,0,1-.64-2.11,3,3,0,0,1,.61-2A2.13,2.13,0,0,1,432.72,224.27Zm0,.7a1.57,1.57,0,0,0-1.07.33,1.78,1.78,0,0,0-.46,1.14h3.05a1.67,1.67,0,0,0-.44-1.1A1.43,1.43,0,0,0,432.72,225Zm6.86-.19a5,5,0,0,1,2.24-.51,2.27,2.27,0,0,1,1.62.48,2,2,0,0,1,.5,1.45v3.47h-.78V226.2c0-.83-.47-1.25-1.42-1.25a5.08,5.08,0,0,0-1.39.22v4.5h-.77Zm6.07-2.22h.84v.85h-.84Zm0,1.8h.76v5.31h-.76Zm4.84-.09a3.08,3.08,0,0,1,1.45.32,1.09,1.09,0,0,1,.59,1v4.3a1.88,1.88,0,0,1-.51,1.34,2.41,2.41,0,0,1-1.8.55,3.69,3.69,0,0,1-.69-.06,4.63,4.63,0,0,1-.54-.11l-.29-.08v-.72a7.23,7.23,0,0,0,.72.17,2.62,2.62,0,0,0,.71.08,1.85,1.85,0,0,0,1.29-.33,1,1,0,0,0,.33-.81v-.4a3.68,3.68,0,0,1-.73.21,2.79,2.79,0,0,1-.69.1,2.28,2.28,0,0,1-1.81-.7,2.9,2.9,0,0,1-.61-2,2.79,2.79,0,0,1,.75-2.25A2.71,2.71,0,0,1,450.52,224.27Zm-1.79,2.89a2.4,2.4,0,0,0,.39,1.45,1.51,1.51,0,0,0,1.24.52,3.13,3.13,0,0,0,.73-.1,2.33,2.33,0,0,0,.69-.28V225.7a.57.57,0,0,0-.33-.57,1.9,1.9,0,0,0-.87-.16,1.64,1.64,0,0,0-1.46.59A2.85,2.85,0,0,0,448.73,227.16Zm7.91-2.89a2,2,0,0,1,1.52.56,2.36,2.36,0,0,1,.53,1.69v3.15h-.78v-3.15a1.67,1.67,0,0,0-.35-1.14,1.22,1.22,0,0,0-1-.41,3.15,3.15,0,0,0-1.52.42v4.28h-.76V222H455v2.7a4,4,0,0,1,.81-.31A3,3,0,0,1,456.64,224.27Zm5.43,5.48a1.25,1.25,0,0,1-1.35-1.37v-3.32h-.92v-.7h.92v-1.5h.77v1.5h1.37v.7h-1.37v3.08a1.26,1.26,0,0,0,.15.69.71.71,0,0,0,.57.2,1.54,1.54,0,0,0,.65-.12v.72a1.43,1.43,0,0,1-.37.09Zm7.45.08a2.24,2.24,0,0,1-1.82-.72,3.15,3.15,0,0,1-.61-2.08,3,3,0,0,1,.61-2.06,2.71,2.71,0,0,1,3.67,0,3.13,3.13,0,0,1,.61,2,3.1,3.1,0,0,1-.64,2.06A2.29,2.29,0,0,1,469.52,229.83Zm0-.7q1.68,0,1.68-2.1a2.54,2.54,0,0,0-.39-1.53,1.52,1.52,0,0,0-1.29-.53c-1.11,0-1.67.69-1.67,2.06S468.41,229.13,469.52,229.13Zm6.11.7a2.29,2.29,0,0,1-1.64-.55,2,2,0,0,1-.57-1.56v-3.36h.76v3.19a1.83,1.83,0,0,0,.34,1.2,1.81,1.81,0,0,0,2.22,0,1.72,1.72,0,0,0,.36-1.2v-3.19h.77v3.36a2,2,0,0,1-.6,1.56A2.26,2.26,0,0,1,475.63,229.83Zm5.62-.08a1.25,1.25,0,0,1-1.35-1.37v-3.32H479v-.7h.92v-1.5h.77v1.5H482v.7h-1.37v3.08a1.26,1.26,0,0,0,.15.69.71.71,0,0,0,.57.2,1.54,1.54,0,0,0,.65-.12v.72a1.43,1.43,0,0,1-.37.09Z"/><path class="cls-5" d="M901.51,272.54h0a8,8,0,0,1,8-8H984a8,8,0,0,1,8,8v31.94a8,8,0,0,1-8,8H909.49a8,8,0,0,1-8-8Z"/><path class="cls-6" d="M901.51,272.54h0a8,8,0,0,1,8-8H984a8,8,0,0,1,8,8v31.94a8,8,0,0,1-8,8H909.49a8,8,0,0,1-8-8Z"/><path d="M921.54,292.33a3.2,3.2,0,0,1-2.47-.91,4,4,0,0,1-.81-2.73,4,4,0,0,1,.81-2.72,3.14,3.14,0,0,1,2.47-.92,5,5,0,0,1,2.17.51v.74a4.3,4.3,0,0,0-2.08-.54,2.48,2.48,0,0,0-2,.71,4.36,4.36,0,0,0,0,4.45,2.48,2.48,0,0,0,2,.69,4.23,4.23,0,0,0,2.08-.52v.74A5.23,5.23,0,0,1,921.54,292.33Zm3.61-5a7.06,7.06,0,0,1,1.07-.35,5.65,5.65,0,0,1,1.37-.17,1.19,1.19,0,0,1,.34.07v.67a4.07,4.07,0,0,0-.5,0,4.36,4.36,0,0,0-.65,0l-.86.14v4.52h-.77Zm6.08-.52a2,2,0,0,1,1.78.78,3.42,3.42,0,0,1,.55,2.1h-3.89a2.18,2.18,0,0,0,.45,1.48,1.63,1.63,0,0,0,1.28.5,3.48,3.48,0,0,0,1.82-.45V292a4.19,4.19,0,0,1-1.86.38,2.31,2.31,0,0,1-1.81-.72,3.08,3.08,0,0,1-.65-2.11,3,3,0,0,1,.61-2A2.16,2.16,0,0,1,931.23,286.84Zm0,.71a1.64,1.64,0,0,0-1.08.32,1.78,1.78,0,0,0-.45,1.14h3a1.64,1.64,0,0,0-.44-1.09A1.43,1.43,0,0,0,931.23,287.55Zm6-.71a2.11,2.11,0,0,1,1.41.44,1.55,1.55,0,0,1,.52,1.27v2.57a1,1,0,0,1-.63,1,4.91,4.91,0,0,1-1.73.25,2.74,2.74,0,0,1-1.46-.38,1.35,1.35,0,0,1-.59-1.23,1.66,1.66,0,0,1,.52-1.38,2.18,2.18,0,0,1,1.43-.44,3.38,3.38,0,0,1,1.68.36v-.62c0-.79-.47-1.19-1.4-1.19a3.35,3.35,0,0,0-.92.13,2,2,0,0,0-.79.39v-.77a2.44,2.44,0,0,1,.87-.31A4.57,4.57,0,0,1,937.26,286.84Zm-.26,4.89a3.53,3.53,0,0,0,1.08-.11.46.46,0,0,0,.33-.46V290a2.47,2.47,0,0,0-.68-.22,4,4,0,0,0-.79-.08,1.69,1.69,0,0,0-1,.27.82.82,0,0,0-.36.73.86.86,0,0,0,.42.81A2,2,0,0,0,937,291.73Zm5.57.6a1.26,1.26,0,0,1-1.34-1.38v-3.31h-.92v-.7h.92v-1.5H942v1.5h1.37v.7H942v3.08a1.26,1.26,0,0,0,.15.69.7.7,0,0,0,.57.2,1.42,1.42,0,0,0,.65-.13v.72a1.92,1.92,0,0,1-.37.1Zm4.26-5.49a2,2,0,0,1,1.78.78,3.42,3.42,0,0,1,.55,2.1h-3.89a2.18,2.18,0,0,0,.45,1.48,1.64,1.64,0,0,0,1.29.5,3.47,3.47,0,0,0,1.81-.45V292a4.19,4.19,0,0,1-1.86.38,2.31,2.31,0,0,1-1.81-.72,3.08,3.08,0,0,1-.64-2.11,3,3,0,0,1,.6-2A2.16,2.16,0,0,1,946.83,286.84Zm0,.71a1.61,1.61,0,0,0-1.07.32,1.73,1.73,0,0,0-.46,1.14h3.05a1.64,1.64,0,0,0-.44-1.09A1.43,1.43,0,0,0,946.83,287.55Zm8.74-1.69h-2.52v-.72h5.78v.72h-2.5v6.39h-.76Zm6.6,1a2.14,2.14,0,0,1,1.41.44,1.55,1.55,0,0,1,.51,1.27v2.57a1,1,0,0,1-.62,1,5,5,0,0,1-1.74.25,2.7,2.7,0,0,1-1.45-.38,1.34,1.34,0,0,1-.6-1.23,1.69,1.69,0,0,1,.52-1.38,2.19,2.19,0,0,1,1.44-.44,3.34,3.34,0,0,1,1.67.36v-.62c0-.79-.46-1.19-1.39-1.19a3.3,3.3,0,0,0-.92.13,2,2,0,0,0-.8.39v-.77a2.5,2.5,0,0,1,.88-.31A4.45,4.45,0,0,1,962.17,286.84Zm-.27,4.89a3.53,3.53,0,0,0,1.08-.11.46.46,0,0,0,.33-.46V290a2.4,2.4,0,0,0-.67-.22,4.09,4.09,0,0,0-.8-.08,1.69,1.69,0,0,0-1,.27.82.82,0,0,0-.36.73.86.86,0,0,0,.42.81A2,2,0,0,0,961.9,291.73Zm6.09-4.89a2.25,2.25,0,0,1,1.82.72,2.87,2.87,0,0,1,.62,1.95,2.94,2.94,0,0,1-.75,2.27,2.6,2.6,0,0,1-1.75.63c-1.41,0-2.12-.36-2.12-1.07v-6.65h.76v2.47a4.62,4.62,0,0,1,.74-.22A2.78,2.78,0,0,1,968,286.84Zm-.17,4.86a1.55,1.55,0,0,0,1.41-.58,2.88,2.88,0,0,0,.39-1.61,2.29,2.29,0,0,0-.41-1.43,1.39,1.39,0,0,0-1.22-.53,2.49,2.49,0,0,0-.73.11,3,3,0,0,0-.69.26v3.24a.45.45,0,0,0,.36.43A3,3,0,0,0,967.82,291.7Zm5.55.71a3.68,3.68,0,0,1-.94-.11,5.08,5.08,0,0,1-.83-.33v-.81a6.21,6.21,0,0,0,.88.43,2.65,2.65,0,0,0,.83.11,1.51,1.51,0,0,0,.86-.23.71.71,0,0,0,.34-.61.6.6,0,0,0-.2-.49,2.54,2.54,0,0,0-.63-.34l-.28-.11a9.72,9.72,0,0,1-.95-.31,1.63,1.63,0,0,1-.58-.44,1.21,1.21,0,0,1-.25-.81,1.29,1.29,0,0,1,.27-.85,1.57,1.57,0,0,1,.68-.5,2.62,2.62,0,0,1,.91-.17,2,2,0,0,1,.7.1,8.05,8.05,0,0,1,.82.31V288a7.49,7.49,0,0,0-.82-.35,1.68,1.68,0,0,0-.67-.11,1.66,1.66,0,0,0-.8.18.57.57,0,0,0-.32.52.64.64,0,0,0,.15.45,1.34,1.34,0,0,0,.42.28,6.12,6.12,0,0,0,.68.22c.36.12.65.22.86.31a1.5,1.5,0,0,1,.54.44,1.26,1.26,0,0,1,.24.81,1.55,1.55,0,0,1-.28.93,1.64,1.64,0,0,1-.72.54A2.42,2.42,0,0,1,973.37,292.41Z"/><path class="cls-5" d="M221.06,212.93c45.95,0,68.93,0,91.9,0s46,0,91.91,0"/><path class="cls-7" d="M221.06,212.93c45.95,0,68.93,0,91.9,0l37.34,0h47"/><path class="cls-8" d="M403.87,213a3.29,3.29,0,1,1-3.29-3.29A3.29,3.29,0,0,1,403.87,213Z"/><path class="cls-5" d="M696.66,272.54h0a8,8,0,0,1,8-8h74.55a8,8,0,0,1,8,8v31.94a8,8,0,0,1-8,8H704.64a8,8,0,0,1-8-8Z"/><path class="cls-9" d="M696.66,272.54h0a8,8,0,0,1,8-8h74.55a8,8,0,0,1,8,8v31.94a8,8,0,0,1-8,8H704.64a8,8,0,0,1-8-8Z"/><path d="M716.62,285.86a4.05,4.05,0,0,1-1.17-.14,7.33,7.33,0,0,1-1.07-.47v-.83a3.71,3.71,0,0,0,1,.53,3.82,3.82,0,0,0,1.3.2,1.75,1.75,0,0,0,1.15-.32,1.11,1.11,0,0,0,.4-.91,1,1,0,0,0-.24-.67,1.41,1.41,0,0,0-.53-.44c-.2-.1-.51-.23-.92-.39a8.72,8.72,0,0,1-1-.42,2,2,0,0,1-.67-.6,1.8,1.8,0,0,1-.27-1,1.84,1.84,0,0,1,.21-.85,1.74,1.74,0,0,1,.7-.7,2.52,2.52,0,0,1,1.27-.28,3.15,3.15,0,0,1,.9.11,6.4,6.4,0,0,1,.95.39v.8l-.4-.24a2.28,2.28,0,0,0-.67-.26,2.57,2.57,0,0,0-.75-.1,1.7,1.7,0,0,0-1.1.31,1,1,0,0,0-.34.75,1.13,1.13,0,0,0,.19.69,1.36,1.36,0,0,0,.5.41,8.8,8.8,0,0,0,.89.36,6.13,6.13,0,0,1,1.08.44,1.91,1.91,0,0,1,.71.62,1.62,1.62,0,0,1,.32,1,2,2,0,0,1-.57,1.44A2.42,2.42,0,0,1,716.62,285.86Zm6-5.52a2.44,2.44,0,0,1,1.78.69,3,3,0,0,1,.7,2.19,2.77,2.77,0,0,1-.67,2,2.43,2.43,0,0,1-1.87.71,2.79,2.79,0,0,1-.64-.09,3,3,0,0,1-.68-.22v2.47h-.76v-6.67a.82.82,0,0,1,.64-.81A4.29,4.29,0,0,1,722.61,280.34Zm-.06,4.86a1.57,1.57,0,0,0,1.28-.53,2.22,2.22,0,0,0,.45-1.45,2.86,2.86,0,0,0-.37-1.58,1.4,1.4,0,0,0-1.3-.6,2.81,2.81,0,0,0-1,.15c-.27.08-.4.19-.4.34v3.3A2.59,2.59,0,0,0,722.55,285.2Zm4,.55V278.4h.77v7.35Zm2.47-7.11h.85v.84H729Zm0,1.8h.76v5.31H729Zm4.19,5.39a1.26,1.26,0,0,1-1.34-1.38v-3.31H731v-.7h.92v-1.5h.77v1.5H734v.7h-1.37v3.08a1.2,1.2,0,0,0,.15.68.66.66,0,0,0,.56.21A1.44,1.44,0,0,0,734,285v.72a1.43,1.43,0,0,1-.37.09A2.15,2.15,0,0,1,733.23,285.83Zm7,0a1.39,1.39,0,0,1-1-.35,1.35,1.35,0,0,1-.37-1v-3.31h-.92v-.7h.92v-1.5h.76v1.5H741v.7h-1.38v3.08a1.19,1.19,0,0,0,.16.68.66.66,0,0,0,.56.21A1.47,1.47,0,0,0,741,285v.72a1.41,1.41,0,0,1-.38.09A2,2,0,0,1,740.19,285.83Zm4.57-5.49a2,2,0,0,1,1.52.56,2.38,2.38,0,0,1,.53,1.69v3.16H746v-3.16a1.67,1.67,0,0,0-.34-1.14,1.27,1.27,0,0,0-1-.41,3.19,3.19,0,0,0-1.52.43v4.28h-.76v-7.67h.76v2.7a3.72,3.72,0,0,1,.82-.31A2.56,2.56,0,0,1,744.76,280.34Zm5.82,0a2,2,0,0,1,1.78.78,3.42,3.42,0,0,1,.55,2.1H749a2.18,2.18,0,0,0,.45,1.48,1.65,1.65,0,0,0,1.28.5,3.45,3.45,0,0,0,1.81-.45v.78a4.2,4.2,0,0,1-1.86.37,2.36,2.36,0,0,1-1.81-.71,3.08,3.08,0,0,1-.64-2.11,3,3,0,0,1,.61-2A2.19,2.19,0,0,1,750.58,280.34Zm0,.7a1.59,1.59,0,0,0-1.08.33,1.73,1.73,0,0,0-.45,1.14h3a1.63,1.63,0,0,0-.43-1.09A1.43,1.43,0,0,0,750.58,281Zm9-.7a2.25,2.25,0,0,1,1.82.72,2.87,2.87,0,0,1,.62,1.95,2.94,2.94,0,0,1-.75,2.27,2.59,2.59,0,0,1-1.75.62c-1.42,0-2.12-.35-2.12-1.06v-6.65h.76v2.46a6,6,0,0,1,.74-.21A2.78,2.78,0,0,1,759.62,280.34Zm-.17,4.86a1.55,1.55,0,0,0,1.41-.58,2.88,2.88,0,0,0,.39-1.61,2.29,2.29,0,0,0-.41-1.43,1.4,1.4,0,0,0-1.22-.54,2.81,2.81,0,0,0-.73.11,3,3,0,0,0-.69.27v3.23a.45.45,0,0,0,.36.44A3.33,3.33,0,0,0,759.45,285.2Zm4-6.56h.84v.84h-.84Zm0,1.8h.77v5.31h-.77Zm2.53,5.31V278.4h.76v7.35Zm2.47,0V278.4h.76v7.35Z"/><path d="M721.27,293.44l-1.76,5.31h-.79l-1.32-4.41-1.32,4.41h-.78l-1.76-5.31h.81l1.37,4.43,1.32-4.43h.73l1.35,4.45,1.4-4.45Zm1.23-1.8h.85v.84h-.85Zm0,1.8h.76v5.31h-.76Zm4.19,5.39a1.39,1.39,0,0,1-1-.35,1.35,1.35,0,0,1-.37-1v-3.31h-.92v-.7h.92v-1.5h.77v1.5h1.37v.7h-1.37v3.08a1.2,1.2,0,0,0,.15.68.66.66,0,0,0,.56.21,1.47,1.47,0,0,0,.66-.13v.72a1.43,1.43,0,0,1-.37.09A2.15,2.15,0,0,1,726.73,298.83Zm4.58-5.49a2,2,0,0,1,1.51.56,2.38,2.38,0,0,1,.53,1.69v3.16h-.78v-3.16a1.67,1.67,0,0,0-.34-1.14,1.27,1.27,0,0,0-1-.41,3.13,3.13,0,0,0-1.51.43v4.28h-.77v-7.67h.77v2.7a3.47,3.47,0,0,1,.81-.31A2.57,2.57,0,0,1,731.31,293.34Zm7.32.8h-.92v-.7h.92v-.3a2.31,2.31,0,0,1,.3-1.31,1.27,1.27,0,0,1,.67-.54,2.66,2.66,0,0,1,.75-.1,1.51,1.51,0,0,1,.5.07v.68a1.26,1.26,0,0,0-.37-.05,1.57,1.57,0,0,0-.57.08.71.71,0,0,0-.36.32,1.82,1.82,0,0,0-.15.85v.3h1.45v.7H739.4v4.61h-.77Zm3.51-.28a7.06,7.06,0,0,1,1.07-.35,5.65,5.65,0,0,1,1.37-.17,1.67,1.67,0,0,1,.35.06v.68a2.89,2.89,0,0,0-.5,0,4.43,4.43,0,0,0-.66,0l-.86.14v4.52h-.77Zm4-2.22H747v.84h-.85Zm0,1.8H747v5.31h-.77Zm4.59-.1a2,2,0,0,1,1.78.78,3.42,3.42,0,0,1,.55,2.1h-3.89a2.18,2.18,0,0,0,.45,1.48,1.65,1.65,0,0,0,1.28.5,3.48,3.48,0,0,0,1.82-.45v.78a4.2,4.2,0,0,1-1.86.37,2.38,2.38,0,0,1-1.82-.71,3.13,3.13,0,0,1-.64-2.11,3,3,0,0,1,.61-2A2.19,2.19,0,0,1,750.78,293.34Zm0,.7a1.59,1.59,0,0,0-1.08.33,1.73,1.73,0,0,0-.45,1.14h3a1.64,1.64,0,0,0-.44-1.09A1.43,1.43,0,0,0,750.78,294Zm3.77-.18a4.85,4.85,0,0,1,2.23-.52,2.27,2.27,0,0,1,1.63.49,1.93,1.93,0,0,1,.5,1.45v3.47h-.78v-3.47c0-.83-.48-1.25-1.43-1.25a4.77,4.77,0,0,0-1.39.22v4.5h-.76ZM765,291.19v6.64q0,.54-.69.81a4,4,0,0,1-1.5.26,2.56,2.56,0,0,1-1.72-.62,3,3,0,0,1-.71-2.27,2.87,2.87,0,0,1,.61-1.95,2.23,2.23,0,0,1,1.81-.72,2.85,2.85,0,0,1,.69.1,5.82,5.82,0,0,1,.73.21v-2.46Zm-.78,3.23a3,3,0,0,0-.69-.27,2.69,2.69,0,0,0-.73-.11,1.46,1.46,0,0,0-1.24.54,2.36,2.36,0,0,0-.39,1.43,3.07,3.07,0,0,0,.36,1.61,1.44,1.44,0,0,0,1.31.58,3.33,3.33,0,0,0,1-.12c.27-.09.41-.19.41-.32Zm4,4.48a3.21,3.21,0,0,1-.93-.11,4,4,0,0,1-.83-.32v-.82a5.44,5.44,0,0,0,.87.44,3,3,0,0,0,.83.11A1.48,1.48,0,0,0,769,298a.72.72,0,0,0,.35-.61.58.58,0,0,0-.21-.49,2.28,2.28,0,0,0-.62-.34l-.28-.11c-.41-.12-.73-.22-1-.31a1.63,1.63,0,0,1-.58-.44,1.26,1.26,0,0,1-.25-.81,1.29,1.29,0,0,1,.27-.85,1.58,1.58,0,0,1,.69-.5,2.52,2.52,0,0,1,.9-.17,2.06,2.06,0,0,1,.71.1,7.23,7.23,0,0,1,.81.31v.76c-.35-.17-.63-.29-.81-.36a1.92,1.92,0,0,0-.67-.11,1.63,1.63,0,0,0-.8.19.56.56,0,0,0-.33.52.61.61,0,0,0,.16.45,1.15,1.15,0,0,0,.42.28c.17.06.39.14.67.22s.65.22.86.31a1.53,1.53,0,0,1,.55.44,1.32,1.32,0,0,1,.23.81,1.49,1.49,0,0,1-.28.93,1.72,1.72,0,0,1-.72.54A2.34,2.34,0,0,1,768.17,298.9Z"/><path class="cls-5" d="M1147.33,272.54h0a8,8,0,0,1,8-8h74.55a8,8,0,0,1,8,8v31.94a8,8,0,0,1-8,8h-74.55a8,8,0,0,1-8-8Z"/><path class="cls-6" d="M1147.33,272.54h0a8,8,0,0,1,8-8h74.55a8,8,0,0,1,8,8v31.94a8,8,0,0,1-8,8h-74.55a8,8,0,0,1-8-8Z"/><path d="M1170.48,292.33a3.15,3.15,0,0,1-2.47-.91,4,4,0,0,1-.82-2.73A3.92,3.92,0,0,1,1168,286a3.12,3.12,0,0,1,2.47-.92,5.06,5.06,0,0,1,2.17.51v.74a4.32,4.32,0,0,0-2.08-.53,2.5,2.5,0,0,0-2,.7,4.36,4.36,0,0,0,0,4.45,2.51,2.51,0,0,0,2,.69,4.25,4.25,0,0,0,2.08-.52v.74A5.27,5.27,0,0,1,1170.48,292.33Zm3.61-.08v-7.34h.76v7.34Zm4.64.16a2.27,2.27,0,0,1-1.83-.72,3.2,3.2,0,0,1-.61-2.08,3.05,3.05,0,0,1,.61-2.06,2.7,2.7,0,0,1,3.68,0,3.13,3.13,0,0,1,.61,2,3.06,3.06,0,0,1-.65,2.06A2.27,2.27,0,0,1,1178.73,292.41Zm0-.71c1.12,0,1.67-.69,1.67-2.09a2.54,2.54,0,0,0-.39-1.53,1.46,1.46,0,0,0-1.28-.53c-1.11,0-1.67.68-1.67,2.06S1177.62,291.7,1178.73,291.7Zm5.39.71a3.59,3.59,0,0,1-.93-.11,4.08,4.08,0,0,1-.83-.33v-.81a5.69,5.69,0,0,0,.87.43,2.65,2.65,0,0,0,.83.11,1.41,1.41,0,0,0,.86-.23.71.71,0,0,0,.34-.61.54.54,0,0,0-.2-.48,2.26,2.26,0,0,0-.62-.35l-.29-.11a9.72,9.72,0,0,1-1-.31,1.52,1.52,0,0,1-.58-.44,1.44,1.44,0,0,1,0-1.65,1.51,1.51,0,0,1,.69-.5,2.33,2.33,0,0,1,.9-.18,2.38,2.38,0,0,1,.71.1c.19.06.46.16.81.31V288a6.94,6.94,0,0,0-.81-.36,1.76,1.76,0,0,0-.68-.11,1.62,1.62,0,0,0-.79.18.56.56,0,0,0-.33.52.61.61,0,0,0,.16.45,1.15,1.15,0,0,0,.42.28,5.85,5.85,0,0,0,.67.22,8.25,8.25,0,0,1,.86.32,1.5,1.5,0,0,1,.55.43,1.33,1.33,0,0,1,.23.82,1.48,1.48,0,0,1-.28.92,1.64,1.64,0,0,1-.72.54A2.34,2.34,0,0,1,1184.12,292.41Zm5.43-5.57a2,2,0,0,1,1.78.79,3.45,3.45,0,0,1,.54,2.09H1188a2.13,2.13,0,0,0,.46,1.48,1.62,1.62,0,0,0,1.28.5,3.45,3.45,0,0,0,1.81-.45V292a4.19,4.19,0,0,1-1.86.38,2.33,2.33,0,0,1-1.81-.72,3.06,3.06,0,0,1-.64-2.11,3,3,0,0,1,.61-2A2.15,2.15,0,0,1,1189.55,286.84Zm0,.71a1.59,1.59,0,0,0-1.08.33A1.73,1.73,0,0,0,1188,289h3a1.67,1.67,0,0,0-.44-1.1A1.42,1.42,0,0,0,1189.55,287.55Zm8.73-1.69h-2.52v-.72h5.78v.72H1199v6.39h-.76Zm6.6,1a2.14,2.14,0,0,1,1.41.44,1.55,1.55,0,0,1,.51,1.27v2.58a1,1,0,0,1-.62,1,5,5,0,0,1-1.74.25A2.72,2.72,0,0,1,1203,292a1.33,1.33,0,0,1-.59-1.23,1.69,1.69,0,0,1,.51-1.38,2.23,2.23,0,0,1,1.44-.44,3.34,3.34,0,0,1,1.67.36v-.62c0-.79-.46-1.19-1.39-1.19a3.3,3.3,0,0,0-.92.13,2.06,2.06,0,0,0-.8.39v-.77a2.72,2.72,0,0,1,.88-.31A5.07,5.07,0,0,1,1204.88,286.84Zm-.27,4.89a4,4,0,0,0,1.08-.1.47.47,0,0,0,.33-.47V290a2.77,2.77,0,0,0-.67-.22,4.09,4.09,0,0,0-.8-.08,1.69,1.69,0,0,0-1,.27.82.82,0,0,0-.36.73.86.86,0,0,0,.42.81A2,2,0,0,0,1204.61,291.73Zm6.1-4.89a2.24,2.24,0,0,1,1.81.72,2.83,2.83,0,0,1,.62,2,2.93,2.93,0,0,1-.75,2.26,2.6,2.6,0,0,1-1.75.63c-1.41,0-2.12-.36-2.12-1.07v-6.65h.76v2.47a4.62,4.62,0,0,1,.74-.22A3.36,3.36,0,0,1,1210.71,286.84Zm-.18,4.86a1.57,1.57,0,0,0,1.41-.57,2.93,2.93,0,0,0,.39-1.61,2.24,2.24,0,0,0-.41-1.44,1.38,1.38,0,0,0-1.21-.53,2.51,2.51,0,0,0-.74.11,3,3,0,0,0-.69.26v3.24a.45.45,0,0,0,.36.43A3,3,0,0,0,1210.53,291.7Zm5.55.71a3.68,3.68,0,0,1-.94-.11,4,4,0,0,1-.82-.33v-.81a5.69,5.69,0,0,0,.87.43,2.65,2.65,0,0,0,.83.11,1.43,1.43,0,0,0,.86-.23.71.71,0,0,0,.34-.61.57.57,0,0,0-.2-.48,2.35,2.35,0,0,0-.63-.35l-.28-.11a9.72,9.72,0,0,1-.95-.31,1.52,1.52,0,0,1-.58-.44,1.44,1.44,0,0,1,0-1.65,1.41,1.41,0,0,1,.69-.5,2.33,2.33,0,0,1,.9-.18,2.26,2.26,0,0,1,.7.1,8.05,8.05,0,0,1,.82.31V288a6.26,6.26,0,0,0-.82-.36,1.68,1.68,0,0,0-.67-.11,1.59,1.59,0,0,0-.79.18.56.56,0,0,0-.33.52.64.64,0,0,0,.15.45,1.28,1.28,0,0,0,.43.28,5.85,5.85,0,0,0,.67.22,8.25,8.25,0,0,1,.86.32,1.4,1.4,0,0,1,.54.43,1.27,1.27,0,0,1,.24.82,1.55,1.55,0,0,1-.28.92,1.64,1.64,0,0,1-.72.54A2.38,2.38,0,0,1,1216.08,292.41Z"/><path class="cls-5" d="M522,272.54h0a8,8,0,0,1,8-8h74.55a8,8,0,0,1,8,8v31.94a8,8,0,0,1-8,8H530a8,8,0,0,1-8-8Z"/><path class="cls-6" d="M522,272.54h0a8,8,0,0,1,8-8h74.55a8,8,0,0,1,8,8v31.94a8,8,0,0,1-8,8H530a8,8,0,0,1-8-8Z"/><path d="M540.52,278.64h.76v3.2h3.78v-3.2h.77v7.11h-.77v-3.19h-3.78v3.19h-.76Zm7.08,0h.84v.84h-.84Zm0,1.8h.77v5.31h-.77Zm4,5.47a3.62,3.62,0,0,1-.94-.11,4.75,4.75,0,0,1-.83-.33v-.81a6.21,6.21,0,0,0,.88.43,2.58,2.58,0,0,0,.82.11,1.46,1.46,0,0,0,.86-.23.72.72,0,0,0,.35-.61.58.58,0,0,0-.21-.49,2.28,2.28,0,0,0-.62-.34l-.28-.11a8.18,8.18,0,0,1-1-.31,1.55,1.55,0,0,1-.58-.44,1.21,1.21,0,0,1-.25-.81,1.35,1.35,0,0,1,.26-.85,1.67,1.67,0,0,1,.69-.5,2.53,2.53,0,0,1,.91-.17,2,2,0,0,1,.7.1,7.23,7.23,0,0,1,.81.31v.76a6.74,6.74,0,0,0-.81-.35,1.71,1.71,0,0,0-.67-.11,1.66,1.66,0,0,0-.8.18.56.56,0,0,0-.33.52.65.65,0,0,0,.16.45,1.15,1.15,0,0,0,.42.28,6.6,6.6,0,0,0,.67.22c.37.12.65.22.86.31a1.53,1.53,0,0,1,.55.44,1.26,1.26,0,0,1,.23.81,1.49,1.49,0,0,1-.28.93,1.53,1.53,0,0,1-.72.54A2.33,2.33,0,0,1,551.66,285.91Zm5-.08a1.37,1.37,0,0,1-1-.35,1.36,1.36,0,0,1-.38-1v-3.31h-.92v-.7h.92v-1.5h.77v1.5h1.38v.7h-1.38v3.08a1.17,1.17,0,0,0,.16.69.68.68,0,0,0,.56.2,1.47,1.47,0,0,0,.66-.13v.72a2,2,0,0,1-.38.1Zm4.37.08a2.25,2.25,0,0,1-1.83-.72,3.16,3.16,0,0,1-.61-2.08,3,3,0,0,1,.61-2.06,2.69,2.69,0,0,1,3.67,0,3.66,3.66,0,0,1,0,4.09A2.28,2.28,0,0,1,561.06,285.91Zm0-.71c1.11,0,1.67-.7,1.67-2.09a2.54,2.54,0,0,0-.39-1.53,1.47,1.47,0,0,0-1.28-.53c-1.12,0-1.68.68-1.68,2.06S559.94,285.2,561.06,285.2Zm3.89-4.34a6.88,6.88,0,0,1,1.06-.35,5.79,5.79,0,0,1,1.38-.17,1.25,1.25,0,0,1,.34.07v.67a4.19,4.19,0,0,0-.5,0,4.5,4.5,0,0,0-.66,0l-.86.14v4.52H565Zm8.53-.42-2.28,5.82a2.69,2.69,0,0,1-.77,1.21,1.43,1.43,0,0,1-.9.34,1.29,1.29,0,0,1-.5-.11V287a1,1,0,0,0,.47.11.82.82,0,0,0,.7-.35,2.91,2.91,0,0,0,.48-1l-2.2-5.32h.88l1.68,4.32,1.68-4.32Zm6.6-.1a2.1,2.1,0,0,1,1.4.44,1.52,1.52,0,0,1,.52,1.27v2.57a1,1,0,0,1-.63,1,4.91,4.91,0,0,1-1.73.25,2.7,2.7,0,0,1-1.45-.38,1.34,1.34,0,0,1-.6-1.23,1.66,1.66,0,0,1,.52-1.38,2.18,2.18,0,0,1,1.43-.44,3.38,3.38,0,0,1,1.68.36v-.62c0-.79-.47-1.19-1.39-1.19a3.37,3.37,0,0,0-.93.13,2,2,0,0,0-.79.39v-.77a2.52,2.52,0,0,1,.87-.31A4.59,4.59,0,0,1,580.08,280.34Zm-.27,4.89a3.53,3.53,0,0,0,1.08-.11.46.46,0,0,0,.33-.46v-1.19a2.36,2.36,0,0,0-.68-.22,4,4,0,0,0-.79-.08,1.69,1.69,0,0,0-1,.27.82.82,0,0,0-.36.73.86.86,0,0,0,.42.81A2,2,0,0,0,579.81,285.23Zm3.9-4.37a4.89,4.89,0,0,1,2.24-.52,2.23,2.23,0,0,1,1.62.49,1.89,1.89,0,0,1,.5,1.45v3.47h-.78v-3.47c0-.83-.47-1.25-1.42-1.25a4.72,4.72,0,0,0-1.39.22v4.5h-.77Zm10.43-2.67v6.64q0,.54-.69.81a4.08,4.08,0,0,1-1.5.27,2.55,2.55,0,0,1-1.72-.63,3.68,3.68,0,0,1-.11-4.22,2.24,2.24,0,0,1,1.81-.72,2.79,2.79,0,0,1,.69.1,4.62,4.62,0,0,1,.74.22v-2.47Zm-.78,3.23a3,3,0,0,0-.69-.26,2.42,2.42,0,0,0-.74-.11,1.43,1.43,0,0,0-1.23.53,2.36,2.36,0,0,0-.39,1.43,3.07,3.07,0,0,0,.36,1.61,1.44,1.44,0,0,0,1.31.58,3.33,3.33,0,0,0,1-.12c.27-.09.41-.19.41-.32Z"/><path d="M547.84,298.75,546,295.89h-1.81v2.86h-.76v-7.11h2.92a2.13,2.13,0,0,1,1.56.53,2,2,0,0,1,.53,1.53,2.14,2.14,0,0,1-.44,1.39,1.88,1.88,0,0,1-1.17.71l1.94,2.95Zm-3.67-3.59H546a2,2,0,0,0,1.28-.35,1.33,1.33,0,0,0,.41-1.05,1.49,1.49,0,0,0-.33-1,1.41,1.41,0,0,0-1.1-.36h-2.06Zm8-1.82a2.05,2.05,0,0,1,1.78.78,3.48,3.48,0,0,1,.54,2.1h-3.89a2.13,2.13,0,0,0,.46,1.48,1.62,1.62,0,0,0,1.28.5,3.45,3.45,0,0,0,1.81-.45v.78a4.19,4.19,0,0,1-1.86.38,2.33,2.33,0,0,1-1.81-.72,3.08,3.08,0,0,1-.64-2.11,2.93,2.93,0,0,1,.61-2A2.15,2.15,0,0,1,552.15,293.34Zm0,.71a1.64,1.64,0,0,0-1.08.32,1.78,1.78,0,0,0-.46,1.14h3a1.64,1.64,0,0,0-.44-1.09A1.42,1.42,0,0,0,552.15,294.05Zm6,4.78a2.67,2.67,0,0,1-1.77-.6,2.72,2.72,0,0,1-.71-2.15,2.33,2.33,0,0,1,2.48-2.74,4.38,4.38,0,0,1,1.58.3v.73a4,4,0,0,0-1.49-.29,1.82,1.82,0,0,0-1.39.48,2.25,2.25,0,0,0-.42,1.52,2.27,2.27,0,0,0,.42,1.54,1.81,1.81,0,0,0,1.39.47,3.84,3.84,0,0,0,1.49-.29v.75A4.65,4.65,0,0,1,558.13,298.83Zm3-7.19H562v.84h-.85Zm0,1.8H562v5.31h-.76Zm4.66-.1a2.42,2.42,0,0,1,1.78.69,3,3,0,0,1,.71,2.19,2.81,2.81,0,0,1-.67,2,2.43,2.43,0,0,1-1.88.72,2.87,2.87,0,0,1-.64-.1,2.93,2.93,0,0,1-.67-.22v2.47h-.77v-6.67a.83.83,0,0,1,.64-.81A4.29,4.29,0,0,1,565.85,293.34Zm-.06,4.86a1.57,1.57,0,0,0,1.28-.53,2.21,2.21,0,0,0,.45-1.45,2.86,2.86,0,0,0-.37-1.58,1.38,1.38,0,0,0-1.3-.59,2.86,2.86,0,0,0-1,.14c-.26.08-.39.19-.39.34v3.3A2.53,2.53,0,0,0,565.79,298.2Zm4-6.56h.84v.84h-.84Zm0,1.8h.76v5.31h-.76Zm4.59-.1a2.05,2.05,0,0,1,1.78.78,3.48,3.48,0,0,1,.54,2.1h-3.89a2.13,2.13,0,0,0,.46,1.48,1.62,1.62,0,0,0,1.28.5,3.45,3.45,0,0,0,1.81-.45v.78a4.19,4.19,0,0,1-1.86.38,2.33,2.33,0,0,1-1.81-.72,3.08,3.08,0,0,1-.64-2.11,2.93,2.93,0,0,1,.61-2A2.15,2.15,0,0,1,574.4,293.34Zm0,.71a1.64,1.64,0,0,0-1.08.32,1.78,1.78,0,0,0-.46,1.14h3a1.64,1.64,0,0,0-.44-1.09A1.42,1.42,0,0,0,574.4,294.05Zm3.76-.19a4.86,4.86,0,0,1,2.24-.52,2.23,2.23,0,0,1,1.62.49,1.93,1.93,0,0,1,.5,1.45v3.47h-.78v-3.47c0-.83-.47-1.25-1.42-1.25a4.72,4.72,0,0,0-1.39.22v4.5h-.77Zm7.74,5a1.37,1.37,0,0,1-1-.35,1.36,1.36,0,0,1-.38-1v-3.31h-.92v-.7h.92v-1.5h.77v1.5h1.37v.7h-1.37v3.08a1.17,1.17,0,0,0,.16.69.68.68,0,0,0,.56.2,1.39,1.39,0,0,0,.65-.13v.72a1.73,1.73,0,0,1-.37.1Zm3.69.08a3.59,3.59,0,0,1-.93-.11,4.75,4.75,0,0,1-.83-.33v-.81a5.69,5.69,0,0,0,.87.43,2.65,2.65,0,0,0,.83.11,1.48,1.48,0,0,0,.86-.23.71.71,0,0,0,.34-.61.58.58,0,0,0-.2-.49,2.28,2.28,0,0,0-.62-.34l-.28-.11a9.19,9.19,0,0,1-1-.31,1.63,1.63,0,0,1-.58-.44,1.26,1.26,0,0,1-.25-.81,1.29,1.29,0,0,1,.27-.85,1.67,1.67,0,0,1,.69-.5,2.52,2.52,0,0,1,.9-.17,2.09,2.09,0,0,1,.71.1,8.06,8.06,0,0,1,.81.31v.76a8.5,8.5,0,0,0-.81-.35,1.73,1.73,0,0,0-.68-.11,1.62,1.62,0,0,0-.79.18.56.56,0,0,0-.33.52.61.61,0,0,0,.16.45,1.15,1.15,0,0,0,.42.28,5.85,5.85,0,0,0,.67.22c.36.12.65.22.86.31a1.53,1.53,0,0,1,.55.44,1.32,1.32,0,0,1,.23.81,1.49,1.49,0,0,1-.28.93,1.64,1.64,0,0,1-.72.54A2.34,2.34,0,0,1,589.59,298.91Z"/><path class="cls-5" d="M764.11,119.61h0a8,8,0,0,1,8-8h74.55a8,8,0,0,1,8,8v31.93a8,8,0,0,1-8,8H772.1a8,8,0,0,1-8-8Z"/><path class="cls-6" d="M764.11,119.61h0a8,8,0,0,1,8-8h74.55a8,8,0,0,1,8,8v31.93a8,8,0,0,1-8,8H772.1a8,8,0,0,1-8-8Z"/><path d="M789.36,132.82h-.76v-7.11h2.53a2.6,2.6,0,0,1,1.81.56,2,2,0,0,1,.64,1.64,2,2,0,0,1-.64,1.62,2.6,2.6,0,0,1-1.81.57h-1.77Zm1.66-3.46a1.92,1.92,0,0,0,1.44-.4,1.73,1.73,0,0,0,0-2.11,1.92,1.92,0,0,0-1.44-.41h-1.66v2.92Zm6.33-2a2.1,2.1,0,0,1,1.4.44,1.51,1.51,0,0,1,.52,1.26v2.58a1,1,0,0,1-.62,1,4.78,4.78,0,0,1-1.74.25,2.7,2.7,0,0,1-1.45-.37,1.35,1.35,0,0,1-.6-1.24,1.69,1.69,0,0,1,.52-1.37,2.19,2.19,0,0,1,1.44-.44,3.34,3.34,0,0,1,1.67.36v-.63c0-.79-.46-1.18-1.39-1.18a3.69,3.69,0,0,0-.92.12,2.3,2.3,0,0,0-.8.39v-.76a2.74,2.74,0,0,1,.87-.32A5.15,5.15,0,0,1,797.35,127.41Zm-.27,4.89a3.89,3.89,0,0,0,1.08-.11.46.46,0,0,0,.33-.47v-1.19a2.78,2.78,0,0,0-.67-.21,3.45,3.45,0,0,0-.8-.08,1.76,1.76,0,0,0-1,.26.84.84,0,0,0-.36.74.88.88,0,0,0,.42.81A2,2,0,0,0,797.08,132.3Zm8.42-4.8-2.28,5.83a2.73,2.73,0,0,1-.76,1.2,1.49,1.49,0,0,1-.91.35,1.29,1.29,0,0,1-.5-.11v-.7a1.08,1.08,0,0,0,.47.11.82.82,0,0,0,.7-.35,3.2,3.2,0,0,0,.49-1l-2.21-5.33h.88l1.68,4.33,1.68-4.33Zm6.83-.09a2.26,2.26,0,0,1,1.61.48,1.93,1.93,0,0,1,.5,1.46v3.47h-.76v-3.47c0-.84-.48-1.25-1.44-1.25a2.48,2.48,0,0,0-1.28.36,2.6,2.6,0,0,1,.14.89v3.47h-.78v-3.47c0-.84-.47-1.25-1.42-1.25a4.72,4.72,0,0,0-1.39.22v4.5h-.77v-4.89a4.86,4.86,0,0,1,2.24-.52,2.4,2.4,0,0,1,1.56.44A3.68,3.68,0,0,1,812.33,127.41Zm5.88,0a2,2,0,0,1,1.78.78,3.4,3.4,0,0,1,.55,2.09h-3.89a2.19,2.19,0,0,0,.45,1.49,1.67,1.67,0,0,0,1.29.5,3.47,3.47,0,0,0,1.81-.45v.78a4.2,4.2,0,0,1-1.86.37,2.31,2.31,0,0,1-1.81-.72,3.06,3.06,0,0,1-.64-2.11,3,3,0,0,1,.6-2A2.15,2.15,0,0,1,818.21,127.41Zm0,.7a1.56,1.56,0,0,0-1.07.33,1.73,1.73,0,0,0-.46,1.14h3.05a1.64,1.64,0,0,0-.44-1.09A1.43,1.43,0,0,0,818.21,128.11Zm3.77-.18a4.85,4.85,0,0,1,2.23-.52,2.3,2.3,0,0,1,1.63.48,2,2,0,0,1,.5,1.46v3.47h-.78v-3.47c0-.84-.48-1.25-1.42-1.25a4.67,4.67,0,0,0-1.39.22v4.5H822Zm7.74,5a1.25,1.25,0,0,1-1.35-1.37v-3.31h-.92v-.71h.92V126h.77v1.5h1.37v.71h-1.37v3.07a1.22,1.22,0,0,0,.15.69.67.67,0,0,0,.57.21,1.57,1.57,0,0,0,.65-.13v.72a1.43,1.43,0,0,1-.37.09Z"/><path d="M798.67,138.71v7.11h-.77V140l-2.58,3.62L792.89,140v5.85h-.77v-7.11H793l2.4,3.7,2.49-3.7Zm3.83,1.7a2,2,0,0,1,1.78.78,3.4,3.4,0,0,1,.55,2.09h-3.89a2.19,2.19,0,0,0,.45,1.49,1.65,1.65,0,0,0,1.28.5,3.45,3.45,0,0,0,1.81-.45v.78a4.18,4.18,0,0,1-1.85.37,2.34,2.34,0,0,1-1.82-.72,3.11,3.11,0,0,1-.64-2.11,3,3,0,0,1,.61-2A2.15,2.15,0,0,1,802.5,140.41Zm0,.7a1.59,1.59,0,0,0-1.08.33,1.73,1.73,0,0,0-.45,1.14h3a1.69,1.69,0,0,0-.44-1.09A1.43,1.43,0,0,0,802.5,141.11Zm5.44,4.78a1.37,1.37,0,0,1-1-.34,1.35,1.35,0,0,1-.37-1v-3.31h-.93v-.71h.93V139h.76v1.5h1.38v.71h-1.38v3.07a1.13,1.13,0,0,0,.16.69.65.65,0,0,0,.56.21,1.62,1.62,0,0,0,.66-.13v.72a1.52,1.52,0,0,1-.38.09Zm4.57-5.48A2,2,0,0,1,814,141a2.38,2.38,0,0,1,.53,1.69v3.16h-.78v-3.16a1.67,1.67,0,0,0-.35-1.14,1.26,1.26,0,0,0-1-.41,3.15,3.15,0,0,0-1.52.42v4.29h-.76v-7.68h.76v2.71a4,4,0,0,1,.81-.32A2.93,2.93,0,0,1,812.51,140.41Zm5.92,5.56a2.24,2.24,0,0,1-1.82-.72,3.14,3.14,0,0,1-.61-2.07,3,3,0,0,1,.61-2.07,2.71,2.71,0,0,1,3.67,0,3.67,3.67,0,0,1,0,4.1A2.28,2.28,0,0,1,818.43,146Zm0-.7c1.12,0,1.68-.7,1.68-2.09a2.59,2.59,0,0,0-.39-1.54,1.5,1.5,0,0,0-1.29-.53c-1.11,0-1.67.69-1.67,2.07S817.32,145.27,818.43,145.27Zm8.26-7v6.64c0,.37-.23.64-.69.82a4.3,4.3,0,0,1-1.5.26,2.6,2.6,0,0,1-1.72-.62,3,3,0,0,1-.72-2.27,2.87,2.87,0,0,1,.61-2,2.24,2.24,0,0,1,1.81-.72,3.26,3.26,0,0,1,.69.09,7.19,7.19,0,0,1,.73.22v-2.47Zm-.79,3.24a2.42,2.42,0,0,0-.68-.27,2.76,2.76,0,0,0-.74-.11,1.46,1.46,0,0,0-1.23.53,2.41,2.41,0,0,0-.39,1.44,3.1,3.1,0,0,0,.36,1.61,1.42,1.42,0,0,0,1.31.58,3,3,0,0,0,1-.13c.27-.08.4-.18.4-.31Z"/><path class="cls-5" d="M130.54,197h0a8,8,0,0,1,8-8h74.55a8,8,0,0,1,8,8V228.9a8,8,0,0,1-8,8H138.52a8,8,0,0,1-8-8Z"/><path class="cls-6" d="M130.54,197h0a8,8,0,0,1,8-8h74.55a8,8,0,0,1,8,8V228.9a8,8,0,0,1-8,8H138.52a8,8,0,0,1-8-8Z"/><path d="M170.81,214.45h-3.08l-.84,2.22h-.83l2.83-7.11h.76l2.83,7.11h-.83Zm-.3-.73-1.23-3.25L168,213.72Zm3.85,2.95h-.76v-7.11h2.53a2.6,2.6,0,0,1,1.81.57,2.4,2.4,0,0,1,0,3.26,2.6,2.6,0,0,1-1.81.56h-1.77Zm1.66-3.45a1.92,1.92,0,0,0,1.44-.41,1.51,1.51,0,0,0,.36-1,1.56,1.56,0,0,0-.36-1.07,1.92,1.92,0,0,0-1.44-.4h-1.66v2.92Zm4.87,3.45h-.76v-7.11h2.53a2.59,2.59,0,0,1,1.81.57,2.4,2.4,0,0,1,0,3.26,2.58,2.58,0,0,1-1.81.56h-1.77Zm1.66-3.45a1.92,1.92,0,0,0,1.44-.41,1.51,1.51,0,0,0,.36-1,1.56,1.56,0,0,0-.36-1.07,1.92,1.92,0,0,0-1.44-.4h-1.66v2.92Z"/><path class="cls-5" d="M645.19,197h0a8,8,0,0,1,8-8h74.55a8,8,0,0,1,8,8V228.9a8,8,0,0,1-8,8H653.17a8,8,0,0,1-8-8Z"/><path class="cls-6" d="M645.19,197h0a8,8,0,0,1,8-8h74.55a8,8,0,0,1,8,8V228.9a8,8,0,0,1-8,8H653.17a8,8,0,0,1-8-8Z"/><path d="M665.64,212.88a2.12,2.12,0,0,1,.84.65,1.68,1.68,0,0,1,.36,1.13,1.79,1.79,0,0,1-.67,1.53,3.25,3.25,0,0,1-1.91.48H661.7v-7.11h2.36c1.57,0,2.36.64,2.36,1.91a1.5,1.5,0,0,1-.17.78,2.61,2.61,0,0,1-.36.42Zm-3.17-.24h1.76a2,2,0,0,0,1-.22.91.91,0,0,0,.4-.89,1.12,1.12,0,0,0-.38-1,2.07,2.07,0,0,0-1.16-.26h-1.65Zm1.86,3.31a2.46,2.46,0,0,0,1.28-.28,1.14,1.14,0,0,0,.47-1.06,1,1,0,0,0-.49-1,2.92,2.92,0,0,0-1.29-.23h-1.83V216Zm6.28-4.68a2.1,2.1,0,0,1,1.41.43,1.56,1.56,0,0,1,.52,1.27v2.58a1,1,0,0,1-.63,1,5,5,0,0,1-1.73.25,2.74,2.74,0,0,1-1.46-.38,1.35,1.35,0,0,1-.59-1.23,1.7,1.7,0,0,1,.51-1.38,2.23,2.23,0,0,1,1.44-.43,3.31,3.31,0,0,1,1.67.36v-.63c0-.79-.46-1.19-1.39-1.19a3.3,3.3,0,0,0-.92.13,2.06,2.06,0,0,0-.8.39v-.77a2.81,2.81,0,0,1,.88-.31A5.06,5.06,0,0,1,670.61,211.27Zm-.26,4.89a3.89,3.89,0,0,0,1.08-.11.47.47,0,0,0,.32-.47v-1.19a2.63,2.63,0,0,0-.67-.22,4,4,0,0,0-.79-.08,1.72,1.72,0,0,0-1,.27.84.84,0,0,0-.36.73.89.89,0,0,0,.43.82A2.09,2.09,0,0,0,670.35,216.16Zm3.9-4.38a7.42,7.42,0,0,1,1.06-.34,5.32,5.32,0,0,1,1.38-.17,1.51,1.51,0,0,1,.34.06V212a4.07,4.07,0,0,0-.5,0,3.24,3.24,0,0,0-.65.05l-.86.14v4.51h-.77Zm9.33,5a2.32,2.32,0,0,1-2.49-2.75,2.34,2.34,0,0,1,2.49-2.73,4.37,4.37,0,0,1,1.58.29v.74a3.85,3.85,0,0,0-1.49-.3,1.8,1.8,0,0,0-1.39.48,2.26,2.26,0,0,0-.42,1.52,2.32,2.32,0,0,0,.42,1.55,1.84,1.84,0,0,0,1.39.47,3.71,3.71,0,0,0,1.49-.3v.75A4.42,4.42,0,0,1,683.58,216.75Zm5.4-5.48a1.93,1.93,0,0,1,1.51.56,2.32,2.32,0,0,1,.53,1.69v3.15h-.78v-3.15a1.67,1.67,0,0,0-.34-1.14,1.24,1.24,0,0,0-1-.41,3.11,3.11,0,0,0-1.51.42v4.28h-.77V209h.77v2.7a4,4,0,0,1,.81-.31A2.93,2.93,0,0,1,689,211.27Zm5.81,0a2,2,0,0,1,1.78.78,3.4,3.4,0,0,1,.55,2.09h-3.89a2.21,2.21,0,0,0,.45,1.49,1.65,1.65,0,0,0,1.28.5,3.49,3.49,0,0,0,1.82-.46v.78a4.19,4.19,0,0,1-1.86.38,2.35,2.35,0,0,1-1.82-.72,3.11,3.11,0,0,1-.64-2.11,3,3,0,0,1,.61-2A2.15,2.15,0,0,1,694.79,211.27Zm0,.7a1.59,1.59,0,0,0-1.08.33,1.73,1.73,0,0,0-.45,1.14h3a1.67,1.67,0,0,0-.44-1.1A1.43,1.43,0,0,0,694.79,212Zm6,4.78a2.32,2.32,0,0,1-2.49-2.75,2.34,2.34,0,0,1,2.49-2.73,4.41,4.41,0,0,1,1.58.29v.74a3.85,3.85,0,0,0-1.49-.3,1.8,1.8,0,0,0-1.39.48,2.26,2.26,0,0,0-.42,1.52,2.32,2.32,0,0,0,.42,1.55,1.84,1.84,0,0,0,1.39.47,3.71,3.71,0,0,0,1.49-.3v.75A4.42,4.42,0,0,1,700.78,216.75Zm6.27-.08-2.48-2.51v2.51h-.77v-7.34h.77v4l2.15-2h1l-2.61,2.3,3,3Zm5.29-7.11h.84v.85h-.84Zm0,1.8h.76v5.31h-.76Zm2.52.42a5,5,0,0,1,2.24-.51,2.27,2.27,0,0,1,1.62.48,1.91,1.91,0,0,1,.5,1.45v3.47h-.78V213.2c0-.83-.47-1.25-1.42-1.25a5.08,5.08,0,0,0-1.39.22v4.5h-.77Z"/><path class="cls-5" d="M495.39,212.93c37.45,0,56.17,0,74.9,0s37.45,0,74.9,0"/><path class="cls-7" d="M495.39,212.93c37.45,0,56.17,0,74.9,0l30.43,0h36.89"/><path class="cls-8" d="M644.19,213a3.29,3.29,0,1,1-3.29-3.29A3.3,3.3,0,0,1,644.19,213Z"/><path class="cls-5" d="M495.39,212.93c6.66,0,10-19.34,13.32-38.68s6.66-38.67,13.33-38.67"/><path class="cls-10" d="M495.39,212.93c6.66,0,10-19.34,13.32-38.68,1.67-9.66,3.33-19.33,5.42-26.59.52-1.81,1.06-3.47,1.64-4.94.15-.37.29-.73.44-1.07l.23-.51.14-.3"/><path class="cls-8" d="M521.32,136.27a3.29,3.29,0,1,1-4.66-.08A3.29,3.29,0,0,1,521.32,136.27Z"/><path class="cls-5" d="M612.56,135.58c37.88,0,56.83,0,75.77,0s37.89,0,75.78,0"/><path class="cls-7" d="M612.56,135.58c37.88,0,56.83,0,75.77,0l30.79,0h37.41"/><path class="cls-8" d="M763.11,135.64a3.29,3.29,0,1,1-3.28-3.29A3.29,3.29,0,0,1,763.11,135.64Z"/><path class="cls-5" d="M854.63,135.58c11.72,0,17.58,38.23,23.44,76.47s11.71,76.47,23.43,76.47"/><path class="cls-10" d="M854.63,135.58c11.72,0,17.58,38.23,23.44,76.47,2.93,19.12,5.86,38.23,9.52,52.57,1.83,7.17,3.84,13.15,6.13,17.33.29.52.58,1,.87,1.48l.45.68.15.21"/><path class="cls-8" d="M900.67,288a3.29,3.29,0,1,1-.92-4.56A3.3,3.3,0,0,1,900.67,288Z"/><path class="cls-5" d="M612.56,288.51c21,0,31.54,0,42.05,0s21,0,42,0"/><path class="cls-7" d="M612.56,288.51c21,0,31.54,0,42.05,0l17.08,0h17.38"/><path class="cls-8" d="M695.65,288.57a3.29,3.29,0,1,1-3.29-3.29A3.29,3.29,0,0,1,695.65,288.57Z"/><path class="cls-5" d="M267.7,352.82h0a8,8,0,0,1,8-8h74.55a8,8,0,0,1,8,8v31.93a8,8,0,0,1-8,8H275.69a8,8,0,0,1-8-8Z"/><path class="cls-7" d="M267.7,352.82h0a8,8,0,0,1,8-8h74.55a8,8,0,0,1,8,8v31.93a8,8,0,0,1-8,8H275.69a8,8,0,0,1-8-8Z"/><path d="M285.74,358.92h4.36v.72h-3.59v2.45h3.15v.75h-3.15V366h-.77Zm5.7,2.22a6.88,6.88,0,0,1,1.06-.35,5.79,5.79,0,0,1,1.38-.17,1.61,1.61,0,0,1,.34.06v.67a4.19,4.19,0,0,0-.5,0,4.43,4.43,0,0,0-.66.05l-.86.14V366h-.76Zm4-2.22h.84v.84h-.84Zm0,1.79h.76V366h-.76Zm4.59-.09a2.05,2.05,0,0,1,1.78.78,3.47,3.47,0,0,1,.54,2.09h-3.89A2.14,2.14,0,0,0,299,365a1.63,1.63,0,0,0,1.28.5,3.45,3.45,0,0,0,1.81-.45v.78a4.2,4.2,0,0,1-1.86.37,2.33,2.33,0,0,1-1.81-.72,3.06,3.06,0,0,1-.64-2.11,3,3,0,0,1,.61-2A2.14,2.14,0,0,1,300.08,360.62Zm0,.7a1.59,1.59,0,0,0-1.08.33,1.78,1.78,0,0,0-.46,1.14h3a1.64,1.64,0,0,0-.44-1.09A1.42,1.42,0,0,0,300.08,361.32Zm3.76-.18a4.86,4.86,0,0,1,2.24-.52,2.27,2.27,0,0,1,1.62.48,2,2,0,0,1,.5,1.46V366h-.78v-3.47c0-.84-.47-1.25-1.42-1.25a4.72,4.72,0,0,0-1.39.22V366h-.77Zm10.42-2.68v6.64c0,.37-.22.64-.68.82a4.3,4.3,0,0,1-1.5.26,2.6,2.6,0,0,1-1.72-.62,3,3,0,0,1-.72-2.27,2.87,2.87,0,0,1,.61-2,2.24,2.24,0,0,1,1.81-.72,3.26,3.26,0,0,1,.69.09c.27.07.51.14.73.22v-2.47Zm-.78,3.24a2.54,2.54,0,0,0-.68-.27,2.76,2.76,0,0,0-.74-.11,1.46,1.46,0,0,0-1.23.53,2.41,2.41,0,0,0-.39,1.44,3.07,3.07,0,0,0,.36,1.61,1.42,1.42,0,0,0,1.31.58,3,3,0,0,0,1-.13c.27-.08.4-.18.4-.31Zm4,4.48a3.23,3.23,0,0,1-.94-.11,3.75,3.75,0,0,1-.83-.33v-.81a5.46,5.46,0,0,0,.88.44,2.93,2.93,0,0,0,.83.11,1.43,1.43,0,0,0,.86-.24.7.7,0,0,0,.34-.6.6.6,0,0,0-.2-.49,2.54,2.54,0,0,0-.63-.34l-.28-.11c-.41-.12-.72-.22-.95-.31A1.63,1.63,0,0,1,316,363a1.21,1.21,0,0,1-.25-.81,1.35,1.35,0,0,1,.26-.85,1.58,1.58,0,0,1,.69-.5,2.58,2.58,0,0,1,.91-.17,2.33,2.33,0,0,1,.7.09c.2.07.47.17.81.32v.76a5.71,5.71,0,0,0-.81-.36,1.92,1.92,0,0,0-.67-.11,1.66,1.66,0,0,0-.8.19.55.55,0,0,0-.33.52.69.69,0,0,0,.16.45,1.54,1.54,0,0,0,.42.28c.17.06.39.14.67.22a7,7,0,0,1,.86.31,1.53,1.53,0,0,1,.55.44,1.26,1.26,0,0,1,.23.81,1.46,1.46,0,0,1-.28.92,1.55,1.55,0,0,1-.72.55A2.52,2.52,0,0,1,317.47,366.18Zm8.71-5.56a2.11,2.11,0,0,1,1.41.44,1.54,1.54,0,0,1,.52,1.26v2.58a1,1,0,0,1-.63,1,4.73,4.73,0,0,1-1.73.25,2.73,2.73,0,0,1-1.46-.37,1.36,1.36,0,0,1-.59-1.24,1.65,1.65,0,0,1,.52-1.37,2.18,2.18,0,0,1,1.43-.44,3.31,3.31,0,0,1,1.67.36v-.63c0-.79-.46-1.18-1.39-1.18a3.69,3.69,0,0,0-.92.12,2.25,2.25,0,0,0-.79.39v-.76a2.65,2.65,0,0,1,.87-.32A5.06,5.06,0,0,1,326.18,360.62Zm-.26,4.89a3.89,3.89,0,0,0,1.08-.11.45.45,0,0,0,.32-.47v-1.19a2.65,2.65,0,0,0-.67-.21,3.36,3.36,0,0,0-.79-.08,1.79,1.79,0,0,0-1,.26.84.84,0,0,0-.35.74.88.88,0,0,0,.42.81A2,2,0,0,0,325.92,365.51Zm3.9-4.37a4.86,4.86,0,0,1,2.24-.52,2.27,2.27,0,0,1,1.62.48,2,2,0,0,1,.5,1.46V366h-.78v-3.47c0-.84-.47-1.25-1.42-1.25a4.72,4.72,0,0,0-1.39.22V366h-.77Zm10.42-2.68v6.64c0,.37-.22.64-.68.82a4.3,4.3,0,0,1-1.5.26,2.6,2.6,0,0,1-1.72-.62,3,3,0,0,1-.72-2.27,2.87,2.87,0,0,1,.61-2,2.24,2.24,0,0,1,1.81-.72,3.26,3.26,0,0,1,.69.09c.27.07.51.14.73.22v-2.47Zm-.78,3.24a2.42,2.42,0,0,0-.68-.27,2.76,2.76,0,0,0-.74-.11,1.46,1.46,0,0,0-1.23.53,2.41,2.41,0,0,0-.39,1.44,3.07,3.07,0,0,0,.36,1.61,1.42,1.42,0,0,0,1.31.58,3,3,0,0,0,1-.13c.27-.08.4-.18.4-.31Z"/><path d="M288.88,379.1a3.2,3.2,0,0,1-2.47-.9,4.06,4.06,0,0,1-.81-2.74,4,4,0,0,1,.81-2.72,3.17,3.17,0,0,1,2.47-.92,4.9,4.9,0,0,1,2.17.52v.73a4.4,4.4,0,0,0-2.08-.53,2.51,2.51,0,0,0-2,.7,3.33,3.33,0,0,0-.61,2.22,3.37,3.37,0,0,0,.61,2.24,2.48,2.48,0,0,0,2,.69,4.34,4.34,0,0,0,2.08-.52v.73A5.08,5.08,0,0,1,288.88,379.1Zm5.78.08a2.24,2.24,0,0,1-1.82-.72,3.14,3.14,0,0,1-.61-2.07,3,3,0,0,1,.61-2.07,2.71,2.71,0,0,1,3.67,0,3.67,3.67,0,0,1,0,4.1A2.28,2.28,0,0,1,294.66,379.18Zm0-.7c1.12,0,1.68-.7,1.68-2.09a2.59,2.59,0,0,0-.39-1.54,1.5,1.5,0,0,0-1.29-.53c-1.11,0-1.67.69-1.67,2.07S293.55,378.48,294.66,378.48Zm9.49-4.86a2.26,2.26,0,0,1,1.61.48,2,2,0,0,1,.5,1.46V379h-.77v-3.47c0-.84-.48-1.25-1.43-1.25a2.52,2.52,0,0,0-1.29.36,2.37,2.37,0,0,1,.15.89V379h-.79v-3.47c0-.84-.47-1.25-1.42-1.25a4.72,4.72,0,0,0-1.39.22V379h-.76v-4.89a4.82,4.82,0,0,1,2.23-.52,2.36,2.36,0,0,1,1.56.44A3.69,3.69,0,0,1,304.15,373.62Zm9.41,0a2.26,2.26,0,0,1,1.61.48,2,2,0,0,1,.5,1.46V379h-.77v-3.47c0-.84-.48-1.25-1.43-1.25a2.52,2.52,0,0,0-1.29.36,2.37,2.37,0,0,1,.15.89V379h-.79v-3.47c0-.84-.47-1.25-1.42-1.25a4.72,4.72,0,0,0-1.39.22V379H308v-4.89a4.82,4.82,0,0,1,2.23-.52,2.36,2.36,0,0,1,1.56.44A3.69,3.69,0,0,1,313.56,373.62Zm6,5.56a2.33,2.33,0,0,1-1.64-.54,2.09,2.09,0,0,1-.57-1.57v-3.36h.76v3.19a1.83,1.83,0,0,0,.34,1.2,1.81,1.81,0,0,0,2.22,0,1.72,1.72,0,0,0,.36-1.2v-3.19h.77v3.36a2,2,0,0,1-.6,1.57A2.3,2.3,0,0,1,319.59,379.18Zm3.94-5a4.89,4.89,0,0,1,2.24-.52,2.27,2.27,0,0,1,1.62.48,1.93,1.93,0,0,1,.5,1.46V379h-.78v-3.47c0-.84-.47-1.25-1.42-1.25a4.72,4.72,0,0,0-1.39.22V379h-.77Zm6.07-2.22h.84v.84h-.84Zm0,1.79h.76V379h-.76Zm4.2,5.39a1.25,1.25,0,0,1-1.35-1.37v-3.31h-.92v-.71h.92v-1.5h.77v1.5h1.37v.71h-1.37v3.07a1.13,1.13,0,0,0,.16.69.65.65,0,0,0,.56.21,1.53,1.53,0,0,0,.65-.13V379a1.33,1.33,0,0,1-.37.09Zm6.71-5.39-2.28,5.83a2.73,2.73,0,0,1-.77,1.2,1.44,1.44,0,0,1-.9.35,1.25,1.25,0,0,1-.5-.11v-.7a1,1,0,0,0,.47.11.82.82,0,0,0,.7-.35,3,3,0,0,0,.48-1l-2.2-5.33h.87L338.1,378l1.67-4.33Z"/><path class="cls-5" d="M735.71,212.93c41.45,0,62.17,18.9,82.9,37.8s41.45,37.79,82.89,37.79"/><path class="cls-7" d="M735.71,212.93c41.45,0,62.17,18.9,82.9,37.8,10.36,9.45,20.72,18.89,33.67,26a92.3,92.3,0,0,0,21.7,8.56,99.7,99.7,0,0,0,12.91,2.4c1.14.14,2.31.26,3.49.37l1.78.15.9.06.87.05"/><path class="cls-8" d="M900.5,288.49a3.29,3.29,0,1,1-3.19-3.38A3.29,3.29,0,0,1,900.5,288.49Z"/><path class="cls-11" d="M26.22,174.54h1486"/><path class="cls-11" d="M26.22,250.28h1486"/><path class="cls-11" d="M26.22,326.74h1486"/><path class="cls-11" d="M26.22,96.62h1486"/><path class="cls-5" d="M19.66,175.59v-79H46.43v79Z"/><path class="cls-12" d="M36.68,160.62v3.08l2.22.84v.83l-7.11-2.83v-.76L38.9,159v.83Zm-.73.3-3.25,1.23L36,163.4Zm3-6.06a3.15,3.15,0,0,1-.91,2.47,4,4,0,0,1-2.73.81,4,4,0,0,1-2.72-.81,3.16,3.16,0,0,1-.92-2.47,5,5,0,0,1,.51-2.17H33a4.32,4.32,0,0,0-.53,2.08,2.52,2.52,0,0,0,.7,2,3.38,3.38,0,0,0,2.22.61,3.4,3.4,0,0,0,2.23-.61,2.52,2.52,0,0,0,.69-2,4.36,4.36,0,0,0-.51-2.08h.73A5.23,5.23,0,0,1,39,154.86Zm0-6.63a3.15,3.15,0,0,1-.91,2.47,4,4,0,0,1-2.73.81,4,4,0,0,1-2.72-.81,3.16,3.16,0,0,1-.92-2.47,5,5,0,0,1,.51-2.17H33a4.32,4.32,0,0,0-.53,2.08,2.5,2.5,0,0,0,.7,2,3.38,3.38,0,0,0,2.22.61,3.4,3.4,0,0,0,2.23-.61,2.51,2.51,0,0,0,.69-2,4.36,4.36,0,0,0-.51-2.08h.73A5.23,5.23,0,0,1,39,148.23Zm0-6.58a3,3,0,0,1-.92,2.39,4.11,4.11,0,0,1-2.74.8,4.08,4.08,0,0,1-2.73-.8,3,3,0,0,1-.92-2.39,3,3,0,0,1,.92-2.37,4,4,0,0,1,2.73-.82,4.06,4.06,0,0,1,2.74.82A3,3,0,0,1,39,141.65Zm-.73,0a2.25,2.25,0,0,0-.71-1.83,3.52,3.52,0,0,0-2.22-.57,3.46,3.46,0,0,0-2.21.57,2.69,2.69,0,0,0,0,3.66,3.4,3.4,0,0,0,2.21.58,3.45,3.45,0,0,0,2.22-.58A2.23,2.23,0,0,0,38.28,141.65Zm.73-7.52a2.68,2.68,0,0,1-.78,2.06,3.18,3.18,0,0,1-2.23.72H31.79v-.76H36c1.49,0,2.24-.68,2.24-2s-.75-2-2.24-2H31.79v-.75H36a3.14,3.14,0,0,1,2.23.73A2.66,2.66,0,0,1,39,134.13Zm-7.22-10.47H38.9v.86l-6,4.25h6v.77H31.79v-.88l6-4.23h-6Zm.72-3.64v2.51h-.72v-5.78h.72v2.5H38.9V120Zm6.39-12-.78.64a4.07,4.07,0,0,1,.63.94,2.72,2.72,0,0,1,.23,1.08,2.22,2.22,0,0,1-.33,1.25,2,2,0,0,1-.8.73,2,2,0,0,1-.9.24,2.17,2.17,0,0,1-1.13-.33,3.1,3.1,0,0,1-1-1.11,2.49,2.49,0,0,1-1.47.7,1.53,1.53,0,0,1-.79-.21,1.75,1.75,0,0,1-.6-.58,1.64,1.64,0,0,1-.22-.81,1.59,1.59,0,0,1,.22-.82,1.54,1.54,0,0,1,.57-.59,1.43,1.43,0,0,1,.79-.22,1.33,1.33,0,0,1,.92.34,4.42,4.42,0,0,1,.79,1l1.92-1.63a5.2,5.2,0,0,0-1.11-.42v-.69a5.34,5.34,0,0,1,.83.24,4,4,0,0,1,.84.4L38.9,107Zm-6.42,2.52a.84.84,0,0,0,.25.62.82.82,0,0,0,.61.25,1.28,1.28,0,0,0,.55-.21c.22-.16.44-.33.64-.5a2.47,2.47,0,0,0-.61-.83,1,1,0,0,0-.63-.22.77.77,0,0,0-.58.26A.92.92,0,0,0,32.48,110.51Zm5.77.11a1.86,1.86,0,0,0-.19-.81,3.58,3.58,0,0,0-.49-.71L35.34,111a2.42,2.42,0,0,0,.81.9,1.53,1.53,0,0,0,.77.24,1.45,1.45,0,0,0,.56-.13,1.42,1.42,0,0,0,.53-.46A1.58,1.58,0,0,0,38.25,110.62Z"/><path class="cls-12" d="M52,152.67a4.05,4.05,0,0,1-.14,1.17,6.75,6.75,0,0,1-.47,1.07h-.83a3.44,3.44,0,0,0,.53-1,3.81,3.81,0,0,0,.21-1.3,1.73,1.73,0,0,0-.33-1.16,1.12,1.12,0,0,0-.91-.39,1,1,0,0,0-.67.24,1.51,1.51,0,0,0-.44.53c-.1.2-.23.5-.39.92a6.31,6.31,0,0,1-.42,1.05,1.87,1.87,0,0,1-.59.67,1.82,1.82,0,0,1-1.05.26,1.79,1.79,0,0,1-.84-.2,1.76,1.76,0,0,1-.71-.7,2.65,2.65,0,0,1-.28-1.27,3.15,3.15,0,0,1,.11-.9,8.43,8.43,0,0,1,.39-1H46l-.23.41a2.05,2.05,0,0,0-.27.67,3,3,0,0,0-.09.75,1.64,1.64,0,0,0,.31,1.1,1,1,0,0,0,.75.34,1.15,1.15,0,0,0,.69-.19,1.34,1.34,0,0,0,.4-.5,6.17,6.17,0,0,0,.36-.89,6.61,6.61,0,0,1,.44-1.08,2,2,0,0,1,.62-.72,1.71,1.71,0,0,1,1-.31,2,2,0,0,1,1.43.56A2.42,2.42,0,0,1,52,152.67Zm-3.37-6.54H51.9v.77H48.64l-3.85,2.65v-.93l3.11-2.1-3.11-2.11v-.92ZM52,140.38a4.18,4.18,0,0,1-.14,1.18,6.7,6.7,0,0,1-.47,1.06h-.83a3.3,3.3,0,0,0,.53-1,3.81,3.81,0,0,0,.21-1.3A1.7,1.7,0,0,0,51,139.2a1.12,1.12,0,0,0-.91-.39,1,1,0,0,0-.67.23,1.6,1.6,0,0,0-.44.53c-.1.2-.23.51-.39.92a6.31,6.31,0,0,1-.42,1,1.79,1.79,0,0,1-.59.67,1.82,1.82,0,0,1-1.05.27,1.92,1.92,0,0,1-.84-.2,1.86,1.86,0,0,1-.71-.71,2.61,2.61,0,0,1-.28-1.26,3.18,3.18,0,0,1,.11-.91,7.72,7.72,0,0,1,.39-1H46c0,.05-.11.18-.23.4a2.1,2.1,0,0,0-.27.68,2.86,2.86,0,0,0-.09.75,1.63,1.63,0,0,0,.31,1.09,1,1,0,0,0,.75.34,1.22,1.22,0,0,0,.69-.18,1.53,1.53,0,0,0,.4-.5,6.38,6.38,0,0,0,.36-.9,6.84,6.84,0,0,1,.44-1.07,2,2,0,0,1,.62-.72,1.65,1.65,0,0,1,1-.31,2,2,0,0,1,1.43.56A2.38,2.38,0,0,1,52,140.38Zm-6.5-5.72v2.51h-.72v-5.78h.72v2.5H51.9v.77Zm-.72-4.39v-4.48h.72v3.72H48v-3.27h.75v3.27h2.47v-3.72h.72v4.48Zm0-12.74H51.9v.77H46l3.63,2.58-3.61,2.44H51.9v.76H44.79v-.83l3.71-2.4-3.71-2.49Z"/><path class="cls-5" d="M19.66,328V249H46.43v79Z"/><path class="cls-12" d="M32.51,303.57v2.51h-.72V300.3h.72v2.5H38.9v.77Zm4.17-8.45v3.08l2.22.84v.83L31.79,297v-.76l7.11-2.83v.83Zm-.73.3-3.25,1.23L36,297.9Zm-.85-7a2.25,2.25,0,0,1,.66-.84,1.68,1.68,0,0,1,1.13-.36,1.79,1.79,0,0,1,1.53.67,3.25,3.25,0,0,1,.48,1.91v2.56H31.79V290c0-1.57.64-2.36,1.91-2.36a1.5,1.5,0,0,1,.78.17,2.61,2.61,0,0,1,.42.36Zm-.23,3.17V289.8a2,2,0,0,0-.22-1,.92.92,0,0,0-.89-.39,1.11,1.11,0,0,0-1,.37,2,2,0,0,0-.26,1.16v1.65Zm3.31-1.86a2.48,2.48,0,0,0-.28-1.28,1.14,1.14,0,0,0-1.06-.47,1,1,0,0,0-1,.49,2.93,2.93,0,0,0-.24,1.3v1.82h2.58Zm.83-6.08a4.05,4.05,0,0,1-.14,1.17,6.38,6.38,0,0,1-.47,1.07h-.83a3.44,3.44,0,0,0,.53-1,3.81,3.81,0,0,0,.21-1.3,1.73,1.73,0,0,0-.33-1.16,1.12,1.12,0,0,0-.91-.39,1,1,0,0,0-.67.24,1.51,1.51,0,0,0-.44.53c-.1.2-.23.5-.39.92a6.31,6.31,0,0,1-.42,1,1.87,1.87,0,0,1-.59.67,2,2,0,0,1-1.89.06,1.76,1.76,0,0,1-.71-.7,2.65,2.65,0,0,1-.28-1.27,3.15,3.15,0,0,1,.11-.9,8.43,8.43,0,0,1,.39-1H33l-.23.41a2.05,2.05,0,0,0-.27.67,3,3,0,0,0-.09.75,1.64,1.64,0,0,0,.31,1.1,1,1,0,0,0,.75.34,1.15,1.15,0,0,0,.69-.19,1.34,1.34,0,0,0,.4-.5,6.17,6.17,0,0,0,.36-.89,6.61,6.61,0,0,1,.44-1.08,2,2,0,0,1,.62-.72,1.71,1.71,0,0,1,1-.31,2,2,0,0,1,1.43.56A2.42,2.42,0,0,1,39,283.62Zm-.11-11.53-.78.64a3.81,3.81,0,0,1,.63.93,2.72,2.72,0,0,1,.23,1.08,2.22,2.22,0,0,1-.33,1.25,2,2,0,0,1-.8.74,2.14,2.14,0,0,1-.9.23,2.17,2.17,0,0,1-1.13-.33,3.1,3.1,0,0,1-1-1.11,2.52,2.52,0,0,1-1.47.71,1.54,1.54,0,0,1-.79-.22,1.75,1.75,0,0,1-.6-.58,1.64,1.64,0,0,1-.22-.81,1.59,1.59,0,0,1,.22-.82,1.61,1.61,0,0,1,.57-.59,1.43,1.43,0,0,1,.79-.22,1.34,1.34,0,0,1,.92.35,4.13,4.13,0,0,1,.79,1l1.92-1.63a6.55,6.55,0,0,0-1.11-.42v-.69a5.34,5.34,0,0,1,.83.24,4.61,4.61,0,0,1,.84.4l1.42-1.18Zm-6.42,2.51a.88.88,0,0,0,.25.63.86.86,0,0,0,.61.25,1.33,1.33,0,0,0,.55-.22c.22-.16.44-.33.64-.5a2.47,2.47,0,0,0-.61-.83,1,1,0,0,0-.63-.22.74.74,0,0,0-.58.27A.88.88,0,0,0,32.48,274.6Zm5.77.11a1.86,1.86,0,0,0-.19-.81,3.24,3.24,0,0,0-.49-.7l-2.23,1.87a2.55,2.55,0,0,0,.81.91,1.39,1.39,0,0,0,1.33.11,1.46,1.46,0,0,0,.53-.47A1.56,1.56,0,0,0,38.25,274.71Z"/><path class="cls-12" d="M51.9,306.65,49,308.51v1.81H51.9v.77H44.79v-2.92a2.12,2.12,0,0,1,.53-1.56,2,2,0,0,1,1.53-.54,2.23,2.23,0,0,1,1.4.44,1.92,1.92,0,0,1,.7,1.17l2.95-1.93Zm-3.59,3.67v-1.79a1.94,1.94,0,0,0-.35-1.28,1.31,1.31,0,0,0-1-.41,1.5,1.5,0,0,0-1.05.33,1.39,1.39,0,0,0-.36,1.09v2.06Zm-3.52-5.95v-4.49h.72v3.72H48v-3.27h.75v3.27h2.47v-3.72h.72v4.49ZM52,295.21a3.14,3.14,0,0,1-.91,2.46,4,4,0,0,1-2.73.82,3.92,3.92,0,0,1-2.72-.82,3.15,3.15,0,0,1-.92-2.46,5.07,5.07,0,0,1,.51-2.18H46a4.32,4.32,0,0,0-.53,2.08,2.5,2.5,0,0,0,.7,2,3.33,3.33,0,0,0,2.22.61,3.34,3.34,0,0,0,2.23-.61,2.51,2.51,0,0,0,.69-2,4.36,4.36,0,0,0-.51-2.08h.73A5.28,5.28,0,0,1,52,295.21Zm-7.19-3.66v-4.49h.72v3.72H48v-3.27h.75v3.27h2.47v-3.72h.72v4.49Zm0-6.2v-.76H51.9v.76ZM51.9,282v.77H44.79v-2.54a2.65,2.65,0,0,1,.56-1.81,2.12,2.12,0,0,1,1.65-.64,2.06,2.06,0,0,1,1.62.64,2.6,2.6,0,0,1,.56,1.81V282Zm-3.45-1.66a1.91,1.91,0,0,0-.41-1.43,1.51,1.51,0,0,0-1-.36,1.56,1.56,0,0,0-1.07.36,1.91,1.91,0,0,0-.4,1.43V282h2.92Zm-2.94-5.93v2.51h-.72v-5.78h.72v2.5H51.9v.77ZM52,268a4.1,4.1,0,0,1-.14,1.17,6.7,6.7,0,0,1-.47,1.06h-.83a3.3,3.3,0,0,0,.53-1,3.77,3.77,0,0,0,.21-1.3,1.7,1.7,0,0,0-.33-1.15,1.12,1.12,0,0,0-.91-.39,1,1,0,0,0-.67.23,1.6,1.6,0,0,0-.44.53c-.1.2-.23.51-.39.92a6.31,6.31,0,0,1-.42,1.05,1.79,1.79,0,0,1-.59.67,1.82,1.82,0,0,1-1.05.27,1.92,1.92,0,0,1-.84-.2,1.79,1.79,0,0,1-.71-.71,2.61,2.61,0,0,1-.28-1.26,3.18,3.18,0,0,1,.11-.91,7.72,7.72,0,0,1,.39-.95H46l-.23.4a2.1,2.1,0,0,0-.27.68,3,3,0,0,0-.09.75A1.61,1.61,0,0,0,45.7,269a1,1,0,0,0,.75.34,1.22,1.22,0,0,0,.69-.18,1.53,1.53,0,0,0,.4-.5,6.69,6.69,0,0,0,.36-.89,6.61,6.61,0,0,1,.44-1.08A2,2,0,0,1,49,266a1.65,1.65,0,0,1,1-.31,2,2,0,0,1,1.43.56A2.39,2.39,0,0,1,52,268Z"/><path class="cls-5" d="M19.66,251.16v-79H46.43v79Z"/><path class="cls-12" d="M35.1,224.88a2.25,2.25,0,0,1,.66-.84,1.68,1.68,0,0,1,1.13-.36,1.79,1.79,0,0,1,1.53.67,3.25,3.25,0,0,1,.48,1.91v2.56H31.79v-2.36c0-1.57.64-2.36,1.91-2.36a1.5,1.5,0,0,1,.78.17,2.61,2.61,0,0,1,.42.36Zm-.23,3.17v-1.76a2,2,0,0,0-.22-1,.92.92,0,0,0-.89-.39,1.11,1.11,0,0,0-1,.37,2,2,0,0,0-.26,1.16v1.65Zm3.31-1.86a2.48,2.48,0,0,0-.28-1.28,1.14,1.14,0,0,0-1.06-.47,1,1,0,0,0-1,.49,2.93,2.93,0,0,0-.24,1.3v1.82h2.58Zm-1.5-8.13v3.08l2.22.85v.82L31.79,220v-.77l7.11-2.83v.83Zm-.73.3L32.7,219.6,36,220.85Zm2.95-7.52L36,212.7v1.81H38.9v.76H31.79v-2.92a2.13,2.13,0,0,1,.53-1.56,2.07,2.07,0,0,1,1.53-.53,2.23,2.23,0,0,1,1.4.44,1.92,1.92,0,0,1,.7,1.17l2.95-1.94Zm-3.59,3.67v-1.8a2,2,0,0,0-.35-1.28,1.31,1.31,0,0,0-1-.41,1.5,1.5,0,0,0-1.05.33,1.41,1.41,0,0,0-.36,1.1v2.06Zm3.7-8a4.1,4.1,0,0,1-.14,1.17,6.7,6.7,0,0,1-.47,1.06h-.83a3.3,3.3,0,0,0,.53-1,3.77,3.77,0,0,0,.21-1.3,1.7,1.7,0,0,0-.33-1.15,1.12,1.12,0,0,0-.91-.39,1,1,0,0,0-.67.23,1.6,1.6,0,0,0-.44.53c-.1.2-.23.51-.39.92a6.31,6.31,0,0,1-.42,1.05,1.79,1.79,0,0,1-.59.67,1.82,1.82,0,0,1-1.05.27,1.92,1.92,0,0,1-.84-.2,1.79,1.79,0,0,1-.71-.71,2.61,2.61,0,0,1-.28-1.26,3.18,3.18,0,0,1,.11-.91,7.72,7.72,0,0,1,.39-1H33l-.23.4a2.1,2.1,0,0,0-.27.68,2.86,2.86,0,0,0-.09.75,1.61,1.61,0,0,0,.31,1.09,1,1,0,0,0,.75.34,1.22,1.22,0,0,0,.69-.18,1.53,1.53,0,0,0,.4-.5,6.69,6.69,0,0,0,.36-.89,6.61,6.61,0,0,1,.44-1.08,2,2,0,0,1,.62-.72,1.65,1.65,0,0,1,1-.31,2,2,0,0,1,1.43.56A2.39,2.39,0,0,1,39,206.54ZM38.9,195l-.78.64a3.68,3.68,0,0,1,.63.94,2.65,2.65,0,0,1,.23,1.08,2.24,2.24,0,0,1-.33,1.25,2.06,2.06,0,0,1-.8.73,2,2,0,0,1-.9.23,2.25,2.25,0,0,1-1.13-.32,3.1,3.1,0,0,1-1-1.11,2.49,2.49,0,0,1-1.47.7,1.45,1.45,0,0,1-.79-.22,1.67,1.67,0,0,1-.6-.58,1.64,1.64,0,0,1-.22-.81,1.58,1.58,0,0,1,.22-.81,1.64,1.64,0,0,1,.57-.6,1.51,1.51,0,0,1,.79-.21,1.33,1.33,0,0,1,.92.34,4.33,4.33,0,0,1,.79,1l1.92-1.62a5.73,5.73,0,0,0-1.11-.43v-.68a6.59,6.59,0,0,1,.83.23,4.08,4.08,0,0,1,.84.41L38.9,194Zm-6.42,2.51a.88.88,0,0,0,.25.63.82.82,0,0,0,.61.25,1.2,1.2,0,0,0,.55-.22,7.84,7.84,0,0,0,.64-.5,2.59,2.59,0,0,0-.61-.83,1.09,1.09,0,0,0-.63-.22.74.74,0,0,0-.58.27A.9.9,0,0,0,32.48,197.51Zm5.77.11a1.86,1.86,0,0,0-.19-.81,3.51,3.51,0,0,0-.49-.7L35.34,198a2.55,2.55,0,0,0,.81.91,1.51,1.51,0,0,0,.77.23,1.61,1.61,0,0,0,.56-.12,1.37,1.37,0,0,0,.53-.47A1.56,1.56,0,0,0,38.25,197.62Z"/><path class="cls-12" d="M44.79,229.05v-2.24a3.24,3.24,0,0,1,.89-2.48,3.76,3.76,0,0,1,2.66-.84q3.55,0,3.56,3.32v2.24Zm6.39-2.17a2.6,2.6,0,0,0-.68-2,3.18,3.18,0,0,0-2.16-.62,3.11,3.11,0,0,0-2.14.62,2.57,2.57,0,0,0-.69,2v1.4h5.67Zm.72-9.38L49,219.36v1.81H51.9v.77H44.79V219a2.12,2.12,0,0,1,.53-1.56,2,2,0,0,1,1.53-.54,2.23,2.23,0,0,1,1.4.44,1.92,1.92,0,0,1,.7,1.17l2.95-1.93Zm-3.59,3.67v-1.79A1.94,1.94,0,0,0,48,218.1a1.31,1.31,0,0,0-1-.41,1.5,1.5,0,0,0-1.05.33,1.39,1.39,0,0,0-.36,1.09v2.06Zm-3.52-5.95v-.77H51.9v.77Zm0-8.46H51.9v.86l-6,4.25h6v.77H44.79v-.88l6-4.23h-6Zm3.91-3.35.84.77H51.9v.76H44.79v-.76h3.74l-3.74-3.38v-1l3.33,3,3.78-3.3v1.07Zm3.31-7a4.05,4.05,0,0,1-.14,1.17,6.7,6.7,0,0,1-.47,1.06h-.83a3.3,3.3,0,0,0,.53-1,3.77,3.77,0,0,0,.21-1.3,1.7,1.7,0,0,0-.33-1.15,1.12,1.12,0,0,0-.91-.39,1,1,0,0,0-.67.23,1.6,1.6,0,0,0-.44.53c-.1.2-.23.51-.39.92a6.31,6.31,0,0,1-.42,1.05,1.79,1.79,0,0,1-.59.67,1.82,1.82,0,0,1-1.05.27,1.92,1.92,0,0,1-.84-.2,1.79,1.79,0,0,1-.71-.71,2.61,2.61,0,0,1-.28-1.26,3.18,3.18,0,0,1,.11-.91,7.72,7.72,0,0,1,.39-.95H46l-.23.4a2.1,2.1,0,0,0-.27.68,3,3,0,0,0-.09.75,1.61,1.61,0,0,0,.31,1.09,1,1,0,0,0,.75.34,1.22,1.22,0,0,0,.69-.18,1.53,1.53,0,0,0,.4-.5,6.69,6.69,0,0,0,.36-.89,6.61,6.61,0,0,1,.44-1.08,2,2,0,0,1,.62-.72,1.65,1.65,0,0,1,1-.31,2,2,0,0,1,1.43.56A2.39,2.39,0,0,1,52,196.4Z"/><path class="cls-5" d="M992,288.51c38.82,0,58.24,0,77.65,0s38.83,0,77.65,0"/><path class="cls-7" d="M992,288.51c38.82,0,58.24,0,77.65,0l31.55,0h38.52"/><path class="cls-8" d="M1146.33,288.57a3.29,3.29,0,1,1-3.28-3.29A3.29,3.29,0,0,1,1146.33,288.57Z"/><path class="cls-5" d="M221.06,212.93c75.24,0,112.87,18.9,150.49,37.8S446.79,288.52,522,288.52"/><path class="cls-7" d="M221.06,212.93c75.24,0,112.87,18.9,150.49,37.8,18.81,9.45,37.62,18.89,61.13,26a261.37,261.37,0,0,0,39.39,8.56c7.35,1,15.13,1.85,23.44,2.4q6.23.42,12.85.64l3.34.09,1.69,0,1.06,0"/><path class="cls-8" d="M521,288.51a3.29,3.29,0,1,1-3.26-3.31A3.28,3.28,0,0,1,521,288.51Z"/><path class="cls-5" d="M1237.85,288.51c12.5,0,76.13,12.24,25,24.48s-217,24.47-382.9,24.47S548.17,325.24,497,313s12.5-24.45,25-24.45"/><path class="cls-7" d="M1237.85,288.51c12.5,0,76.13,12.24,25,24.48s-217,24.47-382.9,24.47S548.17,325.24,497,313c-25.57-6.11-22.44-12.22-11.36-16.81a111.54,111.54,0,0,1,20-5.54c1.73-.33,3.42-.63,5-.89l2.36-.36,1.12-.16.3,0"/><path class="cls-8" d="M521,288.66a3.29,3.29,0,1,1-3.56-3A3.29,3.29,0,0,1,521,288.66Z"/><path class="cls-11" d="M26.22,410.83h1486"/><path class="cls-5" d="M19.66,413V324.55H46.43V413Z"/><path class="cls-12" d="M39,388.4a4.18,4.18,0,0,1-.14,1.18,6.7,6.7,0,0,1-.47,1.06h-.83a3.3,3.3,0,0,0,.53-1,3.81,3.81,0,0,0,.21-1.3,1.7,1.7,0,0,0-.33-1.15,1.12,1.12,0,0,0-.91-.39,1,1,0,0,0-.67.23,1.6,1.6,0,0,0-.44.53c-.1.2-.23.51-.39.92a6.31,6.31,0,0,1-.42,1.05,1.79,1.79,0,0,1-.59.67,1.82,1.82,0,0,1-1.05.27,1.92,1.92,0,0,1-.84-.2,1.79,1.79,0,0,1-.71-.71,2.61,2.61,0,0,1-.28-1.26,3.18,3.18,0,0,1,.11-.91,7.72,7.72,0,0,1,.39-.95H33s-.11.18-.23.4a2.1,2.1,0,0,0-.27.68,2.86,2.86,0,0,0-.09.75,1.63,1.63,0,0,0,.31,1.09,1,1,0,0,0,.75.34,1.22,1.22,0,0,0,.69-.18,1.53,1.53,0,0,0,.4-.5,6.38,6.38,0,0,0,.36-.9,6.84,6.84,0,0,1,.44-1.07,2,2,0,0,1,.62-.72,1.65,1.65,0,0,1,1-.31,2,2,0,0,1,1.43.56A2.38,2.38,0,0,1,39,388.4Zm0-6.82a3,3,0,0,1-.92,2.39,4.06,4.06,0,0,1-2.74.8,4,4,0,0,1-2.73-.8,3,3,0,0,1-.92-2.39,3,3,0,0,1,.92-2.37,4,4,0,0,1,2.73-.81,4.06,4.06,0,0,1,2.74.81A3,3,0,0,1,39,381.58Zm-.73,0a2.21,2.21,0,0,0-.71-1.82,3.45,3.45,0,0,0-2.22-.58,3.4,3.4,0,0,0-2.21.58,2.67,2.67,0,0,0,0,3.65,3.4,3.4,0,0,0,2.21.58,3.45,3.45,0,0,0,2.22-.58A2.22,2.22,0,0,0,38.28,381.58Zm.7-7.7a3.14,3.14,0,0,1-.91,2.46,4,4,0,0,1-2.73.82,3.92,3.92,0,0,1-2.72-.82,3.15,3.15,0,0,1-.92-2.46,5.07,5.07,0,0,1,.51-2.18H33a4.32,4.32,0,0,0-.53,2.08,2.5,2.5,0,0,0,.7,2,3.33,3.33,0,0,0,2.22.61,3.34,3.34,0,0,0,2.23-.61,2.51,2.51,0,0,0,.69-2,4.36,4.36,0,0,0-.51-2.08h.73A5.28,5.28,0,0,1,39,373.88Zm-7.19-3.66v-.77H38.9v.77Zm4.89-6.65v3.08l2.22.85v.82l-7.11-2.82v-.77l7.11-2.83v.83Zm-.73.3-3.25,1.24L36,366.36Zm-4.16-3.08V360h6.36v-3.64h.75v4.41Zm7.11-13.22-.78.65a3.81,3.81,0,0,1,.63.93,2.72,2.72,0,0,1,.23,1.08,2.22,2.22,0,0,1-.33,1.25,2.09,2.09,0,0,1-.8.74,2.14,2.14,0,0,1-.9.23,2.17,2.17,0,0,1-1.13-.33,3.1,3.1,0,0,1-1-1.11,2.52,2.52,0,0,1-1.47.71,1.54,1.54,0,0,1-.79-.22,1.75,1.75,0,0,1-.6-.58,1.64,1.64,0,0,1-.22-.81,1.59,1.59,0,0,1,.22-.82,1.61,1.61,0,0,1,.57-.59,1.43,1.43,0,0,1,.79-.22,1.38,1.38,0,0,1,.92.34,4.42,4.42,0,0,1,.79,1l1.92-1.63a5.2,5.2,0,0,0-1.11-.42v-.69a5.34,5.34,0,0,1,.83.24,4.61,4.61,0,0,1,.84.4l1.42-1.19Zm-6.42,2.52a.88.88,0,0,0,.25.63.86.86,0,0,0,.61.25,1.33,1.33,0,0,0,.55-.22c.22-.16.44-.33.64-.5a2.47,2.47,0,0,0-.61-.83,1,1,0,0,0-.63-.22.74.74,0,0,0-.58.27A.88.88,0,0,0,32.48,350.09Zm5.77.11a1.86,1.86,0,0,0-.19-.81,3.58,3.58,0,0,0-.49-.71l-2.23,1.88a2.55,2.55,0,0,0,.81.91,1.61,1.61,0,0,0,.77.23,1.45,1.45,0,0,0,.56-.13,1.42,1.42,0,0,0,.53-.46A1.58,1.58,0,0,0,38.25,350.2Z"/><path class="cls-12" d="M52,395.52a3.17,3.17,0,0,1-.91,2.47,4,4,0,0,1-2.73.81,4,4,0,0,1-2.72-.81,3.17,3.17,0,0,1-.92-2.47,5,5,0,0,1,.51-2.17H46a4.28,4.28,0,0,0-.53,2.07,2.49,2.49,0,0,0,.7,2,3.33,3.33,0,0,0,2.22.61,3.34,3.34,0,0,0,2.23-.61,2.49,2.49,0,0,0,.69-2,4.29,4.29,0,0,0-.51-2.07h.73A5.23,5.23,0,0,1,52,395.52Zm0-6.58a3,3,0,0,1-.92,2.39,4.11,4.11,0,0,1-2.74.79,4.08,4.08,0,0,1-2.73-.79,3,3,0,0,1-.92-2.39,3,3,0,0,1,.92-2.38,4,4,0,0,1,2.73-.81,4.06,4.06,0,0,1,2.74.81A3,3,0,0,1,52,388.94Zm-.73,0a2.22,2.22,0,0,0-.71-1.83,3.45,3.45,0,0,0-2.22-.58,3.4,3.4,0,0,0-2.21.58,2.19,2.19,0,0,0-.72,1.83,2.22,2.22,0,0,0,.72,1.83,3.46,3.46,0,0,0,2.21.57,3.52,3.52,0,0,0,2.22-.57A2.25,2.25,0,0,0,51.28,388.94Zm-6.49-11.29H51.9v.77H46L49.67,381l-3.61,2.44H51.9v.77H44.79v-.83L48.5,381l-3.71-2.48Zm0-8.37H51.9v.77H46l3.63,2.58-3.61,2.44H51.9v.76H44.79V375l3.71-2.4-3.71-2.49ZM52,364.69a2.7,2.7,0,0,1-.78,2.06,3.18,3.18,0,0,1-2.23.72H44.79v-.77H49c1.49,0,2.24-.67,2.24-2s-.75-2-2.24-2H44.79v-.75H49a3.14,3.14,0,0,1,2.23.74A2.65,2.65,0,0,1,52,364.69Zm-7.22-10.47H51.9v.86l-6,4.25h6v.76H44.79v-.87l6-4.24h-6Zm0-1.82v-.77H51.9v.77Zm.72-4.41v2.52h-.72v-5.78h.72v2.5H51.9V348Zm3.13-7H51.9v.76H48.64l-3.85,2.66v-.94l3.11-2.09-3.11-2.11v-.92Z"/><path class="cls-5" d="M221.06,212.93c11.66,0,17.49,39,23.32,77.92S256,368.77,267.7,368.77"/><path class="cls-7" d="M221.06,212.93c11.66,0,17.49,39,23.32,77.92,2.91,19.48,5.83,39,9.47,53.57,1.83,7.31,3.83,13.4,6.11,17.66.28.53.57,1,.87,1.51.14.24.29.47.44.69l.16.24"/><path class="cls-8" d="M266.87,368.21a3.29,3.29,0,1,1-.87-4.57A3.28,3.28,0,0,1,266.87,368.21Z"/><path class="cls-5" d="M522,135.58c-75.25,0-112.87,19.33-150.5,38.67s-75.24,38.68-150.48,38.68"/><path class="cls-7" d="M522,135.58c-75.25,0-112.87,19.33-150.5,38.67-18.81,9.67-37.62,19.34-61.13,26.59A256.87,256.87,0,0,1,271,209.61c-7.35,1-15.14,1.88-23.44,2.45q-6.24.42-12.85.65c-1.11,0-2.22.07-3.34.09l-1.69,0-1.07,0"/><path class="cls-8" d="M222.06,212.92a3.29,3.29,0,1,1,3.32,3.26A3.29,3.29,0,0,1,222.06,212.92Z"/><path class="cls-5" d="M358.22,368.79c11.66,0,17.5-39,23.33-77.93s11.66-77.92,23.32-77.92"/><path class="cls-7" d="M358.22,368.79c11.66,0,17.5-39,23.33-77.93,2.91-19.48,5.83-39,9.47-53.57,1.82-7.3,3.83-13.39,6.1-17.65.29-.53.58-1,.87-1.51l.44-.69.17-.24"/><path class="cls-8" d="M404,213.51a3.29,3.29,0,1,1-4.57-.88A3.29,3.29,0,0,1,404,213.51Z"/><path class="cls-5" d="M1280.93,352.82h0a8,8,0,0,1,8-8h74.55a8,8,0,0,1,8,8v31.93a8,8,0,0,1-8,8h-74.55a8,8,0,0,1-8-8Z"/><path class="cls-7" d="M1280.93,352.82h0a8,8,0,0,1,8-8h74.55a8,8,0,0,1,8,8v31.93a8,8,0,0,1-8,8h-74.55a8,8,0,0,1-8-8Z"/><path d="M1304.46,362.23a2.06,2.06,0,0,1,.84.66,1.66,1.66,0,0,1,.36,1.12,1.77,1.77,0,0,1-.67,1.53,3.24,3.24,0,0,1-1.91.49h-2.56v-7.11h2.36c1.57,0,2.36.63,2.36,1.9a1.46,1.46,0,0,1-.17.78,3.26,3.26,0,0,1-.36.43Zm-3.17-.24h1.76a2.16,2.16,0,0,0,1-.21.94.94,0,0,0,.39-.89,1.1,1.1,0,0,0-.37-1,2,2,0,0,0-1.16-.27h-1.65Zm1.85,3.32a2.6,2.6,0,0,0,1.29-.28,1.15,1.15,0,0,0,.46-1.07,1,1,0,0,0-.48-1,3.09,3.09,0,0,0-1.3-.23h-1.82v2.58Zm6.29-4.69a2.14,2.14,0,0,1,1.41.44,1.54,1.54,0,0,1,.51,1.26v2.58a1,1,0,0,1-.62,1,4.78,4.78,0,0,1-1.74.25,2.72,2.72,0,0,1-1.45-.37,1.34,1.34,0,0,1-.59-1.24,1.68,1.68,0,0,1,.51-1.37,2.23,2.23,0,0,1,1.44-.44,3.34,3.34,0,0,1,1.67.36v-.63c0-.79-.46-1.18-1.39-1.18a3.69,3.69,0,0,0-.92.12,2.39,2.39,0,0,0-.8.39v-.76a2.71,2.71,0,0,1,.88-.32A5.06,5.06,0,0,1,1309.43,360.62Zm-.26,4.89a3.8,3.8,0,0,0,1.07-.11.46.46,0,0,0,.33-.47v-1.19a2.78,2.78,0,0,0-.67-.21,3.45,3.45,0,0,0-.8-.08,1.76,1.76,0,0,0-1,.26.84.84,0,0,0-.36.74.88.88,0,0,0,.42.81A2.05,2.05,0,0,0,1309.17,365.51Zm3.9-4.37a6.88,6.88,0,0,1,1.06-.35,5.79,5.79,0,0,1,1.38-.17,1.61,1.61,0,0,1,.34.06v.67a4.19,4.19,0,0,0-.5,0,4.43,4.43,0,0,0-.66.05l-.86.14V366h-.76Zm5.69,5a1.25,1.25,0,0,1-1.35-1.37v-3.31h-.92v-.71h.92v-1.5h.77v1.5h1.37v.71h-1.37v3.07a1.13,1.13,0,0,0,.16.69.65.65,0,0,0,.56.21,1.53,1.53,0,0,0,.65-.13V366a1.33,1.33,0,0,1-.37.09Zm4.26-5.48a2.05,2.05,0,0,1,1.78.78,3.4,3.4,0,0,1,.54,2.09h-3.89a2.19,2.19,0,0,0,.46,1.49,1.65,1.65,0,0,0,1.28.5A3.45,3.45,0,0,0,1325,365v.78a4.2,4.2,0,0,1-1.86.37,2.33,2.33,0,0,1-1.81-.72,3.06,3.06,0,0,1-.64-2.11,3,3,0,0,1,.61-2A2.14,2.14,0,0,1,1323,360.62Zm0,.7a1.59,1.59,0,0,0-1.08.33,1.73,1.73,0,0,0-.45,1.14h3a1.64,1.64,0,0,0-.44-1.09A1.39,1.39,0,0,0,1323,361.32Zm3.76-.18a4.89,4.89,0,0,1,2.24-.52,2.27,2.27,0,0,1,1.62.48,1.93,1.93,0,0,1,.5,1.46V366h-.78v-3.47c0-.84-.47-1.25-1.42-1.25a4.72,4.72,0,0,0-1.39.22V366h-.77Zm10.43-2.68v6.64c0,.37-.23.64-.69.82a4.3,4.3,0,0,1-1.5.26,2.6,2.6,0,0,1-1.72-.62,3,3,0,0,1-.72-2.27,2.87,2.87,0,0,1,.61-2,2.24,2.24,0,0,1,1.81-.72,3.26,3.26,0,0,1,.69.09,7.19,7.19,0,0,1,.73.22v-2.47Zm-.79,3.24a2.42,2.42,0,0,0-.68-.27,2.76,2.76,0,0,0-.74-.11,1.46,1.46,0,0,0-1.23.53,2.41,2.41,0,0,0-.39,1.44,3.07,3.07,0,0,0,.36,1.61,1.42,1.42,0,0,0,1.31.58,3,3,0,0,0,1-.13c.27-.08.4-.18.4-.31Zm4.55-1.08a2,2,0,0,1,1.78.78,3.4,3.4,0,0,1,.55,2.09h-3.89a2.19,2.19,0,0,0,.45,1.49,1.66,1.66,0,0,0,1.28.5A3.48,3.48,0,0,0,1343,365v.78a4.2,4.2,0,0,1-1.86.37,2.31,2.31,0,0,1-1.81-.72,3.06,3.06,0,0,1-.65-2.11,3,3,0,0,1,.61-2A2.15,2.15,0,0,1,1341,360.62Zm0,.7a1.59,1.59,0,0,0-1.08.33,1.78,1.78,0,0,0-.45,1.14h3a1.64,1.64,0,0,0-.44-1.09A1.43,1.43,0,0,0,1341,361.32Zm3.77-.18a6.88,6.88,0,0,1,1.06-.35,5.79,5.79,0,0,1,1.38-.17,1.61,1.61,0,0,1,.34.06v.67a4.19,4.19,0,0,0-.5,0,4.43,4.43,0,0,0-.66.05l-.86.14V366h-.76Zm5.52,5a3.23,3.23,0,0,1-.94-.11,3.57,3.57,0,0,1-.83-.33v-.81a5.46,5.46,0,0,0,.88.44,2.91,2.91,0,0,0,.82.11,1.41,1.41,0,0,0,.86-.24.69.69,0,0,0,.35-.6.58.58,0,0,0-.21-.49,2.28,2.28,0,0,0-.62-.34l-.28-.11c-.41-.12-.73-.22-1-.31a1.6,1.6,0,0,1-.57-.44,1.21,1.21,0,0,1-.25-.81,1.35,1.35,0,0,1,.26-.85,1.58,1.58,0,0,1,.69-.5,2.53,2.53,0,0,1,.91-.17,2.33,2.33,0,0,1,.7.09c.2.07.47.17.81.32v.76a5.71,5.71,0,0,0-.81-.36,1.92,1.92,0,0,0-.67-.11,1.63,1.63,0,0,0-.8.19.55.55,0,0,0-.33.52.64.64,0,0,0,.16.45,1.29,1.29,0,0,0,.42.28c.17.06.39.14.67.22a7.74,7.74,0,0,1,.86.31,1.53,1.53,0,0,1,.55.44,1.32,1.32,0,0,1,.23.81,1.46,1.46,0,0,1-.28.92,1.66,1.66,0,0,1-.72.55A2.52,2.52,0,0,1,1350.26,366.18Z"/><path d="M1315.94,379l-1.86-2.86h-1.81V379h-.77v-7.11h2.92a2.12,2.12,0,0,1,1.57.53,2,2,0,0,1,.53,1.53,2.22,2.22,0,0,1-.44,1.39,1.87,1.87,0,0,1-1.17.7l1.93,3Zm-3.67-3.6h1.79a1.94,1.94,0,0,0,1.28-.34,1.3,1.3,0,0,0,.41-1,1.5,1.5,0,0,0-.33-1.05,1.42,1.42,0,0,0-1.09-.35h-2.06Zm8.17-1.81a2.11,2.11,0,0,1,1.41.44,1.54,1.54,0,0,1,.52,1.26v2.58a1,1,0,0,1-.63,1,4.73,4.73,0,0,1-1.73.25,2.73,2.73,0,0,1-1.46-.37,1.36,1.36,0,0,1-.59-1.24,1.65,1.65,0,0,1,.52-1.37,2.18,2.18,0,0,1,1.43-.44,3.31,3.31,0,0,1,1.67.36v-.63c0-.79-.46-1.18-1.39-1.18a3.69,3.69,0,0,0-.92.12,2.25,2.25,0,0,0-.79.39v-.76a2.65,2.65,0,0,1,.87-.32A5.06,5.06,0,0,1,1320.44,373.62Zm-.26,4.89a3.89,3.89,0,0,0,1.08-.11.45.45,0,0,0,.32-.47v-1.19a2.65,2.65,0,0,0-.67-.21,3.36,3.36,0,0,0-.79-.08,1.79,1.79,0,0,0-1,.26.86.86,0,0,0-.35.74.88.88,0,0,0,.42.81A2,2,0,0,0,1320.18,378.51Zm5.57.59a1.25,1.25,0,0,1-1.34-1.37v-3.31h-.92v-.71h.92v-1.5h.77v1.5h1.37v.71h-1.37v3.07a1.22,1.22,0,0,0,.15.69.66.66,0,0,0,.56.21,1.62,1.62,0,0,0,.66-.13V379a1.43,1.43,0,0,1-.37.09Zm2.2-7.18h.84v.84H1328Zm0,1.79h.77V379H1328Zm2.53.43a4.85,4.85,0,0,1,2.23-.52,2.32,2.32,0,0,1,1.63.48,2,2,0,0,1,.5,1.46V379h-.78v-3.47c0-.84-.48-1.25-1.43-1.25a4.77,4.77,0,0,0-1.39.22V379h-.76Zm8.37-.52a3,3,0,0,1,1.46.33,1.08,1.08,0,0,1,.59,1v4.29a1.87,1.87,0,0,1-.52,1.35,2.41,2.41,0,0,1-1.79.55,3.66,3.66,0,0,1-.69-.07,3.56,3.56,0,0,1-.55-.11l-.28-.07v-.72l.72.17a3,3,0,0,0,.7.08,1.87,1.87,0,0,0,1.3-.33,1.07,1.07,0,0,0,.33-.81v-.41a3.59,3.59,0,0,1-.74.22,3.26,3.26,0,0,1-.68.09,2.29,2.29,0,0,1-1.82-.7,3,3,0,0,1-.6-2,2.82,2.82,0,0,1,.75-2.25A2.68,2.68,0,0,1,1338.88,373.62Zm-1.78,2.89a2.4,2.4,0,0,0,.39,1.45,1.47,1.47,0,0,0,1.24.52,3.1,3.1,0,0,0,.73-.09,2.65,2.65,0,0,0,.69-.29v-3a.58.58,0,0,0-.33-.58,1.9,1.9,0,0,0-.87-.16,1.62,1.62,0,0,0-1.46.6A2.79,2.79,0,0,0,1337.1,376.51Z"/><path class="cls-5" d="M1237.85,288.51c10.77,0,16.15,20.07,21.54,40.14s10.77,40.14,21.55,40.14"/><path class="cls-10" d="M1237.85,288.51c10.77,0,16.15,20.07,21.54,40.14,2.69,10,5.38,20.07,8.75,27.6a32.46,32.46,0,0,0,5.64,9.09l.2.21.07.07"/><path class="cls-8" d="M1280,368.38a3.29,3.29,0,1,1-1.61-4.37A3.3,3.3,0,0,1,1280,368.38Z"/><path class="cls-5" d="M358.22,368.79c119.47,0,196.64-20.08,238.94-40.15s49.74-40.14,99.49-40.14"/><path class="cls-10" d="M358.22,368.79c119.47,0,196.64-20.08,238.94-40.15,21.15-10,33.59-20.07,47-27.59a90.45,90.45,0,0,1,22-9.1,98.59,98.59,0,0,1,13.76-2.55c2.52-.29,5.17-.52,8-.67l1.05-.05h.22"/><path class="cls-8" d="M695.65,288.52a3.29,3.29,0,1,1-3.36-3.21A3.3,3.3,0,0,1,695.65,288.52Z"/><path class="cls-5" d="M1025.87,196.44h0a8,8,0,0,1,8-8h74.55a8,8,0,0,1,8,8v31.94a8,8,0,0,1-8,8h-74.55a8,8,0,0,1-8-8Z"/><path class="cls-7" d="M1025.87,196.44h0a8,8,0,0,1,8-8h74.55a8,8,0,0,1,8,8v31.94a8,8,0,0,1-8,8h-74.55a8,8,0,0,1-8-8Z"/><path d="M1044.6,209.76a3.05,3.05,0,0,1-2.4-.92,4.11,4.11,0,0,1-.79-2.74,4.06,4.06,0,0,1,.79-2.73,3,3,0,0,1,2.4-.93,3,3,0,0,1,2.37.93,4,4,0,0,1,.81,2.73,4.06,4.06,0,0,1-.81,2.74A3,3,0,0,1,1044.6,209.76Zm0-.74a2.21,2.21,0,0,0,1.82-.7,4.54,4.54,0,0,0,0-4.44,2.67,2.67,0,0,0-3.65,0,4.54,4.54,0,0,0,0,4.44A2.21,2.21,0,0,0,1044.6,209Zm4.69-4.26a6.88,6.88,0,0,1,1.06-.35,5.79,5.79,0,0,1,1.38-.17,1.61,1.61,0,0,1,.34.06V205a4.21,4.21,0,0,0-.5,0,4.43,4.43,0,0,0-.66.05l-.86.14v4.52h-.76Zm8.38-2.67v6.64q0,.54-.69.81a4.08,4.08,0,0,1-1.5.26,2.55,2.55,0,0,1-1.72-.62,2.94,2.94,0,0,1-.72-2.27,2.87,2.87,0,0,1,.61-1.95,2.24,2.24,0,0,1,1.81-.72,2.79,2.79,0,0,1,.69.1,5.36,5.36,0,0,1,.73.21v-2.46Zm-.79,3.23a3.21,3.21,0,0,0-.68-.27,2.76,2.76,0,0,0-.74-.11,1.44,1.44,0,0,0-1.23.54,2.36,2.36,0,0,0-.39,1.43,3.07,3.07,0,0,0,.36,1.61,1.42,1.42,0,0,0,1.31.58,3.38,3.38,0,0,0,1-.12c.27-.09.4-.19.4-.32Zm4.55-1.08a2,2,0,0,1,1.78.78,3.42,3.42,0,0,1,.55,2.1h-3.89a2.18,2.18,0,0,0,.45,1.48,1.65,1.65,0,0,0,1.28.5,3.48,3.48,0,0,0,1.82-.45v.78a4.2,4.2,0,0,1-1.86.37,2.38,2.38,0,0,1-1.82-.71,3.13,3.13,0,0,1-.64-2.11,3,3,0,0,1,.61-2A2.19,2.19,0,0,1,1061.43,204.24Zm0,.7a1.59,1.59,0,0,0-1.08.33,1.73,1.73,0,0,0-.45,1.14h3a1.64,1.64,0,0,0-.44-1.09A1.43,1.43,0,0,0,1061.43,204.94Zm3.77-.18a6.88,6.88,0,0,1,1.06-.35,5.79,5.79,0,0,1,1.38-.17,1.61,1.61,0,0,1,.34.06V205a4.21,4.21,0,0,0-.5,0,4.43,4.43,0,0,0-.66.05l-.86.14v4.52h-.76Zm7.15-2.22h2.24a3.24,3.24,0,0,1,2.48.89,3.74,3.74,0,0,1,.85,2.66q0,3.56-3.33,3.56h-2.24Zm2.18,6.39a2.56,2.56,0,0,0,2-.69,3.12,3.12,0,0,0,.62-2.15,3.09,3.09,0,0,0-.62-2.15,2.59,2.59,0,0,0-2-.68h-1.41v5.67Zm4.88-4.17a7.06,7.06,0,0,1,1.07-.35,5.65,5.65,0,0,1,1.37-.17,1.67,1.67,0,0,1,.35.06V205a4.38,4.38,0,0,0-.5,0,4.43,4.43,0,0,0-.66.05l-.86.14v4.52h-.77Zm4-2.22h.85v.84h-.85Zm0,1.8h.77v5.31h-.77Zm2.53.42a4.85,4.85,0,0,1,2.23-.52,2.25,2.25,0,0,1,1.63.49,1.93,1.93,0,0,1,.5,1.45v3.47h-.78v-3.47c0-.83-.48-1.25-1.42-1.25a4.79,4.79,0,0,0-1.4.22v4.5H1086Zm9.31,4.89-2.48-2.52v2.52h-.77V202.3h.77v4l2.15-2h1l-2.61,2.29,3,3Zm3.7.15a3.23,3.23,0,0,1-.94-.11,4,4,0,0,1-.83-.32v-.82a5.46,5.46,0,0,0,.88.44,2.93,2.93,0,0,0,.83.11,1.45,1.45,0,0,0,.85-.23.72.72,0,0,0,.35-.61.6.6,0,0,0-.2-.49,2.54,2.54,0,0,0-.63-.34l-.28-.11a8.89,8.89,0,0,1-1-.31,1.55,1.55,0,0,1-.58-.44,1.21,1.21,0,0,1-.25-.81,1.35,1.35,0,0,1,.26-.85,1.58,1.58,0,0,1,.69-.5,2.53,2.53,0,0,1,.91-.17,2,2,0,0,1,.7.1,7.23,7.23,0,0,1,.81.31v.76q-.52-.25-.81-.36a1.92,1.92,0,0,0-.67-.11,1.66,1.66,0,0,0-.8.19.56.56,0,0,0-.33.52.65.65,0,0,0,.16.45,1.15,1.15,0,0,0,.42.28c.17.06.39.14.67.22s.65.22.86.31a1.53,1.53,0,0,1,.55.44,1.26,1.26,0,0,1,.23.81,1.49,1.49,0,0,1-.28.93,1.6,1.6,0,0,1-.72.54A2.32,2.32,0,0,1,1099,209.8Z"/><path d="M1047.61,222.8a2.3,2.3,0,0,1-1.83-.71,3.16,3.16,0,0,1-.61-2.08,3,3,0,0,1,.61-2.07,2.33,2.33,0,0,1,1.81-.7,2.26,2.26,0,0,1,1.86.74,3.66,3.66,0,0,1,0,4.09A2.27,2.27,0,0,1,1047.61,222.8Zm0-.7c1.11,0,1.67-.7,1.67-2.09a2.54,2.54,0,0,0-.39-1.53,1.48,1.48,0,0,0-1.28-.54c-1.12,0-1.67.69-1.67,2.07S1046.49,222.1,1047.61,222.1Zm3.89-4.34a4.85,4.85,0,0,1,2.23-.52,2.25,2.25,0,0,1,1.63.49,1.93,1.93,0,0,1,.5,1.45v3.47h-.78v-3.47c0-.83-.48-1.25-1.42-1.25a4.72,4.72,0,0,0-1.39.22v4.5h-.77Zm10.83,5a1.37,1.37,0,0,1-1-.35,1.36,1.36,0,0,1-.38-1V218h-.92v-.7h.92v-1.5h.77v1.5h1.37v.7h-1.37v3.08a1.2,1.2,0,0,0,.15.68.68.68,0,0,0,.57.21,1.39,1.39,0,0,0,.65-.13v.72a1.43,1.43,0,0,1-.37.09A2.12,2.12,0,0,1,1062.33,222.73Zm4.57-5.49a2,2,0,0,1,1.51.56,2.33,2.33,0,0,1,.53,1.69v3.16h-.78v-3.16a1.67,1.67,0,0,0-.34-1.14,1.27,1.27,0,0,0-1-.41,3.13,3.13,0,0,0-1.51.43v4.28h-.77V215h.77v2.7a3.47,3.47,0,0,1,.81-.31A2.62,2.62,0,0,1,1066.9,217.24Zm5.81,0a2,2,0,0,1,1.78.78,3.42,3.42,0,0,1,.55,2.1h-3.89a2.18,2.18,0,0,0,.45,1.48,1.65,1.65,0,0,0,1.28.5,3.48,3.48,0,0,0,1.82-.45v.78a4.2,4.2,0,0,1-1.86.37,2.38,2.38,0,0,1-1.82-.71,3.13,3.13,0,0,1-.64-2.11,3,3,0,0,1,.61-2A2.19,2.19,0,0,1,1072.71,217.24Zm0,.7a1.59,1.59,0,0,0-1.08.33,1.73,1.73,0,0,0-.45,1.14h3a1.64,1.64,0,0,0-.44-1.09A1.43,1.43,0,0,0,1072.71,217.94Zm11,2.49h-3.08l-.84,2.22h-.83l2.83-7.11h.76l2.83,7.11h-.83Zm-.3-.74-1.23-3.25-1.25,3.25Zm5.18-2.45a2.44,2.44,0,0,1,1.78.69,3,3,0,0,1,.71,2.19,2.77,2.77,0,0,1-.68,2,2.42,2.42,0,0,1-1.87.71,3.81,3.81,0,0,1-1.31-.31V225h-.77v-6.67a.82.82,0,0,1,.64-.81A4.29,4.29,0,0,1,1088.56,217.24Zm-.06,4.86a1.57,1.57,0,0,0,1.28-.53,2.21,2.21,0,0,0,.45-1.45,2.86,2.86,0,0,0-.37-1.58,1.39,1.39,0,0,0-1.3-.6,2.84,2.84,0,0,0-1,.15c-.26.08-.39.19-.39.34v3.3A2.53,2.53,0,0,0,1088.5,222.1Zm6.12-4.86a2.46,2.46,0,0,1,1.79.69,3,3,0,0,1,.7,2.19,2.77,2.77,0,0,1-.67,2,2.46,2.46,0,0,1-1.88.71,2.86,2.86,0,0,1-.64-.09,2.93,2.93,0,0,1-.67-.22V225h-.77v-6.67a.83.83,0,0,1,.64-.81A4.29,4.29,0,0,1,1094.62,217.24Zm-.06,4.86a1.57,1.57,0,0,0,1.28-.53,2.16,2.16,0,0,0,.46-1.45,2.86,2.86,0,0,0-.38-1.58,1.39,1.39,0,0,0-1.3-.6,2.84,2.84,0,0,0-1,.15c-.26.08-.39.19-.39.34v3.3A2.55,2.55,0,0,0,1094.56,222.1Z"/><path class="cls-5" d="M992,288.51c8.46,0,12.69-19,16.92-38s8.47-38.05,16.94-38.05"/><path class="cls-10" d="M992,288.51c8.46,0,12.69-19,16.92-38,2.12-9.51,4.23-19,6.88-26.16a47.89,47.89,0,0,1,2.09-4.86c.37-.73.75-1.41,1.14-2l.29-.46.23-.33"/><path class="cls-8" d="M1025.05,213a3.29,3.29,0,1,1-4.56-.92A3.29,3.29,0,0,1,1025.05,213Z"/><path class="cls-5" d="M1116.39,212.41c7.74,0,11.61,19,15.47,38.05s7.73,38,15.46,38"/><path class="cls-10" d="M1116.39,212.41c7.74,0,11.61,19,15.47,38.05,1.93,9.51,3.87,19,6.28,26.15a50.62,50.62,0,0,0,1.91,4.87c.34.72.68,1.4,1,2l.22.38"/><path class="cls-8" d="M1146.53,287.89a3.29,3.29,0,1,1-.61-4.61A3.29,3.29,0,0,1,1146.53,287.89Z"/><path class="cls-5" d="M1421.68,436.91h0a8,8,0,0,1,8-8h74.55a8,8,0,0,1,8,8v31.93a8,8,0,0,1-8,8h-74.55a8,8,0,0,1-8-8Z"/><path class="cls-7" d="M1421.68,436.91h0a8,8,0,0,1,8-8h74.55a8,8,0,0,1,8,8v31.93a8,8,0,0,1-8,8h-74.55a8,8,0,0,1-8-8Z"/><path d="M1456.46,443h2.23a3.2,3.2,0,0,1,2.48.89,3.69,3.69,0,0,1,.85,2.65q0,3.57-3.33,3.57h-2.23Zm2.17,6.39a2.54,2.54,0,0,0,2-.69,3.13,3.13,0,0,0,.63-2.16,3.06,3.06,0,0,0-.63-2.14,2.54,2.54,0,0,0-2-.69h-1.41v5.68Zm7.15-4.69a2.07,2.07,0,0,1,1.41.44,1.54,1.54,0,0,1,.51,1.26V449a1,1,0,0,1-.62,1,4.78,4.78,0,0,1-1.74.25,2.72,2.72,0,0,1-1.45-.37,1.37,1.37,0,0,1-.59-1.24,1.68,1.68,0,0,1,.51-1.37,2.23,2.23,0,0,1,1.44-.44,3.31,3.31,0,0,1,1.67.36v-.63c0-.79-.46-1.18-1.39-1.18a3.69,3.69,0,0,0-.92.12,2.06,2.06,0,0,0-.8.39v-.76a2.71,2.71,0,0,1,.88-.32A5.06,5.06,0,0,1,1465.78,444.71Zm-.26,4.89a3.75,3.75,0,0,0,1.07-.11.46.46,0,0,0,.33-.47v-1.19a2.65,2.65,0,0,0-.67-.21,3.39,3.39,0,0,0-.8-.08,1.78,1.78,0,0,0-1,.26.84.84,0,0,0-.36.74.87.87,0,0,0,.43.81A2,2,0,0,0,1465.52,449.6Zm5.57.59a1.38,1.38,0,0,1-1-.34,1.35,1.35,0,0,1-.37-1v-3.31h-.92v-.71h.92v-1.5h.76v1.5h1.38v.71h-1.38v3.07a1.21,1.21,0,0,0,.16.69.65.65,0,0,0,.56.2,1.62,1.62,0,0,0,.66-.12v.72a1.41,1.41,0,0,1-.38.09Zm4.46-5.48a2.05,2.05,0,0,1,1.41.44,1.54,1.54,0,0,1,.52,1.26V449a1,1,0,0,1-.63,1,4.73,4.73,0,0,1-1.73.25,2.73,2.73,0,0,1-1.46-.37,1.37,1.37,0,0,1-.59-1.24,1.65,1.65,0,0,1,.52-1.37,2.18,2.18,0,0,1,1.43-.44,3.31,3.31,0,0,1,1.67.36v-.63c0-.79-.46-1.18-1.39-1.18a3.69,3.69,0,0,0-.92.12,2,2,0,0,0-.79.39v-.76a2.65,2.65,0,0,1,.87-.32A5.06,5.06,0,0,1,1475.55,444.71Zm-.26,4.89a3.89,3.89,0,0,0,1.08-.11.45.45,0,0,0,.32-.47v-1.19a2.65,2.65,0,0,0-.67-.21,3.36,3.36,0,0,0-.79-.08,1.79,1.79,0,0,0-1,.26.86.86,0,0,0-.35.74.88.88,0,0,0,.42.81A2,2,0,0,0,1475.29,449.6Z"/><path d="M1450.12,460.9H1447l-.84,2.22h-.83l2.83-7.11h.77l2.82,7.11H1451Zm-.29-.74-1.24-3.25-1.25,3.25Zm3-1.94a4.94,4.94,0,0,1,2.23-.51,2.27,2.27,0,0,1,1.62.48,1.93,1.93,0,0,1,.5,1.46v3.47h-.78v-3.47c0-.84-.47-1.25-1.42-1.25a4.72,4.72,0,0,0-1.39.22v4.5h-.76Zm8.32-.51a2.05,2.05,0,0,1,1.41.44,1.54,1.54,0,0,1,.52,1.26V462a1,1,0,0,1-.63,1,4.73,4.73,0,0,1-1.73.25,2.73,2.73,0,0,1-1.46-.37,1.37,1.37,0,0,1-.59-1.24,1.65,1.65,0,0,1,.52-1.37,2.18,2.18,0,0,1,1.43-.44,3.38,3.38,0,0,1,1.68.36v-.63c0-.79-.47-1.18-1.4-1.18a3.75,3.75,0,0,0-.92.12,2,2,0,0,0-.79.39v-.76a2.65,2.65,0,0,1,.87-.32A5.12,5.12,0,0,1,1461.19,457.71Zm-.26,4.89a3.89,3.89,0,0,0,1.08-.11.46.46,0,0,0,.33-.47v-1.19a2.87,2.87,0,0,0-.68-.21,3.36,3.36,0,0,0-.79-.08,1.74,1.74,0,0,0-1,.26.84.84,0,0,0-.36.74.88.88,0,0,0,.42.81A2,2,0,0,0,1460.93,462.6Zm3.9.52v-7.35h.77v7.35Zm7-5.32-2.28,5.83a2.7,2.7,0,0,1-.77,1.2,1.44,1.44,0,0,1-.9.35,1.25,1.25,0,0,1-.5-.11v-.7a1,1,0,0,0,.47.1.81.81,0,0,0,.7-.34,3,3,0,0,0,.48-1l-2.2-5.33h.88l1.68,4.33,1.67-4.33Zm2.91,5.39a1.38,1.38,0,0,1-1-.34,1.35,1.35,0,0,1-.37-1v-3.31h-.92v-.71h.92v-1.5h.76v1.5h1.38v.71h-1.38v3.07a1.21,1.21,0,0,0,.16.69.65.65,0,0,0,.56.2,1.62,1.62,0,0,0,.66-.12v.72a1.52,1.52,0,0,1-.38.09Zm2.2-7.18h.84v.84h-.84Zm0,1.79h.76v5.32H1477Zm4.74,5.39a2.66,2.66,0,0,1-1.76-.59,2.72,2.72,0,0,1-.72-2.16,2.34,2.34,0,0,1,2.48-2.73,4.38,4.38,0,0,1,1.58.3v.73a3.8,3.8,0,0,0-1.48-.3,1.75,1.75,0,0,0-1.39.49,2.23,2.23,0,0,0-.43,1.51,2.3,2.3,0,0,0,.43,1.55,1.82,1.82,0,0,0,1.39.47,3.66,3.66,0,0,0,1.48-.3v.75A4.38,4.38,0,0,1,1481.7,463.19Zm4.53.08a3.62,3.62,0,0,1-.94-.11,3.57,3.57,0,0,1-.83-.33V462a5.46,5.46,0,0,0,.88.44,2.93,2.93,0,0,0,.83.11,1.38,1.38,0,0,0,.85-.24.71.71,0,0,0,.35-.61.58.58,0,0,0-.2-.48,2.54,2.54,0,0,0-.63-.34l-.28-.11a8.55,8.55,0,0,1-1-.32,1.52,1.52,0,0,1-.58-.43,1.22,1.22,0,0,1-.25-.82,1.34,1.34,0,0,1,.26-.84,1.51,1.51,0,0,1,.69-.5,2.53,2.53,0,0,1,.91-.17,2.33,2.33,0,0,1,.7.09c.2.07.47.17.81.32v.76a5.71,5.71,0,0,0-.81-.36,1.92,1.92,0,0,0-.67-.11,1.55,1.55,0,0,0-.8.19.55.55,0,0,0-.33.52.69.69,0,0,0,.16.45,1.29,1.29,0,0,0,.42.28l.67.22a7.74,7.74,0,0,1,.86.31,1.43,1.43,0,0,1,.55.44,1.26,1.26,0,0,1,.23.81,1.46,1.46,0,0,1-.28.92,1.62,1.62,0,0,1-.72.55A2.52,2.52,0,0,1,1486.23,463.27Z"/><path class="cls-11" d="M26.22,497.11h1486"/><path class="cls-5" d="M19.66,501V407.9H46.43V501Z"/><path class="cls-12" d="M33.59,476.87l5.31,2.25v.78l-5.31,2.25v-.81l4.47-1.89-4.47-1.81Zm3.09-5.34v3.08l2.22.84v.83l-7.11-2.83v-.77l7.11-2.82v.82Zm-.73.29-3.25,1.24L36,474.31Zm-4.16-3.08V468h6.36v-3.64h.75v4.41ZM39,460.38a2.71,2.71,0,0,1-.78,2.07,3.18,3.18,0,0,1-2.23.72H31.79v-.77H36c1.49,0,2.24-.67,2.24-2s-.75-2-2.24-2H31.79v-.75H36a3.14,3.14,0,0,1,2.23.74A2.64,2.64,0,0,1,39,460.38Zm-7.22-4.59v-4.48h.72V455H35v-3.27h.75V455h2.47v-3.72h.72v4.48Zm4.89-13.34v3.07l2.22.85v.83l-7.11-2.83v-.77l7.11-2.83v.83Zm-.73.29L32.7,444,36,445.23Zm-4.16-3.08v-2.24a3.24,3.24,0,0,1,.89-2.48,3.76,3.76,0,0,1,2.66-.85q3.55,0,3.56,3.33v2.24Zm6.39-2.17a2.6,2.6,0,0,0-.68-2,3.13,3.13,0,0,0-2.16-.62,3.06,3.06,0,0,0-2.14.62,2.57,2.57,0,0,0-.69,2v1.4h5.67Zm-6.39-4.94v-2.23a3.25,3.25,0,0,1,.89-2.49,3.76,3.76,0,0,1,2.66-.84q3.55,0,3.56,3.33v2.23Zm6.39-2.17a2.6,2.6,0,0,0-.68-2,3.18,3.18,0,0,0-2.16-.62,3.11,3.11,0,0,0-2.14.62,2.57,2.57,0,0,0-.69,2v1.4h5.67Z"/><path class="cls-12" d="M44.79,489.28v-4.36h.72v3.59H48v-3.15h.75v3.15H51.9v.77ZM52,480.61a3,3,0,0,1-.92,2.39,4.11,4.11,0,0,1-2.74.8,4.08,4.08,0,0,1-2.73-.8,3,3,0,0,1-.92-2.39,3,3,0,0,1,.92-2.37,4,4,0,0,1,2.73-.81,4.06,4.06,0,0,1,2.74.81A3,3,0,0,1,52,480.61Zm-.73,0a2.25,2.25,0,0,0-.71-1.83,3.52,3.52,0,0,0-2.22-.57,3.46,3.46,0,0,0-2.21.57,2.22,2.22,0,0,0-.72,1.83,2.19,2.19,0,0,0,.72,1.83,3.4,3.4,0,0,0,2.21.58,3.45,3.45,0,0,0,2.22-.58A2.22,2.22,0,0,0,51.28,480.61Zm.62-9.17L49,473.29v1.82H51.9v.76H44.79V473a2.12,2.12,0,0,1,.53-1.56,2,2,0,0,1,1.53-.53,2.22,2.22,0,0,1,1.4.43,2,2,0,0,1,.7,1.18l2.95-1.94Zm-3.59,3.67v-1.8A2,2,0,0,0,48,472a1.31,1.31,0,0,0-1-.41,1.5,1.5,0,0,0-1.05.33,1.39,1.39,0,0,0-.36,1.09v2.07Zm-.21-13a2.25,2.25,0,0,1,.66-.84,1.68,1.68,0,0,1,1.13-.36,1.79,1.79,0,0,1,1.53.67,3.25,3.25,0,0,1,.48,1.91v2.56H44.79V463.7c0-1.57.64-2.36,1.91-2.36a1.5,1.5,0,0,1,.78.17,2.61,2.61,0,0,1,.42.36Zm-.23,3.17v-1.76a2,2,0,0,0-.22-1,.92.92,0,0,0-.89-.39,1.11,1.11,0,0,0-1,.37,2,2,0,0,0-.26,1.16v1.65Zm3.31-1.86a2.46,2.46,0,0,0-.28-1.28,1.14,1.14,0,0,0-1.06-.47,1,1,0,0,0-1,.49,2.91,2.91,0,0,0-.24,1.29v1.83h2.58Zm.83-6.85a2.71,2.71,0,0,1-.78,2.07,3.18,3.18,0,0,1-2.23.72H44.79v-.77H49c1.49,0,2.24-.67,2.24-2s-.75-2-2.24-2H44.79v-.75H49a3.14,3.14,0,0,1,2.23.74A2.64,2.64,0,0,1,52,456.58Zm0-6.6a4.05,4.05,0,0,1-.14,1.17,6.7,6.7,0,0,1-.47,1.06h-.83a3.3,3.3,0,0,0,.53-1,3.75,3.75,0,0,0,.21-1.29,1.71,1.71,0,0,0-.33-1.16,1.12,1.12,0,0,0-.91-.39,1,1,0,0,0-.67.23,1.71,1.71,0,0,0-.44.53q-.15.3-.39.93a6.53,6.53,0,0,1-.42,1,1.79,1.79,0,0,1-.59.67,1.82,1.82,0,0,1-1.05.27,1.92,1.92,0,0,1-.84-.2,1.79,1.79,0,0,1-.71-.71,2.61,2.61,0,0,1-.28-1.26,3.18,3.18,0,0,1,.11-.91,7.72,7.72,0,0,1,.39-.95H46l-.23.41a2,2,0,0,0-.27.67,3,3,0,0,0-.09.75A1.61,1.61,0,0,0,45.7,451a1,1,0,0,0,.75.34,1.22,1.22,0,0,0,.69-.18,1.43,1.43,0,0,0,.4-.5,6.69,6.69,0,0,0,.36-.89,6.61,6.61,0,0,1,.44-1.08,2,2,0,0,1,.62-.72,1.65,1.65,0,0,1,1-.31,2,2,0,0,1,1.43.56A2.39,2.39,0,0,1,52,450Zm-7.22-3.9v-.77H51.9v.77Zm0-8.46H51.9v.86l-6,4.25h6v.77H44.79v-.88l6-4.23h-6Zm0-1.81v-4.49h.72V435H48v-3.27h.75V435h2.47v-3.72h.72v4.49ZM52,427.6a4.05,4.05,0,0,1-.14,1.17,6.33,6.33,0,0,1-.47,1.06h-.83a3.3,3.3,0,0,0,.53-1,3.71,3.71,0,0,0,.21-1.29,1.73,1.73,0,0,0-.33-1.16,1.12,1.12,0,0,0-.91-.39,1,1,0,0,0-.67.23,1.64,1.64,0,0,0-.44.54,9.35,9.35,0,0,0-.39.92,6.53,6.53,0,0,1-.42,1,1.64,1.64,0,0,1-1.64.94,1.92,1.92,0,0,1-.84-.2,1.83,1.83,0,0,1-.71-.7,2.68,2.68,0,0,1-.28-1.27,3.18,3.18,0,0,1,.11-.91,8.42,8.42,0,0,1,.39-.95H46l-.23.41a2.05,2.05,0,0,0-.27.67,3,3,0,0,0-.09.75,1.61,1.61,0,0,0,.31,1.09,1,1,0,0,0,.75.35,1.22,1.22,0,0,0,.69-.19,1.43,1.43,0,0,0,.4-.5,6.69,6.69,0,0,0,.36-.89,6.61,6.61,0,0,1,.44-1.08,2,2,0,0,1,.62-.72,1.65,1.65,0,0,1,1-.31,2,2,0,0,1,1.43.56A2.42,2.42,0,0,1,52,427.6Zm0-5.92a4.18,4.18,0,0,1-.14,1.18,6.7,6.7,0,0,1-.47,1.06h-.83a3.44,3.44,0,0,0,.53-1,3.81,3.81,0,0,0,.21-1.3A1.7,1.7,0,0,0,51,420.5a1.12,1.12,0,0,0-.91-.39,1,1,0,0,0-.67.23,1.6,1.6,0,0,0-.44.53c-.1.2-.23.51-.39.92a6.31,6.31,0,0,1-.42,1,1.87,1.87,0,0,1-.59.67,2,2,0,0,1-1.89.06,1.76,1.76,0,0,1-.71-.7,2.61,2.61,0,0,1-.28-1.26,3.18,3.18,0,0,1,.11-.91,7.72,7.72,0,0,1,.39-.95H46c0,.05-.11.18-.23.4a2.05,2.05,0,0,0-.27.67,3,3,0,0,0-.09.75,1.64,1.64,0,0,0,.31,1.1,1,1,0,0,0,.75.34,1.15,1.15,0,0,0,.69-.19,1.34,1.34,0,0,0,.4-.5,5.72,5.72,0,0,0,.36-.89,6.84,6.84,0,0,1,.44-1.07,1.87,1.87,0,0,1,.62-.72,1.65,1.65,0,0,1,1-.32,2,2,0,0,1,1.43.57A2.38,2.38,0,0,1,52,421.68Z"/><path class="cls-5" d="M1371.44,368.79c12.56,0,18.84,21,25.12,42s12.56,42.05,25.12,42.05"/><path class="cls-10" d="M1371.44,368.79c12.56,0,18.84,21,25.12,42,3.14,10.51,6.28,21,10.21,28.91a33.56,33.56,0,0,0,6.57,9.53c.31.28.62.56.93.81l.24.19,0,0"/><path class="cls-8" d="M1420.74,452.54a3.29,3.29,0,1,1-2-4.21A3.28,3.28,0,0,1,1420.74,452.54Z"/><path class="cls-5" d="M1116.39,212.41c134.9,0,231.63,60.12,269.79,120.23s17.75,120.24,35.5,120.24"/><path class="cls-10" d="M1116.39,212.41c134.9,0,231.63,60.12,269.79,120.23,19.08,30.06,23.52,60.12,25.41,82.67.94,11.27,1.25,20.66,2.42,27.24a32.05,32.05,0,0,0,1.08,4.39c.1.32.21.62.33.92l.18.43,0,0"/><path class="cls-8" d="M1420.88,452.28a3.29,3.29,0,1,1-.65-4.61A3.29,3.29,0,0,1,1420.88,452.28Z"/><path class="cls-5" d="M612.56,288.51c78.58,0,56,41.09,157.16,82.19s326,82.19,652,82.19"/><path class="cls-10" d="M612.56,288.51c78.58,0,56,41.09,157.16,82.19,50.57,20.55,132.07,41.09,241.67,56.5,54.8,7.71,116.63,14.13,185.13,18.62q51.38,3.38,107.71,5.22,28.15.9,57.53,1.38,14.68.22,29.67.35,7.48.06,15,.09l7.59,0h0"/><path class="cls-8" d="M1420.69,452.89a3.29,3.29,0,1,1-3.29-3.3A3.29,3.29,0,0,1,1420.69,452.89Z"/><path class="cls-5" d="M358.22,368.79c195.54,0,258.14,21,391.07,42s336.2,42.05,672.4,42.05"/><path class="cls-10" d="M358.22,368.79c195.54,0,258.14,21,391.07,42,66.47,10.51,150.52,21,260,28.91,54.73,3.94,115.81,7.23,184.22,9.53q51.32,1.73,108.24,2.67,28.5.45,58.47.7,15,.12,30.37.18l15.46,0,7.81,0h.28"/><path class="cls-8" d="M1420.69,452.88a3.29,3.29,0,1,1-3.29-3.29A3.29,3.29,0,0,1,1420.69,452.88Z"/><path class="cls-5" d="M612.56,135.58c8.15,0,12.23,19.33,16.31,38.67s8.16,38.68,16.32,38.68"/><path class="cls-10" d="M612.56,135.58c8.15,0,12.23,19.33,16.31,38.67,2,9.67,4.08,19.34,6.63,26.59a50.75,50.75,0,0,0,2,4.95c.36.74.72,1.43,1.1,2.06l.28.47.13.2"/><path class="cls-8" d="M644.37,212.35a3.29,3.29,0,1,1-.76-4.59A3.28,3.28,0,0,1,644.37,212.35Z"/><path class="cls-5" d="M735.71,212.93c7.1,0,10.65-19.34,14.2-38.68s7.1-38.67,14.21-38.67"/><path class="cls-10" d="M735.71,212.93c7.1,0,10.65-19.34,14.2-38.68,1.78-9.66,3.55-19.33,5.77-26.59.56-1.81,1.14-3.47,1.76-4.94.3-.74.62-1.43.95-2.07l0-.07"/><path class="cls-8" d="M763.37,136.24a3.29,3.29,0,1,1-4.65-.3A3.29,3.29,0,0,1,763.37,136.24Z"/></svg>