<svg id="图层_1" data-name="图层 1" xmlns="http://www.w3.org/2000/svg" viewBox="0 0 2562.5 1350.49"><defs><style>.cls-1{fill:#101011;}.cls-2{fill:#2e2e2f;}.cls-3{fill:none;}.cls-4{fill:#3f6eb5;}.cls-5{fill:#265aa9;}.cls-6{fill:#57c4d7;}.cls-7{fill:#2a90bd;}.cls-13,.cls-8{fill:#414042;}.cls-9{fill:#cb7047;}.cls-10,.cls-12{fill:#f1f2f2;}.cls-11{fill:#bcbec0;}.cls-12,.cls-13,.cls-16{font-size:14px;font-family:Helvetica-Bold, Helvetica;font-weight:700;letter-spacing:0.07em;}.cls-14{font-size:12px;letter-spacing:0em;}.cls-15{letter-spacing:0.07em;}.cls-16,.cls-21{fill:#6d6e71;}.cls-17{font-size:9px;letter-spacing:0.02em;}.cls-18{letter-spacing:0.07em;}.cls-19{fill:#e6e7e8;}.cls-20{fill:#939598;}.cls-22{fill:#3f5171;}.cls-23{fill:#8fc1c9;}.cls-24{fill:#639db0;}.cls-25{fill:#1d1e1d;}.cls-26{fill:#d1d3d4;}.cls-27{fill:#a7a9ac;}.cls-28{fill:#808285;}.cls-29{fill:#58595b;}.cls-30{fill:#231f20;}.cls-31{fill:#f0b139;}.cls-32{fill:#398ccb;}.cls-33{fill:#413c97;}.cls-34{fill:#7ccbb5;}.cls-35{fill:#548882;}.cls-36{fill:#27232c;}.cls-37{fill:#c64367;}.cls-38{fill:#4e5daa;}.cls-39{fill:#695589;}.cls-40{fill:#4675ba;}.cls-41{fill:#3e62ae;}.cls-42{fill:#1c181f;}.cls-43{fill:#d05e52;}.cls-44{fill:#7a6bb0;}.cls-45{fill:#241e3e;}.cls-46{fill:#95938b;}.cls-47{fill:#716b67;}.cls-48{fill:#bb6035;}.cls-49{fill:#383755;}.cls-50{fill:#636580;}.cls-51{fill:#9788a8;}.cls-52{fill:#777089;}.cls-53{fill:#ad5385;}.cls-54{fill:#8b8fab;}</style></defs><title>shindy_scenario22</title><rect class="cls-1" x="1.43" width="2561.07" height="1353.75"/><rect class="cls-2" x="47.43" y="46" width="792" height="612"/><path class="cls-3" d="M157.11,278.45a6.09,6.09,0,0,0,4.29-1.32,4.09,4.09,0,0,0,1-4.77,3.83,3.83,0,0,0-1.2-1.38,9.62,9.62,0,0,0-2.19-1.17q-1.35-.54-3.27-1.2l-1.69-.56-5.4,7.3a17.72,17.72,0,0,0,3.31,2A12.55,12.55,0,0,0,157.11,278.45Z"/><path class="cls-3" d="M161.07,250.43a6,6,0,0,0-3.72,1.08,3.37,3.37,0,0,0-1.44,2.82,2.81,2.81,0,0,0,.72,2,6.27,6.27,0,0,0,1.89,1.35,15.3,15.3,0,0,0,2.54,1l5-6.82a14,14,0,0,0-1.31-.62A10.2,10.2,0,0,0,161.07,250.43Z"/><rect class="cls-4" x="47.43" y="46" width="197.87" height="240.43"/><rect class="cls-5" x="245.3" y="46" width="197.87" height="240.43"/><rect class="cls-6" x="443.68" y="46" width="197.87" height="240.43"/><rect class="cls-7" x="641.55" y="46" width="197.87" height="240.43"/><rect class="cls-8" x="47.43" y="286.43" width="594.13" height="270.1"/><rect class="cls-9" x="750.98" y="286.43" width="88.44" height="270.1"/><rect class="cls-10" x="47.43" y="556.53" width="396.25" height="101.47"/><rect class="cls-11" x="443.43" y="556.53" width="396.25" height="101.47"/><text class="cls-12" transform="translate(59.38 72.57)">Primary</text><text class="cls-12" transform="translate(59.38 314.57)">Background</text><text class="cls-13" transform="translate(59.38 580.57)">Primary <tspan class="cls-14"><tspan x="0" y="14.4">T</tspan><tspan class="cls-15" x="7.35" y="14.4">ext</tspan></tspan></text><text class="cls-16" transform="translate(475.14 580.57)">Scedonary <tspan class="cls-14"><tspan x="0" y="14.4">T</tspan><tspan class="cls-15" x="7.35" y="14.4">ext</tspan></tspan></text><text class="cls-12" transform="translate(765.38 314.57)">Error</text><text class="cls-12" transform="translate(256.71 72.57)">Primary<tspan class="cls-17"><tspan x="0" y="10.8">V</tspan><tspan class="cls-18" x="6.19" y="10.8">ariant</tspan></tspan></text><text class="cls-12" transform="translate(660.21 72.57)">Scedonary<tspan class="cls-17"><tspan x="0" y="10.8">V</tspan><tspan class="cls-18" x="6.19" y="10.8">ariant</tspan></tspan></text><text class="cls-12" transform="translate(457.71 72.57)">Scedonary</text><rect class="cls-19" x="641.55" y="286.43" width="109.43" height="54.02"/><rect class="cls-11" x="641.55" y="340.45" width="109.43" height="54.02"/><rect class="cls-20" x="641.55" y="394.47" width="109.43" height="54.02"/><rect class="cls-21" x="641.55" y="448.49" width="109.43" height="54.02"/><rect class="cls-8" x="641.55" y="502.51" width="109.43" height="54.02"/><rect class="cls-2" x="887.55" y="46" width="792" height="612"/><path class="cls-3" d="M997.23,278.45a6.09,6.09,0,0,0,4.29-1.32,4.09,4.09,0,0,0,1.05-4.77,3.83,3.83,0,0,0-1.2-1.38,9.62,9.62,0,0,0-2.19-1.17q-1.35-.54-3.27-1.2l-1.69-.56-5.4,7.3a17.72,17.72,0,0,0,3.31,2A12.55,12.55,0,0,0,997.23,278.45Z"/><path class="cls-3" d="M1001.19,250.43a6,6,0,0,0-3.72,1.08,3.37,3.37,0,0,0-1.44,2.82,2.81,2.81,0,0,0,.72,2,6.27,6.27,0,0,0,1.89,1.35,15.3,15.3,0,0,0,2.54,1l5-6.82a14,14,0,0,0-1.31-.62A10.2,10.2,0,0,0,1001.19,250.43Z"/><rect class="cls-22" x="1085.42" y="46" width="197.87" height="240.43"/><rect class="cls-23" x="1283.8" y="46" width="197.87" height="240.43"/><rect class="cls-24" x="1481.67" y="46" width="197.87" height="240.43"/><rect class="cls-25" x="887.55" y="286.43" width="594.13" height="270.1"/><rect class="cls-26" x="1481.67" y="286.43" width="109.43" height="54.02"/><rect class="cls-27" x="1481.67" y="340.45" width="109.43" height="54.02"/><rect class="cls-28" x="1481.67" y="394.47" width="109.43" height="54.02"/><rect class="cls-29" x="1481.67" y="448.49" width="109.43" height="54.02"/><rect class="cls-30" x="1481.67" y="502.51" width="109.43" height="54.02"/><rect class="cls-31" x="1591.1" y="286.43" width="88.44" height="270.1"/><rect class="cls-10" x="887.55" y="556.53" width="396.25" height="101.47"/><rect class="cls-20" x="1283.55" y="556.53" width="396.25" height="101.47"/><text class="cls-12" transform="translate(899.5 314.57)">Background</text><text class="cls-13" transform="translate(899.5 580.57)">Primary <tspan class="cls-14"><tspan x="0" y="14.4">T</tspan><tspan class="cls-15" x="7.35" y="14.4">ext</tspan></tspan></text><text class="cls-16" transform="translate(1315.26 580.57)">Scedonary <tspan class="cls-14"><tspan x="0" y="14.4">T</tspan><tspan class="cls-15" x="7.35" y="14.4">ext</tspan></tspan></text><text class="cls-12" transform="translate(1605.5 314.57)">Error</text><text class="cls-12" transform="translate(1096.83 72.57)">Primary<tspan class="cls-17"><tspan x="0" y="10.8">V</tspan><tspan class="cls-18" x="6.19" y="10.8">ariant</tspan></tspan></text><text class="cls-12" transform="translate(1500.33 72.57)">Scedonary<tspan class="cls-17"><tspan x="0" y="10.8">V</tspan><tspan class="cls-18" x="6.19" y="10.8">ariant</tspan></tspan></text><text class="cls-12" transform="translate(1297.83 72.57)">Scedonary</text><rect class="cls-32" x="887.55" y="46" width="197.87" height="240.43"/><text class="cls-12" transform="translate(899.5 72.57)">Primary</text><rect class="cls-2" x="1727.67" y="46" width="792" height="612"/><path class="cls-3" d="M1837.35,278.45a6.09,6.09,0,0,0,4.29-1.32,4.09,4.09,0,0,0,1-4.77,3.83,3.83,0,0,0-1.2-1.38,9.62,9.62,0,0,0-2.19-1.17q-1.35-.54-3.27-1.2l-1.69-.56-5.41,7.3a18.11,18.11,0,0,0,3.32,2A12.55,12.55,0,0,0,1837.35,278.45Z"/><path class="cls-3" d="M1841.31,250.43a6,6,0,0,0-3.72,1.08,3.37,3.37,0,0,0-1.44,2.82,2.81,2.81,0,0,0,.72,2,6.27,6.27,0,0,0,1.89,1.35,15.3,15.3,0,0,0,2.54,1l5-6.82a14,14,0,0,0-1.31-.62A10.2,10.2,0,0,0,1841.31,250.43Z"/><rect class="cls-33" x="1925.54" y="46" width="197.87" height="240.43"/><rect class="cls-34" x="2123.92" y="46" width="197.87" height="240.43"/><rect class="cls-35" x="2321.79" y="46" width="197.87" height="240.43"/><rect class="cls-36" x="1727.67" y="286.43" width="594.13" height="270.1"/><rect class="cls-26" x="2321.79" y="286.43" width="109.43" height="54.02"/><rect class="cls-27" x="2321.79" y="340.45" width="109.43" height="54.02"/><rect class="cls-28" x="2321.79" y="394.47" width="109.43" height="54.02"/><rect class="cls-29" x="2321.79" y="448.49" width="109.43" height="54.02"/><rect class="cls-30" x="2321.79" y="502.51" width="109.43" height="54.02"/><rect class="cls-37" x="2431.22" y="286.43" width="88.44" height="270.1"/><rect class="cls-10" x="1727.67" y="556.53" width="396.25" height="101.47"/><rect class="cls-20" x="2123.67" y="556.53" width="396.25" height="101.47"/><text class="cls-12" transform="translate(1739.62 314.57)">Background</text><text class="cls-13" transform="translate(1739.62 580.57)">Primary <tspan class="cls-14"><tspan x="0" y="14.4">T</tspan><tspan class="cls-15" x="7.35" y="14.4">ext</tspan></tspan></text><text class="cls-16" transform="translate(2155.38 580.57)">Scedonary <tspan class="cls-14"><tspan x="0" y="14.4">T</tspan><tspan class="cls-15" x="7.35" y="14.4">ext</tspan></tspan></text><text class="cls-12" transform="translate(2445.62 314.57)">Error</text><text class="cls-12" transform="translate(1936.94 72.57)">Primary<tspan class="cls-17"><tspan x="0" y="10.8">V</tspan><tspan class="cls-18" x="6.19" y="10.8">ariant</tspan></tspan></text><text class="cls-12" transform="translate(2340.44 72.57)">Scedonary<tspan class="cls-17"><tspan x="0" y="10.8">V</tspan><tspan class="cls-18" x="6.19" y="10.8">ariant</tspan></tspan></text><text class="cls-12" transform="translate(2137.94 72.57)">Scedonary</text><rect class="cls-38" x="1727.67" y="46" width="197.87" height="240.43"/><text class="cls-12" transform="translate(1739.62 72.57)">Primary</text><rect class="cls-2" x="47.3" y="703" width="792" height="612"/><path class="cls-3" d="M157,935.45a6.09,6.09,0,0,0,4.29-1.32,4.09,4.09,0,0,0,1-4.77,3.83,3.83,0,0,0-1.2-1.38,9.62,9.62,0,0,0-2.19-1.17q-1.35-.54-3.27-1.2l-1.69-.56-5.4,7.3a18,18,0,0,0,3.31,2A12.55,12.55,0,0,0,157,935.45Z"/><path class="cls-3" d="M160.94,907.43a6,6,0,0,0-3.72,1.08,3.37,3.37,0,0,0-1.44,2.82,2.81,2.81,0,0,0,.72,2,6.27,6.27,0,0,0,1.89,1.35,15.3,15.3,0,0,0,2.54,1l5-6.82a12,12,0,0,0-1.31-.62A10.2,10.2,0,0,0,160.94,907.43Z"/><rect class="cls-39" x="245.17" y="703" width="197.87" height="240.43"/><rect class="cls-40" x="443.55" y="703" width="197.87" height="240.43"/><rect class="cls-41" x="641.43" y="703" width="197.87" height="240.43"/><rect class="cls-42" x="47.3" y="943.43" width="594.13" height="270.1"/><rect class="cls-26" x="641.43" y="943.43" width="109.43" height="54.02"/><rect class="cls-27" x="641.43" y="997.45" width="109.43" height="54.02"/><rect class="cls-28" x="641.43" y="1051.47" width="109.43" height="54.02"/><rect class="cls-29" x="641.43" y="1105.49" width="109.43" height="54.02"/><rect class="cls-30" x="641.43" y="1159.51" width="109.43" height="54.02"/><rect class="cls-43" x="750.86" y="943.43" width="88.44" height="270.1"/><rect class="cls-10" x="47.3" y="1213.53" width="396.25" height="101.47"/><rect class="cls-20" x="443.3" y="1213.53" width="396.25" height="101.47"/><text class="cls-12" transform="translate(59.26 971.57)">Background</text><text class="cls-13" transform="translate(59.26 1237.57)">Primary <tspan class="cls-14"><tspan x="0" y="14.4">T</tspan><tspan class="cls-15" x="7.35" y="14.4">ext</tspan></tspan></text><text class="cls-16" transform="translate(475.01 1237.57)">Scedonary <tspan class="cls-14"><tspan x="0" y="14.4">T</tspan><tspan class="cls-15" x="7.35" y="14.4">ext</tspan></tspan></text><text class="cls-12" transform="translate(765.26 971.57)">Error</text><text class="cls-12" transform="translate(256.58 729.57)">Primary<tspan class="cls-17"><tspan x="0" y="10.8">V</tspan><tspan class="cls-18" x="6.19" y="10.8">ariant</tspan></tspan></text><text class="cls-12" transform="translate(660.08 729.57)">Scedonary<tspan class="cls-17"><tspan x="0" y="10.8">V</tspan><tspan class="cls-18" x="6.19" y="10.8">ariant</tspan></tspan></text><text class="cls-12" transform="translate(457.58 729.57)">Scedonary</text><rect class="cls-44" x="47.3" y="703" width="197.87" height="240.43"/><text class="cls-12" transform="translate(59.26 729.57)">Primary</text><rect class="cls-2" x="1727.67" y="703" width="792" height="612"/><path class="cls-3" d="M1837.35,935.45a6.09,6.09,0,0,0,4.29-1.32,4.09,4.09,0,0,0,1-4.77,3.83,3.83,0,0,0-1.2-1.38,9.62,9.62,0,0,0-2.19-1.17q-1.35-.54-3.27-1.2l-1.69-.56-5.41,7.3a18.11,18.11,0,0,0,3.32,2A12.55,12.55,0,0,0,1837.35,935.45Z"/><path class="cls-3" d="M1841.31,907.43a6,6,0,0,0-3.72,1.08,3.37,3.37,0,0,0-1.44,2.82,2.81,2.81,0,0,0,.72,2,6.27,6.27,0,0,0,1.89,1.35,15.3,15.3,0,0,0,2.54,1l5-6.82a14,14,0,0,0-1.31-.62A10.2,10.2,0,0,0,1841.31,907.43Z"/><rect class="cls-45" x="1925.54" y="703" width="197.87" height="240.43"/><rect class="cls-46" x="2123.92" y="703" width="197.87" height="240.43"/><rect class="cls-47" x="2321.79" y="703" width="197.87" height="240.43"/><rect class="cls-1" x="1727.67" y="943.43" width="594.13" height="270.1"/><rect class="cls-26" x="2321.79" y="943.43" width="109.43" height="54.02"/><rect class="cls-27" x="2321.79" y="997.45" width="109.43" height="54.02"/><rect class="cls-28" x="2321.79" y="1051.47" width="109.43" height="54.02"/><rect class="cls-29" x="2321.79" y="1105.49" width="109.43" height="54.02"/><rect class="cls-30" x="2321.79" y="1159.51" width="109.43" height="54.02"/><rect class="cls-48" x="2431.22" y="943.43" width="88.44" height="270.1"/><rect class="cls-10" x="1727.67" y="1213.53" width="396.25" height="101.47"/><rect class="cls-20" x="2123.67" y="1213.53" width="396.25" height="101.47"/><text class="cls-12" transform="translate(1739.62 971.57)">Background</text><text class="cls-13" transform="translate(1739.62 1237.57)">Primary <tspan class="cls-14"><tspan x="0" y="14.4">T</tspan><tspan class="cls-15" x="7.35" y="14.4">ext</tspan></tspan></text><text class="cls-16" transform="translate(2155.38 1237.57)">Scedonary <tspan class="cls-14"><tspan x="0" y="14.4">T</tspan><tspan class="cls-15" x="7.35" y="14.4">ext</tspan></tspan></text><text class="cls-12" transform="translate(2445.62 971.57)">Error</text><text class="cls-12" transform="translate(1936.94 729.57)">Primary<tspan class="cls-17"><tspan x="0" y="10.8">V</tspan><tspan class="cls-18" x="6.19" y="10.8">ariant</tspan></tspan></text><text class="cls-12" transform="translate(2340.44 729.57)">Scedonary<tspan class="cls-17"><tspan x="0" y="10.8">V</tspan><tspan class="cls-18" x="6.19" y="10.8">ariant</tspan></tspan></text><text class="cls-12" transform="translate(2137.94 729.57)">Scedonary</text><rect class="cls-49" x="1727.67" y="703" width="197.87" height="240.43"/><text class="cls-12" transform="translate(1739.62 729.57)">Primary</text><rect class="cls-2" x="887.48" y="703" width="792" height="612"/><path class="cls-3" d="M997.16,935.45a6.09,6.09,0,0,0,4.29-1.32,4.09,4.09,0,0,0,1-4.77,3.83,3.83,0,0,0-1.2-1.38,9.62,9.62,0,0,0-2.19-1.17q-1.35-.54-3.27-1.2l-1.69-.56-5.4,7.3a18,18,0,0,0,3.31,2A12.55,12.55,0,0,0,997.16,935.45Z"/><path class="cls-3" d="M1001.12,907.43a6,6,0,0,0-3.72,1.08,3.37,3.37,0,0,0-1.44,2.82,2.81,2.81,0,0,0,.72,2,6.27,6.27,0,0,0,1.89,1.35,15.77,15.77,0,0,0,2.55,1l5-6.82a13.06,13.06,0,0,0-1.32-.62A10.2,10.2,0,0,0,1001.12,907.43Z"/><rect class="cls-50" x="1085.36" y="703" width="197.87" height="240.43"/><rect class="cls-51" x="1283.74" y="703" width="197.87" height="240.43"/><rect class="cls-52" x="1481.61" y="703" width="197.87" height="240.43"/><rect class="cls-25" x="887.48" y="943.43" width="594.13" height="270.1"/><rect class="cls-26" x="1481.61" y="943.43" width="109.43" height="54.02"/><rect class="cls-27" x="1481.61" y="997.45" width="109.43" height="54.02"/><rect class="cls-28" x="1481.61" y="1051.47" width="109.43" height="54.02"/><rect class="cls-29" x="1481.61" y="1105.49" width="109.43" height="54.02"/><rect class="cls-30" x="1481.61" y="1159.51" width="109.43" height="54.02"/><rect class="cls-53" x="1591.04" y="943.43" width="88.44" height="270.1"/><rect class="cls-10" x="887.48" y="1213.53" width="396.25" height="101.47"/><rect class="cls-11" x="1283.48" y="1213.53" width="396.25" height="101.47"/><text class="cls-12" transform="translate(899.44 971.57)">Background</text><text class="cls-13" transform="translate(899.44 1237.57)">Primary <tspan class="cls-14"><tspan x="0" y="14.4">T</tspan><tspan class="cls-15" x="7.35" y="14.4">ext</tspan></tspan></text><text class="cls-16" transform="translate(1315.2 1237.57)">Scedonary <tspan class="cls-14"><tspan x="0" y="14.4">T</tspan><tspan class="cls-15" x="7.35" y="14.4">ext</tspan></tspan></text><text class="cls-12" transform="translate(1605.44 971.57)">Error</text><text class="cls-12" transform="translate(1096.76 729.57)">Primary<tspan class="cls-17"><tspan x="0" y="10.8">V</tspan><tspan class="cls-18" x="6.19" y="10.8">ariant</tspan></tspan></text><text class="cls-12" transform="translate(1500.26 729.57)">Scedonary<tspan class="cls-17"><tspan x="0" y="10.8">V</tspan><tspan class="cls-18" x="6.19" y="10.8">ariant</tspan></tspan></text><text class="cls-12" transform="translate(1297.76 729.57)">Scedonary</text><rect class="cls-54" x="887.48" y="703" width="197.87" height="240.43"/><text class="cls-12" transform="translate(899.44 729.57)">Primary</text></svg>