<svg id="Layer_1" data-name="Layer 1" xmlns="http://www.w3.org/2000/svg" xmlns:xlink="http://www.w3.org/1999/xlink" viewBox="0 0 527 556"><defs><style>.cls-1,.cls-2,.cls-22{fill:none;}.cls-1{clip-rule:evenodd;}.cls-2{fill-rule:evenodd;}.cls-3{clip-path:url(#clip-path);}.cls-4{clip-path:url(#clip-path-5);}.cls-5{clip-path:url(#clip-path-8);}.cls-6{clip-path:url(#clip-path-9);}.cls-7{clip-path:url(#clip-path-13);}.cls-8{clip-path:url(#clip-path-17);}.cls-9{clip-path:url(#clip-path-21);}.cls-10,.cls-18,.cls-20,.cls-23,.cls-25{fill:#fff;}.cls-11,.cls-12,.cls-13,.cls-24{fill:#cc4b00;}.cls-11{opacity:0.6;}.cls-12{opacity:0.1;}.cls-13{opacity:0.3;}.cls-14{font-size:18px;}.cls-14,.cls-17{font-family:Lato-Regular, Lato;}.cls-15{letter-spacing:-0.03em;}.cls-16{letter-spacing:0em;}.cls-17{font-size:48px;}.cls-17,.cls-21{fill:#79818f;}.cls-18,.cls-20,.cls-22,.cls-23{stroke:#79818f;stroke-miterlimit:10;}.cls-18{stroke-width:2px;}.cls-19{fill:#d0d5dd;}.cls-20{stroke-width:6px;}.cls-25{font-size:13.68px;font-family:Lato-Bold, Lato;font-weight:700;}</style><clipPath id="clip-path"><path class="cls-1" d="M244,775.9a8.74,8.74,0,0,1,8.75-8.72h113.5A8.75,8.75,0,0,1,375,775.9v214a8.73,8.73,0,0,1-8.75,8.72H252.75a8.75,8.75,0,0,1-8.75-8.72Z"/></clipPath><clipPath id="clip-path-5"><path class="cls-1" d="M-348.66,775.9a8.74,8.74,0,0,1,8.75-8.72h113.5a8.75,8.75,0,0,1,8.75,8.72v214a8.73,8.73,0,0,1-8.75,8.72h-113.5a8.75,8.75,0,0,1-8.75-8.72Z"/></clipPath><clipPath id="clip-path-8"><path class="cls-1" d="M-348.66,775.9c0-4.81,10.64-8.72,23.75-8.72H-16.75C-3.63,767.18,7,771.1,7,775.9v214c0,4.82-10.64,8.72-23.75,8.72H-324.91c-13.12,0-23.75-3.92-23.75-8.72Z"/></clipPath><clipPath id="clip-path-9"><path class="cls-1" d="M-1114,773.72a8.73,8.73,0,0,1,8.75-8.72h113.5a8.75,8.75,0,0,1,8.75,8.72v214a8.74,8.74,0,0,1-8.75,8.72h-113.5a8.75,8.75,0,0,1-8.75-8.72Z"/></clipPath><clipPath id="clip-path-13"><path class="cls-1" d="M-764.67,773.72a8.73,8.73,0,0,1,8.74-8.72h113.51a8.74,8.74,0,0,1,8.74,8.72v214a8.74,8.74,0,0,1-8.74,8.72H-755.93a8.74,8.74,0,0,1-8.74-8.72Z"/></clipPath><clipPath id="clip-path-17"><path class="cls-1" d="M-590,773.72a8.73,8.73,0,0,1,8.75-8.72h113.5a8.75,8.75,0,0,1,8.75,8.72v214a8.75,8.75,0,0,1-8.75,8.72h-113.5a8.74,8.74,0,0,1-8.75-8.72Z"/></clipPath><clipPath id="clip-path-21"><path class="cls-1" d="M-939.34,773.72a8.73,8.73,0,0,1,8.75-8.72h113.5a8.75,8.75,0,0,1,8.75,8.72v214a8.74,8.74,0,0,1-8.75,8.72h-113.5a8.75,8.75,0,0,1-8.75-8.72Z"/></clipPath></defs><title>vamonde</title><rect class="cls-10" width="527" height="556" rx="12"/><rect class="cls-11" x="168" y="171" width="76" height="363" rx="8"/><rect class="cls-12" x="168" y="16" width="337" height="115" rx="8"/><rect class="cls-13" x="273" y="171" width="232" height="363" rx="8"/><text class="cls-14" transform="translate(19.84 46.15)">A<tspan class="cls-15" x="12.24" y="0">D</tspan><tspan class="cls-16" x="25.33" y="0">VENTURE</tspan></text><text class="cls-14" transform="translate(41.68 337.15)">CONTENT</text><text class="cls-14" transform="translate(81.76 198.15)">POST</text><text class="cls-17" transform="translate(462.84 229.15)">...</text><text class="cls-17" transform="translate(462.84 420.15)">...</text><rect class="cls-18" x="176" y="23" width="61" height="101" rx="8"/><rect class="cls-19" x="184" y="46" width="45" height="39" rx="4"/><line class="cls-20" x1="184" y1="98" x2="229" y2="98"/><line class="cls-20" x1="184" y1="111" x2="215.22" y2="111"/><line class="cls-20" x1="215" y1="35.16" x2="229.22" y2="35.16"/><circle class="cls-21" cx="189" cy="35" r="5"/><rect class="cls-18" x="175" y="177" width="61" height="101" rx="8"/><rect class="cls-19" x="183" y="187" width="45" height="52" rx="4"/><line class="cls-20" x1="183" y1="252" x2="228" y2="252"/><line class="cls-20" x1="183" y1="265" x2="214.22" y2="265"/><rect class="cls-18" x="175" y="315" width="61" height="211" rx="8"/><rect class="cls-19" x="183" y="368" width="45" height="27" rx="4"/><rect class="cls-19" x="183" y="434" width="27" height="27" rx="4"/><rect class="cls-19" x="213" y="434" width="15" height="12" rx="4"/><rect class="cls-19" x="213" y="449" width="15" height="12" rx="4"/><line class="cls-20" x1="183" y1="328" x2="228" y2="328"/><line class="cls-20" x1="183" y1="341" x2="228" y2="341"/><line class="cls-20" x1="183" y1="354" x2="214.22" y2="354"/><line class="cls-20" x1="183" y1="486" x2="228" y2="486"/><line class="cls-20" x1="183" y1="473" x2="228" y2="473"/><line class="cls-20" x1="183" y1="499" x2="228" y2="499"/><line class="cls-20" x1="183" y1="512" x2="214.22" y2="512"/><line class="cls-20" x1="183" y1="408" x2="228" y2="408"/><line class="cls-20" x1="183" y1="421" x2="214.22" y2="421"/><rect class="cls-18" x="281" y="177" width="61" height="101" rx="8"/><rect class="cls-19" x="289" y="187" width="45" height="52" rx="4"/><line class="cls-20" x1="289" y1="252" x2="334" y2="252"/><line class="cls-20" x1="289" y1="265" x2="320.22" y2="265"/><rect class="cls-18" x="281" y="315" width="61" height="211" rx="8"/><rect class="cls-19" x="289" y="368" width="45" height="27" rx="4"/><rect class="cls-19" x="289" y="434" width="27" height="27" rx="4"/><rect class="cls-19" x="319" y="434" width="15" height="12" rx="4"/><rect class="cls-19" x="319" y="449" width="15" height="12" rx="4"/><line class="cls-20" x1="289" y1="328" x2="334" y2="328"/><line class="cls-20" x1="289" y1="341" x2="334" y2="341"/><line class="cls-20" x1="289" y1="354" x2="320.22" y2="354"/><line class="cls-20" x1="289" y1="486" x2="334" y2="486"/><line class="cls-20" x1="289" y1="473" x2="334" y2="473"/><line class="cls-20" x1="289" y1="499" x2="334" y2="499"/><line class="cls-20" x1="289" y1="512" x2="320.22" y2="512"/><line class="cls-20" x1="289" y1="408" x2="334" y2="408"/><line class="cls-20" x1="289" y1="421" x2="320.22" y2="421"/><rect class="cls-18" x="368" y="177" width="61" height="101" rx="8"/><rect class="cls-19" x="376" y="187" width="45" height="52" rx="4"/><line class="cls-20" x1="376" y1="252" x2="421" y2="252"/><line class="cls-20" x1="376" y1="265" x2="407.22" y2="265"/><rect class="cls-18" x="368" y="315" width="61" height="211" rx="8"/><rect class="cls-19" x="376" y="368" width="45" height="27" rx="4"/><rect class="cls-19" x="376" y="434" width="27" height="27" rx="4"/><rect class="cls-19" x="406" y="434" width="15" height="12" rx="4"/><rect class="cls-19" x="406" y="449" width="15" height="12" rx="4"/><line class="cls-20" x1="376" y1="328" x2="421" y2="328"/><line class="cls-20" x1="376" y1="341" x2="421" y2="341"/><line class="cls-20" x1="376" y1="354" x2="407.22" y2="354"/><line class="cls-20" x1="376" y1="486" x2="421" y2="486"/><line class="cls-20" x1="376" y1="473" x2="421" y2="473"/><line class="cls-20" x1="376" y1="499" x2="421" y2="499"/><line class="cls-20" x1="376" y1="512" x2="407.22" y2="512"/><line class="cls-20" x1="376" y1="408" x2="421" y2="408"/><line class="cls-20" x1="376" y1="421" x2="407.22" y2="421"/><polyline class="cls-22" points="204 167 204 151 479 151 479 167"/><line class="cls-23" x1="204.5" y1="150.5" x2="204.5" y2="135.5"/><line class="cls-23" x1="204.5" y1="304" x2="204.5" y2="288"/><line class="cls-23" x1="311.5" y1="304" x2="311.5" y2="288"/><line class="cls-23" x1="398.5" y1="304" x2="398.5" y2="288"/><line class="cls-23" x1="311.5" y1="166" x2="311.5" y2="151"/><line class="cls-23" x1="398.5" y1="166" x2="398.5" y2="151"/><circle class="cls-24" cx="154.5" cy="186.5" r="9.5"/><text class="cls-25" transform="translate(150.2 191.55)">1</text><circle class="cls-24" cx="259.5" cy="186.5" r="9.5"/><text class="cls-25" transform="translate(255.2 191.55)">2</text><circle class="cls-24" cx="154.5" cy="32.5" r="9.5"/><text class="cls-25" transform="translate(150.2 37.55)">3</text><path class="cls-24" d="M154.67,220.89c.23,13,.49,25.93.63,38.89l.54,38.88c.21,13,.53,25.92.26,38.88s-.63,25.93-1.46,38.89h-1c-.82-13-1.23-25.92-1.45-38.89s.05-25.92.26-38.88l.53-38.88c.15-13,.41-25.93.64-38.89Z"/><polygon class="cls-10" points="142.23 202.96 154.19 223.05 166.16 202.96 142.23 202.96"/><path class="cls-24" d="M140.12,201.76l14.07,23.64,14.08-23.64Zm14.07,18.94-9.85-16.54h19.71Z"/><polygon class="cls-24" points="147.35 368.46 154.13 375.25 160.91 368.46 160.91 374.22 154.13 381 147.35 374.22 147.35 368.46"/><path class="cls-24" d="M167.82,370.92l17.81-40.79,18-40.71c6-13.55,11.77-27.24,18.1-40.65s12.89-26.73,19.91-39.83l.93.43c-5.32,13.87-11.14,27.53-17.13,41.1s-12.64,26.84-19,40.26L187.42,331l-19.24,40.13Z"/><polygon class="cls-24" points="244.95 219.22 241.6 210.23 232.62 213.58 235.01 208.34 244 205 247.34 213.99 244.95 219.22"/><path class="cls-24" d="M268.82,370.92l17.81-40.79,18-40.71c6-13.55,11.77-27.24,18.1-40.65s12.89-26.73,19.91-39.83l.93.43c-5.32,13.87-11.14,27.53-17.13,41.1s-12.64,26.84-18.95,40.26L288.42,331l-19.24,40.13Z"/><polygon class="cls-24" points="345.95 219.22 342.61 210.23 333.62 213.58 336.01 208.34 345 205 348.34 213.99 345.95 219.22"/><path class="cls-24" d="M374.83,378.9l24.74-43.66,24.92-43.57c8.33-14.5,16.38-29.17,25-43.49S467,219.64,476.27,205.7l.83.49c-7.66,14.9-15.78,29.52-24.08,44.05s-17.21,28.69-25.82,43l-25.93,43-26.1,42.87Z"/><polygon class="cls-24" points="478.49 216.25 476.08 206.96 466.8 209.38 469.72 204.41 479 202 481.41 211.28 478.49 216.25"/><path class="cls-24" d="M259.33,201.76l.78,43.67.59,43.66c.15,14.56.64,29.11.47,43.67s-.59,29.11-1.53,43.67h-1c-.93-14.56-1.32-29.11-1.52-43.67s.31-29.11.47-43.67l.59-43.66.78-43.67Z"/><polygon class="cls-24" points="252.35 368.46 259.13 375.25 265.91 368.46 265.91 374.22 259.13 381 252.35 374.22 252.35 368.46"/><path class="cls-24" d="M478.89,187.17l-54.08-35-54-35.14c-18-11.74-36.09-23.27-54-35.17s-35.5-24.15-53-36.57l1-1.53c18.25,11.33,36.39,22.82,54.29,34.67s35.57,24.06,53.37,36.06l53.34,36.1,53.25,36.24Z"/><polygon class="cls-24" points="273.88 36.49 250 35 260.65 56.43 273.88 36.49"/><path class="cls-24" d="M355.33,201.76l.78,43.67.59,43.66c.15,14.56.64,29.11.47,43.67s-.59,29.11-1.53,43.67h-1c-.93-14.56-1.32-29.11-1.52-43.67s.31-29.11.47-43.67l.59-43.66.78-43.67Z"/><polygon class="cls-24" points="348.35 368.46 355.13 375.25 361.91 368.46 361.91 374.22 355.13 381 348.35 374.22 348.35 368.46"/></svg>