<svg id="Layer_1" data-name="Layer 1" xmlns="http://www.w3.org/2000/svg" viewBox="0 0 100 100"><defs><style>.cls-1{fill:#fff;}.cls-2{fill:#393b4b;stroke:#393b4b;stroke-linecap:round;stroke-linejoin:round;stroke-width:3px;}</style></defs><title>vamonde_icon</title><rect class="cls-1" width="100" height="100"/><path class="cls-2" d="M50,82a32,32,0,1,1,22.63-9.37A31.82,31.82,0,0,1,50,82Zm0-62.44a30.45,30.45,0,1,0,21.52,8.92A30.19,30.19,0,0,0,50,19.56Z"/><path class="cls-2" d="M62.93,39.67a1.45,1.45,0,0,1,.68.16,1.47,1.47,0,0,1,.81,1.32v17.7a1.49,1.49,0,0,1-2.35,1.21L49.63,51.21a1.49,1.49,0,0,1,0-2.42l12.44-8.85A1.46,1.46,0,0,1,62.93,39.67Zm-.07,19V41.3L50.62,50Zm-15.45-19a1.45,1.45,0,0,1,.68.16,1.47,1.47,0,0,1,.81,1.32v17.7a1.49,1.49,0,0,1-2.35,1.21L34.11,51.21a1.49,1.49,0,0,1,0-2.42L46.55,40A1.41,1.41,0,0,1,47.41,39.67Zm-.07,19V41.3L35.1,50Z"/></svg>