<svg id="Layer_1" data-name="Layer 1" xmlns="http://www.w3.org/2000/svg" viewBox="0 0 100 100"><defs><style>.cls-1{fill:#fff;}.cls-2{fill:#393b4b;stroke:#393b4b;stroke-linecap:round;stroke-linejoin:round;}</style></defs><title>vamonde_icon</title><rect class="cls-1" width="100" height="100"/><path class="cls-2" d="M80.18,54.07,53,66.1c-2.59,1.12-3.65,1.12-6,0l-27.17-12C18.38,53.3,18,50.52,18,49c1.82,1,4.35,2.14,4.26,2.11L50,63.7,77.74,51.09c.07,0,2.53-1.25,4.26-2.11C82,50.55,81.52,53.46,80.18,54.07Zm0-12.61L53,53.49c-2.59,1.12-3.65,1.12-6,0l-27.17-12c-2.14-1.12-2.08-4.64,0-6L47,21.36c2.4-1.18,3.91-1.24,6,0L80.18,35.51C82.22,36.63,82.16,40.53,80.18,41.46ZM50,23.76,22.26,38.48,50,50,77.74,38.48Zm0,52.55L77.74,63.7c.07,0,2.53-1.25,4.26-2.11,0,1.57-.48,4.45-1.82,5.09L53,78.71c-2.59,1.12-3.65,1.12-6,0l-27.17-12C18.38,65.91,18,63.12,18,61.59c1.82,1,4.35,2.14,4.26,2.11Z"/></svg>