<svg id="Layer_1" data-name="Layer 1" xmlns="http://www.w3.org/2000/svg" xmlns:xlink="http://www.w3.org/1999/xlink" viewBox="0 0 527 556"><defs><style>.cls-1,.cls-2,.cls-22{fill:none;}.cls-1{clip-rule:evenodd;}.cls-2{fill-rule:evenodd;}.cls-3{clip-path:url(#clip-path);}.cls-4{clip-path:url(#clip-path-5);}.cls-5{clip-path:url(#clip-path-8);}.cls-6{clip-path:url(#clip-path-9);}.cls-7{clip-path:url(#clip-path-13);}.cls-8{clip-path:url(#clip-path-17);}.cls-9{clip-path:url(#clip-path-21);}.cls-10,.cls-18,.cls-20,.cls-23,.cls-25{fill:#fff;}.cls-11,.cls-12,.cls-13,.cls-24{fill:#cc4b00;}.cls-11{opacity:0.3;}.cls-12{opacity:0.6;}.cls-13{opacity:0.1;}.cls-14{font-size:18px;}.cls-14,.cls-17{font-family:Lato-Regular, Lato;}.cls-15{letter-spacing:-0.03em;}.cls-16{letter-spacing:0em;}.cls-17{font-size:48px;}.cls-17,.cls-21{fill:#79818f;}.cls-18,.cls-20,.cls-22,.cls-23{stroke:#79818f;stroke-miterlimit:10;}.cls-18{stroke-width:2px;}.cls-19{fill:#d0d5dd;}.cls-20{stroke-width:6px;}.cls-25{font-size:13.68px;font-family:Lato-Bold, Lato;font-weight:700;}</style><clipPath id="clip-path"><path class="cls-1" d="M-370,775.9a8.74,8.74,0,0,1,8.75-8.72h113.5A8.75,8.75,0,0,1-239,775.9v214a8.73,8.73,0,0,1-8.75,8.72h-113.5a8.75,8.75,0,0,1-8.75-8.72Z"/></clipPath><clipPath id="clip-path-5"><path class="cls-1" d="M-962.66,775.9a8.74,8.74,0,0,1,8.75-8.72h113.5a8.75,8.75,0,0,1,8.75,8.72v214a8.73,8.73,0,0,1-8.75,8.72h-113.5a8.75,8.75,0,0,1-8.75-8.72Z"/></clipPath><clipPath id="clip-path-8"><path class="cls-1" d="M-962.66,775.9c0-4.81,10.64-8.72,23.75-8.72h308.16c13.12,0,23.75,3.92,23.75,8.72v214c0,4.82-10.64,8.72-23.75,8.72H-938.91c-13.12,0-23.75-3.92-23.75-8.72Z"/></clipPath><clipPath id="clip-path-9"><path class="cls-1" d="M-1728,773.72a8.73,8.73,0,0,1,8.75-8.72h113.5a8.75,8.75,0,0,1,8.75,8.72v214a8.74,8.74,0,0,1-8.75,8.72h-113.5a8.75,8.75,0,0,1-8.75-8.72Z"/></clipPath><clipPath id="clip-path-13"><path class="cls-1" d="M-1378.67,773.72a8.73,8.73,0,0,1,8.74-8.72h113.51a8.74,8.74,0,0,1,8.74,8.72v214a8.74,8.74,0,0,1-8.74,8.72h-113.51a8.74,8.74,0,0,1-8.74-8.72Z"/></clipPath><clipPath id="clip-path-17"><path class="cls-1" d="M-1204,773.72a8.73,8.73,0,0,1,8.75-8.72h113.5a8.75,8.75,0,0,1,8.75,8.72v214a8.75,8.75,0,0,1-8.75,8.72h-113.5a8.74,8.74,0,0,1-8.75-8.72Z"/></clipPath><clipPath id="clip-path-21"><path class="cls-1" d="M-1553.34,773.72a8.73,8.73,0,0,1,8.75-8.72h113.5a8.75,8.75,0,0,1,8.75,8.72v214a8.74,8.74,0,0,1-8.75,8.72h-113.5a8.75,8.75,0,0,1-8.75-8.72Z"/></clipPath></defs><title>vamonde</title><rect class="cls-10" width="527" height="556" rx="12"/><rect class="cls-11" x="177" y="174" width="320" height="112" rx="8"/><rect class="cls-12" x="177" y="19" width="320" height="115" rx="8"/><rect class="cls-13" x="177" y="312" width="320" height="225" rx="8"/><text class="cls-14" transform="translate(28.84 49.15)">A<tspan class="cls-15" x="12.24" y="0">D</tspan><tspan class="cls-16" x="25.33" y="0">VENTURE</tspan></text><text class="cls-14" transform="translate(90.76 201.15)">POST</text><text class="cls-17" transform="translate(454.84 232.15)">...</text><text class="cls-17" transform="translate(454.84 423.15)">...</text><rect class="cls-18" x="185" y="26" width="61" height="101" rx="8"/><rect class="cls-19" x="193" y="49" width="45" height="39" rx="4"/><line class="cls-20" x1="193" y1="101" x2="238" y2="101"/><line class="cls-20" x1="193" y1="114" x2="224.22" y2="114"/><line class="cls-20" x1="224" y1="38.16" x2="238.22" y2="38.16"/><circle class="cls-21" cx="198" cy="38" r="5"/><rect class="cls-18" x="184" y="180" width="61" height="101" rx="8"/><rect class="cls-19" x="192" y="190" width="45" height="52" rx="4"/><line class="cls-20" x1="192" y1="255" x2="237" y2="255"/><line class="cls-20" x1="192" y1="268" x2="223.22" y2="268"/><rect class="cls-18" x="184" y="318" width="61" height="211" rx="8"/><rect class="cls-19" x="192" y="371" width="45" height="27" rx="4"/><rect class="cls-19" x="192" y="437" width="27" height="27" rx="4"/><rect class="cls-19" x="222" y="437" width="15" height="12" rx="4"/><rect class="cls-19" x="222" y="452" width="15" height="12" rx="4"/><line class="cls-20" x1="192" y1="331" x2="237" y2="331"/><line class="cls-20" x1="192" y1="344" x2="237" y2="344"/><line class="cls-20" x1="192" y1="357" x2="223.22" y2="357"/><line class="cls-20" x1="192" y1="489" x2="237" y2="489"/><line class="cls-20" x1="192" y1="476" x2="237" y2="476"/><line class="cls-20" x1="192" y1="502" x2="237" y2="502"/><line class="cls-20" x1="192" y1="515" x2="223.22" y2="515"/><line class="cls-20" x1="192" y1="411" x2="237" y2="411"/><line class="cls-20" x1="192" y1="424" x2="223.22" y2="424"/><rect class="cls-18" x="273" y="180" width="61" height="101" rx="8"/><rect class="cls-19" x="281" y="190" width="45" height="52" rx="4"/><line class="cls-20" x1="281" y1="255" x2="326" y2="255"/><line class="cls-20" x1="281" y1="268" x2="312.22" y2="268"/><rect class="cls-18" x="273" y="318" width="61" height="211" rx="8"/><rect class="cls-19" x="281" y="371" width="45" height="27" rx="4"/><rect class="cls-19" x="281" y="437" width="27" height="27" rx="4"/><rect class="cls-19" x="311" y="437" width="15" height="12" rx="4"/><rect class="cls-19" x="311" y="452" width="15" height="12" rx="4"/><line class="cls-20" x1="281" y1="331" x2="326" y2="331"/><line class="cls-20" x1="281" y1="344" x2="326" y2="344"/><line class="cls-20" x1="281" y1="357" x2="312.22" y2="357"/><line class="cls-20" x1="281" y1="489" x2="326" y2="489"/><line class="cls-20" x1="281" y1="476" x2="326" y2="476"/><line class="cls-20" x1="281" y1="502" x2="326" y2="502"/><line class="cls-20" x1="281" y1="515" x2="312.22" y2="515"/><line class="cls-20" x1="281" y1="411" x2="326" y2="411"/><line class="cls-20" x1="281" y1="424" x2="312.22" y2="424"/><rect class="cls-18" x="360" y="180" width="61" height="101" rx="8"/><rect class="cls-19" x="368" y="190" width="45" height="52" rx="4"/><line class="cls-20" x1="368" y1="255" x2="413" y2="255"/><line class="cls-20" x1="368" y1="268" x2="399.22" y2="268"/><rect class="cls-18" x="360" y="318" width="61" height="211" rx="8"/><rect class="cls-19" x="368" y="371" width="45" height="27" rx="4"/><rect class="cls-19" x="368" y="437" width="27" height="27" rx="4"/><rect class="cls-19" x="398" y="437" width="15" height="12" rx="4"/><rect class="cls-19" x="398" y="452" width="15" height="12" rx="4"/><line class="cls-20" x1="368" y1="331" x2="413" y2="331"/><line class="cls-20" x1="368" y1="344" x2="413" y2="344"/><line class="cls-20" x1="368" y1="357" x2="399.22" y2="357"/><line class="cls-20" x1="368" y1="489" x2="413" y2="489"/><line class="cls-20" x1="368" y1="476" x2="413" y2="476"/><line class="cls-20" x1="368" y1="502" x2="413" y2="502"/><line class="cls-20" x1="368" y1="515" x2="399.22" y2="515"/><line class="cls-20" x1="368" y1="411" x2="413" y2="411"/><line class="cls-20" x1="368" y1="424" x2="399.22" y2="424"/><polyline class="cls-22" points="213 170 213 154 471 154 471 170"/><line class="cls-23" x1="213.5" y1="153.5" x2="213.5" y2="138.5"/><line class="cls-23" x1="213.5" y1="307" x2="213.5" y2="291"/><line class="cls-23" x1="303.5" y1="307" x2="303.5" y2="291"/><line class="cls-23" x1="390.5" y1="307" x2="390.5" y2="291"/><line class="cls-23" x1="303.5" y1="169" x2="303.5" y2="154"/><line class="cls-23" x1="390.5" y1="169" x2="390.5" y2="154"/><circle class="cls-24" cx="163.5" cy="35.5" r="9.5"/><text class="cls-25" transform="translate(159.2 40.55)">1</text><circle class="cls-24" cx="163.5" cy="189.5" r="9.5"/><text class="cls-25" transform="translate(159.2 194.55)">2</text><circle class="cls-24" cx="163.5" cy="327.5" r="9.5"/><text class="cls-25" transform="translate(159.2 332.55)">3</text><path class="cls-24" d="M164.83,66.7q.33,11.34.56,22.69l.51,22.68.3,11.34c.07,3.78,0,7.56-.06,11.34-.2,7.56-.58,15.12-1.29,22.68h-1.39c-.71-7.56-1.09-15.12-1.29-22.68-.09-3.78-.13-7.56-.06-11.34l.3-11.34.51-22.68q.22-11.36.56-22.69Z"/><polygon class="cls-10" points="154.24 51.76 164.21 68.5 174.18 51.76 154.24 51.76"/><path class="cls-24" d="M152.48,50.76l11.73,19.7,11.73-19.7Zm11.73,15.79L156,52.76h16.42Z"/><polygon class="cls-24" points="157.37 149.46 164.16 156.25 170.94 149.46 170.94 155.22 164.16 162 157.37 155.22 157.37 149.46"/><path class="cls-24" d="M164.17,201.56l79,15.56,79,15.75c26.32,5.25,52.7,10.23,78.93,15.9s52.43,11.55,78.52,17.92l-.16.76q-39.7-6.76-79.17-14.73c-26.33-5.22-52.52-11.13-78.77-16.75l-78.72-16.91L164.09,202Z"/><polygon class="cls-24" points="470.35 272.1 478.37 266.83 473.1 258.82 478.74 259.99 484 268 475.99 273.26 470.35 272.1"/><path class="cls-24" d="M480,286.2l-77.8,6-77.82,5.77c-25.94,1.91-51.87,4.11-77.84,5.6s-52,2.78-78,3.56l-.05-.79c25.89-2.67,51.81-4.88,77.75-6.79s51.92-3.2,77.89-4.74l77.89-4.58L480,285.8Z"/><polygon class="cls-24" points="176.06 299.4 169.74 306.62 176.96 312.94 171.22 313.32 164 307 170.32 299.78 176.06 299.4"/><path class="cls-24" d="M164.1,351.82l76.6,41.5L317.21,435c25.49,13.91,51.11,27.59,76.48,41.73s50.56,28.58,75.6,43.3l-.72,1.31q-38.67-20.09-76.86-41c-25.46-14-50.66-28.4-76-42.61l-76-42.67L163.9,352.18Z"/><polygon class="cls-24" points="460.07 529.44 484 529 471.66 508.5 460.07 529.44"/><text class="cls-14" transform="translate(50.67 337.15)">CONTENT</text></svg>