<svg id="Layer_1" data-name="Layer 1" xmlns="http://www.w3.org/2000/svg" xmlns:xlink="http://www.w3.org/1999/xlink" viewBox="0 0 1560 482"><defs><style>.cls-1,.cls-19,.cls-20{fill:none;}.cls-2{fill:#fff;}.cls-3{fill:#e6e6e6;}.cls-21,.cls-4{fill:#cc4b00;}.cls-4{opacity:0.3;}.cls-5{fill:#323037;}.cls-6{font-size:24px;}.cls-23,.cls-6,.cls-7,.cls-8{font-family:Lato-Regular, Lato;}.cls-23,.cls-7,.cls-8{font-size:21px;}.cls-7{fill:#888;}.cls-9{letter-spacing:-0.11em;}.cls-10{letter-spacing:-0.02em;}.cls-11{letter-spacing:0em;}.cls-12{letter-spacing:-0.08em;}.cls-13{letter-spacing:-0.02em;}.cls-14{letter-spacing:-0.02em;}.cls-15{letter-spacing:-0.01em;}.cls-16{letter-spacing:-0.1em;}.cls-17{letter-spacing:-0.08em;}.cls-18{letter-spacing:-0.02em;}.cls-19{stroke:#000;}.cls-19,.cls-20{stroke-miterlimit:10;stroke-width:2px;}.cls-20{stroke:#cc4b00;}.cls-22{letter-spacing:0em;}.cls-23{fill:gray;}.cls-24{fill:#3a3c4c;}.cls-25{fill:#cc4b28;}.cls-26{clip-path:url(#clip-path);}.cls-27{clip-path:url(#clip-path-2);}</style><clipPath id="clip-path"><rect class="cls-1" x="780.21" y="210.08" width="67" height="117"/></clipPath><clipPath id="clip-path-2"><rect class="cls-1" x="713.21" y="210.08" width="67" height="117" transform="translate(1493.42 537.17) rotate(-180)"/></clipPath></defs><title>vamonde</title><rect class="cls-2" width="1560" height="482"/><rect class="cls-3" x="0.42" width="273.58" height="482"/><rect class="cls-3" x="1286.42" width="273.58" height="482"/><rect class="cls-4" x="643.42" width="273.58" height="482"/><path class="cls-5" d="M99.19,306.63l3,1.4a39.85,39.85,0,0,1,25.48-21.39l-.87-3.18A43.08,43.08,0,0,0,99.19,306.63Z"/><path class="cls-5" d="M153.22,272.72a33.06,33.06,0,1,0-32,0,52.91,52.91,0,0,0-36.88,50.42,3.31,3.31,0,0,0,6.61,0,46.29,46.29,0,0,1,92.58,0,3.31,3.31,0,0,0,6.61,0A52.91,52.91,0,0,0,153.22,272.72Zm-42.46-28.93a26.45,26.45,0,1,1,26.45,26.45A26.45,26.45,0,0,1,110.76,243.79Z"/><path class="cls-5" d="M1372,309.94l3,1.41A39.77,39.77,0,0,1,1400.44,290l-.87-3.18A43.09,43.09,0,0,0,1372,309.94Z"/><path class="cls-5" d="M1426,276a33.07,33.07,0,1,0-32,0,52.92,52.92,0,0,0-36.89,50.42,3.31,3.31,0,1,0,6.61,0,46.29,46.29,0,0,1,92.58,0,3.31,3.31,0,1,0,6.61,0A52.92,52.92,0,0,0,1426,276Zm-42.47-28.93A26.45,26.45,0,1,1,1410,273.55,26.45,26.45,0,0,1,1383.53,247.1Z"/><path class="cls-5" d="M1489.33,309.76v-.07a49.61,49.61,0,0,0-34.32-47,29.75,29.75,0,0,0-29-51.92,39.11,39.11,0,0,1,7.25,4.17,23.14,23.14,0,0,1,14.63,43.87,39.82,39.82,0,0,1-3.68,8.33,43,43,0,0,1,38.52,42.77,3.31,3.31,0,0,0,6.61,0v-.16Z"/><path d="M477.51,348.78h-6.06l-2.82-3.69a4,4,0,0,0-3.21-1.56h-8.06a4.06,4.06,0,0,0-3.21,1.6l-2.83,3.78H439.9a4,4,0,0,0-4,4h0v24.17a4,4,0,0,0,4,4l41.64-.09V352.84a4,4,0,0,0-4-4Zm1.35,29.56-39,.12a1.34,1.34,0,0,1-1.34-1.35h0V352.94a1.34,1.34,0,0,1,1.34-1.35h12.76l3.63-4.79a1.33,1.33,0,0,1,1.07-.54h8.06a1.36,1.36,0,0,1,1.07.52l3.62,4.75h7.4a1.35,1.35,0,0,1,1.35,1.34v25.47Z"/><path d="M461.39,352.94a10.75,10.75,0,1,0,10.75,10.74,10.74,10.74,0,0,0-10.75-10.74Zm0,18.8a8.06,8.06,0,1,1,8.06-8.06,8.06,8.06,0,0,1-8.06,8.06Zm-20.14-17.46h5.37V357h-5.37Z"/><text class="cls-6" transform="translate(44.8 61.15)">Content Creators</text><text class="cls-7" transform="translate(384.81 414.97)">Pictures, Videos</text><text class="cls-7" transform="translate(386.6 229.61)">Thoughts, Ideas</text><text class="cls-8" transform="translate(60.23 391.99)"><tspan class="cls-9">T</tspan><tspan x="10.19" y="0">ourism Bureaus</tspan><tspan x="-6.52" y="25.2">Cultu</tspan><tspan class="cls-10" x="44.43" y="25.2">r</tspan><tspan class="cls-11" x="52.49" y="25.2">al Institutes</tspan><tspan class="cls-12"><tspan x="-33.11" y="50.4">T</tspan><tspan class="cls-13" x="-22.4" y="50.4">r</tspan><tspan class="cls-14" x="-14.33" y="50.4">a</tspan><tspan class="cls-15" x="-4.02" y="50.4">v</tspan><tspan class="cls-11" x="6.46" y="50.4">el Writers/Bloggers</tspan></tspan></text><text class="cls-6" transform="translate(709.34 80.93)">Creation <tspan class="cls-16" x="97.27" y="0">T</tspan><tspan x="108.91" y="0">ool</tspan></text><text class="cls-6" transform="translate(1041.13 78.93)">Mobile App</text><text class="cls-8" transform="translate(1380.95 404.59)"><tspan class="cls-17">T</tspan><tspan class="cls-13" x="10.71" y="0">r</tspan><tspan class="cls-18" x="18.77" y="0">a</tspan><tspan class="cls-15" x="29.08" y="0">v</tspan><tspan x="39.56" y="0">elers</tspan><tspan x="-23.17" y="25.2">City Explorers</tspan></text><line class="cls-19" x1="45.72" y1="81.2" x2="228.69" y2="81.2"/><text class="cls-6" transform="translate(412.39 61.15)">Creation</text><line class="cls-19" x1="413.07" y1="81.19" x2="504.35" y2="81.19"/><line class="cls-20" x1="883.51" y1="268.58" x2="997.39" y2="268.58"/><polygon class="cls-21" points="990.76 276.76 989.4 275.3 996.62 268.58 989.4 261.87 990.76 260.41 999.56 268.58 990.76 276.76"/><line class="cls-20" x1="249.5" y1="248.4" x2="348.12" y2="191.46"/><polygon class="cls-21" points="346.47 201.86 344.56 201.27 347.46 191.85 337.85 189.64 338.3 187.69 350 190.38 346.47 201.86"/><line class="cls-20" x1="249.5" y1="288.47" x2="348.12" y2="345.41"/><polygon class="cls-21" points="338.3 349.18 337.85 347.23 347.46 345.02 344.56 335.6 346.47 335.01 350 346.49 338.3 349.18"/><line class="cls-20" x1="567.73" y1="346.49" x2="666.35" y2="289.55"/><polygon class="cls-21" points="664.7 299.95 662.79 299.36 665.69 289.94 656.08 287.73 656.52 285.78 668.23 288.47 664.7 299.95"/><line class="cls-20" x1="567.73" y1="190.38" x2="666.35" y2="247.32"/><polygon class="cls-21" points="656.52 251.09 656.08 249.14 665.69 246.93 662.79 237.51 664.7 236.92 668.23 248.4 656.52 251.09"/><line class="cls-20" x1="1200.95" y1="268.58" x2="1314.83" y2="268.58"/><polygon class="cls-21" points="1308.2 276.76 1306.84 275.3 1314.06 268.58 1306.84 261.87 1308.2 260.41 1317 268.58 1308.2 276.76"/><text class="cls-8" transform="translate(760.53 404.59)">B2B<tspan class="cls-18"><tspan x="-44.82" y="25.2">W</tspan><tspan class="cls-22" x="-23.76" y="25.2">eb Platform</tspan></tspan></text><text class="cls-23" transform="translate(1081.63 404.59)">B2C<tspan x="-54.77" y="25.2">Mobile Platform</tspan></text><line class="cls-19" x1="712" y1="101.23" x2="848.42" y2="101.23"/><line class="cls-19" x1="1033.5" y1="101.23" x2="1169.92" y2="101.23"/><text class="cls-6" transform="translate(1311.33 61.15)">Consumers / Readers</text><line class="cls-19" x1="1313.36" y1="82.7" x2="1533.06" y2="82.7"/><path d="M458.71,143.32a21.08,21.08,0,0,0-8.6,40.48v4.88a6.37,6.37,0,0,0,6.35,6.36H461a6.38,6.38,0,0,0,6.36-6.36V183.8a21.08,21.08,0,0,0-8.6-40.48Zm5.67,45.37a3.43,3.43,0,0,1-3.43,3.42h-4.49a3.42,3.42,0,0,1-3.42-3.42v-3.86a21.81,21.81,0,0,0,11.34,0v3.86Zm1.2-7.34a1.42,1.42,0,0,0-.48.19,18.92,18.92,0,0,1-12.77,0,1.47,1.47,0,0,0-.49-.19,18.51,18.51,0,1,1,13.74,0Zm-1.34-17.67a1.46,1.46,0,0,1,.06,1.42L460,173.67a1.47,1.47,0,1,1-2.64-1.28l0,0,3.22-6.44h-6.19a1.45,1.45,0,0,1-1.46-1.45,1.43,1.43,0,0,1,.15-.67l4.28-8.56a1.46,1.46,0,0,1,2.62,1.31L456.8,163H463A1.47,1.47,0,0,1,464.24,163.68Z"/><polygon class="cls-24" points="731.26 32.25 734.56 32.25 737.61 44.75 740.76 32.25 744.01 32.25 739.51 49.65 735.76 49.65 731.26 32.25"/><path class="cls-24" d="M750.56,32.25h-4.25l-4.4,17.4h3.3l1-3.6h4.5l.9,3.6h3.2Zm-3.8,11v-.2h0l1.6-6.9,1.65,6.9h-3.25Z"/><polygon class="cls-24" points="756.26 32.25 756.26 49.65 759.26 49.65 759.26 36.2 762.76 49.65 765.36 49.65 768.81 36.15 768.81 49.65 771.76 49.65 771.76 32.25 767.16 32.25 764.01 43.7 760.96 32.25 756.26 32.25"/><path class="cls-24" d="M782.51,31.7a9.15,9.15,0,1,0,9.25,9.15A9.21,9.21,0,0,0,782.51,31.7Zm0,15.45a6.36,6.36,0,1,1,6-6.35A6.2,6.2,0,0,1,782.51,47.15Z"/><polygon class="cls-24" points="796.21 49.65 793.26 49.65 793.26 32.25 797.01 32.25 801.46 42.45 801.46 32.25 804.61 32.25 804.61 49.65 801.46 49.65 796.26 38.6 796.21 49.65"/><path class="cls-24" d="M812.06,32.25h-5.2V50h5.6c1.8,0,5.1-1.75,5.1-6.2V37.6A5.39,5.39,0,0,0,812.06,32.25Zm2.1,11.45c0,2.25-1.3,3.15-2.25,3.15h-1.75V35c3.7,0,4,1.25,4,3.3Z"/><polygon class="cls-24" points="819.76 32.25 819.76 49.65 829.16 49.65 829.16 46.75 823.16 46.75 823.16 42.3 827.51 42.3 827.51 39.25 823.11 39.25 823.11 35.25 828.81 35.25 828.81 32.25 819.76 32.25"/><path class="cls-24" d="M785.16,19.3h-.25l-3.4.85a.61.61,0,0,0-.45.4.63.63,0,0,0,.05.6l5,7.6-2.35.6a.59.59,0,0,0-.5.6l-.7,10.6a.64.64,0,0,0,.25.55.66.66,0,0,0,.6.15l3.1-.75s.1,0,.15,0h0c.05-.05.1-.05.15-.1h0l14-13.85h0c0-.05,0-.1.1-.15V26.3a0,0,0,0,1,0-.05V25.8h0c0-.05,0-.1,0-.15h0s-.05,0-.05-.1h0l-.1-.1h-.05a.18.18,0,0,0-.15-.05h0l-15.2-6h0C785.21,19.3,785.21,19.3,785.16,19.3Z"/><polygon class="cls-25" points="790.11 28.15 787.31 28.85 782.11 21 784.91 20.3 790.11 28.15"/><polygon class="cls-25" points="799.26 25.9 790.71 28 785.86 20.6 799.26 25.9"/><polygon class="cls-2" points="786.06 39.6 783.56 40.2 784.21 30.25 786.71 29.65 786.06 39.6"/><polygon class="cls-2" points="786.71 39.05 787.31 29.5 799.41 26.5 786.71 39.05"/><polygon class="cls-24" points="1052.76 30.25 1056.06 30.25 1059.11 42.75 1062.26 30.25 1065.51 30.25 1061.01 47.65 1057.26 47.65 1052.76 30.25"/><path class="cls-24" d="M1072.06,30.25h-4.25l-4.4,17.4h3.3l1-3.6h4.5l.9,3.6h3.2Zm-3.8,11v-.2h0l1.6-6.9,1.65,6.9h-3.25Z"/><polygon class="cls-24" points="1077.76 30.25 1077.76 47.65 1080.76 47.65 1080.76 34.2 1084.26 47.65 1086.86 47.65 1090.31 34.15 1090.31 47.65 1093.26 47.65 1093.26 30.25 1088.66 30.25 1085.51 41.7 1082.46 30.25 1077.76 30.25"/><path class="cls-24" d="M1104,29.7a9.15,9.15,0,1,0,9.25,9.15A9.21,9.21,0,0,0,1104,29.7Zm0,15.45a6.36,6.36,0,1,1,6-6.35A6.2,6.2,0,0,1,1104,45.15Z"/><polygon class="cls-24" points="1117.71 47.65 1114.76 47.65 1114.76 30.25 1118.51 30.25 1122.96 40.45 1122.96 30.25 1126.11 30.25 1126.11 47.65 1122.96 47.65 1117.76 36.6 1117.71 47.65"/><path class="cls-24" d="M1133.56,30.25h-5.2V48h5.6c1.8,0,5.1-1.75,5.1-6.2V35.6A5.39,5.39,0,0,0,1133.56,30.25Zm2.1,11.45c0,2.25-1.3,3.15-2.25,3.15h-1.75V33c3.7,0,4,1.25,4,3.3Z"/><polygon class="cls-24" points="1141.26 30.25 1141.26 47.65 1150.66 47.65 1150.66 44.75 1144.66 44.75 1144.66 40.3 1149.01 40.3 1149.01 37.25 1144.61 37.25 1144.61 33.25 1150.31 33.25 1150.31 30.25 1141.26 30.25"/><path class="cls-24" d="M1106.66,17.3h-.25l-3.4.85a.61.61,0,0,0-.45.4.63.63,0,0,0,0,.6l5,7.6-2.35.6a.59.59,0,0,0-.5.6l-.7,10.6a.64.64,0,0,0,.25.55.66.66,0,0,0,.6.15l3.1-.75s.1,0,.15,0h0c0-.05.1-.05.15-.1h0l14-13.85h0c0-.05,0-.1.1-.15V24.3a0,0,0,0,1,.05-.05V23.8h0c0-.05-.05-.1-.05-.15h0s0,0,0-.1h0l-.1-.1h0a.18.18,0,0,0-.15-.05h0l-15.2-6h0C1106.71,17.3,1106.71,17.3,1106.66,17.3Z"/><polygon class="cls-25" points="1111.61 26.15 1108.81 26.85 1103.61 19 1106.41 18.3 1111.61 26.15"/><polygon class="cls-25" points="1120.76 23.9 1112.21 26 1107.36 18.6 1120.76 23.9"/><polygon class="cls-2" points="1107.56 37.6 1105.06 38.2 1105.71 28.25 1108.21 27.65 1107.56 37.6"/><polygon class="cls-2" points="1108.21 37.05 1108.81 27.5 1120.91 24.5 1108.21 37.05"/><path d="M1122.48,228.1h-41.56c-3.15,0-5.71,2.84-5.71,6.35v68.25c0,3.52,2.56,6.36,5.71,6.36h41.56c3.16,0,5.71-2.84,5.71-6.35V234.45C1128.19,230.94,1125.64,228.1,1122.48,228.1Zm-26.12,5h10.49a.93.93,0,1,1,0,1.85h-10.49a.93.93,0,0,1,0-1.86Zm5.21,72.13a2.45,2.45,0,1,1,2.45-2.45A2.45,2.45,0,0,1,1101.57,305.18Zm22.22-6.27h-44.3V238h44.3v60.88Z"/><rect class="cls-24" x="1079.71" y="238.44" width="44" height="60"/><path class="cls-2" d="M1123.21,238.94v59h-43v-59h43m1-1h-45v61h45v-61Z"/><path class="cls-24" d="M1095.91,257.24h-.25l-3.4.85a.61.61,0,0,0-.45.4.63.63,0,0,0,0,.6l5,7.6-2.35.6a.59.59,0,0,0-.5.6l-.7,10.6a.64.64,0,0,0,.25.55.66.66,0,0,0,.6.15l3.1-.75s.1-.05.15-.05h0c0-.05.1-.05.15-.1h0l14-13.85h0c0-.05,0-.1.1-.15v-.05a0,0,0,0,1,.05-.05v-.45h0c0-.05-.05-.1-.05-.15h0s0,0,0-.1h0l-.1-.1h0a.18.18,0,0,0-.15-.05h0l-15.2-6h0C1096,257.24,1096,257.24,1095.91,257.24Z"/><polygon class="cls-25" points="1100.86 266.09 1098.06 266.79 1092.86 258.94 1095.66 258.24 1100.86 266.09"/><polygon class="cls-25" points="1110.01 263.84 1101.46 265.94 1096.61 258.54 1110.01 263.84"/><polygon class="cls-2" points="1096.81 277.54 1094.31 278.14 1094.96 268.19 1097.46 267.59 1096.81 277.54"/><polygon class="cls-2" points="1097.46 276.99 1098.06 267.44 1110.16 264.44 1097.46 276.99"/><g class="cls-26"><path d="M811,320.26H793.63v-4.44a1.94,1.94,0,0,0-2-1.94H769.87a1.94,1.94,0,0,0-2,1.94h0v4.44h-12.8a1.94,1.94,0,0,0-1.94,1.94h0v3.26a1.94,1.94,0,0,0,1.94,1.94H811a1.94,1.94,0,0,0,1.94-1.94h0v-3.25a2,2,0,0,0-2-1.95h0Zm28.15-109.7-118.86,0a7.74,7.74,0,0,0-7.76,7.74v22.8h6.21V217.37a1,1,0,0,1,.94-1H840.53a.94.94,0,0,1,1,.94v73.13a1,1,0,0,1-.94,1H753.18V308.5h86a7.76,7.76,0,0,0,7.76-7.74V218.32a7.76,7.76,0,0,0-7.74-7.76ZM780,301.84a3.44,3.44,0,1,1-.36-6.88H780a3.44,3.44,0,0,1,0,6.88Z"/></g><g class="cls-27"><path d="M749.4,320.26h0a1.94,1.94,0,0,0-1.94,1.95v3.25h0a1.94,1.94,0,0,0,1.94,1.94h55.89a1.94,1.94,0,0,0,1.94-1.94v-3.26h0a1.94,1.94,0,0,0-1.94-1.94h-12.8v-4.44h0a1.94,1.94,0,0,0-1.94-1.94H768.73a1.94,1.94,0,0,0-1.94,1.94v4.44H749.4Zm-28.17-109.7a7.75,7.75,0,0,0-7.74,7.76v82.43a7.74,7.74,0,0,0,7.75,7.74h86V291.43H719.86a1,1,0,0,1-1-1V217.33a1,1,0,0,1,1-.94H840.71a1,1,0,0,1,.95,1v23.75h6.2v-22.8a7.75,7.75,0,0,0-7.76-7.74l-118.86,0Zm55.94,88a3.45,3.45,0,0,1,3.26-3.62h.37a3.44,3.44,0,1,1-3.63,3.62Z"/></g><rect class="cls-24" x="719.5" y="216.58" width="122" height="75"/><path class="cls-2" d="M841,217.08v74H720v-74H841m1-1H719v76H842v-76Z"/><path class="cls-24" d="M778,243.38h-.25l-3.4.85a.61.61,0,0,0-.45.4.63.63,0,0,0,.05.6l5,7.6-2.35.6a.59.59,0,0,0-.5.6l-.7,10.6a.64.64,0,0,0,.25.55.66.66,0,0,0,.6.15l3.1-.75s.1-.05.15-.05h0s.1,0,.15-.1h0l14-13.85h0c0-.05,0-.1.1-.15v-.05a0,0,0,0,1,0,0v-.45h0s0-.1,0-.15h0s-.05,0-.05-.1h0l-.1-.1h0a.18.18,0,0,0-.15-.05h0l-15.2-6h0C778.05,243.38,778.05,243.38,778,243.38Z"/><polygon class="cls-25" points="782.95 252.23 780.15 252.93 774.95 245.08 777.75 244.38 782.95 252.23"/><polygon class="cls-25" points="792.1 249.98 783.55 252.08 778.7 244.68 792.1 249.98"/><polygon class="cls-2" points="778.9 263.68 776.4 264.28 777.05 254.33 779.55 253.73 778.9 263.68"/><polygon class="cls-2" points="779.55 263.13 780.15 253.58 792.25 250.58 779.55 263.13"/></svg>