<svg id="Layer_1" data-name="Layer 1" xmlns="http://www.w3.org/2000/svg" viewBox="0 0 100 100"><defs><style>.cls-1{fill:#fff;}.cls-2{fill:#393b4b;stroke:#393b4b;stroke-linecap:round;stroke-linejoin:round;stroke-width:2px;}</style></defs><title>vamonde_icon</title><rect class="cls-1" width="100" height="100"/><path class="cls-2" d="M81.51,50.44,50,20.94,18.49,50.35a1.52,1.52,0,1,0,2.08,2.23L50,25.12,79.43,52.67a1.55,1.55,0,0,0,1,.41,1.52,1.52,0,0,0,1-2.64Zm-9.61.61a1.52,1.52,0,0,0-1.53,1.53V76H58.15V59.71H41.85V76H29.63V52.58a1.53,1.53,0,1,0-3.06,0V79.06H44.9V62.76H55.08v16.3H73.41V52.58a1.5,1.5,0,0,0-1.51-1.53ZM61.2,29.15h9.17V37.3a1.54,1.54,0,0,0,3.07,0V26.09H61.2a1.53,1.53,0,0,0,0,3.06Z"/></svg>