<svg id="Layer_1" data-name="Layer 1" xmlns="http://www.w3.org/2000/svg" xmlns:xlink="http://www.w3.org/1999/xlink" viewBox="0 0 527 556"><defs><style>.cls-1,.cls-2,.cls-21{fill:none;}.cls-1{clip-rule:evenodd;}.cls-2{fill-rule:evenodd;}.cls-3{clip-path:url(#clip-path);}.cls-4{clip-path:url(#clip-path-5);}.cls-5{clip-path:url(#clip-path-6);}.cls-6{clip-path:url(#clip-path-10);}.cls-7{clip-path:url(#clip-path-14);}.cls-8{clip-path:url(#clip-path-18);}.cls-17,.cls-19,.cls-22,.cls-24,.cls-9{fill:#fff;}.cls-10,.cls-11,.cls-12,.cls-23{fill:#cc4b00;}.cls-10{opacity:0.3;}.cls-11{opacity:0.6;}.cls-12{opacity:0.1;}.cls-13{font-size:18px;}.cls-13,.cls-16{font-family:Lato-Regular, Lato;}.cls-14{letter-spacing:-0.03em;}.cls-15{letter-spacing:0em;}.cls-16{font-size:48px;}.cls-16,.cls-20{fill:#79818f;}.cls-17,.cls-19,.cls-21,.cls-22{stroke:#79818f;stroke-miterlimit:10;}.cls-17{stroke-width:2px;}.cls-18{fill:#d0d5dd;}.cls-19{stroke-width:6px;}.cls-24{font-size:13.68px;font-family:Lato-Bold, Lato;font-weight:700;}</style><clipPath id="clip-path"><path class="cls-1" d="M-988,775.9a8.74,8.74,0,0,1,8.75-8.72h113.5A8.75,8.75,0,0,1-857,775.9v214a8.73,8.73,0,0,1-8.75,8.72h-113.5a8.75,8.75,0,0,1-8.75-8.72Z"/></clipPath><clipPath id="clip-path-5"><path class="cls-1" d="M-1580.66,775.9c0-4.81,10.64-8.72,23.75-8.72h308.16c13.12,0,23.75,3.92,23.75,8.72v214c0,4.82-10.64,8.72-23.75,8.72h-308.16c-13.12,0-23.75-3.92-23.75-8.72Z"/></clipPath><clipPath id="clip-path-6"><path class="cls-1" d="M-2346,773.72a8.73,8.73,0,0,1,8.75-8.72h113.5a8.75,8.75,0,0,1,8.75,8.72v214a8.74,8.74,0,0,1-8.75,8.72h-113.5a8.75,8.75,0,0,1-8.75-8.72Z"/></clipPath><clipPath id="clip-path-10"><path class="cls-1" d="M-1996.67,773.72a8.73,8.73,0,0,1,8.74-8.72h113.51a8.74,8.74,0,0,1,8.74,8.72v214a8.74,8.74,0,0,1-8.74,8.72h-113.51a8.74,8.74,0,0,1-8.74-8.72Z"/></clipPath><clipPath id="clip-path-14"><path class="cls-1" d="M-1822,773.72a8.73,8.73,0,0,1,8.75-8.72h113.5a8.75,8.75,0,0,1,8.75,8.72v214a8.75,8.75,0,0,1-8.75,8.72h-113.5a8.74,8.74,0,0,1-8.75-8.72Z"/></clipPath><clipPath id="clip-path-18"><path class="cls-1" d="M-2171.34,773.72a8.73,8.73,0,0,1,8.75-8.72h113.5a8.75,8.75,0,0,1,8.75,8.72v214a8.74,8.74,0,0,1-8.75,8.72h-113.5a8.75,8.75,0,0,1-8.75-8.72Z"/></clipPath></defs><title>vamonde</title><rect class="cls-9" width="527" height="556" rx="12"/><rect class="cls-10" x="177" y="174" width="320" height="112" rx="8"/><rect class="cls-11" x="177" y="19" width="320" height="115" rx="8"/><rect class="cls-12" x="177" y="312" width="320" height="225" rx="8"/><text class="cls-13" transform="translate(28.84 49.15)">A<tspan class="cls-14" x="12.24" y="0">D</tspan><tspan class="cls-15" x="25.33" y="0">VENTURE</tspan></text><text class="cls-13" transform="translate(90.76 201.15)">POST</text><text class="cls-16" transform="translate(454.84 232.15)">...</text><text class="cls-16" transform="translate(454.84 423.15)">...</text><rect class="cls-17" x="185" y="26" width="61" height="101" rx="8"/><rect class="cls-18" x="193" y="49" width="45" height="39" rx="4"/><line class="cls-19" x1="193" y1="101" x2="238" y2="101"/><line class="cls-19" x1="193" y1="114" x2="224.22" y2="114"/><line class="cls-19" x1="224" y1="38.16" x2="238.22" y2="38.16"/><circle class="cls-20" cx="198" cy="38" r="5"/><rect class="cls-17" x="184" y="180" width="61" height="101" rx="8"/><rect class="cls-18" x="192" y="190" width="45" height="52" rx="4"/><line class="cls-19" x1="192" y1="255" x2="237" y2="255"/><line class="cls-19" x1="192" y1="268" x2="223.22" y2="268"/><rect class="cls-17" x="184" y="318" width="61" height="211" rx="8"/><rect class="cls-18" x="192" y="371" width="45" height="27" rx="4"/><rect class="cls-18" x="192" y="437" width="27" height="27" rx="4"/><rect class="cls-18" x="222" y="437" width="15" height="12" rx="4"/><rect class="cls-18" x="222" y="452" width="15" height="12" rx="4"/><line class="cls-19" x1="192" y1="331" x2="237" y2="331"/><line class="cls-19" x1="192" y1="344" x2="237" y2="344"/><line class="cls-19" x1="192" y1="357" x2="223.22" y2="357"/><line class="cls-19" x1="192" y1="489" x2="237" y2="489"/><line class="cls-19" x1="192" y1="476" x2="237" y2="476"/><line class="cls-19" x1="192" y1="502" x2="237" y2="502"/><line class="cls-19" x1="192" y1="515" x2="223.22" y2="515"/><line class="cls-19" x1="192" y1="411" x2="237" y2="411"/><line class="cls-19" x1="192" y1="424" x2="223.22" y2="424"/><rect class="cls-17" x="273" y="180" width="61" height="101" rx="8"/><rect class="cls-18" x="281" y="190" width="45" height="52" rx="4"/><line class="cls-19" x1="281" y1="255" x2="326" y2="255"/><line class="cls-19" x1="281" y1="268" x2="312.22" y2="268"/><rect class="cls-17" x="273" y="318" width="61" height="211" rx="8"/><rect class="cls-18" x="281" y="371" width="45" height="27" rx="4"/><rect class="cls-18" x="281" y="437" width="27" height="27" rx="4"/><rect class="cls-18" x="311" y="437" width="15" height="12" rx="4"/><rect class="cls-18" x="311" y="452" width="15" height="12" rx="4"/><line class="cls-19" x1="281" y1="331" x2="326" y2="331"/><line class="cls-19" x1="281" y1="344" x2="326" y2="344"/><line class="cls-19" x1="281" y1="357" x2="312.22" y2="357"/><line class="cls-19" x1="281" y1="489" x2="326" y2="489"/><line class="cls-19" x1="281" y1="476" x2="326" y2="476"/><line class="cls-19" x1="281" y1="502" x2="326" y2="502"/><line class="cls-19" x1="281" y1="515" x2="312.22" y2="515"/><line class="cls-19" x1="281" y1="411" x2="326" y2="411"/><line class="cls-19" x1="281" y1="424" x2="312.22" y2="424"/><rect class="cls-17" x="360" y="180" width="61" height="101" rx="8"/><rect class="cls-18" x="368" y="190" width="45" height="52" rx="4"/><line class="cls-19" x1="368" y1="255" x2="413" y2="255"/><line class="cls-19" x1="368" y1="268" x2="399.22" y2="268"/><rect class="cls-17" x="360" y="318" width="61" height="211" rx="8"/><rect class="cls-18" x="368" y="371" width="45" height="27" rx="4"/><rect class="cls-18" x="368" y="437" width="27" height="27" rx="4"/><rect class="cls-18" x="398" y="437" width="15" height="12" rx="4"/><rect class="cls-18" x="398" y="452" width="15" height="12" rx="4"/><line class="cls-19" x1="368" y1="331" x2="413" y2="331"/><line class="cls-19" x1="368" y1="344" x2="413" y2="344"/><line class="cls-19" x1="368" y1="357" x2="399.22" y2="357"/><line class="cls-19" x1="368" y1="489" x2="413" y2="489"/><line class="cls-19" x1="368" y1="476" x2="413" y2="476"/><line class="cls-19" x1="368" y1="502" x2="413" y2="502"/><line class="cls-19" x1="368" y1="515" x2="399.22" y2="515"/><line class="cls-19" x1="368" y1="411" x2="413" y2="411"/><line class="cls-19" x1="368" y1="424" x2="399.22" y2="424"/><polyline class="cls-21" points="213 170 213 154 471 154 471 170"/><line class="cls-22" x1="213.5" y1="153.5" x2="213.5" y2="138.5"/><line class="cls-22" x1="213.5" y1="307" x2="213.5" y2="291"/><line class="cls-22" x1="303.5" y1="307" x2="303.5" y2="291"/><line class="cls-22" x1="390.5" y1="307" x2="390.5" y2="291"/><line class="cls-22" x1="303.5" y1="169" x2="303.5" y2="154"/><line class="cls-22" x1="390.5" y1="169" x2="390.5" y2="154"/><circle class="cls-23" cx="163.5" cy="35.5" r="9.5"/><text class="cls-24" transform="translate(159.2 40.55)">1</text><circle class="cls-23" cx="163.5" cy="189.5" r="9.5"/><text class="cls-24" transform="translate(159.2 194.55)">2</text><circle class="cls-23" cx="163.5" cy="327.5" r="9.5"/><text class="cls-24" transform="translate(159.2 332.55)">3</text><path class="cls-23" d="M164.92,69.89c.43,14.59.63,29.18,1,43.77.24,7.3.44,14.59.17,21.88s-.58,14.59-1.26,21.89h-1.39c-.68-7.3-1.06-14.59-1.26-21.89s-.07-14.58.17-21.88c.39-14.59.59-29.18,1-43.77Z"/><polygon class="cls-9" points="152.26 51.96 164.22 72.05 176.19 51.96 152.26 51.96"/><path class="cls-23" d="M150.14,50.76,164.22,74.4,178.3,50.76ZM164.22,69.7l-9.85-16.54h19.71Z"/><polygon class="cls-23" points="157.37 149.46 164.16 156.25 170.94 149.46 170.94 155.22 164.16 162 157.37 155.22 157.37 149.46"/><path class="cls-23" d="M164.87,209c.3,6.37.5,12.74.76,19.11l.57,19.1.33,9.56c.14,3.18.26,6.37.21,9.55-.11,6.37-.48,12.74-1.22,19.11h-1.7c-.74-6.37-1.11-12.74-1.22-19.11,0-3.18.06-6.37.21-9.55l.33-9.56.57-19.1c.25-6.37.46-12.74.76-19.11Z"/><polygon class="cls-23" points="157.89 277.46 164.67 284.25 171.45 277.46 171.45 283.22 164.67 290 157.89 283.22 157.89 277.46"/><path class="cls-23" d="M165.29,348l.72,37.44.56,37.45.29,18.72c.12,6.24.25,12.48.3,18.72s0,12.48-.2,18.72-.35,12.49-.61,18.73h-2.52c-.26-6.24-.49-12.49-.61-18.73s-.24-12.48-.2-18.72.18-12.48.3-18.72l.29-18.72.56-37.45.72-37.44Z"/><polygon class="cls-23" points="153.12 494.27 165.09 515 177.06 494.27 153.12 494.27"/><path class="cls-23" d="M252.2,268,258,300.72l5.65,32.78,2.89,16.38c1,5.46,1.9,10.93,2.67,16.42,1.51,11,2.83,22,3.66,33.09l-1.21.19c-2.56-10.83-4.63-21.73-6.5-32.66-.92-5.46-1.7-10.95-2.4-16.45L260.61,334l-4.5-33-4.31-33Z"/><polygon class="cls-23" points="264.38 392.64 272.12 398.31 277.79 390.57 278.67 396.26 273 404 265.26 398.33 264.38 392.64"/><path class="cls-23" d="M329.87,311.84,356,289.71l26.24-22c8.78-7.28,17.34-14.85,26.31-21.91s18.09-13.91,27.52-20.4l.76.93c-8.32,7.86-16.95,15.34-25.71,22.66s-18,14.08-26.92,21.15l-27,21.08-27.09,20.93Z"/><polygon class="cls-23" points="434.52 236.16 435.53 226.62 425.99 225.62 430.46 221.99 440 223 438.99 232.54 434.52 236.16"/><path class="cls-23" d="M412.85,318.13l-40.12-46.37-40-46.5c-13.29-15.52-26.85-30.82-39.86-46.58s-25.86-31.66-38.3-47.9l.67-.57c13.91,15,27.4,30.36,40.73,45.85s26.12,31.44,39.17,47.17l39.06,47.26,38.91,47.38Z"/><polygon class="cls-23" points="265.27 132.22 255.71 131.4 254.9 140.96 251.19 136.56 252 127 261.56 127.81 265.27 132.22"/><path class="cls-23" d="M260.06,113.81,309,129.21l48.86,15.58c16.27,5.23,32.64,10.14,48.81,15.7s32.25,11.34,48.17,17.62l-.3.9c-16.52-4.48-32.87-9.47-49.15-14.66s-32.35-11-48.53-16.58l-48.47-16.7-48.42-16.88Z"/><polygon class="cls-23" points="444.96 182.49 453.54 178.19 449.23 169.62 454.7 171.43 459 180 450.43 184.3 444.96 182.49"/><path class="cls-23" d="M360,188.2c-8.58,1.34-17.18,2.58-25.77,3.87l-25.8,3.7-12.89,1.89c-4.29.67-8.59,1.27-12.91,1.73-8.64.86-17.31,1.55-26,1.77l-.17-1.41c8.53-1.86,17.11-3.25,25.71-4.46,4.3-.57,8.62-1,12.95-1.38l13-1.22L334,190.15c8.65-.78,17.3-1.61,26-2.35Z"/><polygon class="cls-23" points="263.64 192.77 257.71 200.31 265.26 206.23 259.54 206.92 252 201 257.92 193.46 263.64 192.77"/><text class="cls-13" transform="translate(50.67 339.15)">CONTENT</text></svg>