<svg id="Layer_1" data-name="Layer 1" xmlns="http://www.w3.org/2000/svg" xmlns:xlink="http://www.w3.org/1999/xlink" viewBox="0 0 527 556"><defs><style>.cls-1,.cls-19,.cls-2{fill:none;}.cls-1{clip-rule:evenodd;}.cls-2{fill-rule:evenodd;}.cls-15,.cls-17,.cls-20,.cls-3{fill:#fff;}.cls-4{font-size:18px;}.cls-14,.cls-4{font-family:Lato-Regular, Lato;}.cls-5{letter-spacing:-0.03em;}.cls-6{letter-spacing:0em;}.cls-7{clip-path:url(#clip-path);}.cls-8{clip-path:url(#clip-path-5);}.cls-9{clip-path:url(#clip-path-8);}.cls-10{clip-path:url(#clip-path-9);}.cls-11{clip-path:url(#clip-path-13);}.cls-12{clip-path:url(#clip-path-17);}.cls-13{clip-path:url(#clip-path-21);}.cls-14{font-size:48px;}.cls-14,.cls-18{fill:#79818f;}.cls-15,.cls-17,.cls-19,.cls-20{stroke:#79818f;stroke-miterlimit:10;}.cls-15{stroke-width:2px;}.cls-16{fill:#d0d5dd;}.cls-17{stroke-width:6px;}</style><clipPath id="clip-path"><path class="cls-1" d="M1391,775.9a8.74,8.74,0,0,1,8.75-8.72h113.5a8.75,8.75,0,0,1,8.75,8.72v214a8.73,8.73,0,0,1-8.75,8.72h-113.5a8.75,8.75,0,0,1-8.75-8.72Z"/></clipPath><clipPath id="clip-path-5"><path class="cls-1" d="M798.34,775.9a8.74,8.74,0,0,1,8.75-8.72h113.5a8.75,8.75,0,0,1,8.75,8.72v214a8.73,8.73,0,0,1-8.75,8.72H807.09a8.75,8.75,0,0,1-8.75-8.72Z"/></clipPath><clipPath id="clip-path-8"><path class="cls-1" d="M798.34,775.9c0-4.81,10.64-8.72,23.75-8.72h308.16c13.12,0,23.75,3.92,23.75,8.72v214c0,4.82-10.64,8.72-23.75,8.72H822.09c-13.12,0-23.75-3.92-23.75-8.72Z"/></clipPath><clipPath id="clip-path-9"><path class="cls-1" d="M33,773.72A8.73,8.73,0,0,1,41.75,765h113.5a8.75,8.75,0,0,1,8.75,8.72v214a8.74,8.74,0,0,1-8.75,8.72H41.75A8.75,8.75,0,0,1,33,987.71Z"/></clipPath><clipPath id="clip-path-13"><path class="cls-1" d="M382.33,773.72a8.73,8.73,0,0,1,8.74-8.72H504.58a8.74,8.74,0,0,1,8.74,8.72v214a8.74,8.74,0,0,1-8.74,8.72H391.07a8.74,8.74,0,0,1-8.74-8.72Z"/></clipPath><clipPath id="clip-path-17"><path class="cls-1" d="M557,773.72a8.73,8.73,0,0,1,8.75-8.72h113.5a8.75,8.75,0,0,1,8.75,8.72v214a8.75,8.75,0,0,1-8.75,8.72H565.74a8.74,8.74,0,0,1-8.75-8.72Z"/></clipPath><clipPath id="clip-path-21"><path class="cls-1" d="M207.66,773.72a8.73,8.73,0,0,1,8.75-8.72h113.5a8.75,8.75,0,0,1,8.75,8.72v214a8.74,8.74,0,0,1-8.75,8.72H216.41a8.75,8.75,0,0,1-8.75-8.72Z"/></clipPath></defs><title>vamonde</title><rect class="cls-3" width="527" height="556" rx="12"/><text class="cls-4" transform="translate(19.84 46.15)">A<tspan class="cls-5" x="12.24" y="0">D</tspan><tspan class="cls-6" x="25.33" y="0">VENTURE</tspan></text><text class="cls-4" transform="translate(81.76 198.15)">POST</text><text class="cls-14" transform="translate(462.84 229.15)">...</text><text class="cls-14" transform="translate(462.84 420.15)">...</text><rect class="cls-15" x="176" y="23" width="61" height="101" rx="8"/><rect class="cls-16" x="184" y="46" width="45" height="39" rx="4"/><line class="cls-17" x1="184" y1="98" x2="229" y2="98"/><line class="cls-17" x1="184" y1="111" x2="215.22" y2="111"/><line class="cls-17" x1="215" y1="35.16" x2="229.22" y2="35.16"/><circle class="cls-18" cx="189" cy="35" r="5"/><rect class="cls-15" x="175" y="177" width="61" height="101" rx="8"/><rect class="cls-16" x="183" y="187" width="45" height="52" rx="4"/><line class="cls-17" x1="183" y1="252" x2="228" y2="252"/><line class="cls-17" x1="183" y1="265" x2="214.22" y2="265"/><rect class="cls-15" x="175" y="315" width="61" height="211" rx="8"/><rect class="cls-16" x="183" y="368" width="45" height="27" rx="4"/><rect class="cls-16" x="183" y="434" width="27" height="27" rx="4"/><rect class="cls-16" x="213" y="434" width="15" height="12" rx="4"/><rect class="cls-16" x="213" y="449" width="15" height="12" rx="4"/><line class="cls-17" x1="183" y1="328" x2="228" y2="328"/><line class="cls-17" x1="183" y1="341" x2="228" y2="341"/><line class="cls-17" x1="183" y1="354" x2="214.22" y2="354"/><line class="cls-17" x1="183" y1="486" x2="228" y2="486"/><line class="cls-17" x1="183" y1="473" x2="228" y2="473"/><line class="cls-17" x1="183" y1="499" x2="228" y2="499"/><line class="cls-17" x1="183" y1="512" x2="214.22" y2="512"/><line class="cls-17" x1="183" y1="408" x2="228" y2="408"/><line class="cls-17" x1="183" y1="421" x2="214.22" y2="421"/><rect class="cls-15" x="281" y="177" width="61" height="101" rx="8"/><rect class="cls-16" x="289" y="187" width="45" height="52" rx="4"/><line class="cls-17" x1="289" y1="252" x2="334" y2="252"/><line class="cls-17" x1="289" y1="265" x2="320.22" y2="265"/><rect class="cls-15" x="281" y="315" width="61" height="211" rx="8"/><rect class="cls-16" x="289" y="368" width="45" height="27" rx="4"/><rect class="cls-16" x="289" y="434" width="27" height="27" rx="4"/><rect class="cls-16" x="319" y="434" width="15" height="12" rx="4"/><rect class="cls-16" x="319" y="449" width="15" height="12" rx="4"/><line class="cls-17" x1="289" y1="328" x2="334" y2="328"/><line class="cls-17" x1="289" y1="341" x2="334" y2="341"/><line class="cls-17" x1="289" y1="354" x2="320.22" y2="354"/><line class="cls-17" x1="289" y1="486" x2="334" y2="486"/><line class="cls-17" x1="289" y1="473" x2="334" y2="473"/><line class="cls-17" x1="289" y1="499" x2="334" y2="499"/><line class="cls-17" x1="289" y1="512" x2="320.22" y2="512"/><line class="cls-17" x1="289" y1="408" x2="334" y2="408"/><line class="cls-17" x1="289" y1="421" x2="320.22" y2="421"/><rect class="cls-15" x="368" y="177" width="61" height="101" rx="8"/><rect class="cls-16" x="376" y="187" width="45" height="52" rx="4"/><line class="cls-17" x1="376" y1="252" x2="421" y2="252"/><line class="cls-17" x1="376" y1="265" x2="407.22" y2="265"/><rect class="cls-15" x="368" y="315" width="61" height="211" rx="8"/><rect class="cls-16" x="376" y="368" width="45" height="27" rx="4"/><rect class="cls-16" x="376" y="434" width="27" height="27" rx="4"/><rect class="cls-16" x="406" y="434" width="15" height="12" rx="4"/><rect class="cls-16" x="406" y="449" width="15" height="12" rx="4"/><line class="cls-17" x1="376" y1="328" x2="421" y2="328"/><line class="cls-17" x1="376" y1="341" x2="421" y2="341"/><line class="cls-17" x1="376" y1="354" x2="407.22" y2="354"/><line class="cls-17" x1="376" y1="486" x2="421" y2="486"/><line class="cls-17" x1="376" y1="473" x2="421" y2="473"/><line class="cls-17" x1="376" y1="499" x2="421" y2="499"/><line class="cls-17" x1="376" y1="512" x2="407.22" y2="512"/><line class="cls-17" x1="376" y1="408" x2="421" y2="408"/><line class="cls-17" x1="376" y1="421" x2="407.22" y2="421"/><polyline class="cls-19" points="204 167 204 151 479 151 479 167"/><line class="cls-20" x1="204.5" y1="150.5" x2="204.5" y2="135.5"/><line class="cls-20" x1="204.5" y1="304" x2="204.5" y2="288"/><line class="cls-20" x1="311.5" y1="304" x2="311.5" y2="288"/><line class="cls-20" x1="398.5" y1="304" x2="398.5" y2="288"/><line class="cls-20" x1="311.5" y1="166" x2="311.5" y2="151"/><line class="cls-20" x1="398.5" y1="166" x2="398.5" y2="151"/><text class="cls-4" transform="translate(41.68 337.15)">CONTENT</text></svg>