<svg id="Layer_1" data-name="Layer 1" xmlns="http://www.w3.org/2000/svg" viewBox="0 0 100 100"><defs><style>.cls-1{fill:#fff;}.cls-2{fill:#393b4b;}</style></defs><title>vamonde_icon</title><rect class="cls-1" width="100" height="100"/><path class="cls-2" d="M76.85,81.76H23.14A5.15,5.15,0,0,1,18,76.62V40.33A5.12,5.12,0,0,1,20.4,36L47.25,19a5.2,5.2,0,0,1,5.5,0L79.6,36A5.12,5.12,0,0,1,82,40.33V76.62A5.16,5.16,0,0,1,76.85,81.76ZM50,23.38l-26.86,17V76.62H76.85V40.33Z"/><path class="cls-2" d="M65.14,69.47A2.57,2.57,0,0,1,62.57,72H37.43a2.57,2.57,0,1,1,0-5.14H62.57A2.57,2.57,0,0,1,65.14,69.47Z"/></svg>